<svg xmlns="http://www.w3.org/2000/svg" xmlns:xlink="http://www.w3.org/1999/xlink" viewBox="0 0 772.336 470.452"><defs><style>.a{fill:#f66f56;opacity:0.48;}.b,.e{fill:#ff7c64;}.b{opacity:0.31;}.c{fill:#342cff;opacity:0.37;}.d{opacity:0.1;fill:url(#a);}.e{opacity:0.17;}.f{fill:#6f6aec;opacity:0.43;}</style><linearGradient id="a" x1="0.5" x2="0.5" y2="1" gradientUnits="objectBoundingBox"><stop offset="0" stop-color="#f66f56"/><stop offset="1" stop-color="#6f6aec"/></linearGradient></defs><g transform="translate(-266.724 -1244.237)"><ellipse class="a" cx="31" cy="27.5" rx="31" ry="27.5" transform="matrix(0.788, 0.616, -0.616, 0.788, 300.585, 1376)"/><ellipse class="b" cx="31" cy="27.5" rx="31" ry="27.5" transform="matrix(0.788, 0.616, -0.616, 0.788, 933.585, 1357)"/><ellipse class="c" cx="65.5" cy="28" rx="65.5" ry="28" transform="translate(516.852 1384.103) rotate(-30)"/><g transform="matrix(0.998, 0.07, -0.07, 0.998, -113.165, 1620.74)"><path class="d" d="M474.945,128.63c-28.836,20.188-66.238,18.885-99.015,8.38s-62.884-29.21-94.819-42.5A308.126,308.126,0,0,0,197.8,72.791c-40.7-4.657-86.152,1.016-114.508,33.668C51.716,142.8,54.142,208.366,88.283,241.753c17.376,16.971,40.127,25.3,59.966,38.55s38.219,35.239,36.53,60.8c-1.565,23.692-19.752,41.848-38.575,53.251-14.546,8.81-32.458,18.43-34.21,36.679-1.7,17.657,13.367,31.492,27.751,39.36a157.626,157.626,0,0,0,151.505-.623c16.672-9.321,31.984-21.691,49.473-28.911,45.919-19.029,96.521.131,145.146,7.133a290.155,290.155,0,0,0,123.449-8.984c24.079-7.114,48.251-17.987,65.166-38.244,12.2-14.608,19.8-33.088,26.934-51.35q11.41-29.2,21.94-58.813c4.208-11.846,8.355-23.929,9.446-36.611,1.97-22.975-6.334-45.688-17.644-65.079-26.853-46.075-72.08-78.446-121.061-86.67s-100.8,7.837-138.786,42.983" transform="translate(361.94 -478.37)"/></g><path class="e" d="M1568.94-182.878C1558.029-115.277,1605.56-80.5,1605.56-80.5s31.946,18.176,55.63,13.219,45.165,8.813,50.672,17.625,24.786,33.6,39.657,24.235,24.785-35.25,23.684-46.817-12.117-38-20.93-48.469-31.4-24.235-60.036-14.321-33.6-6.059-33.047-18.176,11.566-26.438,5.508-39.106S1656.828-213.1,1632-222.6s-49.912,8.548-56.074,20.3S1568.94-182.878,1568.94-182.878Z" transform="matrix(0.309, -0.951, 0.951, 0.309, 512.663, 3212.504)"/><path class="f" d="M823.208-617.918c55.109,36.736,35.907,82.911,35.907,82.911s-9.121,23.928-28.2,37.368-15.152-63.641-15.152-63.641.708-27.723-2.218-39.917.847-19.124.847-19.124,1.333-4.16,3.434-1.885A30.021,30.021,0,0,0,823.208-617.918Z" transform="translate(179.391 632.606) rotate(114)"/></g></svg>