<svg xmlns="http://www.w3.org/2000/svg" xmlns:xlink="http://www.w3.org/1999/xlink" viewBox="0 0 955.077 904.846">
  <defs>
    <style>
      .cls-1 {
        fill: url(#linear-gradient);
      }

      .cls-2 {
        fill: #ffcece;
      }

      .cls-3 {
        fill: #ff6584;
      }

      .cls-4 {
        fill: none;
        stroke: #3f2b3b;
        stroke-miterlimit: 10;
      }

      .cls-12, .cls-5, .cls-7 {
        fill: #f66f56;
      }

      .cls-6 {
        fill: #fff;
      }

      .cls-6, .cls-7 {
        opacity: 0.5;
      }

      .cls-8 {
        fill: #3f3d56;
      }

      .cls-12, .cls-23, .cls-9 {
        opacity: 0.1;
      }

      .cls-10 {
        fill: #a8a8a8;
      }

      .cls-11 {
        opacity: 0.2;
      }

      .cls-13 {
        fill: url(#linear-gradient-2);
      }

      .cls-14 {
        fill: #d38884;
      }

      .cls-15 {
        fill: #444053;
      }

      .cls-16 {
        fill: #b07473;
      }

      .cls-17 {
        fill: #67647e;
      }

      .cls-18 {
        fill: #585268;
      }

      .cls-19 {
        fill: #e1e7ef;
      }

      .cls-20 {
        fill: url(#linear-gradient-3);
      }

      .cls-21 {
        fill: #a27772;
      }

      .cls-22 {
        fill: #cc818c;
      }

      .cls-24 {
        fill: #f6f8fb;
      }

      .cls-25 {
        fill: url(#linear-gradient-4);
      }

      .cls-26 {
        fill: #65617d;
      }

      .cls-27 {
        fill: #fbbebe;
      }

      .cls-28, .cls-35 {
        opacity: 0.05;
      }

      .cls-29 {
        fill: #7c5c5c;
      }

      .cls-30 {
        fill: url(#linear-gradient-5);
      }

      .cls-31 {
        fill: #fdc2cc;
      }

      .cls-32 {
        fill: #d39999;
      }

      .cls-33 {
        fill: #7e5659;
      }

      .cls-34 {
        fill: #865a61;
      }

      .cls-36 {
        fill: #3f2b3b;
      }
    </style>
    <linearGradient id="linear-gradient" x1="0.5" x2="0.5" y2="1" gradientUnits="objectBoundingBox">
      <stop offset="0" stop-color="#bdbbff"/>
      <stop offset="1" stop-color="#ffb4b4"/>
    </linearGradient>
    <linearGradient id="linear-gradient-2" x1="0.5" y1="1" x2="0.5" gradientUnits="objectBoundingBox">
      <stop offset="0" stop-color="gray" stop-opacity="0.251"/>
      <stop offset="0.54" stop-color="gray" stop-opacity="0.122"/>
      <stop offset="1" stop-color="gray" stop-opacity="0.102"/>
    </linearGradient>
    <linearGradient id="linear-gradient-3" x1="0.5" x2="0.5" y2="0" xlink:href="#linear-gradient-2"/>
    <linearGradient id="linear-gradient-4" x1="0.5" x2="0.5" y2="0" xlink:href="#linear-gradient-2"/>
    <linearGradient id="linear-gradient-5" x1="1.096" x2="1.096" y2="0" xlink:href="#linear-gradient-2"/>
  </defs>
  <g id="Symbol_18_1" data-name="Symbol 18 – 1" transform="translate(-945.99 -64.341)">
    <path id="Union_1" data-name="Union 1" class="cls-1" d="M342.948,666.153A264.381,264.381,0,0,1,217.3,560.828,266.761,266.761,0,0,1,168.2,546.263C32.2,491.312-33.515,336.508,21.436,200.5,74.57,68.99,221.057,3.2,353.643,48.672A265.353,265.353,0,0,1,603.43,21.435C739.439,76.387,805.15,231.19,750.2,367.2L688.711,519.385c-41.776,103.4-141.286,166.171-246.353,166.178A264.766,264.766,0,0,1,342.948,666.153Z" transform="translate(943.394 325.661) rotate(-20)"/>
    <ellipse id="Ellipse_38" data-name="Ellipse 38" class="cls-2" cx="291.061" cy="252.485" rx="291.061" ry="252.485" transform="translate(1149.515 289.135)"/>
    <circle id="Ellipse_39" data-name="Ellipse 39" class="cls-3" cx="63.43" cy="63.43" r="63.43" transform="translate(1562.279 268.347)"/>
    <g id="Group_89" data-name="Group 89" transform="translate(1084.395 342.06)">
      <path id="Path_557" data-name="Path 557" class="cls-4" d="M524.18,854.67s1.37,3.129,3.273.5" transform="translate(-341.838 -521.792)"/>
      <path id="Path_558" data-name="Path 558" class="cls-4" d="M518.28,857s.709,2.964,3.4.757" transform="translate(-339.083 -522.88)"/>
      <path id="Path_561" data-name="Path 561" class="cls-4" d="M600.773,854.67s-1.375,3.129-3.273.5" transform="translate(-376.074 -521.792)"/>
      <path id="Path_562" data-name="Path 562" class="cls-4" d="M606.561,857s-.714,2.964-3.4.757" transform="translate(-378.717 -522.88)"/>
      <path id="Path_565" data-name="Path 565" class="cls-4" d="M540.441,869.47s-1.7,1.6-.8,2.543" transform="translate(-348.936 -528.703)"/>
      <path id="Path_566" data-name="Path 566" class="cls-4" d="M538.627,867.56a2.3,2.3,0,0,0-1.567,1.967" transform="translate(-347.852 -527.811)"/>
      <path id="Path_569" data-name="Path 569" class="cls-4" d="M586.23,869.47s1.7,1.6.8,2.543" transform="translate(-370.812 -528.703)"/>
      <path id="Path_570" data-name="Path 570" class="cls-4" d="M587.63,867.56a2.3,2.3,0,0,1,1.567,1.967" transform="translate(-371.466 -527.811)"/>
      <ellipse id="Ellipse_63" data-name="Ellipse 63" class="cls-5" cx="1.236" cy="2.049" rx="1.236" ry="2.049" transform="translate(183.29 337.712) rotate(-29.887)"/>
      <ellipse id="Ellipse_64" data-name="Ellipse 64" class="cls-5" cx="2.042" cy="1.231" rx="2.042" ry="1.231" transform="translate(220.808 338.194) rotate(-60)"/>
      <ellipse id="Ellipse_65" data-name="Ellipse 65" class="cls-6" cx="1.236" cy="2.049" rx="1.236" ry="2.049" transform="translate(183.29 337.712) rotate(-29.887)"/>
      <ellipse id="Ellipse_66" data-name="Ellipse 66" class="cls-6" cx="2.042" cy="1.231" rx="2.042" ry="1.231" transform="translate(220.808 338.194) rotate(-60)"/>
      <path id="Path_253" data-name="Path 253" class="cls-7" d="M367.341,143.306l1.734,36.146c7.187,9.586,14.941,20.555,22.593,32.51l1.093-55.145.6.385a107.632,107.632,0,0,0-26.625-14.232Z" transform="translate(-180.343 -139.149)"/>
      <path id="Path_254" data-name="Path 254" class="cls-7" d="M351.874,175.75,350.2,140.736c-9.856-3.361-19.418-4.476-28.159-2.917-.455.081-.9.174-1.348.269C322.909,140.471,335.852,154.542,351.874,175.75Z" transform="translate(-164.406 -137.126)"/>
      <path id="Path_255" data-name="Path 255" class="cls-7" d="M477.588,255.5l.582.555q-3.583-6.739-7.6-13.1l-16.3,64.132-.276-.243q1.768,4.22,3.362,8.383Z" transform="translate(-210.543 -173.749)"/>
      <path id="Path_256" data-name="Path 256" class="cls-7" d="M436.385,192.2l.6.48A169.209,169.209,0,0,0,407.8,165.416l-1.114,56.2q10.682,16.857,19.127,33.207Z" transform="translate(-194.169 -146.916)"/>
      <path id="Path_257" data-name="Path 257" class="cls-7" d="M271.3,233.212a141.278,141.278,0,0,0,5.582,27.923l97.194,10.025c-5.074-9.357-10.312-18.135-15.4-26.136l-87.132-11.048Z" transform="translate(-147.313 -170.379)"/>
      <path id="Path_258" data-name="Path 258" class="cls-7" d="M283.492,286.806l-.262-.763,98.369,8.744q-1.782-3.487-3.6-6.881l-97.552-10.062-.256-.764Q281.661,281.889,283.492,286.806Z" transform="translate(-150.389 -185.561)"/>
      <path id="Path_259" data-name="Path 259" class="cls-7" d="M463.759,229.565l.591.521a202.055,202.055,0,0,0-16.13-21.948L437.507,271.6q5.569,10.935,10.089,21.562Z" transform="translate(-204.835 -161.702)"/>
      <path id="Path_260" data-name="Path 260" class="cls-7" d="M474.471,372.471c3.909,16.917,5.391,32.913,4.413,47.81,5.5-11.721,26.421-60.277,18.6-105.529Z" transform="translate(-217.627 -198.599)"/>
      <path id="Path_261" data-name="Path 261" class="cls-7" d="M312.838,344.256a195.471,195.471,0,0,0,16.969,19.919l-.237-.848,87.5,18a243.019,243.019,0,0,0-8.508-27.854Z" transform="translate(-161.689 -208.809)"/>
      <path id="Path_262" data-name="Path 262" class="cls-7" d="M336.233,176.914c-17.341-22.941-31.024-37.44-31.22-37.648l.225-.483c-13.159,2.987-22.45,11.941-27.562,24.9Z" transform="translate(-149.521 -137.699)"/>
      <path id="Path_263" data-name="Path 263" class="cls-7" d="M460.379,324.776c.323.863.652,1.728.964,2.587A241.443,241.443,0,0,1,469,352.5l22.8-57.172.557.559a95.72,95.72,0,0,0-7.277-23.037q-2.017-4.317-4.223-8.5Z" transform="translate(-212.75 -181.152)"/>
      <path id="Path_264" data-name="Path 264" class="cls-7" d="M357.422,224.273c-7.574-11.814-15.24-22.652-22.344-32.125l-59.9-13.535-.2-.756c-3.739,9.848-5.107,21.946-3.974,35.458Z" transform="translate(-147.076 -151.222)"/>
      <path id="Path_265" data-name="Path 265" class="cls-7" d="M426.807,393.788l-86.862-17.87c36.536,37.506,87.652,66.27,90.914,68.088C432.381,427.481,430.655,410.508,426.807,393.788Z" transform="translate(-171.071 -219.767)"/>
      <path id="Path_266" data-name="Path 266" class="cls-7" d="M398.549,334.241l.019-.057A327.969,327.969,0,0,0,384.29,301.9l-98.611-8.765q2.511,6.65,5.676,13.443a117.509,117.509,0,0,0,10.921,18.4Z" transform="translate(-152.29 -191.116)"/>
      <path id="Path_267" data-name="Path 267" class="cls-7" d="M636.847,329.33l-21.719,28.946c-.579,11.967-1.6,25.361-3.335,39.449l36.014-41.775.219.681A107.628,107.628,0,0,0,636.6,328.687Z" transform="translate(-265.152 -203.421)"/>
      <path id="Path_268" data-name="Path 268" class="cls-7" d="M617.042,344.845l21.039-28.038c-5.447-8.875-12.1-15.833-19.827-20.207-.4-.228-.806-.441-1.21-.652C617.236,299.2,618.228,318.292,617.042,344.845Z" transform="translate(-266.968 -192.091)"/>
      <path id="Path_269" data-name="Path 269" class="cls-7" d="M640.3,491.651l.094.8q1.539-7.475,2.507-14.937l-53.457,39-.057-.363q-1.33,4.378-2.757,8.6Z" transform="translate(-256.444 -254.926)"/>
      <path id="Path_270" data-name="Path 270" class="cls-7" d="M649.581,411.405l.156.753a169.2,169.2,0,0,0-5.084-39.616l-36.7,42.571q-2.525,19.8-6.449,37.775Z" transform="translate(-261.59 -218.599)"/>
      <path id="Path_271" data-name="Path 271" class="cls-7" d="M511.509,337.317A141.278,141.278,0,0,0,498,362.384L566.463,432.1c2.06-10.443,3.625-20.544,4.811-29.949l-60.062-64.083Z" transform="translate(-225.77 -206.408)"/>
      <path id="Path_272" data-name="Path 272" class="cls-7" d="M491.933,386.373l.285-.754L562.4,455.094q.851-3.822,1.612-7.6L495.3,377.525l.29-.752Q493.658,381.418,491.933,386.373Z" transform="translate(-223.671 -220.063)"/>
      <path id="Path_273" data-name="Path 273" class="cls-7" d="M644.629,460.878l.123.779a202.083,202.083,0,0,0,1.575-27.192L597.6,476.51q-2.685,11.974-5.982,23.042Z" transform="translate(-258.169 -240.029)"/>
      <path id="Path_274" data-name="Path 274" class="cls-5" d="M552.5,581.927c-7.779,15.523-16.841,28.788-27.1,39.638,11.712-5.519,58.794-29.573,81.634-69.414Z" transform="translate(-235.253 -280.757)"/>
      <path id="Path_275" data-name="Path 275" class="cls-7" d="M479.682,449.337a195.457,195.457,0,0,0,.365,26.164l.358-.8,55.912,69.674a243,243,0,0,0,11.213-26.88Z" transform="translate(-219.335 -245.176)"/>
      <path id="Path_276" data-name="Path 276" class="cls-7" d="M596.175,342.532c1.276-28.729-.014-48.623-.033-48.909l.482-.228c-12.041-6.092-24.907-5.123-37.11,1.6Z" transform="translate(-247.059 -189.804)"/>
      <path id="Path_277" data-name="Path 277" class="cls-7" d="M579.641,535.346c-.3.871-.6,1.747-.908,2.607A241.468,241.468,0,0,1,568.6,562.192L622.619,532.7l.073.785a95.718,95.718,0,0,0,9.088-22.385q1.2-4.612,2.172-9.244Z" transform="translate(-250.202 -263.351)"/>
      <path id="Path_278" data-name="Path 278" class="cls-7" d="M578.881,386.835c1.7-13.93,2.71-27.166,3.28-38.994l-37.5-48.63.326-.712c-9.161,5.2-17.931,13.645-25.676,24.774Z" transform="translate(-233.145 -192.974)"/>
      <path id="Path_279" data-name="Path 279" class="cls-5" d="M536.013,560.177l-55.5-69.165c4.218,52.189,25.241,106.945,26.594,110.426C518.816,589.683,528.313,575.509,536.013,560.177Z" transform="translate(-219.718 -259.598)"/>
      <path id="Path_280" data-name="Path 280" class="cls-7" d="M548.247,496.291l.051-.032a327.969,327.969,0,0,0,9.6-33.974l-70.358-69.646q-2.307,6.724-4.2,13.974a117.512,117.512,0,0,0-3.322,21.134Z" transform="translate(-219.545 -225.554)"/>
      <path id="Path_281" data-name="Path 281" class="cls-7" d="M318.577,388.7l12.822,33.84c9.8,6.895,20.563,14.931,31.535,23.935L346.927,393.69l.693.18a107.636,107.636,0,0,0-29.72-5.306Z" transform="translate(-163.441 -224.144)"/>
      <path id="Path_282" data-name="Path 282" class="cls-7" d="M314.053,421.319l-12.42-32.78c-10.412-.15-19.851,1.745-27.682,5.929-.407.218-.8.445-1.2.673C275.6,396.72,292.26,406.1,314.053,421.319Z" transform="translate(-147.817 -224.132)"/>
      <path id="Path_283" data-name="Path 283" class="cls-7" d="M466.445,458.607l.725.348q-5.49-5.3-11.274-10.114l4.322,66.029-.337-.146q2.985,3.467,5.788,6.933Z" transform="translate(-211.199 -245.004)"/>
      <path id="Path_284" data-name="Path 284" class="cls-7" d="M399.915,413.679l.719.271a169.2,169.2,0,0,0-36.183-16.913l16.311,53.788q15.369,12.73,28.454,25.669Z" transform="translate(-179.552 -227.076)"/>
      <path id="Path_285" data-name="Path 285" class="cls-7" d="M255.027,495.539a141.281,141.281,0,0,0,13.94,24.83L364.5,499.861c-7.718-7.33-15.412-14.06-22.721-20.1L255.5,496.189Z" transform="translate(-141.682 -255.706)"/>
      <path id="Path_286" data-name="Path 286" class="cls-7" d="M283.19,540.536l-.485-.644,96.254-22.09q-2.773-2.765-5.555-5.43l-95.885,20.584-.48-.647Q279.928,536.427,283.19,540.536Z" transform="translate(-149.3 -266.991)"/>
      <path id="Path_287" data-name="Path 287" class="cls-7" d="M442.327,439.178l.724.313A202.076,202.076,0,0,0,420.926,423.6l9.427,63.665q8.677,8.678,16.26,17.387Z" transform="translate(-199.097 -236.27)"/>
      <path id="Path_288" data-name="Path 288" class="cls-7" d="M500.737,569.762c8.947,14.88,15.3,29.635,18.975,44.105,1.609-12.847,6.5-65.491-14.929-106.111Z" transform="translate(-226.717 -265.393)"/>
      <path id="Path_289" data-name="Path 289" class="cls-7" d="M328.856,585.634a195.494,195.494,0,0,0,22.295,13.7l-.488-.733,88.781-9.927a243,243,0,0,0-16.7-23.861Z" transform="translate(-167.233 -285.139)"/>
      <path id="Path_290" data-name="Path 290" class="cls-7" d="M303.453,425.766c-23.583-16.457-41.077-26.017-41.328-26.154l.065-.529c-11.591,6.909-17.66,18.3-18.516,32.2Z" transform="translate(-137.753 -227.784)"/>
      <path id="Path_291" data-name="Path 291" class="cls-7" d="M473.037,529.176c.574.721,1.154,1.442,1.716,2.162A241.417,241.417,0,0,1,489.8,552.875l4.007-61.418.7.359a95.72,95.72,0,0,0-14.042-19.659q-3.253-3.483-6.645-6.783Z" transform="translate(-217.131 -250.725)"/>
      <path id="Path_292" data-name="Path 292" class="cls-7" d="M336.33,465.413c-10.854-8.895-21.495-16.832-31.18-23.645L244,447.411l-.427-.656c-.512,10.521,1.927,22.449,7.18,34.95Z" transform="translate(-137.695 -242.556)"/>
      <path id="Path_293" data-name="Path 293" class="cls-7" d="M452.554,603.318l-88.131,9.854c46.339,24.376,103.843,35.931,107.507,36.652C468.27,633.638,461.382,618.029,452.554,603.318Z" transform="translate(-179.542 -298.465)"/>
      <path id="Path_294" data-name="Path 294" class="cls-7" d="M407.274,548.917v-.06a327.965,327.965,0,0,0-23.559-26.292l-96.491,22.144q4.444,5.548,9.553,11.03a117.519,117.519,0,0,0,16.072,14.12Z" transform="translate(-152.825 -270.518)"/>
      <path id="Path_295" data-name="Path 295" class="cls-8" d="M762.531,691.725c0,29.253-150.484,81.086-336.115,81.086S90.3,720.978,90.3,691.725s150.484-24.849,336.115-24.849S762.531,662.472,762.531,691.725Z" transform="translate(-84.674 -320.38)"/>
      <path id="Path_296" data-name="Path 296" class="cls-9" d="M762.531,691.725c0,29.253-150.484,81.086-336.115,81.086S90.3,720.978,90.3,691.725s150.484-24.849,336.115-24.849S762.531,662.472,762.531,691.725Z" transform="translate(-84.674 -320.38)"/>
      <ellipse id="Ellipse_40" data-name="Ellipse 40" class="cls-8" cx="336.115" cy="52.968" rx="336.115" ry="52.968" transform="translate(5.629 318.377)"/>
      <path id="Path_297" data-name="Path 297" class="cls-9" d="M589.172,599.8c0,31.871-44.424,22.013-98.816,22.013S392.2,631.673,392.2,599.8,436.618,561,491.01,561,589.172,567.932,589.172,599.8Z" transform="translate(-189.155 -283.82)"/>
      <path id="Path_298" data-name="Path 298" class="cls-8" d="M589.172,587.8c0,31.87-44.424,22.013-98.816,22.013S392.2,619.673,392.2,587.8,436.618,549,491.01,549,589.172,555.932,589.172,587.8Z" transform="translate(-189.155 -279.667)"/>
      <path id="Path_317" data-name="Path 317" class="cls-9" d="M425.257,514.178A24.275,24.275,0,0,1,422.938,525a8.941,8.941,0,0,0-.908,2.383c-.278,1.778.734,3.5,1.891,4.879a20.062,20.062,0,0,0,8.577,5.967" transform="translate(-199.462 -267.616)"/>
      <path id="Path_318" data-name="Path 318" class="cls-9" d="M509.746,509.362A5.172,5.172,0,0,0,510,512.5a31.661,31.661,0,0,1,1.154,9.187.334.334,0,0,1-.391.4c-1.221.075-2.619.083-3.447-.817" transform="translate(-228.994 -265.949)"/>
      <path id="Path_332" data-name="Path 332" class="cls-8" d="M81.7,555.659c0,41.861,26.262,75.735,58.716,75.735" transform="translate(-81.696 -281.971)"/>
      <path id="Path_333" data-name="Path 333" class="cls-5" d="M171.487,630.945c0-42.332,29.307-76.586,65.523-76.586" transform="translate(-112.771 -281.522)"/>
      <path id="Path_334" data-name="Path 334" class="cls-5" d="M114.229,561.463c0,39.764,16.747,71.94,37.442,71.94" transform="translate(-92.955 -283.98)"/>
      <path id="Path_335" data-name="Path 335" class="cls-8" d="M171.487,619.686c0-54.091,33.874-97.86,75.735-97.86" transform="translate(-112.771 -270.263)"/>
      <path id="Path_336" data-name="Path 336" class="cls-10" d="M152.6,669.912s8.327-.256,10.836-2.043,12.809-3.921,13.431-1.055,12.514,14.254,3.113,14.33-21.844-1.464-24.349-2.99S152.6,669.912,152.6,669.912Z" transform="translate(-106.233 -319.955)"/>
      <path id="Path_337" data-name="Path 337" class="cls-11" d="M180.145,682.521c-9.4.076-21.844-1.464-24.349-2.99-1.908-1.162-2.668-5.331-2.922-7.255l-.278.011s.527,6.716,3.032,8.241,14.947,3.066,24.349,2.99c2.714-.022,3.651-.987,3.6-2.417C183.2,681.965,182.165,682.5,180.145,682.521Z" transform="translate(-106.233 -322.33)"/>
    </g>
    <g id="Group_91" data-name="Group 91" transform="translate(110 -158.141)">
      <ellipse id="Ellipse_44" data-name="Ellipse 44" class="cls-12" cx="35.899" cy="8.06" rx="35.899" ry="8.06" transform="translate(1363.799 861.699)"/>
      <ellipse id="Ellipse_45" data-name="Ellipse 45" class="cls-12" cx="64.764" cy="5.316" rx="64.764" ry="5.316" transform="translate(1418.351 890.039)"/>
      <ellipse id="Ellipse_46" data-name="Ellipse 46" class="cls-12" cx="64.764" cy="8.06" rx="64.764" ry="8.06" transform="translate(1158.316 879.236)"/>
      <ellipse id="Ellipse_47" data-name="Ellipse 47" class="cls-12" cx="48.731" cy="8.06" rx="48.731" ry="8.06" transform="translate(1273.095 838.889)"/>
      <path id="Path_342" data-name="Path 342" class="cls-13" d="M505.592,225.76c-1.031-6.938-7.334-23.129-7.334-23.129h0q-.165-.716-.372-1.432c-4.471-15.365-10.66-16.7-10.66-16.7l-22.17-4.772a1.718,1.718,0,0,1,.477.444,3.075,3.075,0,0,0-.348.052,8.685,8.685,0,0,1-1.942-4.2c-.043-.229-.081-.477-.11-.711a15.595,15.595,0,0,0-1.269-23.444c-.234-.181-.477-.358-.711-.525a3.534,3.534,0,0,0,.3-4.2c-1.746-3.627-5.545-5.922-9.448-7.043a16.018,16.018,0,0,0-9.172-.2,33.136,33.136,0,0,0-4.8,2.228c-2.944,1.47-6.2,2.634-8.4,5.053a2.466,2.466,0,0,0-.84,2.028,5.473,5.473,0,0,0,.835,1.475,4.45,4.45,0,0,1,.043,3.693,35.8,35.8,0,0,0-1.37,3.55,3.712,3.712,0,0,0,.74,3.565,15.7,15.7,0,0,0,1.384.954,7.256,7.256,0,0,1,1.322,1.484q1.317,1.766,2.625,3.546a36.518,36.518,0,0,1,3.288,5,24.348,24.348,0,0,0,2.033,3.818,5.656,5.656,0,0,0,.873.916l-.258-.1a3.975,3.975,0,0,0,2.916,1.188h.134a.8.8,0,0,0,.534-.22v.477c.052,1.7.043,3.517-.076,5.22l-.205-.1a1.789,1.789,0,0,0-1.909.2l-20.409,16.377s-4.438,6.07-3.818,16.549l-3.579,15.714s-4.471,13.333-1.031,22.853,5.435,14.965,5.435,14.965,1.374,10.818,3.441,11.7,2.959,1.36,2.959,1.36l.41,2.586h0s.138.253.382.678c1.5,2.615,7.072,11.844,10.307,10.856a41.375,41.375,0,0,1,.525,7.583l3.2,21.5s2.233,5.846,2.095,8.909,2.605,7.43,2.605,7.43a14.2,14.2,0,0,0-1.374,10c1.307,5.726,2.959,32.105,2.959,32.105l2.386,6.394-.067,7.5a7.158,7.158,0,0,1-1.479,3.34c-1.546,1.68-1.432,3.622-5.158,5.917s-6.089,3.164-6.089,6.2a7.977,7.977,0,0,1-.115,1.265c-.344,2.233-1.012,3.445,5.841,4.094a18.067,18.067,0,0,0,13.419-4.486s1.183-2.147,6.757-3.016c0,0,1.909-.1,2.009-1.785.038-.582.029-1.694,0-2.92-.091-2.333-.315-5.058-.611-5.192-.372-.167-1.021-2.515-1.245-3.364H463s1.432-10.818,0-17.823a28.914,28.914,0,0,1-.138-11.973l-.277-18.5s-1.909-2.042-.41-5.65,0-21.426,0-21.426.554-6.394,2.133-7.893.076-9.367,0-9.778l2.815,9.444s1.236,18.773,3.856,22.17l.754,8.5s5.364,7.826,4.333,12.039,1.1,19.455,1.1,19.455v15.58s-2.41,6.256.954,8.5l1.432-.057c-.477.444-.845,1.112-1.4,1.689-.644.663-1.012,3.188-1.217,5.359-.172,1.837-.229,3.417-.229,3.417a5.626,5.626,0,0,0,4.128,2.448c2.7.157,11.581,6.914,11.581,6.914s8.775,0,11.047-.477l.134-.033a2.983,2.983,0,0,0,1.713-1.4,3.579,3.579,0,0,0,.41-2.572c-.281-1.341-1.346-2.811-3.7-4.061-5.865-3.092-6.738-5.989-6.738-5.989l-3.851-5.779h.549a24.72,24.72,0,0,1,3.851-12.994l-.272-30.268s1.718-10.408-1.236-16.057c0,0-.243-5.984,1.732-7.821s-2.629-20.4-2.629-20.4-.954-9.969-2.076-19.064h0c4.643,4.4,9.458-11.453,10.269-14.273h.119l-.052-.205c.033-.134.052-.2.052-.2h0s-1.031-3.665-.277-2.92,2.615-2.042,2.615-2.042-.277-15.17,2.959-22.814S505.592,225.76,505.592,225.76Zm-13.839,9.654.024-.043c.477,9.262-.091,29.027-.091,29.027s-.639,2.534-1.322,5.516l-.477-18.777h0l-.477-17.689Zm-59.224-6.385s2.338,29.247,0,33.465a22.1,22.1,0,0,0-1.684,5.779c-.773-2.028-2.41-6.79-1.823-9.315.759-3.264-1.513-11.839-1.513-12.04a20.344,20.344,0,0,1,1.432-8.265c1.637-3.493.563-5.006.563-5.006S430.878,227.922,432.529,229.029Z" transform="translate(852.648 429.449)"/>
      <path id="Path_343" data-name="Path 343" class="cls-14" d="M453.909,449.435c-2.038,8.957-10.14-4.586-11.987-7.835-.239-.425-.372-.673-.372-.673l.878-4.118,4.643-1.909a12.969,12.969,0,0,1,2.081,1.355A12.544,12.544,0,0,1,453.909,449.435Z" transform="translate(836.966 274.914)"/>
      <path id="Path_344" data-name="Path 344" class="cls-14" d="M584.55,432.135a.626.626,0,0,1-.052.2,1.019,1.019,0,0,1-.062.215c-.8,2.8-5.521,18.539-10.083,14.168-4.991-4.772-2.567-15.8-2.567-15.8h.033l10.5-1.074,2.081,2.138h0Z" transform="translate(769.185 277.559)"/>
      <path id="Path_345" data-name="Path 345" class="cls-15" d="M516.1,510.935,516.363,541a24.657,24.657,0,0,0-3.779,12.884l-13.571.534c-3.312-2.228-.954-8.437-.954-8.437V530.5s-2.095-15.122-1.083-19.312-4.252-11.93-4.252-11.93l-.744-8.442c-2.567-3.374-3.784-22.008-3.784-22.008l-2.753-9.41c.076.406,1.508,8.26,0,9.706s-2.095,7.831-2.095,7.831,1.484,17.694,0,21.268.4,5.607.4,5.607l.272,18.367a28.721,28.721,0,0,0,.134,11.882c1.417,6.953,0,17.694,0,17.694H469.593l.067-7.5-2.357-6.347s-1.622-26.2-2.906-31.872a14.239,14.239,0,0,1,1.346-9.926s-2.7-4.319-2.562-7.358-2.081-8.838-2.081-8.838l-3.14-21.335a41.449,41.449,0,0,0-1.556-12.154c-1.823-6.079-4.524-14.049-4.524-14.049l3.049.272,15.385,1.37s37.407-2.515,39.082-.425a7.022,7.022,0,0,1,.706,2.181c1.68,7.544,3.9,31.18,3.9,31.18s4.524,18.434,2.582,20.257-1.7,7.759-1.7,7.759C517.789,500.58,516.1,510.935,516.1,510.935Z" transform="translate(831.565 276.232)"/>
      <path id="Path_346" data-name="Path 346" class="cls-16" d="M489.838,690.762c-.1,1.675-1.971,1.775-1.971,1.775-5.469.859-6.633,2.987-6.633,2.987a17.564,17.564,0,0,1-13.166,4.457c-6.728-.649-6.075-1.847-5.726-4.066a8.407,8.407,0,0,0,.11-1.25c0-3.04,2.329-3.9,5.974-6.2s3.546-4.2,5.063-5.874,1.675-4.91,1.675-4.91c1.718-2.992,6.075.477,6.075.477.205,1.059,6.681.911,6.681.911s.859,3.445,1.3,3.646c.291.134.511,2.835.6,5.154C489.867,689.082,489.876,690.184,489.838,690.762Z" transform="translate(826.199 148.624)"/>
      <path id="Path_347" data-name="Path 347" class="cls-9" d="M489.838,703.267c-.1,1.675-1.971,1.775-1.971,1.775-5.469.859-6.633,2.987-6.633,2.987a17.564,17.564,0,0,1-13.166,4.457c-6.728-.649-6.075-1.847-5.726-4.066,3.006.744,8.752,1.785,12.106-.038,4.662-2.529,8.007-4.295,8.007-4.295l7.368-3.708C489.867,701.587,489.876,702.69,489.838,703.267Z" transform="translate(826.199 136.118)"/>
      <path id="Path_348" data-name="Path 348" class="cls-16" d="M575.824,701.893a2.911,2.911,0,0,1-1.68,1.389l-.129.033c-2.228.477-10.842.477-10.842.477s-8.709-6.733-11.343-6.886a5.54,5.54,0,0,1-4.051-2.434s.053-1.565.22-3.388c.205-2.157.563-4.662,1.2-5.321,1.164-1.217,1.432-2.863,4.051-1.823,0,0,3.741-6.595,8.15-1.5l4.562,6.919s.859,2.863,6.638,5.97c2.31,1.241,3.34,2.7,3.631,4.032A3.556,3.556,0,0,1,575.824,701.893Z" transform="translate(781.428 146.507)"/>
      <path id="Path_349" data-name="Path 349" class="cls-9" d="M575.824,713.478c-.515.434-1.083.9-1.68,1.389l-.129.034c-2.228.477-10.842.477-10.842.477s-8.709-6.733-11.343-6.886a5.54,5.54,0,0,1-4.051-2.434s.053-1.565.22-3.388c2.682.8,6.743,2.219,7.831,3.746,1.67,2.324,6.743,5.569,6.743,5.569s9.458-.912,13.657-1.036A3.556,3.556,0,0,1,575.824,713.478Z" transform="translate(781.428 134.921)"/>
      <path id="Path_350" data-name="Path 350" class="cls-14" d="M501.786,214.178l-12.455,13.166s-15.093-1.112-12.459-5.569c1.341-2.271,1.551-7.024,1.432-11.157-.11-3.985-.52-7.377-.52-7.377s21.168-10.536,19.565-.711a16.172,16.172,0,0,0-.057,5.607C498.193,213.1,501.786,214.178,501.786,214.178Z" transform="translate(818.66 398.59)"/>
      <path id="Path_351" data-name="Path 351" class="cls-9" d="M498.666,202.53a16.172,16.172,0,0,0-.057,5.607,15.537,15.537,0,0,1-11.08,4.624c-2.863,0-5.96-2.353-8.274-3.713-.11-3.989-.134-5.807-.134-5.807S500.288,192.7,498.666,202.53Z" transform="translate(817.324 398.59)"/>
      <path id="Path_352" data-name="Path 352" class="cls-14" d="M495.238,177.085a15.6,15.6,0,1,1-5.869-12.187A15.6,15.6,0,0,1,495.238,177.085Z" transform="translate(825.209 417.855)"/>
      <path id="Path_353" data-name="Path 353" class="cls-9" d="M512.69,436.065c-3.884,9.243-28.87,9.434-28.87,9.434V435.421l-1.513-.1c.654,2.887-.916,9.926-.916,9.926-19.746,2.787-24.561-8.465-24.561-8.465l.687-3.851L472.9,434.3s37.407-2.515,39.082-.425A7.017,7.017,0,0,1,512.69,436.065Z" transform="translate(828.977 275.944)"/>
      <path id="Path_354" data-name="Path 354" class="cls-5" d="M483.82,336.923V326.845l-1.513-.1c.654,2.863-.916,9.926-.916,9.926-14.86,2.095-21.264-3.756-23.521-6.781a9.234,9.234,0,0,1-1.04-1.68l6.032-33.928,1.432-49.933,2.162-8.761.5-4.2v-.048h.052l1.537.659,9.2,3.975,10.446-7.888.153-.11.52-.4.864.692,2.147,1.723,6.886,44.469s11.93,34.238,14.163,48.058c.091.554.162,1.069.22,1.551C514.613,336.689,483.82,336.923,483.82,336.923Z" transform="translate(828.977 383.303)"/>
      <circle id="Ellipse_49" data-name="Ellipse 49" class="cls-17" cx="0.888" cy="0.888" r="0.888" transform="translate(1306.947 619.372)"/>
      <circle id="Ellipse_50" data-name="Ellipse 50" class="cls-17" cx="0.888" cy="0.888" r="0.888" transform="translate(1307.357 627.475)"/>
      <circle id="Ellipse_51" data-name="Ellipse 51" class="cls-17" cx="0.888" cy="0.888" r="0.888" transform="translate(1308.245 640.593)"/>
      <circle id="Ellipse_52" data-name="Ellipse 52" class="cls-17" cx="0.888" cy="0.888" r="0.888" transform="translate(1309.71 654.723)"/>
      <circle id="Ellipse_53" data-name="Ellipse 53" class="cls-17" cx="0.888" cy="0.888" r="0.888" transform="translate(1310.597 667.988)"/>
      <circle id="Ellipse_54" data-name="Ellipse 54" class="cls-17" cx="0.888" cy="0.888" r="0.888" transform="translate(1311.485 682.118)"/>
      <circle id="Ellipse_55" data-name="Ellipse 55" class="cls-17" cx="0.888" cy="0.888" r="0.888" transform="translate(1311.132 696.095)"/>
      <path id="Path_355" data-name="Path 355" class="cls-9" d="M467.542,303.187s-.993,12.994-2.815,16.773-2.634,14.382-2.634,14.382l-4.233-.477a9.235,9.235,0,0,1-1.04-1.68l6.032-33.928,1.432-49.933,2.166-8.766.5-4.2.057-.024a1.708,1.708,0,0,1,1.508.024l.2.1q-.091.258-.172.53c-1.651,5.168-2.267,14.693-2.267,14.693s2.386,17.422,2.634,25.525S467.542,303.187,467.542,303.187Z" transform="translate(828.982 379.336)"/>
      <path id="Path_356" data-name="Path 356" class="cls-9" d="M449.152,436.27a2.44,2.44,0,0,1-.162.315c-1.642,2.772-5.8,4.533-7.067,5.015-.239-.425-.372-.673-.372-.673l.878-4.118,4.643-1.909A12.968,12.968,0,0,1,449.152,436.27Z" transform="translate(836.966 274.914)"/>
      <path id="Path_357" data-name="Path 357" class="cls-17" d="M423.338,298.81l-3.851,2.3-3.507,15.6s-4.39,13.232-1.016,22.686,5.335,14.864,5.335,14.864,1.35,10.737,3.379,11.615,2.9,1.35,2.9,1.35l.406,2.567s5.5-1.866,7.439-5.154-1.432-11.453-1.432-11.453-2.9-6.957-2.157-10.2-1.489-11.748-1.489-11.93a20.22,20.22,0,0,1,1.432-8.208c1.632-3.479.544-4.963.544-4.963l-1.016-9.926Z" transform="translate(851.532 346.063)"/>
      <path id="Path_358" data-name="Path 358" class="cls-9" d="M547.092,326.157s-10.2,3.846-13.438.477-2.906-19.178-2.906-19.178-3.1-29.171-5.063-33.962-.954-39.368-.954-39.368-1.317-4.471-2.467-5.64a1.25,1.25,0,0,0-.243-.2l.4.086,1.384.3,2.147,1.723,6.886,44.469S544.763,309.1,547,322.922Z" transform="translate(794.895 382.932)"/>
      <path id="Path_359" data-name="Path 359" class="cls-9" d="M585.184,432.53h-.115c-1.284.167-12.612,1.537-12.66-.821a6.889,6.889,0,0,1,.043-.816l10.5-1.074,2.081,2.138h0c.038.138.067.258.1.353Z" transform="translate(768.551 277.57)"/>
      <path id="Path_360" data-name="Path 360" class="cls-17" d="M574.313,266.07l7.444,3.884s6.2,16.062,7.2,22.948c0,0,4.6,18.448,1.432,26.035s-2.9,22.647-2.9,22.647-1.823,2.768-2.567,2.028.272,2.9.272,2.9-12.727,1.689-12.779-.811,2.92-14.449,2.92-14.449.811-28.426-.339-32.883S574.313,266.07,574.313,266.07Z" transform="translate(768.552 363.18)"/>
      <path id="Path_361" data-name="Path 361" class="cls-9" d="M523.192,329.52s-4.19,10.26-5.54,10.937.272,3.374.272,3.374S525.554,333.166,523.192,329.52Z" transform="translate(797.46 330.008)"/>
      <path id="Path_362" data-name="Path 362" class="cls-9" d="M517.45,254.094c.048-.2-5,4.948-6.347,5.726S516.032,259.773,517.45,254.094Z" transform="translate(800.702 369.444)"/>
      <path id="Path_363" data-name="Path 363" class="cls-9" d="M487.759,327.82s-7.7,4.977-6.681,6.948S487.759,327.82,487.759,327.82Z" transform="translate(816.348 330.897)"/>
      <path id="Path_364" data-name="Path 364" class="cls-9" d="M524.47,480.07a41.2,41.2,0,0,0,16.745,5.249Z" transform="translate(793.614 251.299)"/>
      <path id="Path_365" data-name="Path 365" class="cls-9" d="M491.5,501.3s6.075,7.635,8.847,7.831S491.5,501.3,491.5,501.3Z" transform="translate(810.851 240.2)"/>
      <path id="Path_366" data-name="Path 366" class="cls-9" d="M501.3,564c-.272.134-3.445,6.886-6.681,7.091S501.3,564,501.3,564Z" transform="translate(809.56 207.419)"/>
      <path id="Path_367" data-name="Path 367" class="cls-9" d="M568.33,594.781s6.022-1.35,7.363,2.968C575.693,597.735,575.287,596.384,568.33,594.781Z" transform="translate(770.684 191.431)"/>
      <path id="Path_368" data-name="Path 368" class="cls-9" d="M559.84,646.183s7.3-1.489,8.847.539S559.84,646.183,559.84,646.183Z" transform="translate(775.122 164.729)"/>
      <path id="Path_369" data-name="Path 369" class="cls-9" d="M508.74,654c0,.067-7.425,1.489-7.158,2.434s7.921.811,8.193-.678A1.432,1.432,0,0,0,508.74,654Z" transform="translate(805.584 160.366)"/>
      <path id="Path_370" data-name="Path 370" class="cls-9" d="M554.75,666.95s12.2-1.489,11.453,1.078S554.75,666.95,554.75,666.95Z" transform="translate(777.784 153.821)"/>
      <path id="Path_371" data-name="Path 371" class="cls-9" d="M420.89,352.44c.067.2,8.036,1.284,9.114,3.851,0,0-7.831-3.651-9.067-3.651" transform="translate(847.767 318.025)"/>
      <path id="Path_372" data-name="Path 372" class="cls-9" d="M437.62,396.16s-6.619,2.095-6.146,5.249S430.8,399.949,437.62,396.16Z" transform="translate(842.246 295.168)"/>
      <path id="Path_373" data-name="Path 373" class="cls-9" d="M437.92,426.8s2.41-3.307,4.705-2.7S437.92,426.8,437.92,426.8Z" transform="translate(838.863 280.6)"/>
      <path id="Path_374" data-name="Path 374" class="cls-9" d="M489.393,164.895a3.755,3.755,0,0,1-.773.577c-1.909,1.112-2.434,2.825-3.34,4.8-.845,1.809-1.775,3.722-3.479,4.748-2.2,1.327-5.1.84-7.382,1.995a5.726,5.726,0,0,0-3.054,5.645,16.283,16.283,0,0,0,.649,2.586,18.444,18.444,0,0,1,.7,5.617.954.954,0,0,1,0,.167,15.595,15.595,0,1,1,16.7-26.136Z" transform="translate(825.184 417.858)"/>
      <path id="Path_375" data-name="Path 375" class="cls-18" d="M480.455,150.284c-1.713-3.6-5.44-5.879-9.272-6.991a15.572,15.572,0,0,0-9-.191,33.028,33.028,0,0,0-4.71,2.209c-2.892,1.46-6.07,2.615-8.246,5.015a2.513,2.513,0,0,0-.826,2.014,5.623,5.623,0,0,0,.816,1.46,4.431,4.431,0,0,1,.043,3.67A33.654,33.654,0,0,0,447.911,161a3.71,3.71,0,0,0,.725,3.536,13.226,13.226,0,0,0,1.365.954,7.182,7.182,0,0,1,1.293,1.47l2.577,3.522a35.714,35.714,0,0,1,3.226,4.958,23.632,23.632,0,0,0,1.995,3.784,4.318,4.318,0,0,0,3.617,1.933.7.7,0,0,0,.573-.272.754.754,0,0,0,.072-.358,18.316,18.316,0,0,0-.682-5.6,16.151,16.151,0,0,1-.649-2.586,5.75,5.75,0,0,1,3.054-5.645c2.29-1.155,5.187-.668,7.382-1.99,1.708-1.031,2.639-2.944,3.479-4.772.921-1.976,1.432-3.689,3.34-4.8S481.4,152.179,480.455,150.284Z" transform="translate(833.716 427.773)"/>
      <path id="Path_376" data-name="Path 376" class="cls-9" d="M501.63,693.06s2.386,3.04,1.766,4.772S501.63,693.06,501.63,693.06Z" transform="translate(805.555 139.945)"/>
      <path id="Path_377" data-name="Path 377" class="cls-9" d="M569.28,704.434s.53-4.075,2.653-4.113,2.228-.219,3.851.406,3.145,1.594,2.658,1.737-2.792-2.329-5.158-1.064A17.043,17.043,0,0,0,569.28,704.434Z" transform="translate(770.187 136.177)"/>
      <path id="Path_378" data-name="Path 378" class="cls-9" d="M479.893,245.228l6.681-4.681s-9.773-5.774-10.937-4.963-1.966,8.112-1.966,8.112Z" transform="translate(820.173 379.159)"/>
      <path id="Path_379" data-name="Path 379" class="cls-19" d="M479.833,244.5l6.681-4.772s-9.773-5.774-10.937-4.963-1.966,8.513-1.966,8.513Z" transform="translate(820.204 379.588)"/>
      <path id="Path_380" data-name="Path 380" class="cls-5" d="M479.833,244.5l6.681-4.772s-9.773-5.774-10.937-4.963-1.966,8.513-1.966,8.513Z" transform="translate(820.204 379.588)"/>
      <path id="Path_381" data-name="Path 381" class="cls-17" d="M451.645,234.613l-.2-.1a1.732,1.732,0,0,0-1.875.2l-20.042,16.258s-4.357,6.027-3.751,16.425l11.82,16.745s1.35-5.669,2.968-4.591c0,0,2.3,29.037,0,33.222s-3.307,19.851-3.307,19.851l7.764.878s.811-10.6,2.634-14.383,2.815-16.773,2.815-16.773,1.642-18.878,1.37-26.98-2.634-25.525-2.634-25.525S449.87,239.624,451.645,234.613Z" transform="translate(845.242 379.777)"/>
      <path id="Path_382" data-name="Path 382" class="cls-9" d="M512.767,238.5l-8.327-3.083s10.6-11.615,11.93-5.173Z" transform="translate(804.086 382.926)"/>
      <path id="Path_383" data-name="Path 383" class="cls-19" d="M512.767,237.653l-8.327-3.083s10.6-11.615,11.93-5.173Z" transform="translate(804.086 383.37)"/>
      <path id="Path_384" data-name="Path 384" class="cls-5" d="M512.767,237.653l-8.327-3.083s10.6-11.615,11.93-5.173Z" transform="translate(804.086 383.37)"/>
      <path id="Path_385" data-name="Path 385" class="cls-9" d="M521.32,228.113a.477.477,0,0,1,.344.076Z" transform="translate(795.261 383.027)"/>
      <path id="Path_386" data-name="Path 386" class="cls-17" d="M523,226.421l22.094,4.772s6.079,1.35,10.47,16.611-6.013,33.957-6.013,33.957l-2.3-1.952,1.15,44.565s-10.2,3.846-13.438.477-2.9-19.193-2.9-19.193S528.96,276.492,527,271.7s-.954-39.363-.954-39.363S524.241,226.154,523,226.421Z" transform="translate(794.383 383.914)"/>
      <path id="Path_387" data-name="Path 387" class="cls-9" d="M565.043,285.721c-.31.286-.673,13.772.678,24.036a131,131,0,0,0,3.818,18.5l-2-41.119S565.987,284.843,565.043,285.721Z" transform="translate(772.554 353.011)"/>
      <path id="Path_388" data-name="Path 388" class="cls-9" d="M559.7,261.6c.539.339,2.906,5.941,1.823,8.236S559.7,261.6,559.7,261.6Z" transform="translate(775.196 365.517)"/>
      <path id="Path_389" data-name="Path 389" class="cls-9" d="M493.409,153.217a12.2,12.2,0,0,0-4.858-5.087,11.553,11.553,0,0,1,3.641,4.295c.954,1.909.673,3.818-1.183,4.863s-2.434,2.825-3.34,4.8c-.845,1.809-1.775,3.722-3.483,4.772-2.2,1.327-5.092.835-7.382,1.99a5.764,5.764,0,0,0-3.054,5.65,16.225,16.225,0,0,0,.654,2.582,18.46,18.46,0,0,1,.7,5.617.753.753,0,0,1-.076.358.682.682,0,0,1-.568.272,3.288,3.288,0,0,1-1.665-.31,3.875,3.875,0,0,0,2.863,1.121.563.563,0,0,0,.639-.63,18.309,18.309,0,0,0-.692-5.617,15.683,15.683,0,0,1-.654-2.586A5.75,5.75,0,0,1,478,169.661c2.291-1.155,5.187-.668,7.382-1.99,1.708-1.031,2.639-2.944,3.479-4.772.921-1.976,1.432-3.689,3.34-4.8S494.364,155.111,493.409,153.217Z" transform="translate(820.633 424.84)"/>
      <path id="Path_390" data-name="Path 390" class="cls-20" d="M698.959,225.161c-6.576-.129-12.378-4.772-15.666-10.446a10.5,10.5,0,0,1-1.584-4.471,5.16,5.16,0,0,1,.181-1.069,11.107,11.107,0,0,0,.477-1.637,2.871,2.871,0,0,0,0-.668v-.038a3.948,3.948,0,0,0-1.432-3.211c-.878-.826-1.98-1.432-2.9-2.252-2.825-2.481-3.684-6.461-3.736-10.25v-.2c.034-1.622.162-3.25.148-4.872a20.489,20.489,0,0,0-.119-2.758,9.114,9.114,0,0,0-2.949-6.1c-4.705-3.818-12.617.157-17.489-3.45-1.183-.883-2.143-2.186-3.579-2.529a6.029,6.029,0,0,0-3.269.444c-3.589,1.183-7.592,2.739-8.995,6.2-.8,1.99-.577,4.261-1.312,6.275a31.337,31.337,0,0,1-2.052,3.789,5.93,5.93,0,0,0-.763,3.164,3.57,3.57,0,0,0,.234,1.684,4.294,4.294,0,0,0,1.169,1.675,5.562,5.562,0,0,1-.7,1.117c-.916,1.121-2.324,1.909-3.278,3.025-1.766,2.047-1.7,4.829-.83,7.234s2.439,4.6,3.522,6.938a3.724,3.724,0,0,1,.358,3.164,9.067,9.067,0,0,1-1.584,1.842,5.789,5.789,0,0,0-1.432,3.2c-10.742,2.453-10.751,11.085-10.751,11.085h0l-5.8,14.592s-.931,2.458-2.023,5.7l-6.867-1.231,4.772,7.988c-.9,3.254-1.541,6.27-1.331,7.788,0,0-2.133,10.021,1.661,11.772l8.37,3.765a4.959,4.959,0,0,0,1.16.52l.339.153a.9.9,0,0,0,.783,0h.115a1.127,1.127,0,0,0,.477-.072.955.955,0,0,0,.42-.453.146.146,0,0,1,0-.048l2.505-.725,2.124,2.515c.954.673,1.909,1.255,2.811,1.78l-3.288,32.649s-.53,43.424-2.133,53.321a27.716,27.716,0,0,0-.372,7.864l-.062.1c.4,2.792,1.432,3.34,1.432,3.34v-.038a.308.308,0,0,0,.062.038,28.115,28.115,0,0,1,1.718-3.684v.716c-.033,3.684-.148,8.842-.53,12.2-.649,5.726,1.661,24.6,1.661,24.6l.8,17.179a15.882,15.882,0,0,1-1.957,8.37c-1.909,3.431-4.347,8.26-4.524,10.4a2.142,2.142,0,0,0,0,.348h0l-4.094,4.925s-1.6,2.472,2.014,3.469c1.942.539,5.292,0,7.983-.635a5.335,5.335,0,0,0,4.137-5.192,18.372,18.372,0,0,1,3.379-6.485l.673,3.956,4.5,1.117.577-10.842a4.771,4.771,0,0,0,.31-1.909h0c.888-7.711-2.09-7.019-2.09-7.019a.415.415,0,0,1,.143.267l-.143-.262h0c-1.828-3.608-.954-9.544-.954-9.544s2.386-17.179,3.2-21.717c.587-3.207.344-13.7.148-19.565a7,7,0,0,0-.024-.711c6.986-.091,15.547-.325,21.555-.907v.706l-1.107,40.585a22.28,22.28,0,0,1-1.556,7.549.414.414,0,0,1-.052.138,32.922,32.922,0,0,0-2.2,10.637l-.515,12.884v.358h0c-.9.344-2.314,1.341-2.353,4.233-.062,4.237,7.406,2.825,7.406,2.825,7.463,0,7.525-7.769,7.525-7.769s.234-7.124.592-11.892-1.126-3.717-1.126-3.717l-.115,13.562V440.765l.115-1.723v-.048h0v-.367l.94-13.986s6.876-23.306,7.94-27.777c.759-3.178.444-12.75.2-18.043a4.217,4.217,0,0,0-.038-.7c2.133-.191,4.018-.21,4.772-.21h.348s-.353-37.431-1.245-51.536-2.31-27.014-5.865-30.9c-2.147-2.348-5.139-9.6-7.158-14.965a74.854,74.854,0,0,0,13.156,4.295c11.257,2.357,9.716-7.416,9.716-7.416L692.5,258.908h.076a94.238,94.238,0,0,0-1.241-14.449,42.51,42.51,0,0,0-2.9-10.5c1.222-.477,2.429-.988,3.612-1.513,3.059-1.35,6.5-3.264,6.943-6.561h-.148a4.26,4.26,0,0,0,.115-.725Zm-69.78,26.723h0c.024,1.909-.048,5.22-.162,8.881l-3.574-4.772,3.584-5.812ZM677.07,261.576Zm1.489,7.22-5.955-1.909a26.718,26.718,0,0,1,3.679-4.552l.515-.477-.186.038.286-.262.172-.038-.272.262.324-.067a10.158,10.158,0,0,0,2.028,4.08c2.138,2.333-.587,2.925-.587,2.925Z" transform="translate(751.021 412.821)"/>
      <path id="Path_391" data-name="Path 391" class="cls-21" d="M644.495,715.66l-.7,13.209-4.443-1.112-.935-5.492Z" transform="translate(748.909 137.741)"/>
      <path id="Path_392" data-name="Path 392" class="cls-9" d="M644.495,715.66l-.7,13.209-4.443-1.112-.935-5.492Z" transform="translate(748.909 137.741)"/>
      <path id="Path_393" data-name="Path 393" class="cls-22" d="M716.48,674.822l6.776,1.4,5.025-4.438V659.28l.115-1.708v-.052h0v-.363l.935-13.9s6.781-23.139,7.836-27.582c.744-3.149.434-12.655.186-17.909-.1-2.152-.186-3.593-.186-3.593l-14.96-3.622-.315,11.5L720.8,642.344a22.328,22.328,0,0,1-1.532,7.5l-.052.138a32.79,32.79,0,0,0-2.171,10.555l-.506,12.813v.353Z" transform="translate(693.229 193.539)"/>
      <path id="Path_394" data-name="Path 394" class="cls-9" d="M741.45,730.14v.353h0v-.363Z" transform="translate(680.175 120.565)"/>
      <path id="Path_395" data-name="Path 395" class="cls-9" d="M716.48,762.659l6.776,1.4,5.025-4.438V758.56a1.432,1.432,0,0,1-.721,1.145l-.072.043a13.5,13.5,0,0,1-7.606,1.5l-2.644-.224a2.479,2.479,0,0,0-.7.172v.353Z" transform="translate(693.229 105.701)"/>
      <path id="Path_396" data-name="Path 396" class="cls-16" d="M724.989,745.523l.072-.038a1.432,1.432,0,0,0,.73-1.241l.11-13.461s1.46-1.045,1.107,3.689-.582,11.806-.582,11.806-.057,7.711-7.42,7.711c0,0-7.363,1.4-7.306-2.806s3.04-4.381,3.04-4.381l2.644.229A13.472,13.472,0,0,0,724.989,745.523Z" transform="translate(695.729 120.275)"/>
      <path id="Path_397" data-name="Path 397" class="cls-22" d="M642.52,676.789c.172,3.04,9.114,1.284,9.114,1.284l6.017-11.682s5.025-3.861,2.51-7.249a5.407,5.407,0,0,1-.367-.577l-.024-.029h0c-.052-.086-.1-.177-.148-.272h0c-1.8-3.579-.916-9.448-.916-9.448s2.333-17.064,3.154-21.564c.577-3.178.339-13.6.148-19.436-.076-2.424-.148-4.051-.148-4.051l-14.845-3.975v4.428c-.033,3.66-.148,8.78-.525,12.111-.639,5.664,1.637,24.423,1.637,24.423l.787,17.069a15.81,15.81,0,0,1-1.909,8.308c-1.861,3.407-4.295,8.208-4.462,10.331a2.1,2.1,0,0,0-.024.329Z" transform="translate(731.897 188.708)"/>
      <path id="Path_398" data-name="Path 398" class="cls-9" d="M642.515,741.184c.172,3.04,9.114,1.284,9.114,1.284l6.017-11.682s5.025-3.86,2.51-7.249a5.4,5.4,0,0,1-.367-.577c-.081,1.77-2.023,6.2-2.023,6.2s-4.968,9.94-6.547,12.216-8.441-.425-8.7-.52A2.086,2.086,0,0,0,642.515,741.184Z" transform="translate(731.901 124.313)"/>
      <path id="Path_399" data-name="Path 399" class="cls-16" d="M654.76,722.283s2.94-.682,2.062,6.972h0a4.93,4.93,0,0,1-2.324,4.376,16.711,16.711,0,0,0-6.991,9.7h0a5.287,5.287,0,0,1-4.08,5.154c-2.653.62-5.96,1.164-7.874.63-3.565-.993-1.985-3.445-1.985-3.445l4.089-4.853s7.129,2.806,8.7.525,6.547-12.211,6.547-12.211S655.633,722.927,654.76,722.283Z" transform="translate(736.759 124.676)"/>
      <path id="Path_400" data-name="Path 400" class="cls-9" d="M728.135,593.52l-.315,11.5c3.984-.387,6.838-.926,7.325-1.685,1.055-1.632,4.882-2.319,8.136-2.6-.1-2.152-.186-3.593-.186-3.593Z" transform="translate(687.301 191.986)"/>
      <path id="Path_401" data-name="Path 401" class="cls-9" d="M651.94,607.148a5.458,5.458,0,0,1,1.637-1.976c1.575-.873,1.4,5.612,1.4,5.612s5.249.048,11.954-.038c-.076-2.424-.148-4.056-.148-4.056l-14.845-3.97S651.969,604.562,651.94,607.148Z" transform="translate(726.972 187.176)"/>
      <path id="Path_402" data-name="Path 402" class="cls-15" d="M646.7,496.516s1.756-4.772,3.34-5.621,1.4,5.607,1.4,5.607,38.566.353,40.494-2.629,13.147-2.806,13.147-2.806-.348-37.164-1.226-51.183-2.276-26.823-5.784-30.679c-2.267-2.5-5.492-10.57-7.487-15.952-1.083-2.939-1.8-5.082-1.8-5.082l-36.81,2.1-.3,2.982-3.908,39.091s-.525,43.124-2.1,52.939S646.7,496.516,646.7,496.516Z" transform="translate(730.522 299.345)"/>
      <g id="Group_80" data-name="Group 80" class="cls-23" transform="translate(1375.714 687.515)">
        <path id="Path_403" data-name="Path 403" d="M698.191,493.872c1.909-2.978,13.147-2.806,13.147-2.806s-.348-37.164-1.226-51.183-2.276-26.823-5.784-30.679c-2.276-2.505-5.492-10.57-7.487-15.952-.911-2.472-1.565-4.376-1.747-4.92l2.863-.162s.721,2.143,1.809,5.082c1.995,5.383,5.216,13.457,7.482,15.952,3.507,3.856,4.91,16.654,5.784,30.679s1.231,51.183,1.231,51.183-11.219-.172-13.151,2.806c-1.646,2.543-30.025,2.663-38.261,2.639C673.42,496.487,696.7,496.172,698.191,493.872Z" transform="translate(-654.447 -388.17)"/>
        <path id="Path_404" data-name="Path 404" d="M647.087,603.35c.711-.4,1.064.7,1.241,2.033a27.521,27.521,0,0,0-1.656,3.588s-1.016-.549-1.432-3.34A6.5,6.5,0,0,1,647.087,603.35Z" transform="translate(-645.24 -500.625)"/>
      </g>
      <path id="Path_405" data-name="Path 405" class="cls-18" d="M664.187,193.963c-2.548,3.474.029,8.413-2.706,11.791-.9,1.117-2.29,1.909-3.231,3.006-1.742,2.033-1.675,4.8-.821,7.182s2.386,4.562,3.474,6.891a3.686,3.686,0,0,1,.353,3.14,8.893,8.893,0,0,1-1.565,1.828,6.591,6.591,0,0,0-.859,7,22.643,22.643,0,0,0,4.529,6.251,3.091,3.091,0,0,0,4.49,1.026,17.656,17.656,0,0,0,8.036-23.043c-1.479-3.546-3.946-6.943-3.97-10.689,0-2.973,1.527-5.812,1.8-8.771.329-3.6-1.8-9.31-6.141-10.88C667.861,191,665.48,192.178,664.187,193.963Z" transform="translate(724.407 403.635)"/>
      <path id="Path_406" data-name="Path 406" class="cls-9" d="M664.187,193.963c-2.548,3.474.029,8.413-2.706,11.791-.9,1.117-2.29,1.909-3.231,3.006-1.742,2.033-1.675,4.8-.821,7.182s2.386,4.562,3.474,6.891a3.686,3.686,0,0,1,.353,3.14,8.893,8.893,0,0,1-1.565,1.828,6.591,6.591,0,0,0-.859,7,22.643,22.643,0,0,0,4.529,6.251,3.091,3.091,0,0,0,4.49,1.026,17.656,17.656,0,0,0,8.036-23.043c-1.479-3.546-3.946-6.943-3.97-10.689,0-2.973,1.527-5.812,1.8-8.771.329-3.6-1.8-9.31-6.141-10.88C667.861,191,665.48,192.178,664.187,193.963Z" transform="translate(724.407 403.635)"/>
      <path id="Path_407" data-name="Path 407" class="cls-9" d="M700.813,464.55c-5.1.267-9.9,2.462-14.368,4.944s-8.79,5.292-13.6,7.053" transform="translate(716.04 259.413)"/>
      <path id="Path_408" data-name="Path 408" class="cls-9" d="M698.575,489.74a21.03,21.03,0,0,0-13.242,6.442c-1.241,1.312-2.31,2.782-3.6,4.042a16,16,0,0,1-7.1,4.023" transform="translate(715.109 246.243)"/>
      <path id="Path_409" data-name="Path 409" class="cls-9" d="M695.365,508.91a23.154,23.154,0,0,0-10.651,6.423c-.783.845-1.494,1.747-2.276,2.591-4.223,4.533-10.188,6.938-15.948,9.215" transform="translate(719.365 236.221)"/>
      <path id="Path_410" data-name="Path 410" class="cls-22" d="M703.907,242.79a104.7,104.7,0,0,0,1.05,12.178c.477,2.863,1.145,5.44,2.1,6.58,2.806,3.34-13.672,7.8-13.672,7.8l-9.73-7.54s7.711-7.1,4.118-14.025S703.907,242.79,703.907,242.79Z" transform="translate(710.388 375.48)"/>
      <path id="Path_411" data-name="Path 411" class="cls-9" d="M658.79,393.252H697.7c-1.083-2.939-1.8-5.082-1.8-5.082l-36.81,2.1Z" transform="translate(723.39 299.345)"/>
      <path id="Path_412" data-name="Path 412" class="cls-5" d="M645.217,331.941h41.606a14.436,14.436,0,0,1,1.665-11.033,24.386,24.386,0,0,1,4.357-5.65l.286-.262,14.526-3.216.783-.172s.119-26.412-9.234-30.039a54.679,54.679,0,0,1-14.96-8.527l-12.851,3.97-9.467-4.772c-3.04,3.269-11.1,1.985-11.1,1.985-13.2,1.517-13.2,11.453-13.2,11.453s7.711,17.995,8.3,17.995S645.217,331.941,645.217,331.941Z" transform="translate(734.458 359.954)"/>
      <path id="Path_413" data-name="Path 413" class="cls-9" d="M671.181,356.5s-8.484-1.88-11.371-5.168" transform="translate(722.857 318.605)"/>
      <path id="Path_414" data-name="Path 414" class="cls-9" d="M762.51,341.51l-9.84,8.065a16.749,16.749,0,0,0,.324,1.909l.286-.262L767.806,348Z" transform="translate(674.309 323.739)"/>
      <path id="Path_415" data-name="Path 415" class="cls-9" d="M717.46,378.923s2.152,1.212,5.449,2.806h5.655A14.436,14.436,0,0,1,730.23,370.7l-9.969-3.226C723.654,370.624,717.46,378.923,717.46,378.923Z" transform="translate(692.717 310.167)"/>
      <path id="Path_416" data-name="Path 416" class="cls-5" d="M630.651,293.76l-5.841,3.154-5.726,14.492s-5.96,15.89-5.378,20.1c0,0-2.1,9.935,1.637,11.686l9.735,4.409a.907.907,0,0,0,1.169-1.25c-1.389-2.629-2.916-6.743-.477-9l-2.806-5.841,10.14-16.6,3.388-5.726Z" transform="translate(747.268 348.703)"/>
      <path id="Path_417" data-name="Path 417" class="cls-9" d="M677.006,350.8c.506,2.062,2.214,5.249,7.869,6.437l6.2,5.082,6.6,2.992,2.691,1.217,1.141-8.241-2.591-1.432L695.9,355.2s-6.814-12.345-17.6-7.158A2.386,2.386,0,0,0,677.006,350.8Z" transform="translate(713.906 320.988)"/>
      <path id="Path_418" data-name="Path 418" class="cls-22" d="M677.758,349.359c.506,2.066,2.209,5.249,7.864,6.437l6.2,5.082,6.6,2.992,2.687,1.217,1.141-8.241-2.591-1.432-3-1.637s-6.819-12.345-17.608-7.134A2.386,2.386,0,0,0,677.758,349.359Z" transform="translate(713.509 321.726)"/>
      <circle id="Ellipse_56" data-name="Ellipse 56" class="cls-9" cx="15.074" cy="15.074" r="15.074" transform="translate(1388.35 598.81)"/>
      <circle id="Ellipse_57" data-name="Ellipse 57" class="cls-22" cx="15.074" cy="15.074" r="15.074" transform="translate(1388.35 598.462)"/>
      <path id="Path_419" data-name="Path 419" class="cls-9" d="M717.913,283.767l-4.533-8.809s6.633-2.682,7.115-5.788,6.356,3.641,5.087,5.879S717.913,283.767,717.913,283.767Z" transform="translate(694.85 361.98)"/>
      <path id="Path_420" data-name="Path 420" class="cls-5" d="M717.913,282.3l-4.533-8.809s6.633-2.682,7.115-5.788,6.356,3.646,5.087,5.879S717.913,282.3,717.913,282.3Z" transform="translate(694.85 362.748)"/>
      <path id="Path_421" data-name="Path 421" class="cls-24" d="M625.326,343.274l25.048,33.675s-9.234,5.025-21.951-3.97l-5.492-6.547L607.25,340Z" transform="translate(750.336 324.529)"/>
      <path id="Path_422" data-name="Path 422" class="cls-22" d="M634.157,375.725l2.281-.062s13.934-13.524,17.355-6.681-8.68,13.237-8.68,13.237l-3.679,1.985-4.8,1.432-3.068-4.118Z" transform="translate(736.576 310.387)"/>
      <path id="Path_423" data-name="Path 423" class="cls-9" d="M634.064,390.964a3.4,3.4,0,0,1,.057,2.357.954.954,0,0,1-.415.453,1.065,1.065,0,0,1-.477.067,4.8,4.8,0,0,1-3.145-1.556,14.365,14.365,0,0,1-2.038-2.949A5.44,5.44,0,0,1,627,385.825c.248-1.341,1.432-2.271,2.591-3.025,2.31-1.527,2.386.253,2.892,2.219S633.535,388.979,634.064,390.964Z" transform="translate(740.033 302.453)"/>
      <path id="Path_424" data-name="Path 424" class="cls-5" d="M633.332,390.964a3.432,3.432,0,0,1,.057,2.357.954.954,0,0,1-.415.453,1.074,1.074,0,0,1-.477.067,4.772,4.772,0,0,1-3.145-1.556,14.2,14.2,0,0,1-2.042-2.949,5.408,5.408,0,0,1-1.04-3.512c.243-1.341,1.432-2.271,2.586-3.025,2.314-1.527,2.386.253,2.9,2.219S632.8,388.979,633.332,390.964Z" transform="translate(740.416 302.453)"/>
      <path id="Path_425" data-name="Path 425" class="cls-9" d="M623.85,315.781l1.164-1.971L624,317.47Z" transform="translate(756.527 347.832)"/>
      <path id="Path_426" data-name="Path 426" class="cls-9" d="M721.19,374.886l2.687,1.217,1.14-8.241-2.591-1.432C724.215,368.482,722.65,372.276,721.19,374.886Z" transform="translate(690.767 310.711)"/>
      <path id="Path_427" data-name="Path 427" class="cls-9" d="M730.249,362.087s-8.675.53-12.359-1.837" transform="translate(692.492 313.942)"/>
      <g id="Group_81" data-name="Group 81" class="cls-23" transform="translate(1384.729 632.881)">
        <path id="Path_428" data-name="Path 428" d="M737.3,323.257a24.421,24.421,0,0,1,4.357-5.655,11.64,11.64,0,0,1,1.284-.7l13.524-2.777.783-.172s.119-26.412-9.229-30.039A56.174,56.174,0,0,1,733.43,275.7l1.026-.315a54.538,54.538,0,0,0,14.96,8.527c9.353,3.622,9.229,30.039,9.229,30.039h-1.4L743.4,316.6s-.6.577-.778.744a26.821,26.821,0,0,0-4.424,5.85,14.669,14.669,0,0,0-1.16,11.09h-1.432A14.587,14.587,0,0,1,737.3,323.257Z" transform="translate(-700.361 -274.574)"/>
        <path id="Path_429" data-name="Path 429" d="M664.13,277.9c.224-.033.439-.067.673-.091a24.191,24.191,0,0,0,2.863.234,26.028,26.028,0,0,1-3.536-.143Z" transform="translate(-664.13 -275.839)"/>
        <path id="Path_430" data-name="Path 430" d="M696.321,278.466l-8.561-4.333a4.532,4.532,0,0,0,.477-.453l8.933,4.519Z" transform="translate(-676.484 -273.68)"/>
      </g>
      <path id="Path_431" data-name="Path 431" class="cls-5" d="M744.822,340l5.726,7.015,1.169,19.049s1.517,9.7-9.582,7.358-23.945-9.563-23.945-9.563,6.2-8.3,2.806-11.453l15.9,5.144s2.687-.587.582-2.92S735,348.084,735,348.084Z" transform="translate(692.336 324.529)"/>
      <path id="Path_432" data-name="Path 432" class="cls-9" d="M779.42,382.17l3.154,3.622A4.547,4.547,0,0,1,779.42,382.17Z" transform="translate(660.324 302.482)"/>
      <path id="Path_433" data-name="Path 433" class="cls-9" d="M736.99,360.8l4.91,6.308-2.453.587Z" transform="translate(697.376 323.265)"/>
      <path id="Path_434" data-name="Path 434" class="cls-9" d="M665.308,195.842a5.034,5.034,0,0,1,.525-4.109,32.446,32.446,0,0,0,2.028-3.765c.721-1.995.5-4.252,1.288-6.2,1.389-3.46,5.335-5.006,8.871-6.2a5.964,5.964,0,0,1,3.226-.439c1.432.339,2.362,1.637,3.531,2.51,4.8,3.579,12.607-.363,17.25,3.426a9.03,9.03,0,0,1,2.906,6.051,53.422,53.422,0,0,1-.029,6.881c-.076,4.018.678,8.413,3.684,11.076.907.8,1.976,1.4,2.863,2.233a3.91,3.91,0,0,1,1.432,3.192,11.074,11.074,0,0,1-.477,1.622c-.6,2.095.3,4.295,1.384,6.2,3.245,5.617,8.966,10.245,15.451,10.374-.434,3.274-3.818,5.173-6.848,6.514-3.818,1.713-7.883,3.393-12.087,3.178s-8.589-2.906-9.324-7.048c-.253-1.432-.219-3.154-1.432-3.9-.744-.453-1.708-.339-2.51-.678-1.159-.477-1.732-1.78-2.114-2.978a26.8,26.8,0,0,1-1.245-7.635c-.053-3.073.353-6.428-1.389-8.957-1.613-2.343-4.476-3.531-6.337-5.683-1.718-1.995-3.584-4.4-6.4-4.772C675.663,196.185,667.608,201.477,665.308,195.842Z" transform="translate(720.112 410.775)"/>
      <path id="Path_435" data-name="Path 435" class="cls-18" d="M665.308,194.372a5.034,5.034,0,0,1,.525-4.109,32.447,32.447,0,0,0,2.028-3.765c.721-1.995.5-4.252,1.288-6.2,1.389-3.464,5.335-5.01,8.871-6.2a5.964,5.964,0,0,1,3.226-.439c1.432.339,2.362,1.637,3.531,2.51,4.8,3.579,12.607-.363,17.25,3.426a9.031,9.031,0,0,1,2.906,6.056,53.344,53.344,0,0,1-.029,6.876c-.076,4.018.678,8.413,3.684,11.076.907.8,1.976,1.4,2.863,2.233a3.91,3.91,0,0,1,1.432,3.192,11.073,11.073,0,0,1-.477,1.622c-.6,2.095.3,4.295,1.384,6.2,3.254,5.6,8.952,10.241,15.437,10.369-.434,3.273-3.818,5.173-6.848,6.518-3.817,1.708-7.883,3.388-12.087,3.173S701.7,234,700.969,229.86c-.253-1.432-.22-3.154-1.432-3.9-.745-.453-1.708-.339-2.51-.678-1.16-.477-1.732-1.78-2.114-2.978a26.777,26.777,0,0,1-1.245-7.635c-.052-3.073.353-6.428-1.389-8.957-1.613-2.343-4.476-3.531-6.337-5.683-1.718-1.995-3.584-4.4-6.4-4.772C675.663,194.715,667.608,200.017,665.308,194.372Z" transform="translate(720.112 411.544)"/>
      <path id="Path_436" data-name="Path 436" class="cls-9" d="M684.742,283.153l8.642-7.015s-5.917-3.207-6.623-5.941-5.44,1.3-4.958,3.751S684.742,283.153,684.742,283.153Z" transform="translate(711.377 361.501)"/>
      <path id="Path_437" data-name="Path 437" class="cls-5" d="M685.483,280.948l8.642-7.01s-5.917-3.207-6.595-5.941-5.44,1.3-4.958,3.751S685.483,280.948,685.483,280.948Z" transform="translate(710.975 362.651)"/>
      <circle id="Ellipse_58" data-name="Ellipse 58" class="cls-9" cx="0.687" cy="0.687" r="0.687" transform="translate(1404.751 641.772)"/>
      <circle id="Ellipse_59" data-name="Ellipse 59" class="cls-9" cx="0.687" cy="0.687" r="0.687" transform="translate(1404.751 645.589)"/>
      <circle id="Ellipse_60" data-name="Ellipse 60" class="cls-9" cx="0.687" cy="0.687" r="0.687" transform="translate(1404.751 649.402)"/>
      <g id="Group_82" data-name="Group 82" class="cls-23" transform="translate(1385.281 590.302)">
        <path id="Path_438" data-name="Path 438" d="M671.907,190.319c.682-1.875.534-3.98,1.174-5.869a6.409,6.409,0,0,0-.73,1.346c-.792,1.971-.568,4.228-1.293,6.2l-.048.115a10.9,10.9,0,0,0,.9-1.794Z" transform="translate(-668.279 -184.45)"/>
        <path id="Path_439" data-name="Path 439" d="M723.434,249.063c-3.818,1.708-7.883,3.388-12.087,3.173s-8.589-2.906-9.324-7.043c-.253-1.432-.219-3.159-1.432-3.9-.744-.453-1.708-.339-2.51-.678-1.16-.477-1.732-1.78-2.114-2.978A26.771,26.771,0,0,1,694.722,230c-.053-3.068.358-6.423-1.384-8.957-1.618-2.343-4.481-3.526-6.342-5.683-1.718-1.99-3.584-4.4-6.4-4.772-3.86-.525-11.93,4.772-14.211-.868a4.437,4.437,0,0,1,.148-3.259c-.167.282-.329.563-.477.849a5.055,5.055,0,0,0-.52,4.113c2.3,5.631,10.35.339,14.211.868,2.815.382,4.681,2.792,6.4,4.772,1.861,2.157,4.724,3.34,6.337,5.688,1.747,2.529,1.336,5.884,1.389,8.952a26.771,26.771,0,0,0,1.245,7.635,4.432,4.432,0,0,0,2.114,2.978c.8.339,1.766.229,2.51.678,1.231.744,1.2,2.486,1.432,3.9.744,4.137,5.125,6.829,9.324,7.043s8.246-1.46,12.087-3.173c2.768-1.231,5.85-2.935,6.681-5.726C727.939,246.854,725.591,248.1,723.434,249.063Z" transform="translate(-665.288 -195.957)"/>
      </g>
      <path id="Path_440" data-name="Path 440" class="cls-25" d="M863.67,293.446c-10.1-5.812-13.92-7.244-13.939-7.244l-.21-.148a8.4,8.4,0,0,1-2.543-3.216,6.709,6.709,0,0,1,0-.692.291.291,0,0,0,0,.067c.157-3.078,2.348-5.879,4.424-8.322l5.311-6.246a6.155,6.155,0,0,0,1.37-2.166,5,5,0,0,0,.143-1.331q0-.272,0-.544c-.029-1.551-.072-3.107-.129-4.657-.048-1.355-.4-3.064-1.751-3.34-.706-.143-1.642.11-2.014-.477a1.16,1.16,0,0,1-.091-.806.278.278,0,0,0,0,.067v-.076a17.973,17.973,0,0,0,.5-3.192,4.352,4.352,0,0,0-.22-1.618c-.783-2.248-3.488-3.173-5.879-3.6s-5.073-.787-6.571-2.658a19.449,19.449,0,0,0-1.307-1.8,5.159,5.159,0,0,0-2.443-1.207,13.839,13.839,0,0,0-8.89.773,7.98,7.98,0,0,1-3.584,1.136c-1.269-.076-2.443-.993-3.741-1.212-2.1-.358-4.109,1.183-5.144,3.011a7.363,7.363,0,0,0-.954,3.55v.21h0a5.191,5.191,0,0,0,1.365,3.627c.907.954,2.252,1.584,2.629,2.82.153.5.115,1.045.253,1.556a1.4,1.4,0,0,0,.057.186l-.067.091a15.747,15.747,0,0,0-3.34,9.706,16.11,16.11,0,0,0,11.319,15.27v.477a6.865,6.865,0,0,1-2.2,5.345L811.718,292.5s-8.628-1.026-11.739,11.581a21.5,21.5,0,0,0-.534,6.394,18.536,18.536,0,0,1-2.386,9.577c-3.536,6.929-2.729,22.834,4.5,24.408,6.829,1.489,9.5.868,9.782.8v.277c-.115,2.987-1.2,28.727-5.135,31.838-1.088.864-.888,1.432,0,1.837,0,0,0,.167-.024.477-.119,1.909-.725,9.067-3.34,13.132-3.059,4.724-2.739,31.972-2.739,31.972l-2.085,16.062s1.284,9.921,0,11.653c-1.15,1.541-2.677,38.242-3,46.2h-.134a3.875,3.875,0,0,0-3.092,1.909c-1.689,2.744-7.607,7.816-7.607,7.816-1.284,1.823-6.032,3.569-8.542,4.39a5.3,5.3,0,0,0-.954.42,5.092,5.092,0,0,0-2.157,2.271,2.438,2.438,0,0,0-.229,1.909c.639,1.57,13.986,2.677,17.365,1.1,2.653-1.236,13.17-2.863,17.537-3.5a3.6,3.6,0,0,0,3.121-3.121,2.057,2.057,0,0,0-.4-1.56c-.835-1.035-1.26-3.865-1.432-5.726a3.868,3.868,0,0,0,.983-.582,41.922,41.922,0,0,1,2.386-16.849c3.216-8.5,4.18-24.251,3.378-34.487,0,0,9.806-42.2,17.527-46.139h0c.119.153,3.865,4.958,4.342,19.842.477,15.117,5.946,25.038,5.946,25.038s-2.415,25.668,0,35.274l-3.154,15.151c-.234-.2-.382-.348-.382-.348s.1.42.224,1.093l-.067.324.138.029a29.822,29.822,0,0,1,.668,7.158c-.124,1.1-.434,2.615-.644,4.1-.334,2.333-.425,4.6.8,5.092,2.014.811,13.839,1.909,15.843-.687a3.717,3.717,0,0,0,.582-3.889,3.935,3.935,0,0,0-.582-.993s-3.14-5.13-2.252-8.747a2.662,2.662,0,0,0-.377-2.076,106.683,106.683,0,0,1,2.706-16.969c2.014-7.578,6.256-24.194,3.135-35.116h0q-.177-.644-.4-1.26a47.165,47.165,0,0,1-1.77-18.424,37.549,37.549,0,0,1,0-16.062c1.933-8.818,3.283-17.479,3.283-17.479s1.064-11.653.134-18.8a4.677,4.677,0,0,0-.062-.477l.506-.115s-2.734-12.125-3.7-19.842c-.229-1.823-.525-4.128-.849-6.59a16.815,16.815,0,0,0,2.62-.654c8.68-2.992,11.414-30.063,11.414-30.063v-8.589S873.8,299.273,863.67,293.446ZM798.982,502.57c-.267-.134-.425-.224-.425-.224h0Z" transform="translate(664.092 376.894)"/>
      <path id="Path_441" data-name="Path 441" class="cls-26" d="M884.093,595.4c3.765,10.827-.63,28.4-2.672,36.266a109.627,109.627,0,0,0-2.668,17.265,36.359,36.359,0,0,1-13.81-.315l3.3-16.162c-2.357-9.573,0-35.155,0-35.155s-5.335-9.887-5.807-24.952c-.477-14.826-4.118-19.622-4.233-19.77h0c-7.53,3.922-17.1,45.982-17.1,45.982.783,10.2-.162,25.892-3.3,34.358a42.47,42.47,0,0,0-2.352,16.787,5.105,5.105,0,0,1-4.295.821c-4.481-.725-9.854-4.586-9.854-4.586s1.723-45.81,2.982-47.547,0-11.615,0-11.615l2.038-16s-.315-27.152,2.668-31.857c2.577-4.066,3.169-11.214,3.283-13.089v-.477l4.543-5.44s43.94-3.3,47.242,0c.806.806,1.307,2.648,1.6,4.963.907,7.12-.134,18.73-.134,18.73s-1.317,8.632-3.2,17.417a38.23,38.23,0,0,0,0,16.01A47.923,47.923,0,0,0,884.093,595.4Z" transform="translate(638.428 231.239)"/>
      <path id="Path_442" data-name="Path 442" class="cls-21" d="M928.978,802.649c-1.961,2.591-13.495,1.494-15.461.687-1.2-.477-1.107-2.753-.783-5.077.205-1.475.506-2.982.63-4.08.31-2.825-.954-8.556-.954-8.556s2.586,2.749,3.211,0a2.993,2.993,0,0,1,2.243-2.128,5.859,5.859,0,0,1,4.075.253c2.038.888,5.435,2.772,4.829,5.321-.864,3.6,2.2,8.718,2.2,8.718a3.969,3.969,0,0,1,.573.983,3.765,3.765,0,0,1-.558,3.88Z" transform="translate(590.795 92.797)"/>
      <path id="Path_443" data-name="Path 443" class="cls-9" d="M929.1,819.1c-1.961,2.591-13.495,1.494-15.461.687-1.2-.477-1.107-2.753-.783-5.077,1.241.582,3.34,1.064,6.857.74a19.355,19.355,0,0,1,2.467-.076,57.392,57.392,0,0,0,7.492-.153A3.765,3.765,0,0,1,929.1,819.1Z" transform="translate(590.671 76.346)"/>
      <path id="Path_444" data-name="Path 444" class="cls-9" d="M851.885,632.592c.783,10.2-.162,25.892-3.3,34.358a42.469,42.469,0,0,0-2.353,16.788,5.1,5.1,0,0,1-4.295.821c.954-6.619,4.982-35.135,7.563-57.668a94.365,94.365,0,0,1,16.7-43.31l2.744,3.021C861.457,590.533,851.885,632.592,851.885,632.592Z" transform="translate(627.638 197.183)"/>
      <path id="Path_445" data-name="Path 445" class="cls-27" d="M902.221,320.02l-1.909,9.415-9.386,15.771-11.572-4.944s-15.747-16.477-5.846-18.83a8.762,8.762,0,0,0,3.283-1.46,6.789,6.789,0,0,0,2.563-5.679,17.407,17.407,0,0,0-1.594-6.747L898,301.19a32.492,32.492,0,0,0-1.432,8.2c-.157,5.516,1.909,8.232,3.574,9.544A6.079,6.079,0,0,0,902.221,320.02Z" transform="translate(612.843 344.819)"/>
      <path id="Path_446" data-name="Path 446" class="cls-9" d="M906.223,301.19a32.484,32.484,0,0,0-1.432,8.2,15.417,15.417,0,0,1-1.179,1.255,16.015,16.015,0,0,1-16.005,3.65A17.409,17.409,0,0,0,886,307.546Z" transform="translate(604.603 344.819)"/>
      <path id="Path_447" data-name="Path 447" class="cls-27" d="M898.169,278.225a15.933,15.933,0,1,1-4.668-11.339A16.01,16.01,0,0,1,898.169,278.225Z" transform="translate(614.981 365.193)"/>
      <path id="Path_448" data-name="Path 448" class="cls-9" d="M902.221,339.442l-1.909,9.415-9.386,15.771-11.572-4.944s-15.747-16.477-5.846-18.83a8.761,8.761,0,0,0,3.283-1.46c-1.785,4.905,5.583,15.113,5.583,15.113.859,1.265,2.825.477,2.825.477,4.748-.721,13.485-14.373,14.912-16.644A6.08,6.08,0,0,0,902.221,339.442Z" transform="translate(612.843 325.397)"/>
      <path id="Path_449" data-name="Path 449" class="cls-9" d="M897.737,524.866c-2.787.635-18.2,4.047-24.05,3.192-6.433-.954-18.94-1.565-18.94-1.565s-7.964.429-10.417-.692v-.477l4.543-5.44s43.94-3.3,47.242,0C896.94,520.71,897.441,522.552,897.737,524.866Z" transform="translate(626.388 231.25)"/>
      <path id="Path_450" data-name="Path 450" class="cls-5" d="M856.865,355.142s-8.279-11.453-5.158-15.938L837.72,344.93s-8.418-1.021-11.453,11.543a21.86,21.86,0,0,0-.52,6.375,18.862,18.862,0,0,1-2.3,9.544c-3.45,6.9-2.668,22.757,4.395,24.337s9.568.783,9.568.783-.954,28.717-5.02,32.015,10.4,2.51,10.4,2.51,12.507.63,18.944,1.57,24.48-3.3,24.48-3.3-2.668-12.082-3.612-19.77-3.145-24.065-3.145-24.065L895.46,364.79s2.825-13.1-7.062-18.911-13.6-7.229-13.6-7.229-9.935,16.177-15.113,16.959C859.69,355.609,857.724,356.4,856.865,355.142Z" transform="translate(638.348 325.234)"/>
      <path id="Path_451" data-name="Path 451" class="cls-9" d="M854.258,382.74s-.153,5.182.787,7.22,4.4,13.361,4.4,13.361h-7.85s4.237-4.552,3.927-6.752S854.258,382.74,854.258,382.74Z" transform="translate(622.593 302.184)"/>
      <path id="Path_452" data-name="Path 452" class="cls-27" d="M878.46,440.534s-17.332-4.237-18.944-7.845S853.45,421,853.45,421l1.828-2.462,8.427,6.614s10.021,8,14.755,8.79S878.46,440.534,878.46,440.534Z" transform="translate(621.62 283.467)"/>
      <path id="Path_453" data-name="Path 453" class="cls-28" d="M878.46,440.534s-17.332-4.237-18.944-7.845S853.45,421,853.45,421l1.828-2.462,8.427,6.614s10.021,8,14.755,8.79S878.46,440.534,878.46,440.534Z" transform="translate(621.62 283.467)"/>
      <path id="Path_454" data-name="Path 454" class="cls-27" d="M902.958,421.766v9.4H901.45A43.943,43.943,0,0,0,880.1,436.7l-2.827,1.566-.759.425-4.867-10.975,4.552-4.08h.234c1.112.11,5.927.511,7.969-.177,1.937-.659,4.342-2.744,10.05-1.288,2.811.721,5.216,3.87,7.941,2.887Z" transform="translate(612.105 281.835)"/>
      <path id="Path_455" data-name="Path 455" class="cls-9" d="M931.562,374.313l3.135,3.531V386.4s-2.668,26.99-11.138,29.972-23.6-1.727-23.6-1.727-3.908-10.355-2.081-10.975,16.153-4.409,16.153-4.409-.2-15.833,2.935-20.543c0,0-2.038-14.75,5.025-15.065S931.562,374.313,931.562,374.313Z" transform="translate(598.648 312.166)"/>
      <path id="Path_456" data-name="Path 456" class="cls-5" d="M932.564,374.313l3.14,3.531V386.4s-2.668,26.99-11.142,29.972-23.6-1.727-23.6-1.727-3.908-10.355-2.076-10.975,16.153-4.409,16.153-4.409-.205-15.833,2.935-20.543c0,0-2.042-14.75,5.02-15.065S932.564,374.313,932.564,374.313Z" transform="translate(598.122 312.166)"/>
      <path id="Path_457" data-name="Path 457" class="cls-9" d="M897.366,284.957a6.308,6.308,0,0,0-.358-3.059,2.329,2.329,0,0,0-2.491-1.432c-1.341.315-1.909,2.061-3.235,2.481a2.586,2.586,0,0,1-2.863-1.47,7.321,7.321,0,0,1-.544-3.417V274.13a6.507,6.507,0,0,0-.926-4.089c-1.093-1.393-3.665-2-5.383-1.947a4.567,4.567,0,0,0-3.073,1.236,3.955,3.955,0,0,1-3.231,1.15,2.782,2.782,0,0,1-2.252-1.947v-.048A16,16,0,1,1,896.8,289.729a43.171,43.171,0,0,0,.563-4.772Z" transform="translate(611.394 365.256)"/>
      <path id="Path_458" data-name="Path 458" class="cls-29" d="M870.716,259.377a2.806,2.806,0,0,1-2.257-1.952c-.129-.506-.1-1.045-.243-1.546-.367-1.236-1.685-1.875-2.567-2.815-1.766-1.875-1.651-4.958-.4-7.215,1.012-1.818,2.968-3.34,5.02-3,1.269.22,2.386,1.121,3.655,1.207a7.375,7.375,0,0,0,3.5-1.131,13.18,13.18,0,0,1,8.694-.773,5.011,5.011,0,0,1,2.386,1.207,20.886,20.886,0,0,1,1.274,1.789c1.46,1.861,4.08,2.229,6.413,2.648s4.972,1.346,5.726,3.588c.511,1.489,0,3.1-.277,4.648a1.4,1.4,0,0,0,.062.954c.367.6,1.279.348,1.966.477,1.322.282,1.661,1.985,1.713,3.34q.081,2.319.124,4.643a5.913,5.913,0,0,1-.138,1.718,6.066,6.066,0,0,1-1.331,2.162l-5.182,6.227c-2.3,2.758-4.739,5.974-4.295,9.544a2.223,2.223,0,0,1-2.739-1.594,7.128,7.128,0,0,1,.172-3.536,43.353,43.353,0,0,0,.83-6.132,6.29,6.29,0,0,0-.358-3.054,2.329,2.329,0,0,0-2.491-1.432c-1.346.315-1.909,2.061-3.235,2.481a2.586,2.586,0,0,1-2.863-1.47,7.3,7.3,0,0,1-.544-3.412v-3.937a6.507,6.507,0,0,0-.926-4.09c-1.093-1.393-3.665-2-5.383-1.947a4.567,4.567,0,0,0-3.068,1.236A3.962,3.962,0,0,1,870.716,259.377Z" transform="translate(615.94 375.895)"/>
      <path id="Path_459" data-name="Path 459" class="cls-9" d="M885.3,381.92l4.915,20.19S894.09,402.086,885.3,381.92Z" transform="translate(604.969 302.613)"/>
      <path id="Path_460" data-name="Path 460" class="cls-9" d="M915.556,374.85s-6.433,10.536-3.922,21.435l1.2.086S910.693,391.327,915.556,374.85Z" transform="translate(591.505 306.309)"/>
      <path id="Path_461" data-name="Path 461" class="cls-9" d="M929,499.206s7.9-2.615,8.475,3.45C937.494,502.656,936.005,498.5,929,499.206Z" transform="translate(582.122 241.587)"/>
      <path id="Path_462" data-name="Path 462" class="cls-9" d="M866.389,426.81s-1.57,10.975,1.255,15.38a34.417,34.417,0,0,1-13.81,1.885l-.954-17.265Z" transform="translate(621.918 279.144)"/>
      <path id="Path_463" data-name="Path 463" class="cls-9" d="M877.276,440.421l-.759.425L871.65,429.87l4.552-4.08h.234C876.365,426.334,875.1,435.768,877.276,440.421Z" transform="translate(612.105 279.677)"/>
      <path id="Path_464" data-name="Path 464" class="cls-5" d="M861.417,425.83s-1.57,10.975,1.255,15.375a34.318,34.318,0,0,1-13.81,1.885l-5.492-17.26Z" transform="translate(626.89 279.656)"/>
      <path id="Path_465" data-name="Path 465" class="cls-21" d="M811.98,795.529a3.555,3.555,0,0,1-3.049,3.111c-4.261.635-14.526,2.257-17.117,3.493-3.3,1.57-16.32.477-16.95-1.1a2.491,2.491,0,0,1,.224-1.909,5.03,5.03,0,0,1,2.1-2.262,5.582,5.582,0,0,1,.954-.42c2.453-.816,7.086-2.553,8.336-4.376,0,0,5.779-5.053,7.425-7.783a3.77,3.77,0,0,1,3.016-1.88c1.374-.062,2.906.63,3.536,3.641,0,0,7.525,4.295,9.544.53,0,0,.315,5.784,1.565,7.368h0A2.1,2.1,0,0,1,811.98,795.529Z" transform="translate(662.756 93.236)"/>
      <path id="Path_466" data-name="Path 466" class="cls-9" d="M811.98,808.174a3.555,3.555,0,0,1-3.049,3.111c-4.261.635-14.526,2.257-17.117,3.493-3.3,1.57-16.32.477-16.95-1.1a2.491,2.491,0,0,1,.224-1.909,5.029,5.029,0,0,1,2.1-2.262c2.123,1.432,6.838,2.787,17.207,1.169,9.892-1.546,14.793-3.059,17.179-4.089h0a2.1,2.1,0,0,1,.4,1.584Z" transform="translate(662.756 80.591)"/>
      <g id="Group_83" data-name="Group 83" class="cls-23" transform="translate(1480.24 625.065)">
        <path id="Path_467" data-name="Path 467" d="M942.432,268.161v-.076a14.052,14.052,0,0,0,.477-3.565,23.515,23.515,0,0,1-.477,2.863A1.737,1.737,0,0,0,942.432,268.161Z" transform="translate(-905.118 -261.075)"/>
        <path id="Path_468" data-name="Path 468" d="M892.442,279.074a4.539,4.539,0,0,1,.387,1.794,5.413,5.413,0,0,0-.387-2.5,2.32,2.32,0,0,0-2.486-1.432c-1.346.315-1.909,2.061-3.24,2.481a2.591,2.591,0,0,1-2.863-1.47,7.261,7.261,0,0,1-.544-3.417V270.6a6.507,6.507,0,0,0-.926-4.09c-1.1-1.4-3.665-2-5.383-1.952a4.571,4.571,0,0,0-3.073,1.241,3.965,3.965,0,0,1-3.235,1.15A2.8,2.8,0,0,1,868.439,265c-.129-.506-.1-1.05-.243-1.551-.367-1.231-1.685-1.875-2.567-2.811a5.139,5.139,0,0,1-1.322-3.34,5.349,5.349,0,0,0,1.322,4.023c.883.954,2.2,1.58,2.567,2.811.148.477.114,1.045.243,1.551a2.8,2.8,0,0,0,2.252,1.947,3.965,3.965,0,0,0,3.235-1.15A4.572,4.572,0,0,1,877,265.24c1.718-.052,4.295.554,5.383,1.952a6.545,6.545,0,0,1,.926,4.09v3.932a7.222,7.222,0,0,0,.544,3.412,2.6,2.6,0,0,0,2.863,1.475c1.317-.42,1.909-2.166,3.24-2.481A2.41,2.41,0,0,1,892.442,279.074Z" transform="translate(-864.285 -257.3)"/>
        <path id="Path_469" data-name="Path 469" d="M938.461,292.766a6.031,6.031,0,0,1-1.336,2.157l-5.182,6.227c-2.181,2.62-4.486,5.655-4.295,9,.157-3.068,2.3-5.86,4.295-8.294l5.182-6.227a6.032,6.032,0,0,0,1.336-2.157,5.957,5.957,0,0,0,.138-1.723,4.53,4.53,0,0,1-.139,1.016Z" transform="translate(-897.406 -275.311)"/>
        <path id="Path_470" data-name="Path 470" d="M921.811,327.19a3.672,3.672,0,0,1-.157-.84,4.231,4.231,0,0,0,.157,1.546c.353,1.136,1.646,2.076,2.739,1.589a6.691,6.691,0,0,1-.057-.687A2.218,2.218,0,0,1,921.811,327.19Z" transform="translate(-894.27 -293.4)"/>
      </g>
      <path id="Path_471" data-name="Path 471" class="cls-9" d="M812.69,789.36s1.642,2.863,7.587.344" transform="translate(642.93 89.599)"/>
      <path id="Path_472" data-name="Path 472" class="cls-9" d="M918,790.82s5.125,6.036,11.586,1.98" transform="translate(587.873 88.836)"/>
      <path id="Path_473" data-name="Path 473" class="cls-9" d="M945.161,641.23s-3.622,2.262-3.736,3.555,1.871-.954,1.871-.954Z" transform="translate(575.629 167.043)"/>
      <path id="Path_474" data-name="Path 474" class="cls-9" d="M945.136,677.59a7.572,7.572,0,0,1-4.462,1.742c-2.71.119-2.481,3.651-.711,2.591A44.407,44.407,0,0,0,945.136,677.59Z" transform="translate(577.085 148.033)"/>
      <path id="Path_475" data-name="Path 475" class="cls-9" d="M950.25,682.34s-1.737,8.537-3.149,6.891" transform="translate(572.659 145.55)"/>
      <path id="Path_476" data-name="Path 476" class="cls-30" d="M244.753,509.779s10.9,2.992,16.153-.988,7.525-2.7,7.525-2.7,12.517-.692,13.547-3.651-4.8-13.7-4.8-13.7c-.415-.954-1.021-2.166-1.293-2.166l.057-4.533h0l1.813-18.968c4.185-10.732.076-24.6.076-24.6l-.749-3.441a8.7,8.7,0,0,1,.711-5.726l7.6-15.27a22.847,22.847,0,0,1,1.432-2.93c.477-.873,1.112-1.952,1.909-3.245.234-.372.477-.759.744-1.164.921-1.432,2.038-3.054,3.388-4.925,3.364-4.662,5.135-10.5,6.051-14.793l.406,1.346h.091l.11.024h.181l.2.033h.072l2.338,29.758c.143,11.605,4.4,18.028,4.4,18.028l-.587,25.62c.8,6.17-.954,14.4-1.761,17.68l-1.842,4.156a5,5,0,0,0-2.715,3.779c-.363,3.068-3.593,9.682-3.593,9.682-1.25,1.584-3.965,5.865-3.965,5.865s-1.279,4.133-.487,5.679,7.416,1.389,7.416,1.389c7.563,1.675,13.361-2.386,12.994-5.182s1.179-3.507,1.179-3.507c3.006-.954,2.715-2.992,2.715-2.992a18.725,18.725,0,0,0-2.276-12.187l-.477,1.1a16.783,16.783,0,0,1,.907-6.5l-.277.191-.086.053h-.029c.477-4.185,4.872-11.93,4.872-11.93,8.074-14.163,5.139-33.356,5.139-33.356l-1.25-5.984-.072-2.257a75.336,75.336,0,0,1,1.217-16.081c.434-2.348.883-5.182,1.226-8.308a73.432,73.432,0,0,1,4.142-16.306l.32-.057h.038c.439-.076.883-.153,1.331-.239h.086s.258-1.393.477-3.765c.129-1.513.234-3.431.234-5.636a63.4,63.4,0,0,0-3.011-19.617l.243-.348s.577-.783,1.632-2.138h0c1.937-2.462,4.953-6.2,8.671-10.422,6.657-7.592,4.7-15.27,4.7-15.27s-4.82-17.661-6.967-28.264a32.143,32.143,0,0,0-5.287-12.574,25.022,25.022,0,0,0,.668-5.1c.143-3.14.033-6.413-1.379-9.234s-4.419-5.049-7.559-4.672a2.892,2.892,0,0,1-1.355,0,2.062,2.062,0,0,1-.892-.778c-1.837-2.534-1.957-5.941-1.384-9.014s1.746-6.013,2.271-9.1.286-6.5-1.675-8.947c-2.3-2.863-6.323-3.67-9.32-5.822-2.1-1.513-3.684-3.684-5.9-5.025s-4.295-.83-6.7-.324c-4.051.854-7.9,1.245-11.734,2.987a31.251,31.251,0,0,0-10.226,7.439,9.707,9.707,0,0,0-2.281,3.6c-.954,3.154.911,6.514.52,9.778-.277,2.314-1.642,4.328-2.725,6.394s-1.909,4.519-1.059,6.681c1.336,3.379,5.693,4.094,8.861,5.893a2.706,2.706,0,0,1,1.05.911c.783,1.365-.816,2.782-1.823,3.994a6.017,6.017,0,0,0-1.193,2.424,8.647,8.647,0,0,0-5.187,6.261c-1.074,4.805.577,10.87,2.033,14.879-1.589,8.928.477,12.45,2,13.8a7.659,7.659,0,0,1,2.653,5.22v.167c.1,1.622.272,3.24.5,4.853h0c-.052-.377-.1-.778-.134-.954-1.245,2.3-3.617,8.193-4.953,18.1a54.405,54.405,0,0,1-1.207,6.3,34.472,34.472,0,0,0-1.012,11.271l.239,3.212a1.012,1.012,0,0,1-.649-.215l1.675,3.068v5.178a19.087,19.087,0,0,1-1.269,6.829c-.119.315-.248.63-.387.954a5.554,5.554,0,0,0-.563,2.811c-3.6,5.521-11.863,36.462-11.863,36.462-4.481,10.145.367,16.7.367,16.7s2.348,28.245,2.787,29.705,1.412,18.677,1.412,18.677h0v1.37a3.21,3.21,0,0,0-.816-.234c-3.927-.219-4.991,5.984-4.991,5.984l-8.036,7.673s-3.67-.62-9.067,3.431S244.753,509.779,244.753,509.779Zm80.239-163.242-.024-.086-.219.129h0l-.091.052-.043.029h0l-3.7-13.07a21.7,21.7,0,0,1-.272-10.751L323.5,310.3h0v-3.016l9.1,24.251C333.185,334.8,327.779,342.719,324.992,346.537Z" transform="translate(942.586 382.093)"/>
      <path id="Path_477" data-name="Path 477" class="cls-31" d="M394.926,557a75.151,75.151,0,0,0-4.61,17.513c-.339,3.092-.778,5.889-1.207,8.208a75.005,75.005,0,0,0-1.174,15.876l.072,2.228,1.193,5.9s2.863,18.959-5.044,32.926c0,0-4.686,8.365-4.829,12.326l-3.173,1.226-6.413-1.8s3.1-11.1,2.09-18.887l.577-25.291s-4.166-6.328-4.309-17.78l-2.448-31.428Z" transform="translate(876.647 211.079)"/>
      <path id="Path_478" data-name="Path 478" class="cls-31" d="M320.323,547.62s-.787,12.254-6.848,20.7-7.349,12.111-7.349,12.111l-7.463,15.089a8.642,8.642,0,0,0-.7,5.645l.735,3.4s4.037,13.7-.072,24.294l-1.947,20.471H285.293s-.954-17.012-1.37-18.453-2.739-29.338-2.739-29.338-4.772-6.49-.363-16.506c0,0,9.949-37.483,12.612-36.834S320.323,547.62,320.323,547.62Z" transform="translate(921.974 215.983)"/>
      <g id="Group_84" data-name="Group 84" class="cls-23" transform="translate(1217.497 763.603)">
        <path id="Path_479" data-name="Path 479" d="M315.7,604.587l-.73-3.4a8.589,8.589,0,0,1,.7-5.669l7.463-15.1s1.293-3.674,7.349-12.111c5.817-8.112,6.776-19.737,6.843-20.629l1.16-.057s-.787,12.254-6.848,20.7-7.349,12.111-7.349,12.111L316.82,595.52a8.641,8.641,0,0,0-.7,5.645l.735,3.4s4.037,13.7-.072,24.294l-1.947,20.471H313.68l1.947-20.471C319.736,618.258,315.7,604.587,315.7,604.587Z" transform="translate(-313.68 -547.62)"/>
      </g>
      <path id="Path_480" data-name="Path 480" class="cls-9" d="M388.966,651.994c.143-3.961,4.829-12.326,4.829-12.326,7.931-13.982,5.044-32.926,5.044-32.926l-1.222-5.908-.072-2.228a75,75,0,0,1,1.174-15.876c.425-2.319.864-5.115,1.2-8.208a75.144,75.144,0,0,1,4.6-17.475L405.7,557a75.15,75.15,0,0,0-4.61,17.513c-.339,3.092-.778,5.889-1.207,8.208A75.007,75.007,0,0,0,398.71,598.6l.072,2.228,1.193,5.9s2.863,18.959-5.044,32.926c0,0-4.686,8.365-4.829,12.326l-3.173,1.226-.668-.186Z" transform="translate(865.872 211.079)"/>
      <path id="Path_481" data-name="Path 481" class="cls-32" d="M376.241,753.736a5.516,5.516,0,0,0,5.249-.649,16.941,16.941,0,0,0-.429,9.515c1.3,5.192-12.111-4.18-12.111-4.18l2.863-6.542S372.925,753.951,376.241,753.736Z" transform="translate(874.922 109.194)"/>
      <path id="Path_482" data-name="Path 482" class="cls-9" d="M377.249,754.012a5.358,5.358,0,0,0,4.261-.954,16.94,16.94,0,0,0-.43,9.515c1.3,5.192-12.111-4.18-12.111-4.18l2.863-6.542a4.091,4.091,0,0,0,3.269,1.842C375.842,753.778,376.548,753.878,377.249,754.012Z" transform="translate(874.911 109.209)"/>
      <path id="Path_483" data-name="Path 483" class="cls-31" d="M289.32,445.85h5.6V414.064l-4.2-.754Z" transform="translate(931.422 295.812)"/>
      <path id="Path_484" data-name="Path 484" class="cls-28" d="M289.32,445.85h5.6V414.064l-4.2-.754Z" transform="translate(931.422 295.812)"/>
      <path id="Path_485" data-name="Path 485" class="cls-33" d="M362.357,760.285a5.586,5.586,0,0,1,5.116,2.954l1.947,1.513.954-2.233a18.611,18.611,0,0,1,2.2,12.04s.286,2.014-2.667,2.954c0,0-1.513.721-1.155,3.46s-5.33,6.776-12.755,5.115c0,0-6.49.148-7.282-1.37s.506-5.55.506-5.55,2.668-4.228,3.889-5.788c0,0,3.173-6.538,3.536-9.544S360.482,758.625,362.357,760.285Z" transform="translate(885.632 105.097)"/>
      <path id="Path_486" data-name="Path 486" class="cls-32" d="M303.177,761.324l.057-4.481s-6.447,1.856-11.667-.243c0,0,.439,4.5-.286,5.12s2.415,6.413,2.415,6.413l3.507,3.674,6.032-2.2,1.637-5.154S303.607,761.324,303.177,761.324Z" transform="translate(915.585 106.726)"/>
      <path id="Path_487" data-name="Path 487" class="cls-9" d="M303.177,761.324l.057-4.481s-6.447,1.856-11.667-.243c0,0,.439,4.5-.286,5.12s2.415,6.413,2.415,6.413l3.507,3.674,6.032-2.2,1.637-5.154S303.607,761.324,303.177,761.324Z" transform="translate(915.585 106.726)"/>
      <path id="Path_488" data-name="Path 488" class="cls-33" d="M264.93,763.094s3.426.4,2.992,4.772.181,0,.181,0,3.641,1.474,4.939,3.531,3.641-1.837,3.818-2.954,1.637-1.58,1.637-1.58,5.726,10.617,4.715,13.538-13.3,3.593-13.3,3.593-2.238-1.26-7.392,2.667-15.857.954-15.857.954-8.723-3.641-3.421-7.635,8.9-3.388,8.9-3.388l7.893-7.606S261.075,762.874,264.93,763.094Z" transform="translate(941.539 103.334)"/>
      <path id="Path_489" data-name="Path 489" class="cls-34" d="M339.148,236.15c2.181,1.322,3.732,3.469,5.8,4.963,2.939,2.123,6.886,2.916,9.148,5.75,1.909,2.415,2.157,5.788,1.642,8.833s-1.67,5.951-2.228,8.986-.444,6.4,1.36,8.9a2.019,2.019,0,0,0,.873.768,2.863,2.863,0,0,0,1.331,0c3.083-.372,6.041,1.832,7.425,4.614s1.494,6.017,1.35,9.119a18.847,18.847,0,0,1-1.522,7.43c-1.909,3.894-5.879,6.3-9.8,8.141a75.891,75.891,0,0,1-7.821,3.159,11.771,11.771,0,0,1-5.669.854c-3.259-.563-5.569-3.526-8.661-4.686-2.534-.954-5.344-.611-8.041-.372-2.3.2-4.929.2-6.514-1.484-2.033-2.157-1.117-5.636-.076-8.413a5.989,5.989,0,0,1-4.237-9.792c.983-1.2,2.553-2.6,1.785-3.946a2.615,2.615,0,0,0-1.031-.9c-3.107-1.775-7.387-2.486-8.694-5.817-.84-2.143-.029-4.567,1.036-6.6s2.386-4.032,2.677-6.313c.382-3.226-1.432-6.542-.511-9.654a9.678,9.678,0,0,1,2.238-3.56,30.712,30.712,0,0,1,10.021-7.344c3.765-1.723,7.54-2.109,11.519-2.949C334.935,235.329,336.91,234.8,339.148,236.15Z" transform="translate(908.24 379.271)"/>
      <path id="Path_490" data-name="Path 490" class="cls-31" d="M319.947,337.754s-9.129-.477-10.856,7.306,3.746,18.93,3.746,18.93Z" transform="translate(906.393 325.706)"/>
      <path id="Path_491" data-name="Path 491" class="cls-28" d="M319.947,337.754s-9.129-.477-10.856,7.306,3.746,18.93,3.746,18.93Z" transform="translate(906.393 325.706)"/>
      <path id="Path_492" data-name="Path 492" class="cls-31" d="M320,340.243l3.46,2.739,16.143.721,10.078-6.919,10.25-17.589a12.672,12.672,0,0,1-9.744-9.973,21.837,21.837,0,0,1-.2-8.332s-16.434-8.508-14.416,4.772a18.037,18.037,0,0,1,.153,4.934c-.954,7.778-8.5,6.313-8.5,6.313l-2.9,4.466-3.316,10.975Z" transform="translate(900.513 346.379)"/>
      <path id="Path_493" data-name="Path 493" class="cls-9" d="M352.472,305.638a18.039,18.039,0,0,1,.153,4.934,14.568,14.568,0,0,0,14.464-1.355,21.836,21.836,0,0,1-.2-8.332S350.453,292.377,352.472,305.638Z" transform="translate(883.627 346.383)"/>
      <circle id="Ellipse_61" data-name="Ellipse 61" class="cls-31" cx="14.559" cy="14.559" r="14.559" transform="translate(1227.747 628.577)"/>
      <path id="Path_494" data-name="Path 494" class="cls-5" d="M327.578,357.665c.353,0,.7.052,1.05.086,1.909.191,9.883.62,14.425-4.805,5.082-6.07,11.849-13.567,12.125-13.872l6.886,2.081s-5.449-1.937-9.067,8.2a10.5,10.5,0,0,0,3.546,12.078,10.908,10.908,0,0,0,4.5,1.909.024.024,0,0,1,0,.024v4.447h0l-2.815,12.407a21.507,21.507,0,0,0,.267,10.617l4.295,15.179c-.649.449-27.3,18.572-45.094,6.056h0c.067-.544,2.267-18.358.74-27.076a60.2,60.2,0,0,1-.8-6.738v-.167a7.6,7.6,0,0,0-2.61-5.154c-1.6-1.432-3.775-5.249-1.627-15.337a37.06,37.06,0,0,1,2.386-7.268l5.97-13.49h0l5.5.11v.038c-.477.592-6.857,8.561-7.549,13.7C319.036,355.565,318.2,357.063,327.578,357.665Z" transform="translate(904.431 326.181)"/>
      <path id="Path_495" data-name="Path 495" class="cls-31" d="M396.8,348.008s5.383,4.614,7.5,15.089,6.824,27.873,6.824,27.873,1.909,7.592-4.614,15.089-10.861,13.361-10.861,13.361l-4.295,6.328a5.387,5.387,0,0,1-3.092,2.186,10.445,10.445,0,0,1-7.568-.539,4.409,4.409,0,0,1-1.909-5.569l.954-2.209s-8.842,5.574-9.611,2.5,10.283-6.151,10.283-6.151,9.129-1.537,10.975-5.86c0,0,9.8-12.593,9.033-16.916l-9.467-25.372s-11.839-1.565-7.8-14.864S396.8,348.008,396.8,348.008Z" transform="translate(874.326 321.698)"/>
      <path id="Path_496" data-name="Path 496" class="cls-26" d="M307.351,512.281s21.626,4.323,26.723,3.746l.549,1.828s8.208,1.837,26.766-1.107q1.818-.286,3.775-.644l.434-.076s.253-1.374.453-3.717a64.466,64.466,0,0,0-3.145-26.169l-3.121-9.611s-19.288,11.562-32.058,10.5c-1.14-.1-2.271-.186-3.412-.224-2.62-.1-6.681,0-9.32-2.114l-5.535.954v15.747a18.868,18.868,0,0,1-1.25,6.738c-.119.315-.243.625-.382.954A5.01,5.01,0,0,0,307.351,512.281Z" transform="translate(907.169 253.149)"/>
      <path id="Path_497" data-name="Path 497" class="cls-9" d="M364.58,552.154v4.9s9.448,2.114,30.974-1.828c0,0,.253-1.374.453-3.717C389.4,552.569,371.189,555.118,364.58,552.154Z" transform="translate(877.206 213.949)"/>
      <path id="Path_498" data-name="Path 498" class="cls-9" d="M307.354,546.922s21.626,4.323,26.723,3.746l.549,1.828v-4.9c-2.462,1.021-20.042-3.216-26.412-4.805-.119.315-.243.625-.382.954A5.011,5.011,0,0,0,307.354,546.922Z" transform="translate(907.166 218.508)"/>
      <path id="Path_499" data-name="Path 499" class="cls-26" d="M417.31,536.633l1.6,9.945q1.818-.286,3.775-.644c-.5-2.906-1.594-9.544-1.293-10.646l-2.018-1.727Z" transform="translate(849.639 223.334)"/>
      <path id="Path_500" data-name="Path 500" class="cls-9" d="M417.78,536.183l1.6,9.949q1.818-.291,3.775-.644c-.5-2.906-1.594-9.544-1.293-10.646l-2.019-1.732Z" transform="translate(849.393 223.569)"/>
      <g id="Group_85" data-name="Group 85" class="cls-35" transform="translate(1221.234 729.665)">
        <path id="Path_501" data-name="Path 501" d="M334.012,495.958c-1.136-.1-2.271-.186-3.412-.224-2.548-.1-6.437,0-9.09-1.952l.926-.162c2.653,2.1,6.681,2.014,9.319,2.114,1.141.038,2.271.129,3.412.224.372.033.754.052,1.141.062a21.4,21.4,0,0,1-2.3-.062Z" transform="translate(-321.51 -485.45)"/>
        <path id="Path_502" data-name="Path 502" d="M398.19,516.732q1.818-.286,3.775-.639l.439-.081s.253-1.374.449-3.717a64.3,64.3,0,0,0-3.145-26.169l-2.939-9.067c.625-.353.954-.558.954-.558l3.121,9.611a64.465,64.465,0,0,1,3.145,26.169c-.2,2.343-.453,3.717-.453,3.717l-.434.081q-1.952.353-3.775.639a118.856,118.856,0,0,1-19.445,1.67A122.625,122.625,0,0,0,398.19,516.732Z" transform="translate(-352.026 -476.5)"/>
        <path id="Path_503" data-name="Path 503" d="M360.32,559.3v.052h-.62Q360.053,559.329,360.32,559.3Z" transform="translate(-341.476 -519.789)"/>
      </g>
      <ellipse id="Ellipse_62" data-name="Ellipse 62" class="cls-32" cx="0.816" cy="1.68" rx="0.816" ry="1.68" transform="translate(1268.819 758.464)"/>
      <path id="Path_504" data-name="Path 504" class="cls-31" d="M311.311,449.511c1.317-9.782,3.641-15.595,4.867-17.871.048.31.172,1.317.229,1.627a47.252,47.252,0,0,1,.105,5.053l-1.222,22.123,1.637,6.919c1.537,5.478-4.156,1.15-4.156,1.15a3.388,3.388,0,0,1-3.34,2.31l-.3-3.97a34.291,34.291,0,0,1,.993-11.133A53.035,53.035,0,0,0,311.311,449.511Z" transform="translate(906.244 276.618)"/>
      <path id="Path_505" data-name="Path 505" class="cls-28" d="M311.311,449.511c1.317-9.782,3.641-15.595,4.867-17.871.048.31.172,1.317.229,1.627a47.252,47.252,0,0,1,.105,5.053l-1.222,22.123,1.637,6.919c1.537,5.478-4.156,1.15-4.156,1.15a3.388,3.388,0,0,1-3.34,2.31l-.3-3.97a34.291,34.291,0,0,1,.993-11.133A53.035,53.035,0,0,0,311.311,449.511Z" transform="translate(906.244 276.618)"/>
      <path id="Path_506" data-name="Path 506" class="cls-31" d="M398.822,483.361c-1.036,1.341-1.6,2.109-1.6,2.109l-4.295,6.323a5.363,5.363,0,0,1-3.092,2.186,10.42,10.42,0,0,1-7.568-.539,4.4,4.4,0,0,1-1.909-5.564l.954-2.214s-8.842,5.574-9.611,2.5,10.283-6.151,10.283-6.151,9.129-1.537,10.975-5.865c0,0,.8-1.021,1.909-2.586" transform="translate(873.505 254.702)"/>
      <path id="Path_507" data-name="Path 507" class="cls-26" d="M400.564,508.646s-10.455-1.016-13.767-7l-1.517,4.939s10.975,7.578,13.481,6.595Z" transform="translate(866.384 240.017)"/>
      <path id="Path_508" data-name="Path 508" class="cls-9" d="M399.79,508.54s-10.451-1.016-13.767-7l-1.513,4.925s10.975,7.578,13.476,6.595Z" transform="translate(866.787 240.074)"/>
      <path id="Path_509" data-name="Path 509" class="cls-26" d="M312.781,510.46s-3.66,1.3-4.381.577l1.646,3.03,3.111-2.386Z" transform="translate(906.578 235.41)"/>
      <path id="Path_510" data-name="Path 510" class="cls-9" d="M312.781,510.46s-3.66,1.3-4.381.577l1.646,3.03,3.111-2.386Z" transform="translate(906.578 235.41)"/>
      <path id="Path_511" data-name="Path 511" class="cls-9" d="M331.773,525.793V519.47l-1.5,6.475Z" transform="translate(910.013 240.311)"/>
      <path id="Path_512" data-name="Path 512" class="cls-9" d="M359.464,264.059a5.616,5.616,0,0,1-3.922,2.066,30.912,30.912,0,0,1-4.557,0,11.429,11.429,0,0,0-6.876,1.732,17.481,17.481,0,0,0-3.154,3.34c-2.949,3.6-7.043,6.977-11.691,6.6a3.03,3.03,0,0,1-2.171-.916,3.483,3.483,0,0,1-.553-1.975,45.161,45.161,0,0,1,.282-8.9,18.774,18.774,0,0,1,1.346-5.311,18.134,18.134,0,0,1,3.235-4.619,19.789,19.789,0,0,1,5.645-4.524,10.126,10.126,0,0,1,7.062-.911c2.782.759,4.948,2.935,7.6,4.056C354.74,255.966,362.786,259.368,359.464,264.059Z" transform="translate(897.148 371.39)"/>
      <path id="Path_513" data-name="Path 513" class="cls-34" d="M359.464,262.844a5.616,5.616,0,0,1-3.923,2.066,30.9,30.9,0,0,1-4.557,0,11.392,11.392,0,0,0-6.876,1.727,17.48,17.48,0,0,0-3.154,3.34c-2.949,3.6-7.043,6.977-11.691,6.6a3.011,3.011,0,0,1-2.171-.916,3.47,3.47,0,0,1-.554-1.976,45.168,45.168,0,0,1,.282-8.9,18.775,18.775,0,0,1,1.346-5.311,18.009,18.009,0,0,1,3.235-4.614,19.723,19.723,0,0,1,5.645-4.529,10.126,10.126,0,0,1,7.062-.911c2.782.759,4.948,2.935,7.6,4.056C354.74,254.75,362.786,258.143,359.464,262.844Z" transform="translate(897.148 372.028)"/>
      <path id="Path_514" data-name="Path 514" class="cls-31" d="M291.829,473.47l-.038,1.742-.391-1.665Z" transform="translate(930.335 264.36)"/>
      <path id="Path_515" data-name="Path 515" class="cls-28" d="M291.829,473.47l-.038,1.742-.391-1.665Z" transform="translate(930.335 264.36)"/>
      <g id="Group_86" data-name="Group 86" class="cls-35" transform="translate(1256.39 667.521)">
        <path id="Path_516" data-name="Path 516" d="M397.759,352.483c-4.042,13.3,7.74,14.86,7.74,14.86l9.467,25.372c.768,4.323-9.038,16.916-9.038,16.916-.682,1.613-2.386,2.839-4.247,3.746a6.652,6.652,0,0,0,2.52-2.768s9.8-12.588,9.033-16.912l-9.467-25.377s-11.777-1.56-7.74-14.86c1.35-4.443,3.34-6.466,5.354-7.191C399.992,347.387,398.718,349.319,397.759,352.483Z" transform="translate(-395.184 -346.27)"/>
      </g>
      <g id="Group_87" data-name="Group 87" class="cls-23" transform="translate(1216.971 663.016)">
        <path id="Path_517" data-name="Path 517" d="M401,384.61a9.944,9.944,0,0,0,1.909,1.809,10.847,10.847,0,0,0,4.5,1.909v.5a10.814,10.814,0,0,1-4.085-1.809A9.9,9.9,0,0,1,401,384.61Z" transform="translate(-358.806 -361.81)"/>
        <path id="Path_518" data-name="Path 518" d="M322.414,419.895v.167a61.629,61.629,0,0,0,.821,6.762c1.432,8.227-.444,24.561-.711,26.818-.153-.1-.305-.2-.477-.305.072-.544,2.271-18.357.744-27.071a60.465,60.465,0,0,1-.8-6.738v-.167a7.363,7.363,0,0,0-1.284-3.651,7.42,7.42,0,0,1,1.7,4.185Z" transform="translate(-316.829 -378.069)"/>
        <path id="Path_519" data-name="Path 519" d="M326.947,337.484l-4.667-.091a.024.024,0,0,0-.024,0l-5.965,13.485a37.178,37.178,0,0,0-2.386,7.268c-1.737,8.16-.644,12.226.682,14.235-1.494-1.761-3.035-5.774-1.112-14.793a36.784,36.784,0,0,1,2.362-7.272l6.008-13.485h0l5.5.11v.033C327.3,337.03,327.157,337.212,326.947,337.484Z" transform="translate(-312.577 -336.83)"/>
        <path id="Path_520" data-name="Path 520" d="M416.39,345.87l.081.024Z" transform="translate(-366.852 -341.556)"/>
        <path id="Path_521" data-name="Path 521" d="M368.7,343.535l-4.676-1.408H364c-.277.305-7.039,7.8-12.121,13.872-4.543,5.426-12.507,5-14.425,4.81-.348-.038-.7-.067-1.05-.091-5.216-.334-7.268-.954-7.955-2.271.978.954,3.13,1.432,7.521,1.7.353,0,.7.052,1.05.086,1.909.191,9.883.616,14.425-4.805,5.082-6.075,11.849-13.571,12.125-13.877h0l6.8,2.061a4.252,4.252,0,0,0-1.675-.076Z" transform="translate(-320.876 -339.298)"/>
      </g>
      <path id="Path_522" data-name="Path 522" class="cls-9" d="M288.159,776.506s-6.585,1.8-7.859-1.026" transform="translate(921.269 96.856)"/>
      <path id="Path_523" data-name="Path 523" class="cls-9" d="M374.081,773.618s-7.635,1.971-9.4-1.078" transform="translate(877.154 98.392)"/>
      <path id="Path_549" data-name="Path 549" class="cls-36" d="M586.16,803.13s1.3,1.2.8,1.5S586.16,803.13,586.16,803.13Z" transform="translate(761.362 82.4)"/>
      <path id="Path_550" data-name="Path 550" class="cls-36" d="M582.561,806.35s.711,1.57.205,1.742-.806-1.126-.806-1.126Z" transform="translate(763.558 80.716)"/>
      <path id="Path_551" data-name="Path 551" class="cls-36" d="M589.483,811.32s.692,1.852,0,1.852S589.483,811.32,589.483,811.32Z" transform="translate(759.786 78.118)"/>
      <ellipse id="Ellipse_67" data-name="Ellipse 67" class="cls-12" cx="12.851" cy="2.171" rx="12.851" ry="2.171" transform="translate(1161.738 851.42)"/>
      <ellipse id="Ellipse_68" data-name="Ellipse 68" class="cls-12" cx="12.851" cy="2.171" rx="12.851" ry="2.171" transform="translate(1111.113 882.213)"/>
      <ellipse id="Ellipse_69" data-name="Ellipse 69" class="cls-5" cx="19.188" cy="3.245" rx="19.188" ry="3.245" transform="translate(1091.395 853.591)"/>
      <path id="Path_576" data-name="Path 576" class="cls-5" d="M70.928,722.192a5.55,5.55,0,0,1-1.832-2.758,2.459,2.459,0,0,1,1.279-2.811c1.174-.449,2.429.363,3.379,1.183s2.042,1.761,3.288,1.589a5.006,5.006,0,0,1-1.546-4.686,1.909,1.909,0,0,1,.429-.954c.649-.7,1.832-.4,2.615.153,2.477,1.747,3.173,5.116,3.183,8.15a15.032,15.032,0,0,0,.048-3.34,3.436,3.436,0,0,1,1.26-2.968,3.816,3.816,0,0,1,1.909-.477,3.992,3.992,0,0,1,3.121.888,3.069,3.069,0,0,1-.124,3.817,12.476,12.476,0,0,1-3.226,2.586,7.119,7.119,0,0,0-2.31,2.2,2.253,2.253,0,0,0-.172.391H75.256a19.3,19.3,0,0,1-4.328-2.963Z" transform="translate(1031.72 129.338)"/>
      <ellipse id="Ellipse_70" data-name="Ellipse 70" class="cls-12" cx="12.851" cy="2.171" rx="12.851" ry="2.171" transform="translate(1561.255 869.582)"/>
      <path id="Path_577" data-name="Path 577" class="cls-10" d="M1042.91,748.771s7.33-.224,9.544-1.8,11.271-3.45,11.82-.926,11.018,12.545,2.739,12.612-19.226-1.288-21.43-2.634S1042.91,748.771,1042.91,748.771Z" transform="translate(522.569 112.889)"/>
      <path id="Path_578" data-name="Path 578" class="cls-11" d="M1067.156,762.119c-8.274.067-19.226-1.288-21.431-2.634-1.68-1.021-2.348-4.691-2.572-6.385h-.243s.477,5.912,2.667,7.253,13.156,2.7,21.431,2.634c2.386,0,3.216-.869,3.169-2.128C1069.847,761.642,1068.936,762.119,1067.156,762.119Z" transform="translate(522.569 108.556)"/>
    </g>
  </g>
</svg>
