<svg xmlns="http://www.w3.org/2000/svg" viewBox="0 0 75.965 59.927"><defs><style>.a{fill:#f2f2f2;}.b,.h{fill:#3f3d56;}.c{fill:#f66f56;}.d,.i{fill:none;}.d{stroke:#2f2e41;}.d,.h,.i{stroke-miterlimit:10;stroke-width:2px;}.e{fill:#2f2e41;}.f{fill:#fff;}.g{opacity:0.2;}.h,.i{stroke:#3f3d56;}.j{fill:#9f616a;}.k{fill:#a0616a;}</style></defs><g transform="translate(-95 -1338.895)"><path class="a" d="M171.2,107.1,156.118,88.25a5.065,5.065,0,0,1-2.44,1.232,5.347,5.347,0,0,1-6.195-4.332,5.472,5.472,0,0,1,1.889-5.33l-5.144-6.428L114.923,98.438,141.9,132.147Z" transform="translate(-19.923 1265.503)"/><path class="b" d="M255.9,308.1l-12.569,2.569a2.431,2.431,0,0,0-1.74,3.357l14.329,32.7a3.193,3.193,0,0,0,3.86,1.771l14.483-4.459a2.728,2.728,0,0,0,1.606-3.888l-16.156-30.379A3.614,3.614,0,0,0,255.9,308.1Z" transform="translate(-136.483 1049.243)"/><path class="c" d="M251.9,314.34l2.067-.407h0a1.467,1.467,0,0,0,1.581.807l7.468-1.34a.524.524,0,0,0,.4-.681l-.2-.609,2.057-.406a2.038,2.038,0,0,1,2.185,1.026l16.732,30.792A2.031,2.031,0,0,1,283,346.434l-14.26,4.337a2.554,2.554,0,0,1-3.072-1.4l-14.832-32.968a1.486,1.486,0,0,1,1.067-2.067Z" transform="translate(-145.073 1045.889)"/><line class="d" x1="3.054" y2="0.626" transform="translate(112.669 1358.867)"/><ellipse class="e" cx="0.313" cy="0.274" rx="0.313" ry="0.274" transform="translate(111.573 1359.337)"/><path class="f" d="M241.654,255.057l13.468,28.893,18.714-5.09v-.626l-14.564-27.171-17.3,3.758-.082.062Z" transform="translate(-127.732 1107.49)"/><path class="g" d="M241.654,300.027l13.468,28.893,18.714-5.09V323.2L255.2,328.451l-13.315-28.6Z" transform="translate(-127.732 1062.521)"/><line class="h" x1="13.781" y2="3.524" transform="translate(124.18 1374.763)"/><line class="h" x1="13.859" y2="3.602" transform="translate(124.884 1376.25)"/><line class="h" x1="8.691" y2="2.349" transform="translate(128.251 1378.286)"/><path class="c" d="M434.654,553.961l1.269,2.763.062.134.216-.055,10.511-2.686v-.392l-1.409-2.662-10.414,2.819-.093.031Z" transform="translate(-305.62 830.981)"/><path class="g" d="M434.654,585.3l1.269,2.763.062.134.216-.055,10.511-2.686v-.392l-10.571,2.819-1.346-2.631Z" transform="translate(-305.62 799.643)"/><line class="i" x2="69.532" transform="translate(101.433 1397.823)"/><path class="h" d="M473.628,414.591c-.9-2.343-3.373-3.686-5.36-3.053-1.822.58-2.571,2.638-1.8,4.639a4.828,4.828,0,0,0,4.8,3.178C473.382,419.077,474.524,416.934,473.628,414.591Z" transform="translate(-343.662 953.98)"/><path class="g" d="M473.628,414.591c-.9-2.343-3.373-3.686-5.36-3.053-1.822.58-2.571,2.638-1.8,4.639a4.828,4.828,0,0,0,4.8,3.178C473.382,419.077,474.524,416.934,473.628,414.591Z" transform="translate(-343.662 953.98)"/><path class="h" d="M478.628,409.591c-.9-2.343-3.373-3.686-5.36-3.054-1.822.58-2.57,2.638-1.8,4.639a4.828,4.828,0,0,0,4.8,3.178C478.382,414.078,479.524,411.934,478.628,409.591Z" transform="translate(-348.27 958.588)"/><circle class="i" cx="1.155" cy="1.155" r="1.155" transform="translate(142.347 1342.197)"/><circle class="i" cx="1.155" cy="1.155" r="1.155" transform="translate(157.616 1375.788)"/><circle class="i" cx="1.155" cy="1.155" r="1.155" transform="translate(107.21 1345.094)"/><circle class="a" cx="4.253" cy="4.253" r="4.253" transform="translate(128.283 1345.583)"/><circle class="e" cx="2.881" cy="2.881" r="2.881" transform="translate(146.378 1354.408)"/><path class="j" d="M716.985,692.377l.548,2.349H716.2l-.548-2.662Z" transform="translate(-564.617 701.021)"/><path class="j" d="M634.985,696.064v2.192l-1.331.157v-2.349Z" transform="translate(-489.038 697.334)"/><path class="j" d="M822.161,450.537a32.07,32.07,0,0,1-.313,3.6c-.157.235-1.566,3.6-1.566,3.6l-.7-2.192s1.1-1.8.94-2.819a11.7,11.7,0,0,1-.058-2.271Z" transform="translate(-669.401 917.962)"/><circle class="j" cx="2.192" cy="2.192" r="2.192" transform="translate(146.104 1355.97)"/><path class="j" d="M787.239,322.456s-.078,3.132.47,3.6-3.132.078-3.132.078.783-2.192.157-2.662S787.239,322.456,787.239,322.456Z" transform="translate(-637.142 1035.942)"/><path class="e" d="M726.4,358.18s.47-.861,1.1-.783a16.168,16.168,0,0,1,2.741.392,4.669,4.669,0,0,0,.47.861c.157.157,1.331.391,1.409,1.331s-2.819,6.656-2.819,6.656a6.8,6.8,0,0,1,.313,1.644c-.078.313.391,1.253.313,1.644s1.174,2.741.548,5.794v4.933s2.114,8.535,1.488,9.161-2.741.235-3.132,0-2.036-12.058-2.036-12.058l-.783-3.993-.078,8.77s.157,7.36-.392,7.6-2.662.313-2.819-.157c-.122-.366-.721-10.116-.978-14.389a15.965,15.965,0,0,1,.345-4.4,12.569,12.569,0,0,1,1.338-3.92c1.018-1.331,1.644-5.559,1.644-5.559l-1.331-2.427s.783-.783,1.253-.783A6.451,6.451,0,0,0,726.4,358.18Z" transform="translate(-579.201 1003.741)"/><path class="e" d="M830.592,383.456l.413.281s.292,5.043.057,5.357a2.339,2.339,0,0,1-1.991-.116A56.967,56.967,0,0,1,830.592,383.456Z" transform="translate(-678.146 979.718)"/><path class="j" d="M676.172,436.866c.229,1.59.43,3.005-.742,4.286a21.992,21.992,0,0,1-3.957,3.427c-.144.381-2.254,3.177-2.361,2.062s.622-1.99,1.658-2.933a32.854,32.854,0,0,0,3.3-4.112c.818-1.123.481-1.823.453-2.761S675.851,436.878,676.172,436.866Z" transform="translate(-530.708 930.893)"/><path class="e" d="M735.594,781.255a2.675,2.675,0,0,1-.313,1.112,1.564,1.564,0,0,0-.783,1.409c.078.861.587.9.587.9l-.039-.2.235.078.039.117h2.192a7.058,7.058,0,0,0-.039-1.214c-.078-.391-.078-2.271-.313-2.192s-.861.157-1.018.47S735.516,781.944,735.594,781.255Z" transform="translate(-590.978 613.067)"/><path class="e" d="M827.88,781.255a2.674,2.674,0,0,0,.313,1.112,1.564,1.564,0,0,1,.783,1.409c-.078.861-.587.9-.587.9l.039-.2-.235.078-.039.117h-2.192a7.064,7.064,0,0,1,.039-1.214c.078-.391.078-2.271.313-2.192s.861.157,1.018.47S827.958,781.944,827.88,781.255Z" transform="translate(-675.277 613.067)"/><path class="e" d="M736.943,378.456l-1.1.235a8.638,8.638,0,0,1-.313,2.427c-.313.7-.861,2.349-.626,2.427s2.427,1.174,2.584.548S738.039,378.456,736.943,378.456Z" transform="translate(-591.309 984.327)"/><circle class="e" cx="2.881" cy="2.881" r="2.881" transform="translate(149.5 1350.615)"/><path class="e" d="M827.106,258.608a2.882,2.882,0,0,1-4.45-1.513,2.882,2.882,0,1,0,5.621-1.182A2.881,2.881,0,0,1,827.106,258.608Z" transform="translate(-672.24 1097.273)"/><circle class="e" cx="2.113" cy="2.113" r="2.113" transform="translate(147.915 1355.657)"/><ellipse class="e" cx="1.873" cy="1.465" rx="1.873" ry="1.465" transform="translate(146.378 1355.513)"/><ellipse class="k" cx="0.355" cy="0.629" rx="0.355" ry="0.629" transform="translate(147.396 1357.85)"/></g></svg>