<svg xmlns="http://www.w3.org/2000/svg" xmlns:xlink="http://www.w3.org/1999/xlink" viewBox="0 0 960 960"><defs><style>.cls-1{fill:url(#linear-gradient);}.cls-2{fill:url(#linear-gradient-2);}.cls-14,.cls-3{opacity:0.2;}.cls-11,.cls-4,.cls-5{fill:#f37057;}.cls-41,.cls-5,.cls-7{opacity:0.1;}.cls-11,.cls-12,.cls-14,.cls-41,.cls-44,.cls-5,.cls-7{isolation:isolate;}.cls-6{fill:#545562;}.cls-22,.cls-44,.cls-7{fill:#010101;}.cls-8{fill:#e0e1e0;}.cls-9{fill:#eeedee;}.cls-10,.cls-12,.cls-14{fill:#fff;}.cls-11,.cls-17{opacity:0.7;}.cls-12{opacity:0.15;}.cls-13{fill:none;stroke:#545562;stroke-miterlimit:10;stroke-width:2px;}.cls-15{fill:#4cb6ac;}.cls-16{fill:#5d2a1c;}.cls-18{fill:url(#linear-gradient-3);}.cls-19{fill:#fab697;}.cls-20{fill:#5d84c3;}.cls-21,.cls-44{opacity:0.05;}.cls-23{fill:#f16046;}.cls-24{fill:#333;}.cls-25{fill:url(#linear-gradient-4);}.cls-26{fill:url(#linear-gradient-5);}.cls-27{fill:#f8a57e;}.cls-28{fill:#edeef8;}.cls-29{fill:#7c7579;}.cls-30{fill:#252b62;}.cls-31{fill:#72361c;}.cls-32{fill:#fcf5a8;}.cls-33{opacity:0.3;}.cls-34{opacity:0.7;}.cls-35{fill:#131543;}.cls-36{opacity:0.5;}.cls-37{fill:url(#linear-gradient-6);}.cls-38{fill:#57bf99;}.cls-39{fill:#381e1d;}.cls-40{fill:#f79225;}.cls-41{fill:#daa5a3;}.cls-42{fill:#fdd838;}.cls-43{fill:url(#linear-gradient-7);}</style><linearGradient id="linear-gradient" x1="508.21" y1="708.47" x2="661.48" y2="261.25" gradientTransform="matrix(1.12, -0.3, 0.32, 1.04, -227.03, 183.57)" gradientUnits="userSpaceOnUse"><stop offset="0" stop-color="#f7a9ab"/><stop offset="1" stop-color="#bfbadd"/></linearGradient><linearGradient id="linear-gradient-2" x1="306.33" y1="668.36" x2="459.31" y2="221.98" gradientTransform="matrix(1.07, -0.21, 0.31, 0.73, -180.62, 254.91)" xlink:href="#linear-gradient"/><linearGradient id="linear-gradient-3" x1="498.41" y1="39.37" x2="498.41" y2="105.35" gradientTransform="matrix(1, 0, 0, -1, -144.58, 703.79)" gradientUnits="userSpaceOnUse"><stop offset="0" stop-color="#818181" stop-opacity="0.25"/><stop offset="0.54" stop-color="#818181" stop-opacity="0.12"/><stop offset="1" stop-color="#818181" stop-opacity="0.1"/></linearGradient><linearGradient id="linear-gradient-4" x1="620.6" y1="102.81" x2="620.6" y2="113.77" xlink:href="#linear-gradient-3"/><linearGradient id="linear-gradient-5" x1="634.65" y1="38.17" x2="634.65" y2="120.39" xlink:href="#linear-gradient-3"/><linearGradient id="linear-gradient-6" x1="795.6" y1="37.36" x2="795.6" y2="119.45" xlink:href="#linear-gradient-3"/><linearGradient id="linear-gradient-7" x1="375.18" y1="35.38" x2="375.18" y2="116.96" xlink:href="#linear-gradient-3"/></defs><title>Artboard 1</title><g id="Layer_2" data-name="Layer 2"><rect class="cls-1" x="347.48" y="166.31" width="481.91" height="670.47" rx="228.53" ry="228.53" transform="translate(161.57 -143.12) rotate(16.05)"/><rect class="cls-2" x="136.54" y="256.3" width="457.07" height="467.64" rx="228.53" ry="228.53" transform="translate(149.71 -81.82) rotate(16.05)"/></g><g id="Layer_1" data-name="Layer 1"><g class="cls-3"><path class="cls-4" d="M368.53,494.09c0-18.53-5.71-35.37-15-47.9a44.95,44.95,0,1,0-81,0c-9.31,12.53-15,29.37-15,47.9s5.71,35.37,15,47.9a44.95,44.95,0,1,0,81,0C362.81,529.46,368.53,512.62,368.53,494.09Z"/><path class="cls-5" d="M368.53,494.09c0-18.53-5.71-35.37-15-47.9a44.95,44.95,0,1,0-81,0c-9.31,12.53-15,29.37-15,47.9s5.71,35.37,15,47.9a44.95,44.95,0,1,0,81,0C362.81,529.46,368.53,512.62,368.53,494.09Z"/><path class="cls-4" d="M371.17,494.09c0-18.53-5.71-35.37-15-47.9a44.95,44.95,0,1,0-81,0c-9.31,12.53-15,29.37-15,47.9s5.71,35.37,15,47.9a44.95,44.95,0,1,0,81,0C365.42,529.46,371.17,512.62,371.17,494.09Z"/><polygon class="cls-4" points="320.94 664.62 310.36 664.62 315.65 490.12 320.94 664.62"/><polygon class="cls-4" points="316.97 533.73 351.34 519.2 316.97 537.71 316.97 533.73"/><polygon class="cls-4" points="313.85 549.61 303.75 537.71 313.65 556.22 313.85 549.61"/></g><g class="cls-3"><path class="cls-4" d="M449.17,554a52.19,52.19,0,0,0-9.71-31,29,29,0,1,0-52.35,0,54.34,54.34,0,0,0,0,62,29,29,0,1,0,52.35,0A52.4,52.4,0,0,0,449.17,554Z"/><path class="cls-5" d="M449.17,554a52.19,52.19,0,0,0-9.71-31,29,29,0,1,0-52.35,0,54.34,54.34,0,0,0,0,62,29,29,0,1,0,52.35,0A52.4,52.4,0,0,0,449.17,554Z"/><path class="cls-4" d="M450.88,554a52.19,52.19,0,0,0-9.71-31,29,29,0,1,0-52.35,0,54.34,54.34,0,0,0,0,62,29,29,0,1,0,52.35,0A52.4,52.4,0,0,0,450.88,554Z"/><polygon class="cls-4" points="418.41 664.19 411.57 664.19 414.99 551.41 418.41 664.19"/><polygon class="cls-4" points="415.85 579.6 438.06 570.2 415.85 582.17 415.85 579.6"/><polygon class="cls-4" points="413.83 589.86 407.3 582.17 413.7 594.13 413.83 589.86"/></g><rect class="cls-6" x="339.43" y="621.75" width="1.22" height="18.37"/><rect class="cls-6" x="338.21" y="642.57" width="3.06" height="21.43"/><rect class="cls-6" x="403.11" y="642.57" width="3.06" height="21.43"/><rect class="cls-7" x="338.21" y="642.57" width="3.06" height="21.43"/><rect class="cls-7" x="403.11" y="642.57" width="3.06" height="21.43"/><rect class="cls-6" x="404.34" y="621.75" width="1.22" height="18.37"/><rect class="cls-7" x="339.43" y="621.75" width="1.22" height="18.37"/><rect class="cls-7" x="404.34" y="621.75" width="1.22" height="18.37"/><rect class="cls-6" x="333.92" y="620.53" width="77.15" height="3.67"/><rect class="cls-6" x="333.92" y="626.65" width="77.15" height="3.67"/><rect class="cls-6" x="333.92" y="632.78" width="77.15" height="3.67"/><rect class="cls-6" x="333.92" y="639.51" width="77.15" height="6.74"/><rect class="cls-8" x="239.93" y="399.78" width="27.55" height="53.27"/><polygon class="cls-9" points="295.96 481.53 295.96 663.39 48.57 663.39 48.57 481.53 69.39 468.73 88.99 456.68 172.57 405.3 295.96 481.53"/><polygon class="cls-7" points="264.73 663.39 264.73 472.12 261.05 474.38 261.05 663.39 264.73 663.39"/><rect class="cls-4" x="144.71" y="578.59" width="55.11" height="84.5"/><circle class="cls-6" cx="191.55" cy="620.84" r="2.45"/><rect class="cls-7" x="239.93" y="400.4" width="27.55" height="3.06"/><rect class="cls-8" x="235.03" y="396.72" width="36.74" height="6.12"/><rect class="cls-7" x="48.57" y="524.39" width="247.38" height="4.9"/><rect class="cls-10" x="48.57" y="523.78" width="247.38" height="4.9"/><rect class="cls-7" x="257.99" y="396.72" width="6.74" height="56.33"/><rect class="cls-7" x="253.09" y="397.03" width="1.84" height="56.33"/><polygon class="cls-7" points="289.83 474.18 289.83 663.39 270.24 663.39 270.24 468.73 289.83 474.18"/><polygon class="cls-7" points="83.48 456.68 83.48 663.39 63.88 663.39 63.88 468.73 83.48 456.68"/><polygon class="cls-7" points="58.37 663.39 58.37 472.12 54.7 474.38 54.7 663.39 58.37 663.39"/><polygon class="cls-7" points="172.57 385.09 25 492.25 34.8 508.17 172.57 414.48 310.35 508.17 320.14 492.25 172.57 385.09"/><polygon class="cls-4" points="172.57 383.86 25 491.02 34.8 506.94 172.57 413.26 310.35 506.94 320.14 491.02 172.57 383.86"/><rect class="cls-11" x="69.09" y="557.77" width="51.44" height="51.44"/><rect class="cls-7" x="66.94" y="607.67" width="55.11" height="6.12"/><rect class="cls-6" x="66.94" y="606.45" width="55.11" height="6.12"/><polygon class="cls-12" points="90.59 558.07 69.39 587.32 69.39 572.42 81.31 558.07 90.59 558.07"/><polygon class="cls-12" points="108.8 558.07 69.39 599.48 69.39 592.17 98.8 558.07 108.8 558.07"/><line class="cls-13" x1="69.09" y1="583.48" x2="120.52" y2="583.48"/><line class="cls-13" x1="69.39" y1="558.07" x2="120.83" y2="558.07"/><line class="cls-13" x1="94.81" y1="557.77" x2="94.81" y2="609.2"/><line class="cls-13" x1="120.22" y1="558.07" x2="120.22" y2="609.51"/><line class="cls-13" x1="69.39" y1="557.46" x2="69.39" y2="608.9"/><rect class="cls-11" x="224" y="557.76" width="51.44" height="51.44"/><rect class="cls-7" x="222.47" y="607.68" width="55.11" height="6.12"/><rect class="cls-6" x="222.47" y="606.45" width="55.11" height="6.12"/><polygon class="cls-12" points="253.94 558.07 275.14 587.32 275.14 572.42 263.22 558.07 253.94 558.07"/><polygon class="cls-12" points="235.73 558.07 275.14 599.48 275.14 592.17 245.73 558.07 235.73 558.07"/><line class="cls-13" x1="275.44" y1="583.48" x2="224.01" y2="583.48"/><line class="cls-13" x1="275.14" y1="558.07" x2="223.7" y2="558.07"/><line class="cls-13" x1="249.73" y1="557.77" x2="249.73" y2="609.2"/><line class="cls-13" x1="224.31" y1="558.07" x2="224.31" y2="609.51"/><line class="cls-13" x1="275.14" y1="557.46" x2="275.14" y2="608.9"/><rect class="cls-11" x="146.24" y="453.05" width="51.44" height="51.44"/><rect class="cls-7" x="144.71" y="502.97" width="55.11" height="6.12"/><rect class="cls-6" x="144.71" y="501.74" width="55.11" height="6.12"/><polygon class="cls-12" points="176.17 453.36 197.37 482.61 197.37 467.71 185.46 453.36 176.17 453.36"/><polygon class="cls-12" points="157.96 453.36 197.37 494.77 197.37 487.46 167.96 453.36 157.96 453.36"/><line class="cls-13" x1="197.68" y1="478.78" x2="146.24" y2="478.78"/><line class="cls-13" x1="197.37" y1="453.36" x2="145.94" y2="453.36"/><line class="cls-13" x1="171.96" y1="453.06" x2="171.96" y2="504.49"/><line class="cls-13" x1="146.55" y1="453.36" x2="146.55" y2="504.8"/><line class="cls-13" x1="197.37" y1="452.75" x2="197.37" y2="504.19"/><rect class="cls-6" x="144.71" y="651.15" width="55.11" height="12.25"/><rect class="cls-8" x="690.91" y="523.17" width="192.27" height="140.22"/><polygon class="cls-7" points="869.1 663.39 869.1 472.12 865.42 474.38 865.42 663.39 869.1 663.39"/><polygon class="cls-7" points="879.51 663.39 879.51 472.12 875.83 474.38 875.83 663.39 879.51 663.39"/><rect class="cls-7" x="690.91" y="526.23" width="192.27" height="15.92"/><polygon class="cls-4" points="901.55 539.09 608.86 539.09 608.86 404.99 853.79 404.99 901.55 539.09"/><polygon class="cls-7" points="901.55 539.09 608.86 539.09 608.86 404.99 853.79 404.99 901.55 539.09"/><rect class="cls-7" x="692.75" y="523.17" width="15.92" height="140.22"/><rect class="cls-8" x="650.8" y="399.78" width="27.55" height="53.27"/><polygon class="cls-9" points="706.83 481.53 706.83 663.39 459.45 663.39 459.45 481.53 480.27 468.73 499.86 456.68 583.45 405.3 706.83 481.53"/><rect class="cls-4" x="555.59" y="578.59" width="55.11" height="84.5"/><circle class="cls-6" cx="602.43" cy="620.84" r="2.45"/><rect class="cls-7" x="650.8" y="400.4" width="27.55" height="3.06"/><rect class="cls-8" x="645.9" y="396.72" width="36.74" height="6.12"/><rect class="cls-7" x="459.45" y="524.39" width="247.38" height="4.9"/><rect class="cls-10" x="459.45" y="523.78" width="247.38" height="4.9"/><rect class="cls-7" x="668.87" y="396.72" width="6.74" height="56.33"/><rect class="cls-7" x="663.97" y="397.03" width="1.84" height="56.33"/><polygon class="cls-7" points="700.71 474.18 700.71 663.39 681.11 663.39 681.11 468.73 700.71 474.18"/><polygon class="cls-7" points="494.35 456.68 494.35 663.39 474.76 663.39 474.76 468.73 494.35 456.68"/><polygon class="cls-7" points="469.25 663.39 469.25 472.12 465.57 474.38 465.57 663.39 469.25 663.39"/><polygon class="cls-7" points="583.45 385.09 435.87 492.25 445.67 508.17 583.45 414.48 721.22 508.17 731.02 492.25 583.45 385.09"/><polygon class="cls-4" points="583.45 383.86 435.87 491.02 445.67 506.94 583.45 413.26 721.22 506.94 731.02 491.02 583.45 383.86"/><rect class="cls-11" x="479.96" y="557.77" width="51.44" height="51.44"/><rect class="cls-7" x="477.82" y="607.67" width="55.11" height="6.12"/><rect class="cls-6" x="477.82" y="606.45" width="55.11" height="6.12"/><polygon class="cls-12" points="501.47 558.07 480.27 587.32 480.27 572.42 492.18 558.07 501.47 558.07"/><polygon class="cls-12" points="519.68 558.07 480.27 599.48 480.27 592.17 509.68 558.07 519.68 558.07"/><line class="cls-13" x1="479.96" y1="583.48" x2="531.4" y2="583.48"/><line class="cls-13" x1="480.27" y1="558.07" x2="531.7" y2="558.07"/><line class="cls-13" x1="505.68" y1="557.77" x2="505.68" y2="609.2"/><line class="cls-13" x1="531.09" y1="558.07" x2="531.09" y2="609.51"/><line class="cls-13" x1="480.27" y1="557.46" x2="480.27" y2="608.9"/><rect class="cls-11" x="634.88" y="557.76" width="51.44" height="51.44"/><rect class="cls-7" x="633.35" y="607.68" width="55.11" height="6.12"/><rect class="cls-6" x="633.35" y="606.45" width="55.11" height="6.12"/><polygon class="cls-12" points="664.81 558.07 686.01 587.32 686.01 572.42 674.1 558.07 664.81 558.07"/><polygon class="cls-12" points="646.6 558.07 686.01 599.48 686.01 592.17 656.6 558.07 646.6 558.07"/><line class="cls-13" x1="686.32" y1="583.48" x2="634.88" y2="583.48"/><line class="cls-13" x1="686.01" y1="558.07" x2="634.58" y2="558.07"/><line class="cls-13" x1="660.6" y1="557.77" x2="660.6" y2="609.2"/><line class="cls-13" x1="635.19" y1="558.07" x2="635.19" y2="609.51"/><line class="cls-13" x1="686.01" y1="557.46" x2="686.01" y2="608.9"/><rect class="cls-11" x="557.12" y="453.05" width="51.44" height="51.44"/><rect class="cls-7" x="555.59" y="502.97" width="55.11" height="6.12"/><rect class="cls-6" x="555.59" y="501.74" width="55.11" height="6.12"/><polygon class="cls-12" points="587.05 453.36 608.25 482.61 608.25 467.71 596.33 453.36 587.05 453.36"/><polygon class="cls-12" points="568.84 453.36 608.25 494.77 608.25 487.46 578.84 453.36 568.84 453.36"/><line class="cls-13" x1="608.55" y1="478.78" x2="557.12" y2="478.78"/><line class="cls-13" x1="608.25" y1="453.36" x2="556.81" y2="453.36"/><line class="cls-13" x1="582.83" y1="453.06" x2="582.83" y2="504.49"/><line class="cls-13" x1="557.42" y1="453.36" x2="557.42" y2="504.8"/><line class="cls-13" x1="608.25" y1="452.75" x2="608.25" y2="504.19"/><rect class="cls-6" x="555.59" y="651.15" width="55.11" height="12.25"/><rect class="cls-11" x="721.53" y="567.87" width="139.61" height="63.68"/><rect class="cls-7" x="719.69" y="629.71" width="143.29" height="6.12"/><rect class="cls-6" x="719.69" y="628.49" width="143.29" height="6.12"/><polygon class="cls-14" points="740.82 567.87 721.53 583.79 721.53 592.06 751.53 567.87 740.82 567.87"/><rect class="cls-6" x="788.88" y="568.87" width="4.9" height="63.68"/><rect class="cls-6" x="721.88" y="568.87" width="4.9" height="63.68"/><rect class="cls-6" x="855.88" y="568.87" width="4.9" height="63.68"/><rect class="cls-6" x="721.52" y="597.26" width="139.61" height="4.9"/><rect class="cls-6" x="721.52" y="568.26" width="139.61" height="4.9"/><polygon class="cls-14" points="759.8 567.87 721.53 604.3 721.53 613.49 768.06 567.76 759.8 567.87"/><path class="cls-15" d="M314.94,584.4a37.32,37.32,0,0,0-7-22.19,20.82,20.82,0,1,0-37.52,0,38.85,38.85,0,0,0,0,44.38,20.82,20.82,0,1,0,37.52,0A37.32,37.32,0,0,0,314.94,584.4Z"/><path class="cls-7" d="M314.94,584.4a37.32,37.32,0,0,0-7-22.19,20.82,20.82,0,1,0-37.52,0,38.85,38.85,0,0,0,0,44.38,20.82,20.82,0,1,0,37.52,0A37.32,37.32,0,0,0,314.94,584.4Z"/><path class="cls-15" d="M316.16,584.4a37.32,37.32,0,0,0-7-22.19,20.82,20.82,0,1,0-37.52,0,38.85,38.85,0,0,0,0,44.38,20.82,20.82,0,1,0,37.52,0A37.32,37.32,0,0,0,316.16,584.4Z"/><polygon class="cls-16" points="292.89 663.39 288 663.39 290.45 582.56 292.89 663.39"/><polygon class="cls-16" points="291.06 602.77 306.98 596.04 291.06 604.61 291.06 602.77"/><polygon class="cls-16" points="289.61 610.12 284.94 604.61 289.52 613.18 289.61 610.12"/><path class="cls-15" d="M934.62,584.4a37.32,37.32,0,0,0-7-22.19,20.82,20.82,0,1,0-37.52,0,38.85,38.85,0,0,0,0,44.38,20.82,20.82,0,1,0,37.52,0A37.32,37.32,0,0,0,934.62,584.4Z"/><path class="cls-7" d="M934.62,584.4a37.32,37.32,0,0,0-7-22.19,20.82,20.82,0,1,0-37.52,0,38.85,38.85,0,0,0,0,44.38,20.82,20.82,0,1,0,37.52,0A37.32,37.32,0,0,0,934.62,584.4Z"/><path class="cls-15" d="M935.84,584.4a37.32,37.32,0,0,0-7-22.19,20.82,20.82,0,1,0-37.52,0,38.85,38.85,0,0,0,0,44.38,20.82,20.82,0,1,0,37.52,0A37.32,37.32,0,0,0,935.84,584.4Z"/><polygon class="cls-16" points="912.57 663.39 907.68 663.39 910.13 582.56 912.57 663.39"/><polygon class="cls-16" points="910.74 602.77 926.66 596.04 910.74 604.61 910.74 602.77"/><polygon class="cls-16" points="909.29 610.12 904.61 604.61 909.2 613.18 909.29 610.12"/><path class="cls-15" d="M484.55,584.4a37.32,37.32,0,0,0-7-22.19,20.82,20.82,0,1,0-37.52,0,38.85,38.85,0,0,0,0,44.38,20.82,20.82,0,1,0,37.52,0A37.32,37.32,0,0,0,484.55,584.4Z"/><path class="cls-7" d="M484.55,584.4a37.32,37.32,0,0,0-7-22.19,20.82,20.82,0,1,0-37.52,0,38.85,38.85,0,0,0,0,44.38,20.82,20.82,0,1,0,37.52,0A37.32,37.32,0,0,0,484.55,584.4Z"/><path class="cls-15" d="M485.78,584.4a37.32,37.32,0,0,0-7-22.19,20.82,20.82,0,1,0-37.52,0,38.85,38.85,0,0,0,0,44.38,20.82,20.82,0,1,0,37.52,0A37.32,37.32,0,0,0,485.78,584.4Z"/><polygon class="cls-16" points="462.51 663.39 457.61 663.39 460.06 582.56 462.51 663.39"/><polygon class="cls-16" points="460.67 602.77 476.59 596.04 460.67 604.61 460.67 602.77"/><polygon class="cls-16" points="459.23 610.12 454.55 604.61 459.13 613.18 459.23 610.12"/><g class="cls-17"><path class="cls-18" d="M362.47,637.07,362,637l1-3.67c1.57-11.75-4.35-12.93-6.57-13l-.78-.24v-1.39a7.36,7.36,0,0,0,5.49-5.94h0c.35,0,.64-.54.64-1.2a1.62,1.62,0,0,0-.28-1v-.77a7.68,7.68,0,0,0-2.36-5.54,4.86,4.86,0,0,0-.54-1.46c-.54-1-1.45-2-1.08-3l-2.39.25v-1.58c-.75.13-1.06,1-1.5,1.62-1.07,1.48-3.2,1.69-4.62,2.84-.48.39-1.56,1.59-1.36,2.37a7.65,7.65,0,0,0-1.46,4.5v.77a1.62,1.62,0,0,0-.28,1c0,.66.29,1.2.64,1.2h0a7.36,7.36,0,0,0,5.49,5.94v1.39l-.78.24c-2.22,0-8.14,1.22-6.57,13l1,3.67h-.24a2.73,2.73,0,0,0-2.18,3.18l3.92,21a.84.84,0,0,0,1,.67h0l.69-.13v.41a2.31,2.31,0,0,0-1.28,2.06v.26h4.63v-.26a2.3,2.3,0,0,0-1.12-2v-.91l.63-.12a.83.83,0,0,0,.67-1v0l-3.69-19.75H358.9l-3.69,19.75a.83.83,0,0,0,.63,1h0l.63.12v.91a2.3,2.3,0,0,0-1.12,2v.26H360v-.26a2.31,2.31,0,0,0-1.28-2.06v-.31l.69.13a.83.83,0,0,0,1-.63v0l4-21.28a2.45,2.45,0,0,0-1.9-2.9Z"/></g><rect class="cls-19" x="349.09" y="659.06" width="2.15" height="2.92"/><rect class="cls-19" x="356.47" y="659.06" width="2.15" height="2.92"/><rect class="cls-20" x="346.79" y="635.08" width="14.15" height="5.07"/><g class="cls-21"><rect class="cls-22" x="346.79" y="635.08" width="14.15" height="5.07"/></g><path class="cls-7" d="M346.78,636a53.07,53.07,0,0,0,7.07,1.23,53.07,53.07,0,0,0,7.07-1.23v-.77H346.78Z"/><path class="cls-23" d="M360.93,635.85a53.07,53.07,0,0,1-7.07,1.23,53.07,53.07,0,0,1-7.07-1.23v-8.46a7.08,7.08,0,0,1,7.07-7.07h0a7.08,7.08,0,0,1,7.07,7.07h0Z"/><path class="cls-19" d="M352.17,616.78h3.38v3.88a1.66,1.66,0,0,1-1.66,1.66h-.06a1.66,1.66,0,0,1-1.66-1.66h0v-3.88Z"/><path class="cls-20" d="M351.49,660.15l-2.71.51a1.16,1.16,0,0,1-1.35-.93l-3.49-18.68a3.83,3.83,0,0,1,3.05-4.46h.1a1.16,1.16,0,0,1,1.35.93l4,21.3A1.16,1.16,0,0,1,351.49,660.15Z"/><path class="cls-20" d="M356.31,660.16l2.52.47a1.25,1.25,0,0,0,1.46-1h0L363.78,641a3.73,3.73,0,0,0-3-4.35h-.1a1.25,1.25,0,0,0-1.46,1h0l-3.94,21.11a1.25,1.25,0,0,0,1,1.45Z"/><path class="cls-7" d="M352.17,619.35a7.15,7.15,0,0,0,3.38,0v-2.41h-3.38Z"/><circle class="cls-24" cx="353.86" cy="610.63" r="7.38"/><circle class="cls-19" cx="353.86" cy="612.32" r="7.07"/><path class="cls-24" d="M349.19,604c1.36-1.11,3.42-1.31,4.44-2.74.43-.59.73-1.43,1.45-1.55v1.52l2.3-.24c-.36,1,.52,2,1,2.89a4.84,4.84,0,0,1,.61,2.23c-.8.48-1.79,0-2.68-.32a10.17,10.17,0,0,0-2.69-.33,5.9,5.9,0,0,0-1.39.08,7.91,7.91,0,0,0-1.15.42c-.61.26-2.55,1.22-3.12.6S348.66,604.45,349.19,604Z"/><path class="cls-7" d="M349.57,608.79a3.24,3.24,0,0,0,1.25.38,11,11,0,0,0,5.37-.6,2.6,2.6,0,0,0,1.69,1.43,7.91,7.91,0,0,0,2.27.25.83.83,0,0,0,.49-.09c.34-.23.18-.76,0-1.12l-1-1.79a5.46,5.46,0,0,0-1-1.47,4.36,4.36,0,0,0-2.06-.88,11.49,11.49,0,0,0-5.28.18C349.42,605.57,347.05,607.25,349.57,608.79Z"/><path class="cls-24" d="M349.57,608.62a3.24,3.24,0,0,0,1.25.38,11,11,0,0,0,5.37-.6,2.6,2.6,0,0,0,1.69,1.43,7.91,7.91,0,0,0,2.27.25.83.83,0,0,0,.49-.09c.34-.23.18-.76,0-1.12l-1-1.79a5.46,5.46,0,0,0-1-1.47,4.36,4.36,0,0,0-2.06-.88,11.49,11.49,0,0,0-5.28.18C349.42,605.41,347.05,607.1,349.57,608.62Z"/><ellipse class="cls-19" cx="360.85" cy="612.32" rx="0.62" ry="1.15"/><ellipse class="cls-19" cx="346.86" cy="612.32" rx="0.62" ry="1.15"/><path class="cls-23" d="M352.19,620.79s-8.95-1.39-7.1,12.44l1.08,4,3.08-.12s-2-4.61-.77-7.69S352.19,620.79,352.19,620.79Z"/><path class="cls-23" d="M355.52,620.79s9-1.39,7.1,12.44l-1.08,4-3.08-.12s2-4.61.77-7.69S355.52,620.79,355.52,620.79Z"/><circle class="cls-19" cx="347.86" cy="637.69" r="1.69"/><circle class="cls-19" cx="360.16" cy="637.69" r="1.69"/><path class="cls-24" d="M350.05,660.76h.08a2.19,2.19,0,0,1,2.19,2.19h0v.27h-4.46V663a2.19,2.19,0,0,1,2.19-2.19Z"/><path class="cls-24" d="M357.58,660.76h.08a2.19,2.19,0,0,1,2.19,2.19h0v.27H355.4V663A2.19,2.19,0,0,1,357.58,660.76Z"/><path class="cls-7" d="M348.32,628.16s-.62,3.23.46,4.61"/><path class="cls-7" d="M359.42,628.16s.62,3.23-.46,4.61"/><circle class="cls-23" cx="472.31" cy="589.3" r="3.06"/><path class="cls-25" d="M476,600.11V601l3.69-2.33-.39-.49-.18.11-2.86-4.19v-2.43l-1.09.1v-.39c-2.87-3.3-3.17.39-2.57,1.46a6.6,6.6,0,0,0,1.68,1.85c.61.51,1.66,4.36,1.92,5.32Z"/><path class="cls-26" d="M500,598.17l-.5-.34h0l-.46-1.36h-.17l-.57-1.14a4.56,4.56,0,0,0,1.31-1,5.9,5.9,0,0,0,1.5-4.93c0-.53.83-1.89-1.77-2.6a3.58,3.58,0,0,0-2.73-3.11,9.91,9.91,0,0,0-3.07-.27,3.86,3.86,0,0,0-3.74,3.64s-.6.19-.64,2.16h.08a5.68,5.68,0,0,0,4.14,6.87h0v.21l.11.05.37,1-1.18.71-2.37.08a9.39,9.39,0,0,0-3.19.68,48,48,0,0,1-6.13,1.72l-1.26-1.8L476,601.29l2.43,3.71a5.63,5.63,0,0,0,1.26.72h.11a9.86,9.86,0,0,0,1.86.52,18.46,18.46,0,0,0,6.42.1h0l.83,16.73H489l-.39,2.87c-3.89,4.86-5,19-5,19l5.83,16.53c-.11.47-.55,1.49-2.3,2.21-2.36,1,1.67,1.65,1.67,1.65l3.66-1.13c.3.61,2,1.42,2,1.42l7.29-.19v-3.64h-.1s.68-6.51.19-7.87,0-8,0-8l.39-14.09a7.78,7.78,0,0,0,.29-7.29,6.71,6.71,0,0,1-.61-2.15,7,7,0,0,0,.12-3.68c-.87-5.51,1.94-11,1.94-11h0A9.51,9.51,0,0,0,500,598.17Zm-4.35,64.5-.82-2.94-.19,0-3.56-15,3.3-6.9v6.61l1.85,12.93v4.37A1.94,1.94,0,0,1,495.63,662.67Z"/><path class="cls-27" d="M476.73,592.94v2.33l2.78,4.07-2.78,1.81s-1.24-4.76-1.9-5.32a6.22,6.22,0,0,1-1.62-1.77c-.57-1-.29-4.58,2.47-1.4V593Z"/><path class="cls-27" d="M498.88,598.51l-1.1-2.2a.42.42,0,0,0-.34-.22l-4.18-.21a.4.4,0,0,0-.42.39.29.29,0,0,0,0,.16l1.08,2.79a.41.41,0,0,0,.42.26l4.2-.37a.41.41,0,0,0,.37-.45A.88.88,0,0,0,498.88,598.51Z"/><polygon class="cls-28" points="498.57 597.56 499.28 599.64 491.98 599.38 494.79 597.7 498.57 597.56"/><polygon class="cls-28" points="480.03 599.66 479.66 599.2 476.48 601.06 476.48 601.9 480.03 599.66"/><path class="cls-29" d="M501.48,620.33a7,7,0,0,0,.49,4.27,7.48,7.48,0,0,1-.28,7l-.37,13.54s-.47,6.35,0,7.66-.19,7.56-.19,7.56H495.9v-4.2l-1.77-12.37v-6.35L491,644.07l3.64,15.32-4.76,2-6-17.18s1-13.54,4.76-18.21l.7-5.09Z"/><path class="cls-24" d="M501.23,663.79v-3.46h-5.32s-.37,1.4-2.8,1.68,1.12,2,1.12,2Z"/><path class="cls-24" d="M495.48,661.67l-.93-3.33-5.13,1.45s0,1.45-2.25,2.37,1.61,1.59,1.61,1.59Z"/><path class="cls-7" d="M489.32,621.1l12.16-.49a6.65,6.65,0,0,0-.06,2.18,1.45,1.45,0,0,1-1.75,1L489,623.46Z"/><path class="cls-30" d="M499,598.87l.48.33a9.13,9.13,0,0,1,3.86,9.2h0s-2.71,5.3-1.87,10.6-1.87,4.48-1.87,4.48l-10.69-.33-.79-16.08s-6.44.92-9.34-1.32l-2.33-3.57,3.55-2.45,1.21,1.73a45.91,45.91,0,0,0,5.89-1.65,8.93,8.93,0,0,1,3.06-.66Z"/><path class="cls-7" d="M498.94,624.79s.65,3.27-3.08,8.69"/><path class="cls-7" d="M488.11,607.09s-4.48-1.49-6.44-1.49-1.63.85-1.63.85A15.6,15.6,0,0,0,488.11,607.09Z"/><path class="cls-7" d="M493.19,596.06l1.78.21c.06,0,.11.08.14.19-.39.71-.88,1.13-1.42,1.13a1,1,0,0,1-.54-.15l-.14-.83C493,596.33,493.06,596,493.19,596.06Z"/><circle class="cls-27" cx="494.44" cy="591.95" r="5.45"/><path class="cls-7" d="M489.8,588.87h0l.27.25a1,1,0,0,1,.06,1.33.86.86,0,0,1-.33.23h0s2.44,2.44,2.78,2.89-.06,1.65-.06,1.65-1.08,2,4.6,1.53c0,0,3.74-.79,3.35-5.84,0-.51.79-1.82-1.7-2.5h0a3.44,3.44,0,0,0-2.63-3,9.46,9.46,0,0,0-3-.26A3.71,3.71,0,0,0,489.8,588.87Z"/><path class="cls-31" d="M489.68,588.57h0s-.58.18-.61,2.08l.82-.06s1.9,5.09,1.7,4.43c-.74-2.44.74-2,1.08-1.53s-.06,1.65-.06,1.65-1.08,2,4.6,1.53c0,0,3.74-.79,3.35-5.84,0-.51.79-1.82-1.7-2.5h0a3.44,3.44,0,0,0-2.63-3,9.46,9.46,0,0,0-3-.26A3.71,3.71,0,0,0,489.68,588.57Z"/><path class="cls-15" d="M93.84,648.32v-.85A11,11,0,0,0,77.23,638a11,11,0,0,0-18.59-1.32A11,11,0,0,0,48,654.55a11,11,0,0,0,14.87,14,11,11,0,0,0,11.94-1.81,11,11,0,0,0,11,2.18,11,11,0,0,0,7.92-20.55Z"/><path class="cls-7" d="M93.84,648.32v-.85A11,11,0,0,0,77.23,638a11,11,0,0,0-18.59-1.32A11,11,0,0,0,48,654.55a11,11,0,0,0,14.87,14,11,11,0,0,0,11.94-1.81,11,11,0,0,0,11,2.18,11,11,0,0,0,7.92-20.55Z"/><path class="cls-15" d="M95.07,648.32v-.85A11,11,0,0,0,78.46,638a11,11,0,0,0-18.59-1.32,11,11,0,0,0-10.6,17.89,11,11,0,0,0,14.87,14,11,11,0,0,0,11.94-1.81,11,11,0,0,0,11,2.18A11,11,0,0,0,95,648.37Z"/><path class="cls-15" d="M867.83,644v-.85a11,11,0,0,0-16.61-9.49,11,11,0,0,0-18.59-1.32A11,11,0,0,0,822,650.27a17.24,17.24,0,0,0,26.82,12.14A13.72,13.72,0,1,0,867.79,644Z"/><path class="cls-7" d="M867.83,644v-.85a11,11,0,0,0-16.61-9.49,11,11,0,0,0-18.59-1.32A11,11,0,0,0,822,650.27a17.24,17.24,0,0,0,26.82,12.14A13.72,13.72,0,1,0,867.79,644Z"/><path class="cls-15" d="M869.05,644v-.85a11,11,0,0,0-16.61-9.49,11,11,0,0,0-18.59-1.32,11,11,0,0,0-10.6,17.89,17.24,17.24,0,0,0,26.82,12.14A13.72,13.72,0,1,0,869,644Z"/><rect class="cls-24" x="34.49" y="663.39" width="897.68" height="9.18"/><circle class="cls-32" cx="832.69" cy="317.24" r="28.24"/><g class="cls-33"><path class="cls-8" d="M634.05,317h76.08a9.22,9.22,0,0,1,9.22,9.22h0a9.22,9.22,0,0,1-9.22,9.22H634.05a9.22,9.22,0,0,1-9.22-9.22h0A9.22,9.22,0,0,1,634.05,317Z"/><path class="cls-8" d="M611,335.43h76.08a9.22,9.22,0,0,1,9.22,9.22h0a9.22,9.22,0,0,1-9.22,9.22H611a9.22,9.22,0,0,1-9.22-9.22h0A9.22,9.22,0,0,1,611,335.43Z"/><path class="cls-8" d="M634.05,353.87h76.08a9.22,9.22,0,0,1,9.22,9.22h0a9.22,9.22,0,0,1-9.22,9.22H634.05a9.22,9.22,0,0,1-9.22-9.22h0A9.22,9.22,0,0,1,634.05,353.87Z"/></g><g class="cls-34"><path class="cls-8" d="M198.07,307.8h76.08a9.22,9.22,0,0,1,9.22,9.22h0a9.22,9.22,0,0,1-9.22,9.22H198.07a9.22,9.22,0,0,1-9.22-9.22h0A9.22,9.22,0,0,1,198.07,307.8Z"/><path class="cls-8" d="M175,326.24H251.1a9.22,9.22,0,0,1,9.22,9.22h0a9.22,9.22,0,0,1-9.22,9.22H175a9.22,9.22,0,0,1-9.22-9.22h0A9.22,9.22,0,0,1,175,326.24Z"/><path class="cls-8" d="M198.07,344.69h76.08a9.22,9.22,0,0,1,9.22,9.22h0a9.22,9.22,0,0,1-9.22,9.22H198.07a9.22,9.22,0,0,1-9.22-9.22h0A9.22,9.22,0,0,1,198.07,344.69Z"/></g><g class="cls-33"><path class="cls-35" d="M110,374.37h20.17S122.57,387.79,110,374.37Z"/><path class="cls-35" d="M111.22,380.1l13.2-15.24S129.62,379.42,111.22,380.1Z"/></g><g class="cls-33"><path class="cls-35" d="M331.27,301.51h20.15S343.84,315,331.27,301.51Z"/><path class="cls-35" d="M332.48,307.23,345.7,292S350.88,306.55,332.48,307.23Z"/></g><g class="cls-33"><path class="cls-35" d="M744.22,367h21.64S757.7,381.45,744.22,367Z"/><path class="cls-35" d="M745.52,373.16l14.19-16.37S765.26,372.44,745.52,373.16Z"/></g><g class="cls-36"><path class="cls-37" d="M663.68,663.55c-1.23-.73-1.88-3.16-2.07-4l-1.47-18.93a67.37,67.37,0,0,0-5.28-15.19c-.05-5.31-.25-22.12-.72-23.93l-2.72-3.39a7,7,0,0,1,.44-.75H652l.19-.23a4.58,4.58,0,0,0,2.8-5.85,4.83,4.83,0,0,0-.42-.89c.68-.5-.19-.71-.19-.71h0a4.58,4.58,0,0,0-5.19-3.52,2.48,2.48,0,0,0-2.39-1.81h-.14a2.49,2.49,0,0,1,2.24,1.74,6.31,6.31,0,0,0-3.17-1.75h-.14a2.49,2.49,0,0,1,1.38.52h-.22a2.49,2.49,0,0,0-1.26,4.64,4.63,4.63,0,0,0,.25,3.07,3.64,3.64,0,0,0,2,3.84l-.3.68c-.36,0-3.29.37-5.17,7-.81,1.67-1.42,4.36-1.38,8.72-.08,1.12-.14,2.31-.17,3.59l-1.36,5.6h0v.14h0a49.18,49.18,0,0,0,.74,13.43c.51,2.49.91,5,.67,5.86-.54,2-2.46,9.17-2.19,11.38l-.64,3.87h0l-2.4,4.56s1.48,1.35,2.06,1.39,1.26,1,1.26,1,3.45,2.66,4.62,1.84-.44-1.8-1.54-3.15c-.9-1.11-.67-3.61-.56-4.48l5.15-18.28a53.62,53.62,0,0,0,.59-7.7,4.07,4.07,0,0,0,1.33.71.85.85,0,0,0,.5,0l.33,1.19s5.94,8.49,6.11,10.53.85,9.45,1.87,11.44l.74,3.85h0l-.68,5.11a6.93,6.93,0,0,0,2.42.59c.56-.17,1.53.53,1.53.53s4.15,1.31,5,.13S665.18,664.43,663.68,663.55Z"/></g><path class="cls-38" d="M653.27,623.51l1.47,3.44s-.16-22.56-.71-24.64L650.48,598l-1.2,3.17,2.73,3.39a30.44,30.44,0,0,1,1.42,9.94C653.16,619.42,653.27,623.51,653.27,623.51Z"/><path class="cls-39" d="M653.27,623.51l1.47,3.44s-.16-22.56-.71-24.64L650.48,598l-1.2,3.17,2.73,3.39a30.44,30.44,0,0,1,1.42,9.94C653.16,619.42,653.27,623.51,653.27,623.51Z"/><path class="cls-24" d="M653.1,623.51l1.47,3.44s-.16-22.56-.71-24.64L650.31,598l-1.2,3.17,2.73,3.39a30.44,30.44,0,0,1,1.42,9.94C653,619.42,653.1,623.51,653.1,623.51Z"/><path class="cls-20" d="M639.69,622a47.22,47.22,0,0,0,.7,13.21c.49,2.4.88,4.81.64,5.66-.52,1.9-2.38,8.85-2.11,11l-.61,3.73,3.33,1.22,5-17.72a67.64,67.64,0,0,0,0-18.09l-7,1Z"/><path class="cls-39" d="M638.49,655.34,636,660s1.43,1.31,2,1.34,1.21,1,1.21,1,3.32,2.57,4.46,1.77-.42-1.74-1.49-3-.5-4.62-.5-4.62Z"/><path class="cls-20" d="M649.28,633.51s5.74,8.19,5.9,10.16.82,9.12,1.8,11l.71,3.71h3.55L659.82,640a67.76,67.76,0,0,0-6.23-17l-6.28,3.44Z"/><path class="cls-10" d="M653.68,624.41c0,.44-5,0-5,0v-21.3l2.29-3.39a10.45,10.45,0,0,1,1.74,3.54,33.45,33.45,0,0,1,1.32,4.38c.17.93-.44,2.22-.33,3.39A51.22,51.22,0,0,1,653.68,624.41Z"/><path class="cls-27" d="M650.67,600.93a7.54,7.54,0,0,1,1.72-3.3l-4.26-1.09-1,2.35Z"/><path class="cls-7" d="M647.5,598.19s-6-.14-6.53,18.65l-1.31,5.41s10.6,17.37,12.73,3.28c0,0,1.15-15.35-1.09-20.54l1.09-2.62Z"/><path class="cls-24" d="M647.5,598s-6-.14-6.53,18.65l-1.31,5.41s10.6,17.37,12.73,3.28c0,0,1.15-15.35-1.09-20.54l1.09-2.62Z"/><path class="cls-7" d="M645.07,625.37s-.39,5.77,3.41,7a.8.8,0,0,0,1-.52.65.65,0,0,0,0-.2c.06-1-.25-3-2.06-7.08Z"/><path class="cls-27" d="M645.29,625.26s-.39,5.77,3.41,7a.8.8,0,0,0,1-.52.65.65,0,0,0,0-.2c.06-1-.25-3-2.06-7.08Z"/><circle class="cls-40" cx="651.79" cy="608.22" r="0.22"/><circle class="cls-40" cx="651.79" cy="616.41" r="0.22"/><path class="cls-39" d="M657.78,658.11l-.7,5.23a6.43,6.43,0,0,0,2.33.57c.54-.17,1.48.51,1.48.51s4,1.27,4.79.13-1-1.49-2.45-2.34-2.06-4.17-2.06-4.17Z"/><path class="cls-41" d="M646,602.26s-5.46-1.09-4.81,12.78c0,0,1.31,10.16,3.61,10.82l3.44-.87-1.37-9.5,1.37-4.92S649.33,603.14,646,602.26Z"/><path class="cls-7" d="M646.49,602.26S641,601.17,641.68,615c0,0,1.31,10.16,3.61,10.82l3.44-.87-1.37-9.5,1.37-4.92S649.83,603.14,646.49,602.26Z"/><path class="cls-24" d="M646.22,602.26s-5.46-1.09-4.81,12.78c0,0,1.31,10.16,3.61,10.82l3.44-.87-1.37-9.5,1.37-4.92S649.55,603.14,646.22,602.26Z"/><polygon class="cls-7" points="645.28 626.14 645.28 625.79 647.99 625.11 648.11 625.4 645.28 626.14"/><polygon class="cls-7" points="645.49 600.05 651.17 604.97 651.33 604.86 645.59 600 645.49 600.05"/><polygon class="cls-7" points="652.46 624.58 652.44 624.85 653.55 624.71 653.49 624.58 652.46 624.58"/><path class="cls-7" d="M647.67,597.21a5,5,0,0,0,3,1.28,4.32,4.32,0,0,0,1.28-.19,4.51,4.51,0,0,1,.47-.51l-4.26-1.09Z"/><circle class="cls-42" cx="649.91" cy="591.86" r="4.42"/><circle class="cls-27" cx="650.65" cy="593.91" r="4.42"/><path class="cls-42" d="M646.25,591.86s-1.66,4.34,1.85,5.67h0a2.08,2.08,0,0,0,.52-3.32Z"/><circle class="cls-42" cx="646.85" cy="588.63" r="2.4"/><path class="cls-42" d="M654.23,590.89s1.53.37-1.15,1.3a3.4,3.4,0,0,0-2,1.81,2.08,2.08,0,0,1-2.74,1.07l-.14-.07-.85-.47-1.47-3.44,1.75-2,3-.38Z"/><path class="cls-42" d="M649,588.14a2.4,2.4,0,0,0-2.27-2.4h.14a2.41,2.41,0,1,1,0,4.81h-.14A2.4,2.4,0,0,0,649,588.14Z"/><path class="cls-42" d="M648,588.14a2.4,2.4,0,0,0-2.27-2.4h.14a2.41,2.41,0,0,1,0,4.81h-.14A2.4,2.4,0,0,0,648,588.14Z"/><ellipse class="cls-27" cx="649.47" cy="595.35" rx="0.44" ry="0.76"/><g class="cls-36"><path class="cls-43" d="M248.82,665.5c-1.24-.74-1.9-3.19-2.09-4.06l-1.48-19.14a68.07,68.07,0,0,0-5.34-15.36c0-5.37-.25-22.37-.73-24.19l-2.86-3.47a6.71,6.71,0,0,1,.47-.71h0l.73,2.06,2.63-.29-1.42-2.72a4.75,4.75,0,0,0,.89-6.44,1.17,1.17,0,0,0,0-1.48,5.91,5.91,0,0,0-1.56-1.3A5.55,5.55,0,0,0,230,596a1.24,1.24,0,0,1-.55.35,5.11,5.11,0,0,0-2.31,1.57,1,1,0,0,0,.14,1.41l.06,0,.43.27a1,1,0,0,0,1.12-.07l.89-.74a.07.07,0,1,1,.1.1.88.88,0,0,0,0,1.23.89.89,0,0,0,.37.2h0a11.69,11.69,0,0,0-2.37,3.67c-1.19,1.45-2.28,4.39-2.2,10.29q-.13,1.61-.18,3.45l-1.37,5.67s-10.59,19.52-8,22.1c0,0,1.59.28,3.82.87l-6.34,8.4.09.08-4,3s.74,1.89,1.26,2.18.69,1.49.69,1.49,2,4,3.38,3.72.4-1.83,0-3.55c-.31-1.34.87-3.36,1.4-4.2l.14.14s7.52-5.65,10.4-8.81a21.63,21.63,0,0,1,4.31,2.46,99.23,99.23,0,0,0,4.19-14h0c1.78,2.65,4.77,7.3,4.89,8.75.17,2.06.86,9.56,1.89,11.56l.74,3.89h0l-.69,5.16a6.89,6.89,0,0,0,2.44.6c.56-.17,1.55.53,1.55.53s4.2,1.33,5,.13S250.34,666.4,248.82,665.5Z"/></g><circle class="cls-22" cx="234.02" cy="593.93" r="5.31"/><path class="cls-29" d="M221.28,644.51l-6.9,9.15,2.79,2.68s9.68-7.27,10.89-9.67a1,1,0,0,0,.12-.41C228.18,644.45,221.28,644.51,221.28,644.51Z"/><path class="cls-29" d="M234,635.09s5.75,8.22,5.92,10.19.82,9.15,1.81,11.06l.71,3.72H246l-1.42-18.4a67.79,67.79,0,0,0-6.24-17l-6.3,3.45Z"/><rect class="cls-10" x="233.41" y="604.61" width="5.04" height="21.36"/><path class="cls-7" d="M237.88,625.07l1.48,3.45s-.16-22.62-.71-24.7l-3.56-4.33-1.2,3.18,2.74,3.4a30.8,30.8,0,0,1,1.42,10C237.77,621,237.88,625.07,237.88,625.07Z"/><polygon class="cls-22" points="237.88 597.95 239.74 601.51 237.22 601.79 235.96 598.23 237.88 597.95"/><circle class="cls-27" cx="235.52" cy="595.38" r="4.55"/><path class="cls-27" d="M235.52,601.73a6.3,6.3,0,0,1,1.64-2.63l-4.27-1.1-1,2.36Z"/><path class="cls-38" d="M233.6,599.93s-7.39-.55-7.89,18.29l-1.29,5.42s-10.13,18.68-7.61,21.14c0,0,9.53,1.7,14.46,5.48a111.07,111.07,0,0,0,5.92-23.33s1.15-15.39-1.1-20.59l1.1-2.63Z"/><path class="cls-38" d="M238,625.07l1.48,3.45s-.16-22.62-.71-24.7l-3.56-4.33-1.2,3.18,2.74,3.4a30.8,30.8,0,0,1,1.42,10C237.93,621,238,625.07,238,625.07Z"/><path class="cls-44" d="M238,625.07l1.48,3.45s-.16-22.62-.71-24.7l-3.56-4.33-1.2,3.18,2.74,3.4a30.8,30.8,0,0,1,1.42,10C237.93,621,238,625.07,238,625.07Z"/><path class="cls-7" d="M229.82,626.93s-.39,5.79,3.41,7a.8.8,0,0,0,1-.52.65.65,0,0,0,0-.2c.06-1-.25-3-2.06-7.1Z"/><path class="cls-27" d="M230,626.79s-.39,5.79,3.41,7a.8.8,0,0,0,1-.52.65.65,0,0,0,0-.2c.06-1-.25-3-2.06-7.1Z"/><circle class="cls-20" cx="236.56" cy="609.73" r="0.22"/><circle class="cls-20" cx="236.56" cy="617.94" r="0.22"/><path class="cls-22" d="M214.87,653.44l-4.27,3.12s.71,1.81,1.2,2.08.66,1.42.66,1.42,1.86,3.78,3.23,3.56.38-1.75,0-3.4,1.59-4.38,1.59-4.38Z"/><path class="cls-22" d="M242.56,659.79l-.7,5.24a6.54,6.54,0,0,0,2.34.57c.54-.17,1.48.51,1.48.51s4,1.27,4.81.13-1-1.49-2.45-2.35-2.07-4.18-2.07-4.18Z"/><path class="cls-7" d="M230.76,603.79s-5.48-1.1-4.82,12.82c0,0,1.31,10.19,3.61,10.84l3.45-.88L231.63,617l1.37-4.93S234.1,604.64,230.76,603.79Z"/><path class="cls-7" d="M231.25,603.79s-5.48-1.1-4.82,12.82c0,0,1.31,10.19,3.61,10.84l3.45-.88L232.12,617l1.37-4.93S234.59,604.64,231.25,603.79Z"/><path class="cls-38" d="M231,603.79s-5.48-1.1-4.82,12.82c0,0,1.31,10.19,3.61,10.84l3.45-.88L231.85,617l1.37-4.93S234.32,604.64,231,603.79Z"/><polygon class="cls-7" points="230.03 627.7 230.03 627.35 232.75 626.66 232.87 626.96 230.03 627.7"/><polygon class="cls-7" points="230.24 601.54 235.93 606.47 236.1 606.36 230.35 601.49 230.24 601.54"/><polygon class="cls-38" points="231.85 601.49 235.06 600.88 237.85 604.61 236.23 605.58 231.85 601.49"/><path class="cls-22" d="M239.16,592.85l-2.08,2.2v1.35a6.69,6.69,0,0,1-.51,2.57l-1.4,3.4a.92.92,0,0,1-1.19.5l-1.18-.47a.92.92,0,0,1-.51-1.2v0l.33-.75a.06.06,0,0,0,0-.09.06.06,0,0,0-.08,0l-.67,1a.92.92,0,0,1-1,.36l-.65-.16a.84.84,0,0,1-.6-1,1,1,0,0,1,.2-.36h0a.08.08,0,0,0,0-.1h-.07l-.85.7a.92.92,0,0,1-1.08.07l-.41-.26a.91.91,0,0,1-.27-1.27.44.44,0,0,1,.08-.11,4.81,4.81,0,0,1,2.21-1.5c1-.28,1.36-2,1.48-3.51a5,5,0,0,1,3.22-4.3,4.32,4.32,0,0,1,5.07,1.46A1.11,1.11,0,0,1,239.16,592.85Z"/><polygon class="cls-7" points="237.23 625.97 237.21 626.24 238.32 626.11 238.26 625.97 237.23 625.97"/><path class="cls-7" d="M237.19,626.24h.41s-1.18,10.55-2.25,10.76l-.09-.13S237.08,628.27,237.19,626.24Z"/></g></svg>