<svg xmlns="http://www.w3.org/2000/svg" xmlns:xlink="http://www.w3.org/1999/xlink" viewBox="0 0 965.801 749.428"><defs><style>.a{opacity:0.41;fill:url(#a);}.b,.g{fill:#342cff;}.b{opacity:0.18;}.c,.i,.j,.p{fill:#f66f56;}.c,.e{opacity:0.48;}.d{opacity:0.38;fill:url(#b);}.e{fill:#6f6aec;}.f{fill:#ff7c64;}.f,.g{opacity:0.35;}.h,.s{opacity:0.2;}.ar,.j,.l{opacity:0.1;}.k{fill:#535461;}.m{fill:#e0e0e0;}.n{fill:#eee;}.o,.q,.s{fill:#fff;}.p,.v{opacity:0.7;}.q{opacity:0.15;}.r{fill:none;stroke:#535461;stroke-miterlimit:10;stroke-width:2px;}.t{fill:#4db6ac;}.u{fill:#5d291b;}.w{fill:url(#c);}.x{fill:#fdb797;}.y{fill:#4d8af0;}.au,.z{opacity:0.05;}.aa{fill:#f55f44;}.ab{fill:#333;}.ac{fill:url(#d);}.ad{fill:url(#e);}.ae{fill:#fda57d;}.af{fill:#edeef9;}.ag{fill:#7a7478;}.ah{fill:#252a62;}.ai{fill:#72351c;}.aj{fill:#ffffa5;}.ak{opacity:0.3;}.al{fill:#030b44;}.am{opacity:0.5;}.an{fill:url(#f);}.ao{fill:#3ad29f;}.ap{fill:#381e1d;}.aq{fill:#fa9221;}.ar{fill:#daa4a2;}.as{fill:#fdd835;}.at{fill:url(#g);}</style><linearGradient id="a" x1="0.566" y1="1" x2="0.5" y2="0.011" gradientUnits="objectBoundingBox"><stop offset="0" stop-color="#f66f56"/><stop offset="1" stop-color="#6f6aec"/></linearGradient><linearGradient id="b" x1="0.5" y1="0" y2="1" xlink:href="#a"/><linearGradient id="c" x1="0.502" y1="1.001" x2="0.502" y2="0.001" gradientUnits="objectBoundingBox"><stop offset="0" stop-color="gray" stop-opacity="0.251"/><stop offset="0.54" stop-color="gray" stop-opacity="0.122"/><stop offset="1" stop-color="gray" stop-opacity="0.102"/></linearGradient><linearGradient id="d" x1="0.5" y1="1" x2="0.5" y2="0" xlink:href="#c"/><linearGradient id="e" x1="0.5" y1="1" x2="0.5" y2="0.001" xlink:href="#c"/><linearGradient id="f" x1="0.498" y1="1" x2="0.498" y2="0" xlink:href="#c"/><linearGradient id="g" x1="0.501" y1="1" x2="0.501" y2="0" xlink:href="#c"/></defs><g transform="translate(-867.075 -183.12)"><g transform="translate(867.075 183.12)"><path class="a" d="M277.455,151.319c82.675-276.561,298.757-89.445,298.757-89.445S611.6,87.444,660.524,91.31,835.049,114.5,820.505,260.11s-92.551,188.129-92.551,188.129-60.82,34.79-67.43,78.6S607.637,720.121,386.836,691.774,191.261,539.689,191.261,539.689s6.62-52.2-57.171-46.921S-7.371,440.9.562,379.053s51.87-108.041,51.87-108.041,68.142-75.33,137.4-47.577S277.455,151.319,277.455,151.319Z" transform="translate(39.031 25.567)"/><path class="b" d="M70.448.007c38.756-.356,70.052,12.462,69.9,28.629S108.658,58.2,69.9,58.553-.151,46.091,0,29.924,31.692.363,70.448.007Z" transform="translate(545.01 0) rotate(23)"/><path class="c" d="M17.533,0C27.114-.118,34.8,6.427,34.694,14.62S26.742,29.551,17.162,29.67-.1,23.244,0,15.052,7.953.121,17.533,0Z" transform="matrix(0.788, 0.616, -0.616, 0.788, 276.013, 648.51)"/><path class="d" d="M23.323,4.346c-9.862,110.91,23.839,132.94,23.839,132.94s20.451,13.236,9.05,20.066S-1.837,125.006.056,71.018,11.843,9.248,14.9,4.407,20.531-.1,22.255.089,23.323,4.346,23.323,4.346Z" transform="translate(567.998 749.428) rotate(-111)"/><path class="c" d="M53.685,0c29.323-.365,52.832,20.3,52.508,46.147S81.835,93.255,52.512,93.62-.321,73.325,0,47.474,24.361.37,53.685,0Z" transform="matrix(0.788, 0.616, -0.616, 0.788, 57.641, 239.974)"/><path class="e" d="M13.588,0C20.932-.091,26.757,10.074,26.6,22.7S20.359,45.648,13.014,45.74-.155,35.666,0,23.036,6.243.092,13.588,0Z" transform="matrix(0.788, 0.616, -0.616, 0.788, 832.703, 377.622)"/><path class="f" d="M51.812,3.921C-4.037,32.5.067,62.073.067,62.073s1.079,35.04,33.48,55.174,12.812,34.44.1,54.494,5.949,35.383,5.949,35.383,26.528,26.816,53.94.1-.1-52.582,51.878-55.358S160.977,82.1,132.543,85.873s-50.989,4.69-49.052-8.691,27.42-21.94,23.459-42.98S96.457,7.347,84.772,1.971,51.812,3.921,51.812,3.921Z" transform="matrix(0.998, -0.07, 0.07, 0.998, 779.252, 120.106)"/><path class="g" d="M32.932,2.961C-2.828,25.192.056,48.576.056,48.576S1.034,76.263,22.076,92.37s8.534,27.285.5,43.048S26.7,163.406,26.7,163.406s17.312,21.348,34.761.411-.486-41.538,32.985-43.407S103.913,65.4,85.619,68.2,52.8,71.589,53.939,61.031,71.432,43.87,68.71,27.225,61.73,5.946,54.157,1.626,32.932,2.961,32.932,2.961Z" transform="matrix(-0.545, 0.839, -0.839, -0.545, 238.108, 572.351)"/></g><g transform="translate(980.279 376.668)"><g class="h" transform="translate(186.79 74.497)"><path class="i" d="M466.276,441.2c0-14.885-4.587-28.413-12.049-38.478a36.108,36.108,0,1,0-65.067,0c-7.479,10.065-12.049,23.593-12.049,38.478s4.587,28.413,12.049,38.478a36.108,36.108,0,1,0,65.067,0C461.681,469.613,466.276,456.085,466.276,441.2Z" transform="translate(-377.11 -350.95)"/><path class="j" d="M466.276,441.2c0-14.885-4.587-28.413-12.049-38.478a36.108,36.108,0,1,0-65.067,0c-7.479,10.065-12.049,23.593-12.049,38.478s4.587,28.413,12.049,38.478a36.108,36.108,0,1,0,65.067,0C461.681,469.613,466.276,456.085,466.276,441.2Z" transform="translate(-377.11 -350.95)"/><path class="i" d="M468.916,441.2c0-14.885-4.587-28.413-12.049-38.478a36.108,36.108,0,1,0-65.067,0c-7.479,10.065-12.049,23.593-12.049,38.478s4.587,28.413,12.049,38.478a36.108,36.108,0,1,0,65.067,0C464.3,469.613,468.916,456.085,468.916,441.2Z" transform="translate(-377.629 -350.95)"/><path class="i" d="M293.859,341.295h-8.5l4.249-140.175Z" transform="translate(-242.922 -114.059)"/><path class="i" d="M291.97,241.872,319.579,230.2,291.97,245.069Z" transform="translate(-244.222 -119.779)"/><path class="i" d="M286.863,258.269l-8.113-9.559,7.953,14.869Z" transform="translate(-241.622 -123.42)"/></g><g class="h" transform="translate(283.081 154.489)"><path class="i" d="M554.632,508.889a41.926,41.926,0,0,0-7.8-24.9,23.336,23.336,0,1,0-42.052,0,43.651,43.651,0,0,0,0,49.8,23.336,23.336,0,1,0,42.052,0A42.089,42.089,0,0,0,554.632,508.889Z" transform="translate(-496.98 -450.529)"/><path class="j" d="M554.632,508.889a41.926,41.926,0,0,0-7.8-24.9,23.336,23.336,0,1,0-42.052,0,43.651,43.651,0,0,0,0,49.8,23.336,23.336,0,1,0,42.052,0A42.089,42.089,0,0,0,554.632,508.889Z" transform="translate(-496.98 -450.529)"/><path class="i" d="M556.342,508.889a41.926,41.926,0,0,0-7.8-24.9,23.336,23.336,0,1,0-42.052,0,43.651,43.651,0,0,0,0,49.8,23.336,23.336,0,1,0,42.052,0A42.089,42.089,0,0,0,556.342,508.889Z" transform="translate(-497.316 -450.529)"/><path class="i" d="M392.065,353.005H386.57l2.747-90.6Z" transform="translate(-359.121 -206.107)"/><path class="i" d="M390.85,288.751l17.841-7.551-17.841,9.615Z" transform="translate(-359.963 -209.803)"/><path class="i" d="M387.546,299.347,382.3,293.17l5.141,9.607Z" transform="translate(-358.281 -212.157)"/></g><rect class="k" width="0.98" height="14.757" transform="translate(252.58 267.296)"/><rect class="k" width="2.458" height="17.215" transform="translate(251.6 284.021)"/><rect class="k" width="2.458" height="17.215" transform="translate(303.734 284.021)"/><rect class="l" width="2.458" height="17.215" transform="translate(251.6 284.021)"/><rect class="l" width="2.458" height="17.215" transform="translate(303.734 284.021)"/><rect class="k" width="0.98" height="14.757" transform="translate(305.702 282.053) rotate(180)"/><rect class="l" width="0.98" height="14.757" transform="translate(252.58 267.296)"/><rect class="l" width="0.98" height="14.757" transform="translate(305.702 282.053) rotate(180)"/><rect class="k" width="61.974" height="2.948" transform="translate(248.154 266.316)"/><rect class="k" width="61.974" height="2.948" transform="translate(248.154 271.232)"/><rect class="k" width="61.974" height="2.948" transform="translate(248.154 276.156)"/><rect class="k" width="61.974" height="5.414" transform="translate(248.154 281.563)"/><rect class="m" width="22.131" height="42.791" transform="translate(172.652 88.989)"/><path class="n" d="M222.3,177.535V323.622H23.57V177.535l16.725-10.282,15.745-9.68L123.178,116.3Z" transform="translate(-4.636 -22.877)"/><path class="l" d="M239.006,336.766V183.12l-2.956,1.815V336.766Z" transform="translate(-46.432 -36.021)"/><rect class="i" width="44.27" height="67.878" transform="translate(96.162 232.626)"/><circle class="k" cx="1.968" cy="1.968" r="1.968" transform="translate(131.821 264.597)"/><rect class="l" width="22.131" height="2.458" transform="translate(172.652 89.487)"/><rect class="m" width="29.513" height="4.916" transform="translate(168.716 86.531)"/><rect class="l" width="198.719" height="3.936" transform="translate(18.934 189.087)"/><rect class="o" width="198.719" height="3.936" transform="translate(18.934 188.597)"/><rect class="l" width="5.414" height="45.25" transform="translate(187.16 86.531)"/><rect class="l" width="1.478" height="45.25" transform="translate(183.223 86.78)"/><path class="l" d="M260.977,184.108V336.1H245.24V179.73Z" transform="translate(-48.24 -35.354)"/><path class="l" d="M54.625,167.68V333.729H38.88V177.36Z" transform="translate(-7.648 -32.984)"/><path class="l" d="M32.648,336.766V183.12L29.7,184.935V336.766Z" transform="translate(-5.842 -36.021)"/><path class="l" d="M118.542,96.09,0,182.171l7.872,12.788L118.542,119.7,229.22,194.959l7.864-12.788Z" transform="translate(0 -18.901)"/><path class="i" d="M118.542,94.86,0,180.941l7.872,12.788,110.67-75.253L229.22,193.729l7.864-12.788Z" transform="translate(0 -18.66)"/><rect class="p" width="41.321" height="41.321" transform="translate(35.417 215.901)"/><rect class="l" width="44.27" height="4.916" transform="translate(33.69 255.986)"/><rect class="k" width="44.27" height="4.916" transform="translate(33.69 255.006)"/><path class="q" d="M61.42,269.07l-17.03,23.5V280.6l9.575-11.527Z" transform="translate(-8.732 -52.928)"/><path class="q" d="M76.048,269.07,44.39,302.334v-5.872L68.015,269.07Z" transform="translate(-8.732 -52.928)"/><line class="r" x2="41.313" transform="translate(35.417 236.554)"/><line class="r" x2="41.321" transform="translate(35.658 216.142)"/><line class="r" y2="41.313" transform="translate(56.078 215.901)"/><line class="r" y2="41.321" transform="translate(76.49 216.142)"/><line class="r" y2="41.321" transform="translate(35.658 215.652)"/><rect class="p" width="41.321" height="41.321" transform="translate(201.177 257.215) rotate(180)"/><rect class="l" width="44.27" height="4.916" transform="translate(202.896 260.91) rotate(180)"/><rect class="k" width="44.27" height="4.916" transform="translate(202.896 259.922) rotate(180)"/><path class="q" d="M228.94,269.07l17.03,23.5V280.6l-9.575-11.527Z" transform="translate(-45.034 -52.928)"/><path class="q" d="M210.73,269.07l31.658,33.264v-5.872L218.763,269.07Z" transform="translate(-41.452 -52.928)"/><line class="r" x1="41.313" transform="translate(159.864 236.554)"/><line class="r" x1="41.321" transform="translate(159.615 216.142)"/><line class="r" y2="41.313" transform="translate(180.524 215.901)"/><line class="r" y2="41.321" transform="translate(160.105 216.142)"/><line class="r" y2="41.321" transform="translate(200.936 215.652)"/><rect class="p" width="41.321" height="41.321" transform="translate(138.713 173.102) rotate(180)"/><rect class="l" width="44.27" height="4.916" transform="translate(140.432 176.797) rotate(180)"/><rect class="k" width="44.27" height="4.916" transform="translate(140.432 175.809) rotate(180)"/><path class="q" d="M151.17,164.36l17.03,23.5V175.887l-9.567-11.527Z" transform="translate(-29.736 -32.331)"/><path class="q" d="M132.96,164.36l31.658,33.264v-5.872L140.993,164.36Z" transform="translate(-26.154 -32.331)"/><line class="r" x1="41.321" transform="translate(97.391 152.449)"/><line class="r" x1="41.313" transform="translate(97.15 132.029)"/><line class="r" y2="41.313" transform="translate(118.052 131.788)"/><line class="r" y2="41.321" transform="translate(97.64 132.029)"/><line class="r" y2="41.321" transform="translate(138.464 131.539)"/><rect class="k" width="44.27" height="9.84" transform="translate(96.162 290.913)"/><rect class="m" width="154.449" height="112.638" transform="translate(534.922 188.107)"/><path class="l" d="M843.376,336.766V183.12l-2.956,1.815V336.766Z" transform="translate(-165.316 -36.021)"/><path class="l" d="M853.786,336.766V183.12l-2.956,1.815V336.766Z" transform="translate(-167.363 -36.021)"/><rect class="l" width="154.449" height="12.788" transform="translate(534.922 190.565)"/><path class="i" d="M818.976,223.712H583.86V115.99H780.611Z" transform="translate(-114.849 -22.816)"/><path class="l" d="M818.976,223.712H583.86V115.99H780.611Z" transform="translate(-114.849 -22.816)"/><rect class="l" width="12.788" height="112.638" transform="translate(536.4 188.107)"/><rect class="m" width="22.131" height="42.791" transform="translate(502.701 88.989)"/><path class="n" d="M633.169,177.535V323.622H434.45V177.535l16.725-10.282,15.737-9.68L534.058,116.3Z" transform="translate(-85.459 -22.877)"/><rect class="i" width="44.27" height="67.878" transform="translate(426.22 232.626)"/><circle class="k" cx="1.968" cy="1.968" r="1.968" transform="translate(461.878 264.597)"/><rect class="l" width="22.131" height="2.458" transform="translate(502.701 89.487)"/><rect class="m" width="29.513" height="4.916" transform="translate(498.765 86.531)"/><rect class="l" width="198.719" height="3.936" transform="translate(348.991 189.087)"/><rect class="o" width="198.719" height="3.936" transform="translate(348.991 188.597)"/><rect class="l" width="5.414" height="45.25" transform="translate(517.217 86.531)"/><rect class="l" width="1.478" height="45.25" transform="translate(513.281 86.78)"/><path class="l" d="M671.855,184.108V336.1H656.11V179.73Z" transform="translate(-129.061 -35.354)"/><path class="l" d="M465.5,167.68V333.729H449.76V177.36Z" transform="translate(-88.47 -32.984)"/><path class="l" d="M443.526,336.766V183.12l-2.956,1.815V336.766Z" transform="translate(-86.663 -36.021)"/><path class="l" d="M529.42,96.09,410.87,182.171l7.872,12.788L529.42,119.7l110.67,75.261,7.872-12.788Z" transform="translate(-80.821 -18.901)"/><path class="i" d="M529.42,94.86,410.87,180.941l7.872,12.788L529.42,118.477l110.67,75.253,7.872-12.788Z" transform="translate(-80.821 -18.66)"/><rect class="p" width="41.321" height="41.321" transform="translate(365.467 215.901)"/><rect class="l" width="44.27" height="4.916" transform="translate(363.748 255.986)"/><rect class="k" width="44.27" height="4.916" transform="translate(363.748 255.006)"/><path class="q" d="M472.3,269.07l-17.03,23.5V280.6l9.567-11.527Z" transform="translate(-89.554 -52.928)"/><path class="q" d="M486.928,269.07,455.27,302.334v-5.872l23.625-27.392Z" transform="translate(-89.554 -52.928)"/><line class="r" x2="41.321" transform="translate(365.467 236.554)"/><line class="r" x2="41.313" transform="translate(365.716 216.142)"/><line class="r" y2="41.313" transform="translate(386.127 215.901)"/><line class="r" y2="41.321" transform="translate(406.539 216.142)"/><line class="r" y2="41.321" transform="translate(365.716 215.652)"/><rect class="p" width="41.321" height="41.321" transform="translate(531.234 257.215) rotate(180)"/><rect class="l" width="44.27" height="4.916" transform="translate(532.954 260.91) rotate(180)"/><rect class="k" width="44.27" height="4.916" transform="translate(532.954 259.922) rotate(180)"/><path class="q" d="M639.81,269.07l17.03,23.5V280.6l-9.567-11.527Z" transform="translate(-125.854 -52.928)"/><path class="q" d="M621.6,269.07l31.658,33.264v-5.872L629.633,269.07Z" transform="translate(-122.272 -52.928)"/><line class="r" x1="41.321" transform="translate(489.913 236.554)"/><line class="r" x1="41.313" transform="translate(489.672 216.142)"/><line class="r" y2="41.313" transform="translate(510.574 215.901)"/><line class="r" y2="41.321" transform="translate(490.162 216.142)"/><line class="r" y2="41.321" transform="translate(530.985 215.652)"/><rect class="p" width="41.321" height="41.321" transform="translate(468.77 173.102) rotate(180)"/><rect class="l" width="44.27" height="4.916" transform="translate(470.489 176.797) rotate(180)"/><rect class="k" width="44.27" height="4.916" transform="translate(470.489 175.809) rotate(180)"/><path class="q" d="M562.05,164.36l17.03,23.5V175.887L569.5,164.36Z" transform="translate(-110.559 -32.331)"/><path class="q" d="M543.84,164.36,575.5,197.624v-5.872L551.873,164.36Z" transform="translate(-106.977 -32.331)"/><line class="r" x1="41.313" transform="translate(427.449 152.449)"/><line class="r" x1="41.321" transform="translate(427.2 132.029)"/><line class="r" y2="41.313" transform="translate(448.102 131.788)"/><line class="r" y2="41.321" transform="translate(427.69 132.029)"/><line class="r" y2="41.321" transform="translate(468.521 131.539)"/><rect class="k" width="44.27" height="9.84" transform="translate(426.22 290.913)"/><rect class="p" width="112.148" height="51.154" transform="translate(559.518 224.015)"/><rect class="l" width="115.104" height="4.916" transform="translate(558.04 273.69)"/><rect class="k" width="115.104" height="4.916" transform="translate(558.04 272.71)"/><path class="s" d="M712.026,278.87l-15.5,12.788V298.3l24.1-19.432Z" transform="translate(-137.012 -54.855)"/><rect class="k" width="3.936" height="51.154" transform="translate(613.62 224.818)"/><rect class="k" width="3.936" height="51.154" transform="translate(559.8 224.818)"/><rect class="k" width="3.936" height="51.154" transform="translate(667.441 224.818)"/><rect class="k" width="3.936" height="112.148" transform="translate(671.658 247.623) rotate(90)"/><rect class="k" width="3.936" height="112.148" transform="translate(671.658 224.328) rotate(90)"/><path class="s" d="M727.272,278.848,696.53,308.112v7.382l37.377-36.735Z" transform="translate(-137.012 -54.834)"/><path class="t" d="M424.393,543.373a29.963,29.963,0,0,0-5.623-17.825,16.725,16.725,0,1,0-30.14,0,31.208,31.208,0,0,0,0,35.65,16.725,16.725,0,1,0,30.14,0A29.963,29.963,0,0,0,424.393,543.373Z" transform="translate(-191.486 -306.08)"/><path class="l" d="M424.393,543.373a29.963,29.963,0,0,0-5.623-17.825,16.725,16.725,0,1,0-30.14,0,31.208,31.208,0,0,0,0,35.65,16.725,16.725,0,1,0,30.14,0A29.963,29.963,0,0,0,424.393,543.373Z" transform="translate(-191.486 -306.08)"/><path class="t" d="M425.613,543.373a29.963,29.963,0,0,0-5.623-17.825,16.725,16.725,0,1,0-30.14,0,31.208,31.208,0,0,0,0,35.65,16.725,16.725,0,1,0,30.14,0A29.963,29.963,0,0,0,425.613,543.373Z" transform="translate(-191.726 -306.08)"/><path class="u" d="M266.928,358.49H263l1.968-64.93Z" transform="translate(-51.734 -57.745)"/><path class="u" d="M266.06,312.446l12.788-5.406-12.788,6.884Z" transform="translate(-52.336 -60.397)"/><path class="u" d="M263.691,320.036l-3.751-4.426,3.679,6.884Z" transform="translate(-51.132 -62.082)"/><path class="t" d="M1044.073,543.373a29.963,29.963,0,0,0-5.623-17.825,16.725,16.725,0,1,0-30.14,0,31.208,31.208,0,0,0,0,35.65,16.725,16.725,0,1,0,30.14,0,29.962,29.962,0,0,0,5.623-17.825Z" transform="translate(-313.381 -306.08)"/><path class="l" d="M1044.073,543.373a29.963,29.963,0,0,0-5.623-17.825,16.725,16.725,0,1,0-30.14,0,31.208,31.208,0,0,0,0,35.65,16.725,16.725,0,1,0,30.14,0,29.962,29.962,0,0,0,5.623-17.825Z" transform="translate(-313.381 -306.08)"/><path class="t" d="M1045.293,543.373a29.963,29.963,0,0,0-5.623-17.825,16.725,16.725,0,1,0-30.139,0,31.208,31.208,0,0,0,0,35.65,16.725,16.725,0,1,0,30.14,0,29.964,29.964,0,0,0,5.623-17.825Z" transform="translate(-313.621 -306.08)"/><path class="u" d="M886.608,358.49H882.68l1.968-64.93Z" transform="translate(-173.628 -57.745)"/><path class="u" d="M885.74,312.446l12.788-5.406-12.788,6.884Z" transform="translate(-174.23 -60.397)"/><path class="u" d="M883.369,320.036l-3.759-4.426,3.687,6.884Z" transform="translate(-173.024 -62.082)"/><path class="t" d="M594,543.373a29.964,29.964,0,0,0-5.623-17.825,16.725,16.725,0,1,0-30.14,0,31.208,31.208,0,0,0,0,35.65,16.725,16.725,0,1,0,30.14,0A29.964,29.964,0,0,0,594,543.373Z" transform="translate(-224.85 -306.08)"/><path class="l" d="M594,543.373a29.964,29.964,0,0,0-5.623-17.825,16.725,16.725,0,1,0-30.14,0,31.208,31.208,0,0,0,0,35.65,16.725,16.725,0,1,0,30.14,0A29.964,29.964,0,0,0,594,543.373Z" transform="translate(-224.85 -306.08)"/><path class="t" d="M595.233,543.373a29.963,29.963,0,0,0-5.623-17.825,16.725,16.725,0,1,0-30.14,0,31.208,31.208,0,0,0,0,35.65,16.725,16.725,0,1,0,30.14,0A29.963,29.963,0,0,0,595.233,543.373Z" transform="translate(-225.092 -306.08)"/><path class="u" d="M436.546,358.49H432.61l1.968-64.93Z" transform="translate(-85.097 -57.745)"/><path class="u" d="M435.67,312.446l12.788-5.406-12.788,6.884Z" transform="translate(-85.699 -60.397)"/><path class="u" d="M433.309,320.036l-3.759-4.426,3.679,6.884Z" transform="translate(-84.495 -62.082)"/><g class="v" transform="translate(255.603 248.571)"><path class="w" d="M478.258,598.681l-.4-.072.8-2.948c1.261-9.439-3.494-10.387-5.278-10.443a5.877,5.877,0,0,0-.627-.193v-1.117a5.912,5.912,0,0,0,4.41-4.772h0c.281,0,.514-.434.514-.964a1.334,1.334,0,0,0-.225-.8v-.619a6.145,6.145,0,0,0-1.9-4.45,3.961,3.961,0,0,0-.434-1.173c-.434-.8-1.165-1.607-.868-2.41l-1.92.2V567.65c-.6.1-.852.8-1.2,1.3-.86,1.189-2.571,1.358-3.711,2.281-.386.313-1.253,1.277-1.092,1.9a6.129,6.129,0,0,0-1.173,3.615v.619a1.333,1.333,0,0,0-.225.8c0,.53.233.964.514.964h0a5.912,5.912,0,0,0,4.41,4.772v1.117a5.88,5.88,0,0,0-.627.193c-1.783,0-6.539.98-5.278,10.443l.8,2.948h-.193a2.193,2.193,0,0,0-1.751,2.555l3.149,16.869a.667.667,0,0,0,.8.53l.554-.1v.329a1.848,1.848,0,0,0-1.028,1.655v.209h3.719v-.209a1.839,1.839,0,0,0-.9-1.607V618.1l.506-.1a.667.667,0,0,0,.53-.8l-2.964-15.865h8.21l-2.964,15.865a.667.667,0,0,0,.53.8l.506.1v.731a1.84,1.84,0,0,0-.9,1.607v.209h3.719v-.209a1.848,1.848,0,0,0-1.028-1.655v-.249l.554.1a.667.667,0,0,0,.8-.53l3.213-17.094a1.968,1.968,0,0,0-1.566-2.338Z" transform="translate(-462.774 -567.65)"/></g><rect class="x" width="1.727" height="2.346" transform="translate(260.34 297.267)"/><rect class="x" width="1.727" height="2.346" transform="translate(266.268 297.267)"/><rect class="y" width="11.367" height="4.073" transform="translate(258.492 278.004)"/><g class="z" transform="translate(258.492 278.004)"><rect width="11.367" height="4.073"/></g><path class="l" d="M466.36,605.059a43.362,43.362,0,0,0,5.679.988,43.373,43.373,0,0,0,5.679-.988v-.619H466.36Z" transform="translate(-207.876 -326.315)"/><path class="aa" d="M477.729,602.005a43.361,43.361,0,0,1-5.679.988,43.36,43.36,0,0,1-5.679-.988v-6.8a5.679,5.679,0,0,1,5.679-5.679h0a5.679,5.679,0,0,1,5.679,5.679Z" transform="translate(-207.878 -323.383)"/><path class="x" d="M327.17,327.78h2.715V330.9a1.334,1.334,0,0,1-1.333,1.333H328.5a1.333,1.333,0,0,1-1.333-1.333Z" transform="translate(-64.356 -64.476)"/><path class="y" d="M469.572,624.722l-2.177.41a.932.932,0,0,1-1.084-.747l-2.8-15.006a3.069,3.069,0,0,1,2.458-3.583h.072a.932.932,0,0,1,1.084.747l3.213,17.11A.932.932,0,0,1,469.572,624.722Z" transform="translate(-207.305 -326.579)"/><path class="y" d="M475.686,624.731l2.024.378a1,1,0,0,0,1.173-.8l2.8-15.006a3,3,0,0,0-2.41-3.494H479.2a1,1,0,0,0-1.173.8l-3.165,16.958a1,1,0,0,0,.819,1.165Z" transform="translate(-209.546 -326.581)"/><path class="l" d="M471.75,588.086a5.689,5.689,0,0,0,2.715,0V586.15H471.75Z" transform="translate(-208.936 -322.718)"/><circle class="ab" cx="5.928" cy="5.928" r="5.928" transform="translate(258.243 252.435)"/><circle class="x" cx="5.679" cy="5.679" r="5.679" transform="translate(258.492 254.042)"/><path class="ab" d="M468.5,572.4c1.092-.892,2.747-1.052,3.567-2.2.345-.474.586-1.149,1.165-1.245v1.221l1.848-.193c-.289.8.418,1.607.8,2.322a3.816,3.816,0,0,1,.49,1.791c-.643.386-1.438,0-2.153-.257a7.936,7.936,0,0,0-2.161-.265,4.49,4.49,0,0,0-1.117.064,5.63,5.63,0,0,0-.924.337c-.49.209-2.048.98-2.506.482S468.074,572.734,468.5,572.4Z" transform="translate(-208.08 -319.334)"/><path class="l" d="M468.935,577.191a2.6,2.6,0,0,0,1,.305,8.836,8.836,0,0,0,4.314-.482,2.1,2.1,0,0,0,1.358,1.149,6.241,6.241,0,0,0,1.823.2.675.675,0,0,0,.394-.072c.273-.185.145-.611,0-.9l-.8-1.438a4.257,4.257,0,0,0-.8-1.181,3.477,3.477,0,0,0-1.655-.707,9.317,9.317,0,0,0-4.241.145C468.814,574.6,466.91,575.954,468.935,577.191Z" transform="translate(-208.21 -320.306)"/><path class="ab" d="M468.935,577.021a2.6,2.6,0,0,0,1,.305,8.836,8.836,0,0,0,4.314-.482,2.1,2.1,0,0,0,1.358,1.149,6.243,6.243,0,0,0,1.823.2.675.675,0,0,0,.394-.072c.273-.185.145-.61,0-.9l-.8-1.438a4.259,4.259,0,0,0-.8-1.181,3.478,3.478,0,0,0-1.655-.707,9.319,9.319,0,0,0-4.241.145C468.814,574.443,466.91,575.8,468.935,577.021Z" transform="translate(-208.21 -320.272)"/><ellipse class="x" cx="0.498" cy="0.924" rx="0.498" ry="0.924" transform="translate(269.288 258.797)"/><ellipse class="x" cx="0.498" cy="0.924" rx="0.498" ry="0.924" transform="translate(258.05 258.797)"/><path class="aa" d="M470.324,589.992s-7.19-1.117-5.7,9.993l.868,3.213,2.474-.1s-1.607-3.7-.619-6.177S470.324,589.992,470.324,589.992Z" transform="translate(-207.494 -323.467)"/><path class="aa" d="M475.1,589.992s7.189-1.117,5.7,9.993l-.868,3.213-2.474-.1s1.607-3.7.619-6.177S475.1,589.992,475.1,589.992Z" transform="translate(-209.595 -323.467)"/><circle class="x" cx="1.358" cy="1.358" r="1.358" transform="translate(257.994 278.743)"/><circle class="x" cx="1.358" cy="1.358" r="1.358" transform="translate(267.874 278.743)"/><path class="ab" d="M324.619,371.76h.064a1.759,1.759,0,0,1,1.759,1.759v.217H322.86v-.217a1.759,1.759,0,0,1,1.759-1.759Z" transform="translate(-63.508 -73.127)"/><path class="ab" d="M332.151,371.76h.064a1.759,1.759,0,0,1,1.759,1.759v.217H330.4v-.217a1.759,1.759,0,0,1,1.751-1.759Z" transform="translate(-64.992 -73.127)"/><path class="l" d="M467.865,597.37s-.5,2.595.37,3.7" transform="translate(-208.144 -324.925)"/><path class="l" d="M478.91,597.37s.5,2.595-.37,3.7" transform="translate(-210.272 -324.925)"/><circle class="aa" cx="2.458" cy="2.458" r="2.458" transform="translate(356.863 238.771)"/><path class="ac" d="M594.861,567.335v.7l2.964-1.872-.313-.394-.145.088-2.3-3.366v-1.952l-.876.08v-.313c-2.305-2.651-2.546.313-2.064,1.173a5.238,5.238,0,0,0,1.35,1.486c.49.41,1.333,3.5,1.542,4.273Z" transform="translate(-232.575 -317.422)"/><path class="ad" d="M614.847,564.474l-.4-.273h0l-.37-1.092h-.137l-.458-.916a3.767,3.767,0,0,0,1.052-.8,4.732,4.732,0,0,0,1.2-3.96c0-.426.667-1.518-1.422-2.089a2.876,2.876,0,0,0-2.193-2.5,7.961,7.961,0,0,0-2.466-.217,3.1,3.1,0,0,0-3,2.924s-.482.153-.514,1.735h.064a4.555,4.555,0,0,0,3.326,5.519v.169l.088.04.3.8-.948.57-1.9.064A7.463,7.463,0,0,0,604.5,565a38.27,38.27,0,0,1-4.924,1.382l-1.012-1.446L595.6,566.98l1.952,2.98a4.523,4.523,0,0,0,1.012.578h.088a8.038,8.038,0,0,0,1.494.418,14.9,14.9,0,0,0,5.157.08h0l.667,13.439h.04l-.313,2.305c-3.125,3.9-4.016,15.263-4.016,15.263l4.683,13.278c-.088.378-.442,1.2-1.848,1.775-1.9.8,1.341,1.325,1.341,1.325l2.94-.908c.241.49,1.607,1.141,1.607,1.141l5.856-.153V615.58h-.08s.546-5.229.153-6.322,0-6.426,0-6.426l.313-11.318a6.258,6.258,0,0,0,.233-5.856,5.43,5.43,0,0,1-.49-1.727,5.623,5.623,0,0,0,.1-2.956,16.458,16.458,0,0,1,1.558-8.836h0a7.631,7.631,0,0,0-3.2-7.663Zm-3.494,51.813-.659-2.362-.153.04-2.86-12.049,2.651-5.543v5.31l1.486,10.387v3.51a1.55,1.55,0,0,1-.466.707Z" transform="translate(-233.298 -316.12)"/><path class="ae" d="M595.57,561.841v1.872l2.233,3.269-2.233,1.454s-1-3.824-1.526-4.273a5.039,5.039,0,0,1-1.3-1.422c-.458-.8-.233-3.679,1.984-1.125v.3Z" transform="translate(-232.698 -317.688)"/><path class="ae" d="M617.271,567.2l-.884-1.767a.329.329,0,0,0-.273-.177l-3.358-.169a.329.329,0,0,0-.321.442l.868,2.241a.329.329,0,0,0,.337.209l3.374-.3a.329.329,0,0,0,.257-.482Z" transform="translate(-236.606 -318.575)"/><path class="af" d="M472.274,308.56l.57,1.671-5.864-.209,2.257-1.35Z" transform="translate(-91.858 -60.696)"/><path class="af" d="M454.332,310.57l-.3-.37-2.554,1.494v.675Z" transform="translate(-88.809 -61.018)"/><path class="ag" d="M617.588,589.54a5.574,5.574,0,0,0,.394,3.43,6.016,6.016,0,0,1-.225,5.623l-.3,10.877s-.378,5.1,0,6.153-.153,6.073-.153,6.073h-4.2v-3.374l-1.422-9.937v-5.1l-2.555,5.326,2.924,12.306-3.824,1.607-4.82-13.8s.8-10.877,3.824-14.628l.562-4.089Z" transform="translate(-234.835 -323.385)"/><path class="ab" d="M619.045,632.319V629.54h-4.274s-.3,1.125-2.249,1.35.9,1.607.9,1.607Z" transform="translate(-236.493 -331.253)"/><path class="ab" d="M613.287,630.225l-.747-2.675-4.121,1.165s0,1.165-1.807,1.9S607.9,631.9,607.9,631.9Z" transform="translate(-235.353 -330.861)"/><path class="l" d="M608.843,590.214l9.768-.394a5.461,5.461,0,0,0-.048,1.751,1.173,1.173,0,0,1-1.406.8l-8.547-.265Z" transform="translate(-235.857 -323.44)"/><path class="ah" d="M614.174,568.08l.386.265a7.326,7.326,0,0,1,3.1,7.39h0a15.866,15.866,0,0,0-1.5,8.515c.675,4.257-1.5,3.6-1.5,3.6l-8.587-.265-.635-12.917s-5.173.739-7.5-1.06l-1.872-2.868,2.852-1.968.972,1.39a36.77,36.77,0,0,0,4.731-1.326,7.165,7.165,0,0,1,2.458-.53Z" transform="translate(-233.389 -319.163)"/><path class="l" d="M617.914,594s.522,2.627-2.474,6.981" transform="translate(-237.201 -324.262)"/><path class="l" d="M606.1,576.007a25.311,25.311,0,0,0-5.173-1.2c-1.574,0-1.309.683-1.309.683a12.548,12.548,0,0,0,6.483.514Z" transform="translate(-234.085 -320.487)"/><path class="l" d="M612.733,565.27l1.43.169c.048,0,.088.064.112.153-.313.57-.707.908-1.141.908a.883.883,0,0,1-.434-.12l-.112-.667C612.556,565.487,612.628,565.254,612.733,565.27Z" transform="translate(-236.638 -318.61)"/><circle class="ae" cx="4.378" cy="4.378" r="4.378" transform="translate(372.72 238.98)"/><path class="l" d="M609.38,557.343h0l.217.2a.755.755,0,0,1-.217,1.253h0s1.96,1.96,2.233,2.322-.048,1.326-.048,1.326-.868,1.607,3.7,1.229c0,0,3-.635,2.691-4.691,0-.41.635-1.462-1.366-2.008h0a2.763,2.763,0,0,0-2.113-2.41,7.646,7.646,0,0,0-2.41-.209A2.98,2.98,0,0,0,609.38,557.343Z" transform="translate(-236.009 -316.46)"/><path class="ai" d="M609.14,557.087h0s-.466.145-.49,1.671l.659-.048s1.526,4.089,1.366,3.559c-.594-1.96.594-1.607.868-1.229s-.048,1.326-.048,1.326-.868,1.607,3.7,1.229c0,0,3-.635,2.691-4.691,0-.41.635-1.462-1.366-2.008h0a2.763,2.763,0,0,0-2.113-2.41,7.646,7.646,0,0,0-2.41-.209,2.98,2.98,0,0,0-2.852,2.812Z" transform="translate(-235.865 -316.444)"/><path class="t" d="M203.9,614.349v-.683a8.836,8.836,0,0,0-13.343-7.623,8.836,8.836,0,0,0-14.933-1.06,8.836,8.836,0,0,0-8.515,14.371A8.836,8.836,0,0,0,179.051,630.6a8.836,8.836,0,0,0,9.591-1.454,8.788,8.788,0,0,0,8.836,1.751,8.846,8.846,0,1,0,6.362-16.508Z" transform="translate(-148.599 -325.71)"/><path class="l" d="M203.9,614.349v-.683a8.836,8.836,0,0,0-13.343-7.623,8.836,8.836,0,0,0-14.933-1.06,8.836,8.836,0,0,0-8.515,14.371A8.836,8.836,0,0,0,179.051,630.6a8.836,8.836,0,0,0,9.591-1.454,8.788,8.788,0,0,0,8.836,1.751,8.846,8.846,0,1,0,6.362-16.508Z" transform="translate(-148.599 -325.71)"/><path class="t" d="M205.127,614.349v-.683a8.836,8.836,0,0,0-13.343-7.623,8.836,8.836,0,0,0-14.933-1.06,8.836,8.836,0,0,0-8.515,14.371A8.836,8.836,0,0,0,180.281,630.6a8.836,8.836,0,0,0,9.591-1.454,8.788,8.788,0,0,0,8.836,1.751,8.846,8.846,0,0,0,6.362-16.508Z" transform="translate(-148.841 -325.71)"/><path class="t" d="M977.887,610.069v-.683a8.836,8.836,0,0,0-13.343-7.623A13.493,13.493,0,0,0,941.1,615.074a13.857,13.857,0,0,0,21.544,9.752,11.021,11.021,0,1,0,15.214-14.757Z" transform="translate(-300.847 -324.868)"/><path class="l" d="M977.887,610.069v-.683a8.836,8.836,0,0,0-13.343-7.623A13.493,13.493,0,0,0,941.1,615.074a13.857,13.857,0,0,0,21.544,9.752,11.021,11.021,0,1,0,15.214-14.757Z" transform="translate(-300.847 -324.868)"/><path class="t" d="M979.107,610.069v-.683a8.836,8.836,0,0,0-13.343-7.623,13.493,13.493,0,0,0-23.448,13.311,13.857,13.857,0,0,0,21.544,9.752,11.021,11.021,0,1,0,15.214-14.756Z" transform="translate(-301.087 -324.868)"/><rect class="ab" width="721.101" height="7.374" transform="translate(7.623 300.745)"/><circle class="aj" cx="22.685" cy="22.685" r="22.685" transform="translate(626.128 0)"/><g class="ak" transform="translate(463.324 22.484)"><rect class="m" width="75.927" height="14.813" rx="7.406" transform="translate(18.516)"/><rect class="m" width="75.927" height="14.813" rx="7.406" transform="translate(0 14.813)"/><rect class="m" width="75.927" height="14.813" rx="7.406" transform="translate(18.516 29.625)"/></g><g class="ak" transform="translate(113.104 15.102)"><rect class="m" width="75.927" height="14.813" rx="7.406" transform="translate(18.516)"/><rect class="m" width="75.927" height="14.813" rx="7.406" transform="translate(0 14.813)"/><rect class="m" width="75.927" height="14.813" rx="7.406" transform="translate(18.516 29.634)"/></g><g class="ak" transform="translate(68.28 60.938)"><path class="al" d="M229.58,343.58h16.2S239.677,354.36,229.58,343.58Z" transform="translate(-229.58 -335.941)"/><path class="al" d="M230.8,346.312l10.6-12.242S245.581,345.766,230.8,346.312Z" transform="translate(-229.82 -334.07)"/></g><g class="ak" transform="translate(246.025 2.41)"><path class="al" d="M450.85,270.72h16.186S460.947,281.516,450.85,270.72Z" transform="translate(-450.85 -263.081)"/><path class="al" d="M452.06,273.444l10.62-12.234S466.841,272.9,452.06,273.444Z" transform="translate(-451.088 -261.21)"/></g><g class="ak" transform="translate(577.745 54.455)"><path class="al" d="M863.8,336.24h17.383S874.628,347.823,863.8,336.24Z" transform="translate(-863.8 -328.014)"/><path class="al" d="M865.1,339.15,876.5,326S880.957,338.572,865.1,339.15Z" transform="translate(-864.056 -326)"/></g><g class="am" transform="translate(490.451 237.245)"><path class="an" d="M777.727,617.179c-.988-.586-1.51-2.538-1.663-3.213l-1.181-15.206a54.1,54.1,0,0,0-4.241-12.2c-.04-4.266-.2-17.769-.578-19.223l-2.185-2.723a5.334,5.334,0,0,1,.353-.6h.12l.153-.185a3.687,3.687,0,0,0,1.912-5.414c.546-.4-.153-.57-.153-.57h0a3.687,3.687,0,0,0-4.169-2.828,2,2,0,0,0-1.92-1.454h-.112a2,2,0,0,1,1.8,1.4,5.076,5.076,0,0,0-2.546-1.406H763.2a1.992,1.992,0,0,1,1.109.418h-.177a2,2,0,0,0-1.012,3.727,3.687,3.687,0,0,0,.2,2.466,2.932,2.932,0,0,0,1.607,3.085l-.241.546c-.289,0-2.643.3-4.153,5.623-.651,1.341-1.141,3.5-1.109,7-.064.9-.112,1.856-.137,2.884l-1.092,4.5h0v.112h0a39.312,39.312,0,0,0,.594,10.788,15.946,15.946,0,0,1,.538,4.707c-.434,1.607-1.976,7.366-1.759,9.142l-.514,3.109h0l-1.928,3.663s1.189,1.084,1.655,1.117,1.012.8,1.012.8,2.771,2.137,3.711,1.478-.353-1.446-1.237-2.53c-.723-.892-.538-2.9-.45-3.6l4.137-14.684a42.349,42.349,0,0,0,.474-6.185,3.294,3.294,0,0,0,1.068.57.668.668,0,0,0,.4,0l.265.956s4.772,6.82,4.908,8.459.683,7.591,1.5,9.19l.594,3.093h0l-.546,4.1a5.454,5.454,0,0,0,1.944.474c.45-.137,1.229.426,1.229.426s3.334,1.052,4.016.1S778.932,617.886,777.727,617.179Z" transform="translate(-755.13 -553.55)"/></g><path class="ao" d="M772.065,587.7l1.181,2.763s-.128-18.122-.57-19.793l-2.852-3.47-.964,2.546,2.193,2.723a24.517,24.517,0,0,1,1.141,7.985C771.977,584.415,772.065,587.7,772.065,587.7Z" transform="translate(-267.38 -318.99)"/><path class="ap" d="M772.065,587.7l1.181,2.763s-.128-18.122-.57-19.793l-2.852-3.47-.964,2.546,2.193,2.723a24.517,24.517,0,0,1,1.141,7.985C771.977,584.415,772.065,587.7,772.065,587.7Z" transform="translate(-267.38 -318.99)"/><path class="ab" d="M771.9,587.7l1.181,2.763s-.128-18.122-.57-19.793l-2.852-3.47-.964,2.546,2.193,2.723a24.515,24.515,0,0,1,1.141,7.985C771.807,584.415,771.9,587.7,771.9,587.7Z" transform="translate(-267.346 -318.99)"/><path class="y" d="M759,591.025a38.084,38.084,0,0,0,.562,10.612,15.134,15.134,0,0,1,.514,4.547c-.418,1.526-1.912,7.109-1.695,8.836l-.49,3,2.675.98,4.016-14.234a54.552,54.552,0,0,0,0-14.532l-5.623.8Z" transform="translate(-265.222 -323.52)"/><path class="ap" d="M757.586,624.55,755.61,628.3s1.149,1.052,1.607,1.076.972.8.972.8,2.667,2.064,3.583,1.422-.337-1.4-1.2-2.41-.4-3.711-.4-3.711Z" transform="translate(-264.773 -330.271)"/><path class="y" d="M768.472,600.659s4.611,6.579,4.739,8.161.659,7.326,1.446,8.836l.57,2.98h2.852l-1.141-14.74a54.552,54.552,0,0,0-5-13.656L766.89,595Z" transform="translate(-266.992 -323.916)"/><path class="o" d="M772.276,588.763c0,.353-4.016,0-4.016,0v-17.11l1.839-2.723a8.311,8.311,0,0,1,1.4,2.844,26.64,26.64,0,0,1,1.06,3.518c.136.747-.354,1.783-.265,2.723a41.033,41.033,0,0,1-.016,10.748Z" transform="translate(-267.262 -319.33)"/><path class="ae" d="M769.554,569.276a6.1,6.1,0,0,1,1.382-2.651l-3.422-.876-.8,1.888Z" transform="translate(-266.957 -318.705)"/><path class="l" d="M765.538,567.4s-4.82-.112-5.246,14.981l-1.052,4.346s8.515,13.953,10.226,2.635c0,0,.924-12.331-.876-16.5l.876-2.1Z" transform="translate(-265.487 -319.029)"/><path class="ab" d="M765.538,567.24s-4.82-.112-5.246,14.981l-1.052,4.346s8.515,13.953,10.226,2.635c0,0,.924-12.331-.876-16.5l.876-2.1Z" transform="translate(-265.487 -318.998)"/><path class="l" d="M764.648,594.423s-.313,4.635,2.739,5.623a.651.651,0,0,0,.852-.578c.048-.8-.2-2.41-1.655-5.687Z" transform="translate(-266.549 -324.219)"/><path class="ae" d="M764.868,594.313s-.313,4.635,2.739,5.623a.651.651,0,0,0,.852-.578c.048-.8-.2-2.41-1.655-5.687Z" transform="translate(-266.592 -324.197)"/><circle class="aq" cx="0.177" cy="0.177" r="0.177" transform="translate(503.32 256.251)"/><circle class="aq" cx="0.177" cy="0.177" r="0.177" transform="translate(503.32 262.83)"/><path class="ap" d="M777.222,627.306l-.562,4.2a5.261,5.261,0,0,0,1.872.458c.434-.137,1.189.41,1.189.41s3.213,1.02,3.848.1-.8-1.2-1.968-1.88-1.655-3.35-1.655-3.35Z" transform="translate(-268.914 -330.802)"/><path class="ar" d="M764.623,571.466s-4.386-.876-3.864,10.266c0,0,1.052,8.161,2.9,8.692l2.763-.7-1.1-7.631,1.1-3.952S767.3,572.173,764.623,571.466Z" transform="translate(-265.778 -319.826)"/><path class="l" d="M765.113,571.466s-4.386-.876-3.864,10.266c0,0,1.052,8.161,2.9,8.692l2.763-.7-1.1-7.631,1.1-3.952S767.8,572.173,765.113,571.466Z" transform="translate(-265.874 -319.826)"/><path class="ab" d="M764.843,571.466s-4.386-.876-3.864,10.266c0,0,1.052,8.161,2.9,8.692l2.763-.7-1.1-7.631,1.1-3.952S767.518,572.173,764.843,571.466Z" transform="translate(-265.821 -319.826)"/><path class="l" d="M620.28,336.937v-.281l2.177-.546.1.233Z" transform="translate(-122.013 -66.115)"/><path class="l" d="M620.49,311.04l4.563,3.952.129-.088L620.57,311Z" transform="translate(-122.054 -61.176)"/><path class="l" d="M627.456,335.58l-.016.217.892-.112-.048-.1Z" transform="translate(-123.421 -66.011)"/><path class="l" d="M767.25,566.32a4.016,4.016,0,0,0,2.41,1.028,3.554,3.554,0,0,0,1.028-.153,3.031,3.031,0,0,1,.378-.41l-3.422-.876Z" transform="translate(-267.063 -318.736)"/><circle class="as" cx="3.551" cy="3.551" r="3.551" transform="translate(498.436 239.735)"/><circle class="ae" cx="3.551" cy="3.551" r="3.551" transform="translate(499.03 241.382)"/><path class="as" d="M765.753,561.07s-1.333,3.486,1.486,4.555h0a1.663,1.663,0,0,0,.418-2.667Z" transform="translate(-266.706 -317.784)"/><circle class="as" cx="1.928" cy="1.928" r="1.928" transform="translate(497.601 238.763)"/><path class="as" d="M772.168,559.671s1.229.3-.924,1.044a2.723,2.723,0,0,0-1.607,1.454,1.671,1.671,0,0,1-2.314.8l-.683-.378-1.181-2.763,1.406-1.607,2.41-.305Z" transform="translate(-266.711 -317.165)"/><path class="as" d="M768.163,556.878a1.928,1.928,0,0,0-1.823-1.928h.112a1.932,1.932,0,1,1,0,3.864h-.112a1.928,1.928,0,0,0,1.824-1.936Z" transform="translate(-266.884 -316.58)"/><path class="as" d="M767.133,556.878a1.928,1.928,0,0,0-1.823-1.928h.112a1.932,1.932,0,1,1,0,3.864h-.112a1.928,1.928,0,0,0,1.824-1.936Z" transform="translate(-266.681 -316.58)"/><ellipse class="ae" cx="0.353" cy="0.611" rx="0.353" ry="0.611" transform="translate(501.28 245.479)"/><g class="am" transform="translate(148.377 239.248)"><path class="at" d="M360.707,619.236c-1-.594-1.526-2.562-1.679-3.261L357.839,600.6a54.7,54.7,0,0,0-4.29-12.339c-.04-4.314-.2-17.97-.586-19.432l-2.3-2.787a5.277,5.277,0,0,1,.378-.57h0l.586,1.655,2.113-.233-1.141-2.185a3.816,3.816,0,0,0,.715-5.173.94.94,0,0,0,0-1.189,4.883,4.883,0,0,0-1.253-1.044,4.458,4.458,0,0,0-6.507,6.081.972.972,0,0,1-.442.281,4.065,4.065,0,0,0-1.856,1.261.8.8,0,0,0,.161,1.165l.345.217a.8.8,0,0,0,.9-.056l.715-.594a.057.057,0,0,1,.08.08.7.7,0,0,0,.337,1.149h0a9.366,9.366,0,0,0-1.9,2.948c-.956,1.165-1.832,3.526-1.767,8.266q-.1,1.293-.145,2.771l-1.1,4.555s-8.507,15.68-6.426,17.753c0,0,1.277.225,3.069.7l-5.093,6.748.072.064-3.213,2.41s.594,1.518,1.012,1.751.554,1.2.554,1.2,1.566,3.173,2.715,2.988.321-1.47,0-2.852c-.249-1.076.7-2.7,1.125-3.374l.112.112a85.676,85.676,0,0,0,8.354-7.077,17.29,17.29,0,0,1,3.462,1.976,80.645,80.645,0,0,0,3.366-11.246h0c1.43,2.129,3.832,5.864,3.928,7.029.137,1.655.691,7.68,1.518,9.286l.594,3.125h0l-.554,4.145a5.51,5.51,0,0,0,1.96.482c.45-.137,1.245.426,1.245.426s3.374,1.068,4.016.1S361.928,619.959,360.707,619.236Z" transform="translate(-329.29 -556.043)"/></g><circle cx="4.265" cy="4.265" r="4.265" transform="translate(163.639 240.683)"/><path class="ag" d="M339.5,613.72l-5.543,7.35,2.241,2.153s7.776-5.84,8.748-7.768a.8.8,0,0,0,.1-.329C345.045,613.672,339.5,613.72,339.5,613.72Z" transform="translate(-181.832 -328.141)"/><path class="ag" d="M353.234,602.248s4.619,6.6,4.756,8.186.659,7.35,1.454,8.884l.57,2.988h2.86l-1.141-14.781a54.7,54.7,0,0,0-5.013-13.656l-5.061,2.771Z" transform="translate(-185.314 -324.236)"/><rect class="o" width="4.049" height="17.158" transform="translate(167.415 253.528)"/><path class="l" d="M356.675,589.248l1.189,2.771s-.129-18.171-.57-19.841l-2.86-3.478-.964,2.554,2.2,2.731a24.581,24.581,0,0,1,1.141,8.033C356.587,585.947,356.675,589.248,356.675,589.248Z" transform="translate(-185.67 -319.285)"/><path d="M212.5,308.95,214,311.81l-2.024.225-1.012-2.86Z" transform="translate(-41.497 -60.772)"/><circle class="ae" cx="3.655" cy="3.655" r="3.655" transform="translate(165.454 242.458)"/><path class="ae" d="M354.386,570.206a5.084,5.084,0,0,1,1.317-2.113l-3.43-.884-.8,1.9Z" transform="translate(-185.276 -318.992)"/><path class="ao" d="M349.8,569.14s-5.936-.442-6.338,14.692l-1.036,4.354s-8.137,15.005-6.113,16.982c0,0,7.655,1.366,11.616,4.4a89.224,89.224,0,0,0,4.755-18.741s.924-12.363-.884-16.54l.884-2.113Z" transform="translate(-182.231 -319.371)"/><path class="ao" d="M356.835,589.248l1.189,2.771s-.129-18.171-.57-19.841l-2.86-3.478-.964,2.554,2.2,2.731a24.581,24.581,0,0,1,1.141,8.033C356.747,585.947,356.835,589.248,356.835,589.248Z" transform="translate(-185.701 -319.285)"/><path class="au" d="M356.835,589.248l1.189,2.771s-.129-18.171-.57-19.841l-2.86-3.478-.964,2.554,2.2,2.731a24.581,24.581,0,0,1,1.141,8.033C356.747,585.947,356.835,589.248,356.835,589.248Z" transform="translate(-185.701 -319.285)"/><path class="l" d="M349.4,595.979s-.313,4.651,2.739,5.623a.651.651,0,0,0,.852-.578c.048-.8-.2-2.41-1.655-5.7Z" transform="translate(-184.867 -324.522)"/><path class="ae" d="M349.618,595.839s-.313,4.651,2.739,5.623a.651.651,0,0,0,.852-.578c.048-.8-.2-2.41-1.655-5.7Z" transform="translate(-184.91 -324.494)"/><circle class="y" cx="0.177" cy="0.177" r="0.177" transform="translate(169.768 257.464)"/><circle class="y" cx="0.177" cy="0.177" r="0.177" transform="translate(169.768 264.059)"/><path d="M333.61,622.65l-3.43,2.506s.57,1.454.964,1.671.53,1.141.53,1.141,1.494,3.036,2.595,2.86.305-1.406,0-2.731,1.277-3.518,1.277-3.518Z" transform="translate(-181.089 -329.897)"/><path d="M362,628.984l-.562,4.209a5.278,5.278,0,0,0,1.88.458c.434-.137,1.189.41,1.189.41s3.213,1.02,3.864.1-.8-1.2-1.968-1.888-1.663-3.358-1.663-3.358Z" transform="translate(-187.238 -331.131)"/><path class="l" d="M349.381,573s-4.4-.884-3.872,10.3c0,0,1.052,8.186,2.9,8.708l2.771-.707-1.1-7.655,1.1-3.96S352.064,573.679,349.381,573Z" transform="translate(-184.095 -320.127)"/><path class="l" d="M349.871,573s-4.4-.884-3.872,10.3c0,0,1.052,8.186,2.9,8.708l2.771-.707-1.1-7.655,1.1-3.96S352.554,573.679,349.871,573Z" transform="translate(-184.192 -320.127)"/><path class="ao" d="M349.6,573s-4.4-.884-3.872,10.3c0,0,1.052,8.186,2.9,8.708l2.771-.707-1.1-7.655,1.1-3.96S352.284,573.679,349.6,573Z" transform="translate(-184.139 -320.127)"/><path class="l" d="M205.03,338.5v-.281l2.185-.554.1.241Z" transform="translate(-40.331 -66.42)"/><path class="l" d="M205.24,312.53l4.571,3.96.137-.088-4.619-3.912Z" transform="translate(-40.372 -61.469)"/><path class="ao" d="M206.85,312.37l2.579-.49,2.241,3-1.3.779Z" transform="translate(-40.689 -61.349)"/><path d="M356.336,561.422l-1.671,1.767v1.084a5.447,5.447,0,0,1-.41,2.064l-1.125,2.731a.739.739,0,0,1-.956.4l-.948-.378a.739.739,0,0,1-.4-.98l.265-.6a.056.056,0,0,0-.1-.056l-.538.8a.739.739,0,0,1-.8.289l-.522-.128a.667.667,0,0,1-.321-1.1h0a.056.056,0,0,0-.072-.08l-.683.562a.739.739,0,0,1-.868.056l-.329-.209a.739.739,0,0,1-.153-1.109,3.888,3.888,0,0,1,1.775-1.2c.8-.225,1.092-1.607,1.189-2.82a4.017,4.017,0,0,1,2.587-3.454,3.478,3.478,0,0,1,4.073,1.173A.9.9,0,0,1,356.336,561.422Z" transform="translate(-184.303 -317.342)"/><path class="l" d="M212.226,336.97l-.016.217.892-.1-.048-.112Z" transform="translate(-41.743 -66.284)"/><path class="l" d="M356.39,595.45h.329s-.948,8.475-1.807,8.643l-.072-.1S356.3,597.081,356.39,595.45Z" transform="translate(-185.939 -324.547)"/></g></g></svg>