<?xml version="1.0" encoding="utf-8"?>
<!-- Generator: Adobe Illustrator 22.1.0, SVG Export Plug-In . SVG Version: 6.00 Build 0)  -->
<svg version="1.1" xmlns="http://www.w3.org/2000/svg" xmlns:xlink="http://www.w3.org/1999/xlink" x="0px" y="0px"
	 viewBox="0 0 960 960" style="enable-background:new 0 0 960 960;" xml:space="preserve">
<style type="text/css">
	.st0{fill:url(#SVGID_1_);}
	.st1{fill:url(#SVGID_2_);}
	.st2{opacity:0.2;}
	.st3{fill:#F37057;}
	.st4{opacity:0.1;fill:#F37057;enable-background:new    ;}
	.st5{fill:#545562;}
	.st6{opacity:0.1;fill:#010101;enable-background:new    ;}
	.st7{fill:#E0E1E0;}
	.st8{fill:#EEEDEE;}
	.st9{fill:#FFFFFF;}
	.st10{opacity:0.7;fill:#F37057;enable-background:new    ;}
	.st11{opacity:0.15;fill:#FFFFFF;enable-background:new    ;}
	.st12{fill:none;stroke:#545562;stroke-width:2;stroke-miterlimit:10;}
	.st13{opacity:0.2;fill:#FFFFFF;enable-background:new    ;}
	.st14{fill:#4CB6AC;}
	.st15{fill:#5D2A1C;}
	.st16{opacity:0.7;}
	.st17{fill:url(#SVGID_3_);}
	.st18{fill:#FAB697;}
	.st19{fill:#5D84C3;}
	.st20{opacity:5.000000e-02;}
	.st21{fill:#010101;}
	.st22{fill:#F16046;}
	.st23{fill:#333333;}
	.st24{fill:url(#SVGID_4_);}
	.st25{fill:url(#SVGID_5_);}
	.st26{fill:#F8A57E;}
	.st27{fill:#EDEEF8;}
	.st28{fill:#7C7579;}
	.st29{fill:#252B62;}
	.st30{fill:#72361C;}
	.st31{fill:#FCF5A8;}
	.st32{opacity:0.3;}
	.st33{fill:#131543;}
	.st34{opacity:0.5;}
	.st35{fill:url(#SVGID_6_);}
	.st36{fill:#57BF99;}
	.st37{fill:#381E1D;}
	.st38{fill:#F79225;}
	.st39{opacity:0.1;fill:#DAA5A3;enable-background:new    ;}
	.st40{fill:#FDD838;}
	.st41{fill:url(#SVGID_7_);}
	.st42{opacity:5.000000e-02;fill:#010101;enable-background:new    ;}
</style>
<g id="Layer_2">
	
		<linearGradient id="SVGID_1_" gradientUnits="userSpaceOnUse" x1="508.211" y1="708.473" x2="661.4785" y2="261.2512" gradientTransform="matrix(1.1641 2.255684e-02 2.255684e-02 1.0921 -107.3517 -29.4623)">
		<stop  offset="0" style="stop-color:#F7A9AB"/>
		<stop  offset="1" style="stop-color:#BFBADD"/>
	</linearGradient>
	<path class="st0" d="M507.7,827.2l-23.9-6.9c-120.8-34.7-191.2-162-156.5-282.8l59-205.1c34.7-120.8,162-191.2,282.8-156.5
		l23.9,6.9c120.8,34.7,191.2,162,156.5,282.8l-59,205.1C755.8,791.5,628.5,861.9,507.7,827.2z"/>
	
		<linearGradient id="SVGID_2_" gradientUnits="userSpaceOnUse" x1="306.3295" y1="668.3625" x2="459.3083" y2="221.9834" gradientTransform="matrix(1.0832 9.377211e-02 9.377211e-02 0.7842 -94.335 113.231)">
		<stop  offset="0" style="stop-color:#F7A9AB"/>
		<stop  offset="1" style="stop-color:#BFBADD"/>
	</linearGradient>
	<path class="st1" d="M300.4,714.8L300.4,714.8C179.6,680.1,109.2,552.8,144,432l2.9-10.2c34.7-120.8,162-191.2,282.8-156.5l0,0
		c120.8,34.7,191.2,162,156.5,282.8l-2.9,10.2C548.5,679.2,421.2,749.6,300.4,714.8z"/>
</g>
<g id="Layer_1">
	<g class="st2">
		<path class="st3" d="M368.5,494.1c0-18.5-5.7-35.4-15-47.9c10.8-22.4,1.4-49.2-21-60c-22.4-10.8-49.2-1.4-60,21
			c-5.9,12.3-5.9,26.7,0,39c-9.3,12.5-15,29.4-15,47.9s5.7,35.4,15,47.9c-10.8,22.4-1.4,49.2,21,60c22.4,10.8,49.2,1.4,60-21
			c5.9-12.3,5.9-26.7,0-39C362.8,529.5,368.5,512.6,368.5,494.1z"/>
		<path class="st4" d="M368.5,494.1c0-18.5-5.7-35.4-15-47.9c10.8-22.4,1.4-49.2-21-60c-22.4-10.8-49.2-1.4-60,21
			c-5.9,12.3-5.9,26.7,0,39c-9.3,12.5-15,29.4-15,47.9s5.7,35.4,15,47.9c-10.8,22.4-1.4,49.2,21,60c22.4,10.8,49.2,1.4,60-21
			c5.9-12.3,5.9-26.7,0-39C362.8,529.5,368.5,512.6,368.5,494.1z"/>
		<path class="st3" d="M371.2,494.1c0-18.5-5.7-35.4-15-47.9c10.8-22.4,1.4-49.2-21-60c-22.4-10.8-49.2-1.4-60,21
			c-5.9,12.3-5.9,26.7,0,39c-9.3,12.5-15,29.4-15,47.9s5.7,35.4,15,47.9c-10.8,22.4-1.4,49.2,21,60c22.4,10.8,49.2,1.4,60-21
			c5.9-12.3,5.9-26.7,0-39C365.4,529.5,371.2,512.6,371.2,494.1z"/>
		<polygon class="st3" points="320.9,664.6 310.4,664.6 315.6,490.1 		"/>
		<polygon class="st3" points="317,533.7 351.3,519.2 317,537.7 		"/>
		<polygon class="st3" points="313.9,549.6 303.8,537.7 313.6,556.2 		"/>
	</g>
	<g class="st2">
		<path class="st3" d="M449.2,554c0-12-3.7-22.9-9.7-31c7-14.5,0.9-31.8-13.6-38.8c-14.5-7-31.8-0.9-38.8,13.6
			c-3.8,8-3.8,17.2,0,25.2c-6,8.1-9.7,19-9.7,31s3.7,22.9,9.7,31c-7,14.5-0.9,31.8,13.6,38.8c14.5,7,31.8,0.9,38.8-13.6
			c3.8-8,3.8-17.2,0-25.2C445.5,576.8,449.2,565.9,449.2,554z"/>
		<path class="st4" d="M449.2,554c0-12-3.7-22.9-9.7-31c7-14.5,0.9-31.8-13.6-38.8c-14.5-7-31.8-0.9-38.8,13.6
			c-3.8,8-3.8,17.2,0,25.2c-6,8.1-9.7,19-9.7,31s3.7,22.9,9.7,31c-7,14.5-0.9,31.8,13.6,38.8c14.5,7,31.8,0.9,38.8-13.6
			c3.8-8,3.8-17.2,0-25.2C445.5,576.8,449.2,565.9,449.2,554z"/>
		<path class="st3" d="M450.9,554c0-12-3.7-22.9-9.7-31c7-14.5,0.9-31.8-13.6-38.8c-14.5-7-31.8-0.9-38.8,13.6
			c-3.8,8-3.8,17.2,0,25.2c-6,8.1-9.7,19-9.7,31s3.7,22.9,9.7,31c-7,14.5-0.9,31.8,13.6,38.8c14.5,7,31.8,0.9,38.8-13.6
			c3.8-8,3.8-17.2,0-25.2C447.2,576.8,450.9,565.9,450.9,554z"/>
		<polygon class="st3" points="418.4,664.2 411.6,664.2 415,551.4 		"/>
		<polygon class="st3" points="415.9,579.6 438.1,570.2 415.9,582.2 		"/>
		<polygon class="st3" points="413.8,589.9 407.3,582.2 413.7,594.1 		"/>
	</g>
	<rect x="339.4" y="621.8" class="st5" width="1.2" height="18.4"/>
	<rect x="338.2" y="642.6" class="st5" width="3.1" height="21.4"/>
	<rect x="403.1" y="642.6" class="st5" width="3.1" height="21.4"/>
	<rect x="338.2" y="642.6" class="st6" width="3.1" height="21.4"/>
	<rect x="403.1" y="642.6" class="st6" width="3.1" height="21.4"/>
	<rect x="404.3" y="621.8" class="st5" width="1.2" height="18.4"/>
	<rect x="339.4" y="621.8" class="st6" width="1.2" height="18.4"/>
	<rect x="404.3" y="621.8" class="st6" width="1.2" height="18.4"/>
	<rect x="333.9" y="620.5" class="st5" width="77.1" height="3.7"/>
	<rect x="333.9" y="626.7" class="st5" width="77.1" height="3.7"/>
	<rect x="333.9" y="632.8" class="st5" width="77.1" height="3.7"/>
	<rect x="333.9" y="639.5" class="st5" width="77.1" height="6.7"/>
	<rect x="239.9" y="399.8" class="st7" width="27.6" height="53.3"/>
	<polygon class="st8" points="296,481.5 296,663.4 48.6,663.4 48.6,481.5 69.4,468.7 89,456.7 172.6,405.3 	"/>
	<polygon class="st6" points="264.7,663.4 264.7,472.1 261,474.4 261,663.4 	"/>
	<rect x="144.7" y="578.6" class="st3" width="55.1" height="84.5"/>
	<circle class="st5" cx="191.6" cy="620.8" r="2.5"/>
	<rect x="239.9" y="400.4" class="st6" width="27.6" height="3.1"/>
	<rect x="235" y="396.7" class="st7" width="36.7" height="6.1"/>
	<rect x="48.6" y="524.4" class="st6" width="247.4" height="4.9"/>
	<rect x="48.6" y="523.8" class="st9" width="247.4" height="4.9"/>
	<rect x="258" y="396.7" class="st6" width="6.7" height="56.3"/>
	<rect x="253.1" y="397" class="st6" width="1.8" height="56.3"/>
	<polygon class="st6" points="289.8,474.2 289.8,663.4 270.2,663.4 270.2,468.7 	"/>
	<polygon class="st6" points="83.5,456.7 83.5,663.4 63.9,663.4 63.9,468.7 	"/>
	<polygon class="st6" points="58.4,663.4 58.4,472.1 54.7,474.4 54.7,663.4 	"/>
	<polygon class="st6" points="172.6,385.1 25,492.3 34.8,508.2 172.6,414.5 310.4,508.2 320.1,492.3 	"/>
	<polygon class="st3" points="172.6,383.9 25,491 34.8,506.9 172.6,413.3 310.4,506.9 320.1,491 	"/>
	<rect x="69.1" y="557.8" class="st10" width="51.4" height="51.4"/>
	<rect x="66.9" y="607.7" class="st6" width="55.1" height="6.1"/>
	<rect x="66.9" y="606.5" class="st5" width="55.1" height="6.1"/>
	<polygon class="st11" points="90.6,558.1 69.4,587.3 69.4,572.4 81.3,558.1 	"/>
	<polygon class="st11" points="108.8,558.1 69.4,599.5 69.4,592.2 98.8,558.1 	"/>
	<line class="st12" x1="69.1" y1="583.5" x2="120.5" y2="583.5"/>
	<line class="st12" x1="69.4" y1="558.1" x2="120.8" y2="558.1"/>
	<line class="st12" x1="94.8" y1="557.8" x2="94.8" y2="609.2"/>
	<line class="st12" x1="120.2" y1="558.1" x2="120.2" y2="609.5"/>
	<line class="st12" x1="69.4" y1="557.5" x2="69.4" y2="608.9"/>
	<rect x="224" y="557.8" class="st10" width="51.4" height="51.4"/>
	<rect x="222.5" y="607.7" class="st6" width="55.1" height="6.1"/>
	<rect x="222.5" y="606.5" class="st5" width="55.1" height="6.1"/>
	<polygon class="st11" points="253.9,558.1 275.1,587.3 275.1,572.4 263.2,558.1 	"/>
	<polygon class="st11" points="235.7,558.1 275.1,599.5 275.1,592.2 245.7,558.1 	"/>
	<line class="st12" x1="275.4" y1="583.5" x2="224" y2="583.5"/>
	<line class="st12" x1="275.1" y1="558.1" x2="223.7" y2="558.1"/>
	<line class="st12" x1="249.7" y1="557.8" x2="249.7" y2="609.2"/>
	<line class="st12" x1="224.3" y1="558.1" x2="224.3" y2="609.5"/>
	<line class="st12" x1="275.1" y1="557.5" x2="275.1" y2="608.9"/>
	<rect x="146.2" y="453.1" class="st10" width="51.4" height="51.4"/>
	<rect x="144.7" y="503" class="st6" width="55.1" height="6.1"/>
	<rect x="144.7" y="501.7" class="st5" width="55.1" height="6.1"/>
	<polygon class="st11" points="176.2,453.4 197.4,482.6 197.4,467.7 185.5,453.4 	"/>
	<polygon class="st11" points="158,453.4 197.4,494.8 197.4,487.5 168,453.4 	"/>
	<line class="st12" x1="197.7" y1="478.8" x2="146.2" y2="478.8"/>
	<line class="st12" x1="197.4" y1="453.4" x2="145.9" y2="453.4"/>
	<line class="st12" x1="172" y1="453.1" x2="172" y2="504.5"/>
	<line class="st12" x1="146.6" y1="453.4" x2="146.6" y2="504.8"/>
	<line class="st12" x1="197.4" y1="452.8" x2="197.4" y2="504.2"/>
	<rect x="144.7" y="651.2" class="st5" width="55.1" height="12.3"/>
	<rect x="690.9" y="523.2" class="st7" width="192.3" height="140.2"/>
	<polygon class="st6" points="869.1,663.4 869.1,472.1 865.4,474.4 865.4,663.4 	"/>
	<polygon class="st6" points="879.5,663.4 879.5,472.1 875.8,474.4 875.8,663.4 	"/>
	<rect x="690.9" y="526.2" class="st6" width="192.3" height="15.9"/>
	<polygon class="st3" points="901.5,539.1 608.9,539.1 608.9,405 853.8,405 	"/>
	<polygon class="st6" points="901.5,539.1 608.9,539.1 608.9,405 853.8,405 	"/>
	<rect x="692.8" y="523.2" class="st6" width="15.9" height="140.2"/>
	<rect x="650.8" y="399.8" class="st7" width="27.5" height="53.3"/>
	<polygon class="st8" points="706.8,481.5 706.8,663.4 459.5,663.4 459.5,481.5 480.3,468.7 499.9,456.7 583.5,405.3 	"/>
	<rect x="555.6" y="578.6" class="st3" width="55.1" height="84.5"/>
	<circle class="st5" cx="602.4" cy="620.8" r="2.5"/>
	<rect x="650.8" y="400.4" class="st6" width="27.5" height="3.1"/>
	<rect x="645.9" y="396.7" class="st7" width="36.7" height="6.1"/>
	<rect x="459.5" y="524.4" class="st6" width="247.4" height="4.9"/>
	<rect x="459.5" y="523.8" class="st9" width="247.4" height="4.9"/>
	<rect x="668.9" y="396.7" class="st6" width="6.7" height="56.3"/>
	<rect x="664" y="397" class="st6" width="1.8" height="56.3"/>
	<polygon class="st6" points="700.7,474.2 700.7,663.4 681.1,663.4 681.1,468.7 	"/>
	<polygon class="st6" points="494.4,456.7 494.4,663.4 474.8,663.4 474.8,468.7 	"/>
	<polygon class="st6" points="469.3,663.4 469.3,472.1 465.6,474.4 465.6,663.4 	"/>
	<polygon class="st6" points="583.5,385.1 435.9,492.3 445.7,508.2 583.5,414.5 721.2,508.2 731,492.3 	"/>
	<polygon class="st3" points="583.5,383.9 435.9,491 445.7,506.9 583.5,413.3 721.2,506.9 731,491 	"/>
	<rect x="480" y="557.8" class="st10" width="51.4" height="51.4"/>
	<rect x="477.8" y="607.7" class="st6" width="55.1" height="6.1"/>
	<rect x="477.8" y="606.5" class="st5" width="55.1" height="6.1"/>
	<polygon class="st11" points="501.5,558.1 480.3,587.3 480.3,572.4 492.2,558.1 	"/>
	<polygon class="st11" points="519.7,558.1 480.3,599.5 480.3,592.2 509.7,558.1 	"/>
	<line class="st12" x1="480" y1="583.5" x2="531.4" y2="583.5"/>
	<line class="st12" x1="480.3" y1="558.1" x2="531.7" y2="558.1"/>
	<line class="st12" x1="505.7" y1="557.8" x2="505.7" y2="609.2"/>
	<line class="st12" x1="531.1" y1="558.1" x2="531.1" y2="609.5"/>
	<line class="st12" x1="480.3" y1="557.5" x2="480.3" y2="608.9"/>
	<rect x="634.9" y="557.8" class="st10" width="51.4" height="51.4"/>
	<rect x="633.4" y="607.7" class="st6" width="55.1" height="6.1"/>
	<rect x="633.4" y="606.5" class="st5" width="55.1" height="6.1"/>
	<polygon class="st11" points="664.8,558.1 686,587.3 686,572.4 674.1,558.1 	"/>
	<polygon class="st11" points="646.6,558.1 686,599.5 686,592.2 656.6,558.1 	"/>
	<line class="st12" x1="686.3" y1="583.5" x2="634.9" y2="583.5"/>
	<line class="st12" x1="686" y1="558.1" x2="634.6" y2="558.1"/>
	<line class="st12" x1="660.6" y1="557.8" x2="660.6" y2="609.2"/>
	<line class="st12" x1="635.2" y1="558.1" x2="635.2" y2="609.5"/>
	<line class="st12" x1="686" y1="557.5" x2="686" y2="608.9"/>
	<rect x="557.1" y="453.1" class="st10" width="51.4" height="51.4"/>
	<rect x="555.6" y="503" class="st6" width="55.1" height="6.1"/>
	<rect x="555.6" y="501.7" class="st5" width="55.1" height="6.1"/>
	<polygon class="st11" points="587,453.4 608.3,482.6 608.3,467.7 596.3,453.4 	"/>
	<polygon class="st11" points="568.8,453.4 608.3,494.8 608.3,487.5 578.8,453.4 	"/>
	<line class="st12" x1="608.5" y1="478.8" x2="557.1" y2="478.8"/>
	<line class="st12" x1="608.3" y1="453.4" x2="556.8" y2="453.4"/>
	<line class="st12" x1="582.8" y1="453.1" x2="582.8" y2="504.5"/>
	<line class="st12" x1="557.4" y1="453.4" x2="557.4" y2="504.8"/>
	<line class="st12" x1="608.3" y1="452.8" x2="608.3" y2="504.2"/>
	<rect x="555.6" y="651.2" class="st5" width="55.1" height="12.3"/>
	<rect x="721.5" y="567.9" class="st10" width="139.6" height="63.7"/>
	<rect x="719.7" y="629.7" class="st6" width="143.3" height="6.1"/>
	<rect x="719.7" y="628.5" class="st5" width="143.3" height="6.1"/>
	<polygon class="st13" points="740.8,567.9 721.5,583.8 721.5,592.1 751.5,567.9 	"/>
	<rect x="788.9" y="568.9" class="st5" width="4.9" height="63.7"/>
	<rect x="721.9" y="568.9" class="st5" width="4.9" height="63.7"/>
	<rect x="855.9" y="568.9" class="st5" width="4.9" height="63.7"/>
	<rect x="721.5" y="597.3" class="st5" width="139.6" height="4.9"/>
	<rect x="721.5" y="568.3" class="st5" width="139.6" height="4.9"/>
	<polygon class="st13" points="759.8,567.9 721.5,604.3 721.5,613.5 768.1,567.8 	"/>
	<path class="st14" d="M314.9,584.4c0.1-8-2.4-15.7-7-22.2c5-10.4,0.6-22.8-9.7-27.8c-10.4-5-22.8-0.6-27.8,9.7
		c-2.7,5.7-2.7,12.4,0,18.1c-9.3,13.3-9.3,31,0,44.4c-5,10.4-0.6,22.8,9.7,27.8s22.8,0.6,27.8-9.7c2.7-5.7,2.7-12.4,0-18.1
		C312.6,600.1,315,592.4,314.9,584.4z"/>
	<path class="st6" d="M314.9,584.4c0.1-8-2.4-15.7-7-22.2c5-10.4,0.6-22.8-9.7-27.8c-10.4-5-22.8-0.6-27.8,9.7
		c-2.7,5.7-2.7,12.4,0,18.1c-9.3,13.3-9.3,31,0,44.4c-5,10.4-0.6,22.8,9.7,27.8s22.8,0.6,27.8-9.7c2.7-5.7,2.7-12.4,0-18.1
		C312.6,600.1,315,592.4,314.9,584.4z"/>
	<path class="st14" d="M316.2,584.4c0.1-8-2.4-15.7-7-22.2c5-10.4,0.6-22.8-9.7-27.8c-10.4-5-22.8-0.6-27.8,9.7
		c-2.7,5.7-2.7,12.4,0,18.1c-9.3,13.3-9.3,31,0,44.4c-5,10.4-0.6,22.8,9.7,27.8c10.4,5,22.8,0.6,27.8-9.7c2.7-5.7,2.7-12.4,0-18.1
		C313.8,600.1,316.3,592.4,316.2,584.4z"/>
	<polygon class="st15" points="292.9,663.4 288,663.4 290.5,582.6 	"/>
	<polygon class="st15" points="291.1,602.8 307,596 291.1,604.6 	"/>
	<polygon class="st15" points="289.6,610.1 284.9,604.6 289.5,613.2 	"/>
	<path class="st14" d="M934.6,584.4c0.1-8-2.4-15.7-7-22.2c5-10.4,0.6-22.8-9.7-27.8s-22.8-0.6-27.8,9.7c-2.7,5.7-2.7,12.4,0,18.1
		c-9.3,13.3-9.3,31,0,44.4c-5,10.4-0.6,22.8,9.7,27.8s22.8,0.6,27.8-9.7c2.7-5.7,2.7-12.4,0-18.1
		C932.3,600.1,934.7,592.4,934.6,584.4z"/>
	<path class="st6" d="M934.6,584.4c0.1-8-2.4-15.7-7-22.2c5-10.4,0.6-22.8-9.7-27.8s-22.8-0.6-27.8,9.7c-2.7,5.7-2.7,12.4,0,18.1
		c-9.3,13.3-9.3,31,0,44.4c-5,10.4-0.6,22.8,9.7,27.8s22.8,0.6,27.8-9.7c2.7-5.7,2.7-12.4,0-18.1
		C932.3,600.1,934.7,592.4,934.6,584.4z"/>
	<path class="st14" d="M935.8,584.4c0.1-8-2.4-15.7-7-22.2c5-10.4,0.6-22.8-9.7-27.8s-22.8-0.6-27.8,9.7c-2.7,5.7-2.7,12.4,0,18.1
		c-9.3,13.3-9.3,31,0,44.4c-5,10.4-0.6,22.8,9.7,27.8s22.8,0.6,27.8-9.7c2.7-5.7,2.7-12.4,0-18.1
		C933.5,600.1,935.9,592.4,935.8,584.4z"/>
	<polygon class="st15" points="912.6,663.4 907.7,663.4 910.1,582.6 	"/>
	<polygon class="st15" points="910.7,602.8 926.7,596 910.7,604.6 	"/>
	<polygon class="st15" points="909.3,610.1 904.6,604.6 909.2,613.2 	"/>
	<path class="st14" d="M484.5,584.4c0.1-8-2.4-15.7-7-22.2c5-10.4,0.6-22.8-9.7-27.8c-10.4-5-22.8-0.6-27.8,9.7
		c-2.7,5.7-2.7,12.4,0,18.1c-9.3,13.3-9.3,31,0,44.4c-5,10.4-0.6,22.8,9.7,27.8c10.4,5,22.8,0.6,27.8-9.7c2.7-5.7,2.7-12.4,0-18.1
		C482.2,600.1,484.6,592.4,484.5,584.4z"/>
	<path class="st6" d="M484.5,584.4c0.1-8-2.4-15.7-7-22.2c5-10.4,0.6-22.8-9.7-27.8c-10.4-5-22.8-0.6-27.8,9.7
		c-2.7,5.7-2.7,12.4,0,18.1c-9.3,13.3-9.3,31,0,44.4c-5,10.4-0.6,22.8,9.7,27.8c10.4,5,22.8,0.6,27.8-9.7c2.7-5.7,2.7-12.4,0-18.1
		C482.2,600.1,484.6,592.4,484.5,584.4z"/>
	<path class="st14" d="M485.8,584.4c0.1-8-2.4-15.7-7-22.2c5-10.4,0.6-22.8-9.7-27.8c-10.4-5-22.8-0.6-27.8,9.7
		c-2.7,5.7-2.7,12.4,0,18.1c-9.3,13.3-9.3,31,0,44.4c-5,10.4-0.6,22.8,9.7,27.8c10.4,5,22.8,0.6,27.8-9.7c2.7-5.7,2.7-12.4,0-18.1
		C483.4,600.1,485.9,592.4,485.8,584.4z"/>
	<polygon class="st15" points="462.5,663.4 457.6,663.4 460.1,582.6 	"/>
	<polygon class="st15" points="460.7,602.8 476.6,596 460.7,604.6 	"/>
	<polygon class="st15" points="459.2,610.1 454.5,604.6 459.1,613.2 	"/>
	<g class="st16">
		
			<linearGradient id="SVGID_3_" gradientUnits="userSpaceOnUse" x1="498.4132" y1="39.3701" x2="498.4132" y2="105.35" gradientTransform="matrix(1 0 0 -1 -144.58 703.79)">
			<stop  offset="0" style="stop-color:#818181;stop-opacity:0.25"/>
			<stop  offset="0.54" style="stop-color:#818181;stop-opacity:0.12"/>
			<stop  offset="1" style="stop-color:#818181;stop-opacity:0.1"/>
		</linearGradient>
		<path class="st17" d="M362.5,637.1L362,637l1-3.7c1.6-11.8-4.3-12.9-6.6-13c-0.3-0.1-0.5-0.2-0.8-0.2v-1.4c2.9-0.7,5-3,5.5-5.9
			l0,0c0.3,0,0.6-0.5,0.6-1.2c0-0.4-0.1-0.7-0.3-1c0-0.3,0-0.5,0-0.8c0-2.1-0.8-4.1-2.4-5.5c-0.1-0.5-0.3-1-0.5-1.5
			c-0.5-1-1.5-2-1.1-3l-2.4,0.3v-1.6c-0.8,0.1-1.1,1-1.5,1.6c-1.1,1.5-3.2,1.7-4.6,2.8c-0.5,0.4-1.6,1.6-1.4,2.4
			c-1,1.3-1.5,2.9-1.5,4.5c0,0.3,0,0.5,0,0.8c-0.2,0.3-0.3,0.6-0.3,1c0,0.7,0.3,1.2,0.6,1.2l0,0c0.5,2.9,2.6,5.2,5.5,5.9v1.4
			c-0.3,0.1-0.5,0.1-0.8,0.2c-2.2,0-8.1,1.2-6.6,13l1,3.7h-0.2c-1.5,0.3-2.5,1.7-2.2,3.2l3.9,21c0.1,0.5,0.5,0.7,1,0.7c0,0,0,0,0,0
			l0.7-0.1v0.4c-0.8,0.4-1.3,1.2-1.3,2.1v0.3h4.6v-0.3c0-0.8-0.4-1.6-1.1-2v-0.9l0.6-0.1c0.5-0.1,0.7-0.5,0.7-1c0,0,0,0,0,0
			l-3.7-19.8h10.2l-3.7,19.8c-0.1,0.4,0.2,0.9,0.6,1c0,0,0,0,0,0l0.6,0.1v0.9c-0.7,0.4-1.1,1.2-1.1,2v0.3h4.6v-0.3
			c0-0.9-0.5-1.7-1.3-2.1v-0.3l0.7,0.1c0.4,0.1,0.9-0.2,1-0.6c0,0,0,0,0,0l4-21.3C364.7,638.7,363.8,637.4,362.5,637.1
			C362.5,637.1,362.5,637.1,362.5,637.1z"/>
	</g>
	<rect x="349.1" y="659.1" class="st18" width="2.1" height="2.9"/>
	<rect x="356.5" y="659.1" class="st18" width="2.1" height="2.9"/>
	<rect x="346.8" y="635.1" class="st19" width="14.1" height="5.1"/>
	<g class="st20">
		<rect x="346.8" y="635.1" class="st21" width="14.1" height="5.1"/>
	</g>
	<path class="st6" d="M346.8,636c2.3,0.6,4.7,1,7.1,1.2c2.4-0.3,4.7-0.7,7.1-1.2v-0.8h-14.1V636z"/>
	<path class="st22" d="M360.9,635.8c-2.3,0.6-4.7,1-7.1,1.2c-2.4-0.3-4.7-0.7-7.1-1.2v-8.5c0-3.9,3.2-7.1,7.1-7.1l0,0l0,0
		c3.9,0,7.1,3.2,7.1,7.1l0,0V635.8z"/>
	<path class="st18" d="M352.2,616.8h3.4l0,0v3.9c0,0.9-0.7,1.7-1.7,1.7l0,0h-0.1c-0.9,0-1.7-0.7-1.7-1.7l0,0V616.8L352.2,616.8z"/>
	<path class="st19" d="M351.5,660.2l-2.7,0.5c-0.6,0.1-1.2-0.3-1.4-0.9l-3.5-18.7c-0.4-2.1,1-4.1,3.1-4.5c0,0,0,0,0,0h0.1
		c0.6-0.1,1.2,0.3,1.3,0.9l4,21.3C352.5,659.4,352.1,660,351.5,660.2z"/>
	<path class="st19" d="M356.3,660.2l2.5,0.5c0.7,0.1,1.3-0.3,1.5-1c0,0,0,0,0,0l3.5-18.7c0.4-2-1-4-3-4.3c0,0,0,0,0,0h-0.1
		c-0.7-0.1-1.3,0.3-1.5,1c0,0,0,0,0,0l-3.9,21.1C355.2,659.4,355.6,660,356.3,660.2C356.3,660.2,356.3,660.2,356.3,660.2z"/>
	<path class="st6" d="M352.2,619.3c1.1,0.3,2.3,0.3,3.4,0v-2.4h-3.4V619.3z"/>
	<circle class="st23" cx="353.9" cy="610.6" r="7.4"/>
	<circle class="st18" cx="353.9" cy="612.3" r="7.1"/>
	<path class="st23" d="M349.2,604c1.4-1.1,3.4-1.3,4.4-2.7c0.4-0.6,0.7-1.4,1.5-1.6v1.5l2.3-0.2c-0.4,1,0.5,2,1,2.9
		c0.4,0.7,0.6,1.4,0.6,2.2c-0.8,0.5-1.8,0-2.7-0.3c-0.9-0.2-1.8-0.3-2.7-0.3c-0.5,0-0.9,0-1.4,0.1c-0.4,0.1-0.8,0.2-1.2,0.4
		c-0.6,0.3-2.5,1.2-3.1,0.6S348.7,604.4,349.2,604z"/>
	<path class="st6" d="M349.6,608.8c0.4,0.2,0.8,0.3,1.3,0.4c1.8,0.2,3.7,0,5.4-0.6c0.3,0.7,0.9,1.2,1.7,1.4c0.7,0.2,1.5,0.3,2.3,0.3
		c0.2,0,0.3,0,0.5-0.1c0.3-0.2,0.2-0.8,0-1.1l-1-1.8c-0.2-0.5-0.6-1-1-1.5c-0.6-0.5-1.3-0.8-2.1-0.9c-1.8-0.3-3.6-0.3-5.3,0.2
		C349.4,605.6,347,607.3,349.6,608.8z"/>
	<path class="st23" d="M349.6,608.6c0.4,0.2,0.8,0.3,1.3,0.4c1.8,0.2,3.7,0,5.4-0.6c0.3,0.7,0.9,1.2,1.7,1.4
		c0.7,0.2,1.5,0.3,2.3,0.3c0.2,0,0.3,0,0.5-0.1c0.3-0.2,0.2-0.8,0-1.1l-1-1.8c-0.2-0.5-0.6-1-1-1.5c-0.6-0.5-1.3-0.8-2.1-0.9
		c-1.8-0.3-3.6-0.3-5.3,0.2C349.4,605.4,347,607.1,349.6,608.6z"/>
	<ellipse class="st18" cx="360.9" cy="612.3" rx="0.6" ry="1.1"/>
	<ellipse class="st18" cx="346.9" cy="612.3" rx="0.6" ry="1.1"/>
	<path class="st22" d="M352.2,620.8c0,0-9-1.4-7.1,12.4l1.1,4l3.1-0.1c0,0-2-4.6-0.8-7.7C349.7,626.3,352.2,620.8,352.2,620.8z"/>
	<path class="st22" d="M355.5,620.8c0,0,9-1.4,7.1,12.4l-1.1,4l-3.1-0.1c0,0,2-4.6,0.8-7.7C358,626.3,355.5,620.8,355.5,620.8z"/>
	<circle class="st18" cx="347.9" cy="637.7" r="1.7"/>
	<circle class="st18" cx="360.2" cy="637.7" r="1.7"/>
	<path class="st23" d="M350,660.8L350,660.8c1.3,0,2.3,1,2.3,2.2l0,0v0.3l0,0h-4.5l0,0V663C347.9,661.7,348.8,660.8,350,660.8
		L350,660.8z"/>
	<path class="st23" d="M357.6,660.8L357.6,660.8c1.3,0,2.3,1,2.3,2.2l0,0v0.3l0,0h-4.4l0,0V663C355.4,661.7,356.4,660.8,357.6,660.8
		z"/>
	<path class="st6" d="M348.3,628.2c0,0-0.6,3.2,0.5,4.6"/>
	<path class="st6" d="M359.4,628.2c0,0,0.6,3.2-0.5,4.6"/>
	<circle class="st22" cx="472.3" cy="589.3" r="3.1"/>
	
		<linearGradient id="SVGID_4_" gradientUnits="userSpaceOnUse" x1="620.5969" y1="102.81" x2="620.5969" y2="113.7724" gradientTransform="matrix(1 0 0 -1 -144.58 703.79)">
		<stop  offset="0" style="stop-color:#818181;stop-opacity:0.25"/>
		<stop  offset="0.54" style="stop-color:#818181;stop-opacity:0.12"/>
		<stop  offset="1" style="stop-color:#818181;stop-opacity:0.1"/>
	</linearGradient>
	<path class="st24" d="M476,600.1v0.9l3.7-2.3l-0.4-0.5l-0.2,0.1l-2.9-4.2v-2.4l-1.1,0.1v-0.4c-2.9-3.3-3.2,0.4-2.6,1.5
		c0.4,0.7,1,1.3,1.7,1.8c0.6,0.5,1.7,4.4,1.9,5.3L476,600.1z"/>
	
		<linearGradient id="SVGID_5_" gradientUnits="userSpaceOnUse" x1="634.6469" y1="38.17" x2="634.6469" y2="120.3932" gradientTransform="matrix(1 0 0 -1 -144.58 703.79)">
		<stop  offset="0" style="stop-color:#818181;stop-opacity:0.25"/>
		<stop  offset="0.54" style="stop-color:#818181;stop-opacity:0.12"/>
		<stop  offset="1" style="stop-color:#818181;stop-opacity:0.1"/>
	</linearGradient>
	<path class="st25" d="M500,598.2l-0.5-0.3l0,0l-0.5-1.4h-0.2l-0.6-1.1c0.5-0.3,0.9-0.6,1.3-1c1.2-1.3,1.8-3.1,1.5-4.9
		c0-0.5,0.8-1.9-1.8-2.6c-0.2-1.5-1.3-2.8-2.7-3.1c-1-0.2-2-0.3-3.1-0.3c-2,0.1-3.6,1.6-3.7,3.6c0,0-0.6,0.2-0.6,2.2h0.1
		c-0.8,3,1.1,6.1,4.1,6.9c0,0,0,0,0,0v0.2l0.1,0l0.4,1l-1.2,0.7l-2.4,0.1c-1.1,0-2.2,0.3-3.2,0.7c-2,0.7-4.1,1.3-6.1,1.7l-1.3-1.8
		l-3.7,2.6l2.4,3.7c0.4,0.3,0.8,0.5,1.3,0.7l0,0h0.1c0.6,0.2,1.2,0.4,1.9,0.5c2.1,0.4,4.3,0.4,6.4,0.1l0,0l0.8,16.7h0l-0.4,2.9
		c-3.9,4.9-5,19-5,19l5.8,16.5c-0.1,0.5-0.5,1.5-2.3,2.2c-2.4,1,1.7,1.7,1.7,1.7l3.7-1.1c0.3,0.6,2,1.4,2,1.4l7.3-0.2v-3.6h-0.1
		c0,0,0.7-6.5,0.2-7.9s0-8,0-8l0.4-14.1c1.3-2.2,1.4-5,0.3-7.3c-0.3-0.7-0.5-1.4-0.6-2.2c0.4-1.2,0.4-2.5,0.1-3.7
		c-0.9-5.5,1.9-11,1.9-11l0,0C504.6,604,503.1,600.3,500,598.2z M495.6,662.7l-0.8-2.9l-0.2,0.1l-3.6-15l3.3-6.9v6.6l1.8,12.9v4.4
		C496.1,662.1,495.9,662.4,495.6,662.7z"/>
	<path class="st26" d="M476.7,592.9v2.3l2.8,4.1l-2.8,1.8c0,0-1.2-4.8-1.9-5.3c-0.6-0.5-1.2-1.1-1.6-1.8c-0.6-1-0.3-4.6,2.5-1.4v0.4
		L476.7,592.9z"/>
	<path class="st26" d="M498.9,598.5l-1.1-2.2c-0.1-0.1-0.2-0.2-0.3-0.2l-4.2-0.2c-0.2,0-0.4,0.2-0.4,0.4c0,0.1,0,0.1,0,0.2l1.1,2.8
		c0.1,0.2,0.2,0.3,0.4,0.3l4.2-0.4c0.2,0,0.4-0.2,0.4-0.5C498.9,598.6,498.9,598.6,498.9,598.5z"/>
	<polygon class="st27" points="498.6,597.6 499.3,599.6 492,599.4 494.8,597.7 	"/>
	<polygon class="st27" points="480,599.7 479.7,599.2 476.5,601.1 476.5,601.9 	"/>
	<path class="st28" d="M501.5,620.3c-0.3,1.4-0.1,2.9,0.5,4.3c1.1,2.2,1,4.9-0.3,7l-0.4,13.5c0,0-0.5,6.3,0,7.7
		c0.5,1.3-0.2,7.6-0.2,7.6h-5.2v-4.2l-1.8-12.4v-6.3l-3.2,6.6l3.6,15.3l-4.8,2l-6-17.2c0,0,1-13.5,4.8-18.2l0.7-5.1L501.5,620.3z"/>
	<path class="st23" d="M501.2,663.8v-3.5h-5.3c0,0-0.4,1.4-2.8,1.7c-2.4,0.3,1.1,2,1.1,2L501.2,663.8z"/>
	<path class="st23" d="M495.5,661.7l-0.9-3.3l-5.1,1.5c0,0,0,1.4-2.3,2.4c-2.3,0.9,1.6,1.6,1.6,1.6L495.5,661.7z"/>
	<path class="st6" d="M489.3,621.1l12.2-0.5c-0.1,0.7-0.2,1.5-0.1,2.2c-0.2,0.7-1,1.2-1.8,1l-10.6-0.3L489.3,621.1z"/>
	<path class="st29" d="M499,598.9l0.5,0.3c3,2,4.5,5.6,3.9,9.2l0,0c0,0-2.7,5.3-1.9,10.6c0.8,5.3-1.9,4.5-1.9,4.5l-10.7-0.3
		l-0.8-16.1c0,0-6.4,0.9-9.3-1.3l-2.3-3.6l3.5-2.4l1.2,1.7c2-0.4,4-1,5.9-1.7c1-0.4,2-0.6,3.1-0.7L499,598.9z"/>
	<path class="st6" d="M498.9,624.8c0,0,0.7,3.3-3.1,8.7"/>
	<path class="st6" d="M488.1,607.1c0,0-4.5-1.5-6.4-1.5s-1.6,0.8-1.6,0.8C482.6,607.4,485.4,607.6,488.1,607.1z"/>
	<path class="st6" d="M493.2,596.1l1.8,0.2c0.1,0,0.1,0.1,0.1,0.2c-0.4,0.7-0.9,1.1-1.4,1.1c-0.2,0-0.4-0.1-0.5-0.2l-0.1-0.8
		C493,596.3,493.1,596,493.2,596.1z"/>
	<circle class="st26" cx="494.4" cy="592" r="5.5"/>
	<path class="st6" d="M489.8,588.9L489.8,588.9l0.3,0.3c0.4,0.4,0.4,0.9,0.1,1.3c-0.1,0.1-0.2,0.2-0.3,0.2l0,0c0,0,2.4,2.4,2.8,2.9
		c0.3,0.4-0.1,1.7-0.1,1.7s-1.1,2,4.6,1.5c0,0,3.7-0.8,3.3-5.8c0-0.5,0.8-1.8-1.7-2.5l0,0c-0.1-1.5-1.2-2.7-2.6-3
		c-1-0.2-2-0.3-3-0.3C491.2,585.3,489.8,587,489.8,588.9z"/>
	<path class="st30" d="M489.7,588.6L489.7,588.6c0,0-0.6,0.2-0.6,2.1l0.8-0.1c0,0,1.9,5.1,1.7,4.4c-0.7-2.4,0.7-2,1.1-1.5
		s-0.1,1.7-0.1,1.7s-1.1,2,4.6,1.5c0,0,3.7-0.8,3.3-5.8c0-0.5,0.8-1.8-1.7-2.5l0,0c-0.1-1.5-1.2-2.7-2.6-3c-1-0.2-2-0.3-3-0.3
		C491.3,585.1,489.8,586.7,489.7,588.6z"/>
	<path class="st14" d="M93.8,648.3c0-0.3,0-0.6,0-0.8c0-6.1-4.9-11-11-11c-2,0-3.9,0.5-5.6,1.5c-2.9-5.4-9.5-7.4-14.9-4.5
		c-1.5,0.8-2.7,1.9-3.7,3.2c-6-1.2-11.8,2.6-13,8.6c-0.7,3.3,0.2,6.7,2.4,9.3c-2.2,5.7,0.6,12,6.2,14.3c2.8,1.1,5.9,1,8.7-0.3
		c4,1.8,8.7,1.1,11.9-1.8c3,2.7,7.2,3.5,11,2.2c5.7,2.2,12-0.6,14.2-6.3C102.3,656.9,99.4,650.6,93.8,648.3L93.8,648.3z"/>
	<path class="st6" d="M93.8,648.3c0-0.3,0-0.6,0-0.8c0-6.1-4.9-11-11-11c-2,0-3.9,0.5-5.6,1.5c-2.9-5.4-9.5-7.4-14.9-4.5
		c-1.5,0.8-2.7,1.9-3.7,3.2c-6-1.2-11.8,2.6-13,8.6c-0.7,3.3,0.2,6.7,2.4,9.3c-2.2,5.7,0.6,12,6.2,14.3c2.8,1.1,5.9,1,8.7-0.3
		c4,1.8,8.7,1.1,11.9-1.8c3,2.7,7.2,3.5,11,2.2c5.7,2.2,12-0.6,14.2-6.3C102.3,656.9,99.4,650.6,93.8,648.3L93.8,648.3z"/>
	<path class="st14" d="M95.1,648.3c0-0.3,0-0.6,0-0.8c0-6.1-4.9-11-11-11c-2,0-3.9,0.5-5.6,1.5c-2.9-5.4-9.5-7.4-14.9-4.5
		c-1.5,0.8-2.7,1.9-3.7,3.2c-6-1.2-11.8,2.6-13,8.6c-0.7,3.3,0.2,6.7,2.4,9.3c-2.2,5.7,0.6,12,6.2,14.3c2.8,1.1,5.9,1,8.7-0.3
		c4,1.8,8.7,1.1,11.9-1.8c3,2.7,7.2,3.5,11,2.2c5.7,2.2,12-0.6,14.2-6.3C103.5,656.9,100.7,650.6,95.1,648.3L95.1,648.3z"/>
	<path class="st14" d="M867.8,644c0-0.3,0-0.6,0-0.8c0-6.1-4.9-11-11-11c-2,0-3.9,0.5-5.6,1.5c-2.9-5.4-9.5-7.4-14.9-4.5
		c-1.5,0.8-2.7,1.9-3.7,3.2c-6-1.2-11.8,2.6-13,8.6c-0.7,3.3,0.2,6.7,2.4,9.3c1.2,9.5,9.8,16.2,19.2,15c2.7-0.3,5.3-1.3,7.6-2.9
		c3.6,6.7,11.9,9.2,18.6,5.6c6.7-3.6,9.2-11.9,5.6-18.6C871.8,647.2,870,645.3,867.8,644L867.8,644z"/>
	<path class="st6" d="M867.8,644c0-0.3,0-0.6,0-0.8c0-6.1-4.9-11-11-11c-2,0-3.9,0.5-5.6,1.5c-2.9-5.4-9.5-7.4-14.9-4.5
		c-1.5,0.8-2.7,1.9-3.7,3.2c-6-1.2-11.8,2.6-13,8.6c-0.7,3.3,0.2,6.7,2.4,9.3c1.2,9.5,9.8,16.2,19.2,15c2.7-0.3,5.3-1.3,7.6-2.9
		c3.6,6.7,11.9,9.2,18.6,5.6c6.7-3.6,9.2-11.9,5.6-18.6C871.8,647.2,870,645.3,867.8,644L867.8,644z"/>
	<path class="st14" d="M869,644c0-0.3,0-0.6,0-0.8c0-6.1-4.9-11-11-11c-2,0-3.9,0.5-5.6,1.5c-2.9-5.4-9.5-7.4-14.9-4.5
		c-1.5,0.8-2.7,1.9-3.7,3.2c-6-1.2-11.8,2.6-13,8.6c-0.7,3.3,0.2,6.7,2.4,9.3c1.2,9.5,9.8,16.2,19.2,15c2.7-0.3,5.3-1.3,7.6-2.9
		c3.6,6.7,11.9,9.2,18.6,5.6c6.7-3.6,9.2-11.9,5.6-18.6C873,647.2,871.2,645.3,869,644L869,644z"/>
	<rect x="34.5" y="663.4" class="st23" width="897.7" height="9.2"/>
	<circle class="st31" cx="832.7" cy="317.2" r="28.2"/>
	<g class="st32">
		<path class="st7" d="M634,317h76.1c5.1,0,9.2,4.1,9.2,9.2l0,0c0,5.1-4.1,9.2-9.2,9.2H634c-5.1,0-9.2-4.1-9.2-9.2l0,0
			C624.8,321.1,629,317,634,317z"/>
		<path class="st7" d="M611,335.4h76.1c5.1,0,9.2,4.1,9.2,9.2l0,0c0,5.1-4.1,9.2-9.2,9.2H611c-5.1,0-9.2-4.1-9.2-9.2l0,0
			C601.8,339.6,605.9,335.4,611,335.4z"/>
		<path class="st7" d="M634,353.9h76.1c5.1,0,9.2,4.1,9.2,9.2l0,0c0,5.1-4.1,9.2-9.2,9.2H634c-5.1,0-9.2-4.1-9.2-9.2l0,0
			C624.8,358,629,353.9,634,353.9z"/>
	</g>
	<g class="st16">
		<path class="st7" d="M198.1,307.8h76.1c5.1,0,9.2,4.1,9.2,9.2l0,0c0,5.1-4.1,9.2-9.2,9.2h-76.1c-5.1,0-9.2-4.1-9.2-9.2l0,0
			C188.9,311.9,193,307.8,198.1,307.8z"/>
		<path class="st7" d="M175,326.2h76.1c5.1,0,9.2,4.1,9.2,9.2l0,0c0,5.1-4.1,9.2-9.2,9.2H175c-5.1,0-9.2-4.1-9.2-9.2l0,0
			C165.8,330.4,169.9,326.2,175,326.2z"/>
		<path class="st7" d="M198.1,344.7h76.1c5.1,0,9.2,4.1,9.2,9.2l0,0c0,5.1-4.1,9.2-9.2,9.2h-76.1c-5.1,0-9.2-4.1-9.2-9.2l0,0
			C188.9,348.8,193,344.7,198.1,344.7z"/>
	</g>
	<g class="st32">
		<path class="st33" d="M110,374.4h20.2C130.2,374.4,122.6,387.8,110,374.4z"/>
		<path class="st33" d="M111.2,380.1l13.2-15.2C124.4,364.9,129.6,379.4,111.2,380.1z"/>
	</g>
	<g class="st32">
		<path class="st33" d="M331.3,301.5h20.1C351.4,301.5,343.8,315,331.3,301.5z"/>
		<path class="st33" d="M332.5,307.2l13.2-15.2C345.7,292,350.9,306.6,332.5,307.2z"/>
	</g>
	<g class="st32">
		<path class="st33" d="M744.2,367h21.6C765.9,367,757.7,381.5,744.2,367z"/>
		<path class="st33" d="M745.5,373.2l14.2-16.4C759.7,356.8,765.3,372.4,745.5,373.2z"/>
	</g>
	<g class="st34">
		
			<linearGradient id="SVGID_6_" gradientUnits="userSpaceOnUse" x1="795.5984" y1="37.3572" x2="795.5984" y2="119.45" gradientTransform="matrix(1 0 0 -1 -144.58 703.79)">
			<stop  offset="0" style="stop-color:#818181;stop-opacity:0.25"/>
			<stop  offset="0.54" style="stop-color:#818181;stop-opacity:0.12"/>
			<stop  offset="1" style="stop-color:#818181;stop-opacity:0.1"/>
		</linearGradient>
		<path class="st35" d="M663.7,663.6c-1.2-0.7-1.9-3.2-2.1-4l-1.5-18.9c-1.1-5.3-2.9-10.4-5.3-15.2c0-5.3-0.3-22.1-0.7-23.9
			l-2.7-3.4c0.1-0.3,0.3-0.5,0.4-0.8h0.2l0.2-0.2c2.4-0.8,3.6-3.5,2.8-5.9c-0.1-0.3-0.3-0.6-0.4-0.9c0.7-0.5-0.2-0.7-0.2-0.7l0,0
			c-0.5-2.4-2.8-3.9-5.2-3.5c-0.3-1.1-1.3-1.8-2.4-1.8h-0.1c1,0.1,1.9,0.7,2.2,1.7c-0.9-0.9-2-1.5-3.2-1.8h-0.1c0.5,0,1,0.2,1.4,0.5
			h-0.2c-1.4,0-2.5,1.1-2.5,2.5c0,0.9,0.5,1.7,1.2,2.2c-0.3,1-0.2,2.1,0.3,3.1c-0.2,1.6,0.6,3.1,2,3.8l-0.3,0.7
			c-0.4,0-3.3,0.4-5.2,7c-0.8,1.7-1.4,4.4-1.4,8.7c-0.1,1.1-0.1,2.3-0.2,3.6l-1.4,5.6l0,0v0.1l0,0c-0.4,4.5-0.1,9,0.7,13.4
			c0.5,2.5,0.9,5,0.7,5.9c-0.5,2-2.5,9.2-2.2,11.4l-0.6,3.9l0,0l-2.4,4.6c0,0,1.5,1.3,2.1,1.4s1.3,1,1.3,1s3.5,2.7,4.6,1.8
			s-0.4-1.8-1.5-3.2c-0.9-1.1-0.7-3.6-0.6-4.5l5.2-18.3c0.4-2.5,0.6-5.1,0.6-7.7c0.4,0.3,0.8,0.6,1.3,0.7c0.2,0.1,0.3,0.1,0.5,0
			l0.3,1.2c0,0,5.9,8.5,6.1,10.5s0.8,9.5,1.9,11.4l0.7,3.8l0,0l-0.7,5.1c0.8,0.3,1.6,0.5,2.4,0.6c0.6-0.2,1.5,0.5,1.5,0.5
			s4.2,1.3,5,0.1C667.1,664.8,665.2,664.4,663.7,663.6z"/>
	</g>
	<path class="st36" d="M653.3,623.5l1.5,3.4c0,0-0.2-22.6-0.7-24.6l-3.5-4.3l-1.2,3.2l2.7,3.4c1,3.2,1.5,6.6,1.4,9.9
		C653.2,619.4,653.3,623.5,653.3,623.5z"/>
	<path class="st37" d="M653.3,623.5l1.5,3.4c0,0-0.2-22.6-0.7-24.6l-3.5-4.3l-1.2,3.2l2.7,3.4c1,3.2,1.5,6.6,1.4,9.9
		C653.2,619.4,653.3,623.5,653.3,623.5z"/>
	<path class="st23" d="M653.1,623.5l1.5,3.4c0,0-0.2-22.6-0.7-24.6l-3.5-4.3l-1.2,3.2l2.7,3.4c1,3.2,1.5,6.6,1.4,9.9
		C653,619.4,653.1,623.5,653.1,623.5z"/>
	<path class="st19" d="M639.7,622c-0.4,4.4-0.1,8.9,0.7,13.2c0.5,2.4,0.9,4.8,0.6,5.7c-0.5,1.9-2.4,8.8-2.1,11l-0.6,3.7l3.3,1.2
		l5-17.7c0.8-6,0.8-12.1,0-18.1L639.7,622L639.7,622z"/>
	<path class="st37" d="M638.5,655.3L636,660c0,0,1.4,1.3,2,1.3s1.2,1,1.2,1s3.3,2.6,4.5,1.8c1.1-0.8-0.4-1.7-1.5-3s-0.5-4.6-0.5-4.6
		L638.5,655.3z"/>
	<path class="st19" d="M649.3,633.5c0,0,5.7,8.2,5.9,10.2s0.8,9.1,1.8,11l0.7,3.7h3.5l-1.4-18.3c-1.3-5.9-3.4-11.6-6.2-17l-6.3,3.4
		L649.3,633.5z"/>
	<path class="st9" d="M653.7,624.4c0,0.4-5,0-5,0v-21.3l2.3-3.4c0.8,1.1,1.4,2.3,1.7,3.5c0.5,1.4,1,2.9,1.3,4.4
		c0.2,0.9-0.4,2.2-0.3,3.4C654.3,615.5,654.3,620,653.7,624.4z"/>
	<path class="st26" d="M650.7,600.9c0.3-1.2,0.9-2.4,1.7-3.3l-4.3-1.1l-1,2.3L650.7,600.9z"/>
	<path class="st6" d="M647.5,598.2c0,0-6-0.1-6.5,18.7l-1.3,5.4c0,0,10.6,17.4,12.7,3.3c0,0,1.2-15.3-1.1-20.5l1.1-2.6L647.5,598.2z
		"/>
	<path class="st23" d="M647.5,598c0,0-6-0.1-6.5,18.7l-1.3,5.4c0,0,10.6,17.4,12.7,3.3c0,0,1.2-15.3-1.1-20.5l1.1-2.6L647.5,598z"/>
	<path class="st6" d="M645.1,625.4c0,0-0.4,5.8,3.4,7c0.4,0.1,0.9-0.1,1-0.5c0-0.1,0-0.1,0-0.2c0.1-1-0.3-3-2.1-7.1L645.1,625.4z"/>
	<path class="st26" d="M645.3,625.3c0,0-0.4,5.8,3.4,7c0.4,0.1,0.9-0.1,1-0.5c0-0.1,0-0.1,0-0.2c0.1-1-0.3-3-2.1-7.1L645.3,625.3z"
		/>
	<circle class="st38" cx="651.8" cy="608.2" r="0.2"/>
	<circle class="st38" cx="651.8" cy="616.4" r="0.2"/>
	<path class="st37" d="M657.8,658.1l-0.7,5.2c0.7,0.3,1.5,0.5,2.3,0.6c0.5-0.2,1.5,0.5,1.5,0.5s4,1.3,4.8,0.1s-1-1.5-2.5-2.3
		c-1.5-0.8-2.1-4.2-2.1-4.2L657.8,658.1z"/>
	<path class="st39" d="M646,602.3c0,0-5.5-1.1-4.8,12.8c0,0,1.3,10.2,3.6,10.8l3.4-0.9l-1.4-9.5l1.4-4.9
		C648.2,610.6,649.3,603.1,646,602.3z"/>
	<path class="st6" d="M646.5,602.3c0,0-5.5-1.1-4.8,12.8c0,0,1.3,10.2,3.6,10.8l3.4-0.9l-1.4-9.5l1.4-4.9
		C648.7,610.6,649.8,603.1,646.5,602.3z"/>
	<path class="st23" d="M646.2,602.3c0,0-5.5-1.1-4.8,12.8c0,0,1.3,10.2,3.6,10.8l3.4-0.9l-1.4-9.5l1.4-4.9
		C648.5,610.6,649.5,603.1,646.2,602.3z"/>
	<polygon class="st6" points="645.3,626.1 645.3,625.8 648,625.1 648.1,625.4 	"/>
	<polygon class="st6" points="645.5,600 651.2,605 651.3,604.9 645.6,600 	"/>
	<polygon class="st6" points="652.5,624.6 652.4,624.8 653.5,624.7 653.5,624.6 	"/>
	<path class="st6" d="M647.7,597.2c0.8,0.8,1.9,1.2,3,1.3c0.4,0,0.9-0.1,1.3-0.2c0.1-0.2,0.3-0.4,0.5-0.5l-4.3-1.1L647.7,597.2z"/>
	<circle class="st40" cx="649.9" cy="591.9" r="4.4"/>
	<circle class="st26" cx="650.7" cy="593.9" r="4.4"/>
	<path class="st40" d="M646.3,591.9c0,0-1.7,4.3,1.8,5.7l0,0c1-0.5,1.4-1.8,0.9-2.8c-0.1-0.2-0.2-0.4-0.4-0.5L646.3,591.9z"/>
	<circle class="st40" cx="646.8" cy="588.6" r="2.4"/>
	<path class="st40" d="M654.2,590.9c0,0,1.5,0.4-1.2,1.3c-0.9,0.3-1.6,1-2,1.8c-0.5,1.1-1.7,1.5-2.7,1.1c0,0-0.1,0-0.1-0.1l-0.8-0.5
		l-1.5-3.4l1.8-2l3-0.4L654.2,590.9z"/>
	<path class="st40" d="M649,588.1c0-1.3-1-2.3-2.3-2.4h0.1c1.3,0,2.4,1.1,2.4,2.4c0,1.3-1.1,2.4-2.4,2.4h-0.1
		C648,590.5,649,589.4,649,588.1z"/>
	<path class="st40" d="M648,588.1c0-1.3-1-2.3-2.3-2.4h0.1c1.3,0,2.4,1.1,2.4,2.4c0,1.3-1.1,2.4-2.4,2.4h-0.1
		C647,590.5,648,589.4,648,588.1z"/>
	<ellipse class="st26" cx="649.5" cy="595.3" rx="0.4" ry="0.8"/>
	<g class="st34">
		
			<linearGradient id="SVGID_7_" gradientUnits="userSpaceOnUse" x1="375.185" y1="35.3783" x2="375.185" y2="116.9565" gradientTransform="matrix(1 0 0 -1 -144.58 703.79)">
			<stop  offset="0" style="stop-color:#818181;stop-opacity:0.25"/>
			<stop  offset="0.54" style="stop-color:#818181;stop-opacity:0.12"/>
			<stop  offset="1" style="stop-color:#818181;stop-opacity:0.1"/>
		</linearGradient>
		<path class="st41" d="M248.8,665.5c-1.2-0.7-1.9-3.2-2.1-4.1l-1.5-19.1c-1.2-5.3-3-10.5-5.3-15.4c0-5.4-0.3-22.4-0.7-24.2
			l-2.9-3.5c0.1-0.2,0.3-0.5,0.5-0.7l0,0l0.7,2.1l2.6-0.3l-1.4-2.7c1.9-1.6,2.3-4.4,0.9-6.4c0.4-0.4,0.4-1,0-1.5
			c-0.4-0.5-1-1-1.6-1.3c-2.2-2.1-5.7-2.1-7.8,0.1c-2,2-2.1,5.3-0.3,7.5c-0.1,0.2-0.3,0.3-0.5,0.3c-0.9,0.3-1.7,0.8-2.3,1.6
			c-0.3,0.4-0.3,1.1,0.1,1.4c0,0,0,0,0.1,0l0.4,0.3c0.4,0.2,0.8,0.2,1.1-0.1l0.9-0.7c0,0,0.1,0,0.1,0c0,0,0,0.1,0,0.1
			c-0.3,0.4-0.3,0.9,0.1,1.2c0.1,0.1,0.2,0.2,0.4,0.2l0,0l0,0c-1,1.1-1.8,2.3-2.4,3.7c-1.2,1.4-2.3,4.4-2.2,10.3
			c-0.1,1.1-0.1,2.2-0.2,3.5l-1.4,5.7c0,0-10.6,19.5-8,22.1c0,0,1.6,0.3,3.8,0.9l-6.3,8.4l0.1,0.1l-4,3c0,0,0.7,1.9,1.3,2.2
			c0.5,0.3,0.7,1.5,0.7,1.5s2,4,3.4,3.7c1.4-0.2,0.4-1.8,0-3.5c-0.3-1.3,0.9-3.4,1.4-4.2l0.1,0.1c0,0,7.5-5.7,10.4-8.8
			c1.5,0.7,3,1.5,4.3,2.5c1.7-4.6,3.1-9.2,4.2-14l0,0l0,0c1.8,2.7,4.8,7.3,4.9,8.8c0.2,2.1,0.9,9.6,1.9,11.6l0.7,3.9l0,0l-0.7,5.2
			c0.8,0.3,1.6,0.6,2.4,0.6c0.6-0.2,1.5,0.5,1.5,0.5s4.2,1.3,5,0.1C252.1,666.7,250.3,666.4,248.8,665.5z"/>
	</g>
	<circle class="st21" cx="234" cy="593.9" r="5.3"/>
	<path class="st28" d="M221.3,644.5l-6.9,9.2l2.8,2.7c0,0,9.7-7.3,10.9-9.7c0.1-0.1,0.1-0.3,0.1-0.4
		C228.2,644.4,221.3,644.5,221.3,644.5z"/>
	<path class="st28" d="M234,635.1c0,0,5.8,8.2,5.9,10.2c0.2,2,0.8,9.2,1.8,11.1l0.7,3.7h3.6l-1.4-18.4c-1.3-5.9-3.4-11.6-6.2-17
		l-6.3,3.5L234,635.1z"/>
	<rect x="233.4" y="604.6" class="st9" width="5" height="21.4"/>
	<path class="st6" d="M237.9,625.1l1.5,3.4c0,0-0.2-22.6-0.7-24.7l-3.6-4.3l-1.2,3.2l2.7,3.4c1,3.2,1.5,6.6,1.4,10
		C237.8,621,237.9,625.1,237.9,625.1z"/>
	<polygon class="st21" points="237.9,598 239.7,601.5 237.2,601.8 236,598.2 	"/>
	<circle class="st26" cx="235.5" cy="595.4" r="4.5"/>
	<path class="st26" d="M235.5,601.7c0.3-1,0.9-1.9,1.6-2.6l-4.3-1.1l-1,2.4L235.5,601.7z"/>
	<path class="st36" d="M233.6,599.9c0,0-7.4-0.6-7.9,18.3l-1.3,5.4c0,0-10.1,18.7-7.6,21.1c0,0,9.5,1.7,14.5,5.5
		c2.8-7.5,4.8-15.4,5.9-23.3c0,0,1.1-15.4-1.1-20.6l1.1-2.6L233.6,599.9z"/>
	<path class="st36" d="M238,625.1l1.5,3.4c0,0-0.2-22.6-0.7-24.7l-3.6-4.3l-1.2,3.2l2.7,3.4c1,3.2,1.5,6.6,1.4,10
		C237.9,621,238,625.1,238,625.1z"/>
	<path class="st42" d="M238,625.1l1.5,3.4c0,0-0.2-22.6-0.7-24.7l-3.6-4.3l-1.2,3.2l2.7,3.4c1,3.2,1.5,6.6,1.4,10
		C237.9,621,238,625.1,238,625.1z"/>
	<path class="st6" d="M229.8,626.9c0,0-0.4,5.8,3.4,7c0.4,0.1,0.9-0.1,1-0.5c0-0.1,0-0.1,0-0.2c0.1-1-0.3-3-2.1-7.1L229.8,626.9z"/>
	<path class="st26" d="M230,626.8c0,0-0.4,5.8,3.4,7c0.4,0.1,0.9-0.1,1-0.5c0-0.1,0-0.1,0-0.2c0.1-1-0.3-3-2.1-7.1L230,626.8z"/>
	<circle class="st19" cx="236.6" cy="609.7" r="0.2"/>
	<circle class="st19" cx="236.6" cy="617.9" r="0.2"/>
	<path class="st21" d="M214.9,653.4l-4.3,3.1c0,0,0.7,1.8,1.2,2.1s0.7,1.4,0.7,1.4s1.9,3.8,3.2,3.6c1.4-0.2,0.4-1.8,0-3.4
		s1.6-4.4,1.6-4.4L214.9,653.4z"/>
	<path class="st21" d="M242.6,659.8l-0.7,5.2c0.7,0.3,1.5,0.5,2.3,0.6c0.5-0.2,1.5,0.5,1.5,0.5s4,1.3,4.8,0.1s-1-1.5-2.5-2.3
		s-2.1-4.2-2.1-4.2L242.6,659.8z"/>
	<path class="st6" d="M230.8,603.8c0,0-5.5-1.1-4.8,12.8c0,0,1.3,10.2,3.6,10.8l3.5-0.9l-1.4-9.5l1.4-4.9
		C233,612.1,234.1,604.6,230.8,603.8z"/>
	<path class="st6" d="M231.2,603.8c0,0-5.5-1.1-4.8,12.8c0,0,1.3,10.2,3.6,10.8l3.5-0.9l-1.4-9.5l1.4-4.9
		C233.5,612.1,234.6,604.6,231.2,603.8z"/>
	<path class="st36" d="M231,603.8c0,0-5.5-1.1-4.8,12.8c0,0,1.3,10.2,3.6,10.8l3.5-0.9l-1.4-9.5l1.4-4.9
		C233.2,612.1,234.3,604.6,231,603.8z"/>
	<polygon class="st6" points="230,627.7 230,627.3 232.8,626.7 232.9,627 	"/>
	<polygon class="st6" points="230.2,601.5 235.9,606.5 236.1,606.4 230.4,601.5 	"/>
	<polygon class="st36" points="231.9,601.5 235.1,600.9 237.9,604.6 236.2,605.6 	"/>
	<path class="st21" d="M239.2,592.8l-2.1,2.2v1.3c0,0.9-0.2,1.8-0.5,2.6l-1.4,3.4c-0.2,0.5-0.7,0.7-1.2,0.5l-1.2-0.5
		c-0.5-0.2-0.7-0.7-0.5-1.2c0,0,0,0,0,0l0.3-0.8c0,0,0-0.1,0-0.1c0,0-0.1,0-0.1,0l-0.7,1c-0.2,0.3-0.6,0.5-1,0.4l-0.6-0.2
		c-0.4-0.1-0.7-0.6-0.6-1c0-0.1,0.1-0.3,0.2-0.4l0,0c0,0,0-0.1,0-0.1c0,0,0,0-0.1,0l-0.9,0.7c-0.3,0.3-0.7,0.3-1.1,0.1l-0.4-0.3
		c-0.4-0.3-0.5-0.8-0.3-1.3c0,0,0.1-0.1,0.1-0.1c0.6-0.7,1.3-1.2,2.2-1.5c1-0.3,1.4-2,1.5-3.5c0.1-1.9,1.4-3.6,3.2-4.3
		c1.8-0.7,3.9-0.1,5.1,1.5C239.5,591.8,239.5,592.4,239.2,592.8z"/>
	<polygon class="st6" points="237.2,626 237.2,626.2 238.3,626.1 238.3,626 	"/>
	<path class="st6" d="M237.2,626.2h0.4c0,0-1.2,10.6-2.3,10.8l-0.1-0.1C235.3,636.9,237.1,628.3,237.2,626.2z"/>
</g>
</svg>
