<svg xmlns="http://www.w3.org/2000/svg" xmlns:xlink="http://www.w3.org/1999/xlink" viewBox="0 0 962.654 903.178">
  <defs>
    <style>
      .cls-1 {
        fill: url(#linear-gradient);
      }

      .cls-2 {
        fill: #ffcece;
      }

      .cls-3 {
        fill: #ff6584;
      }

      .cls-12, .cls-4 {
        fill: none;
        stroke-miterlimit: 10;
      }

      .cls-4 {
        stroke: #3f2b3b;
      }

      .cls-5 {
        fill: #f66f56;
      }

      .cls-6 {
        fill: #fff;
        opacity: 0.5;
      }

      .cls-7 {
        fill: #3f3d56;
      }

      .cls-8 {
        opacity: 0.1;
      }

      .cls-9 {
        fill: #a8a8a8;
      }

      .cls-10 {
        opacity: 0.2;
      }

      .cls-11 {
        fill: #f2f2f2;
      }

      .cls-12 {
        stroke: #3f3d56;
        stroke-width: 4px;
      }

      .cls-13 {
        fill: #57b793;
      }

      .cls-14 {
        fill: #656380;
      }

      .cls-15 {
        opacity: 0.05;
      }

      .cls-16 {
        fill: #ffc0c6;
      }

      .cls-17 {
        fill: #605d82;
      }

      .cls-18 {
        fill: #535070;
      }
    </style>
    <linearGradient id="linear-gradient" x1="0.5" x2="0.5" y2="1" gradientUnits="objectBoundingBox">
      <stop offset="0" stop-color="#bdbbff"/>
      <stop offset="1" stop-color="#ffb4b4"/>
    </linearGradient>
  </defs>
  <g id="Symbol_20_1" data-name="Symbol 20 – 1" transform="translate(-1051.973 -88.846)">
    <path id="Union_1" data-name="Union 1" class="cls-1" d="M351.431,676.364A270.341,270.341,0,0,1,222.652,569.419a275.339,275.339,0,0,1-50.313-14.789C32.946,498.834-34.4,341.651,21.92,203.551,76.375,70.019,226.508,3.223,362.394,49.389a274.115,274.115,0,0,1,256-27.656c139.393,55.8,206.739,212.98,150.42,351.079L705.8,527.339C662.983,632.33,561,696.064,453.313,696.072A273.571,273.571,0,0,1,351.431,676.364Z" transform="matrix(0.951, -0.309, 0.309, 0.951, 1049.421, 330.646)"/>
    <ellipse id="Ellipse_38" data-name="Ellipse 38" class="cls-2" cx="291.061" cy="252.485" rx="291.061" ry="252.485" transform="translate(1256.515 287.135)"/>
    <circle id="Ellipse_39" data-name="Ellipse 39" class="cls-3" cx="63.43" cy="63.43" r="63.43" transform="translate(1278.279 287.347)"/>
    <g id="Group_93" data-name="Group 93">
      <g id="Group_92" data-name="Group 92" transform="translate(49 130)">
        <path id="Path_557" data-name="Path 557" class="cls-4" d="M524.18,854.67s1.37,3.129,3.273.5" transform="translate(792.567 -278.073)"/>
        <path id="Path_558" data-name="Path 558" class="cls-4" d="M518.28,857s.709,2.964,3.4.757" transform="translate(795.322 -279.161)"/>
        <path id="Path_561" data-name="Path 561" class="cls-4" d="M600.773,854.67s-1.375,3.129-3.273.5" transform="translate(758.331 -278.073)"/>
        <path id="Path_562" data-name="Path 562" class="cls-4" d="M606.561,857s-.714,2.964-3.4.757" transform="translate(755.688 -279.161)"/>
        <path id="Path_565" data-name="Path 565" class="cls-4" d="M540.441,869.47s-1.7,1.6-.8,2.543" transform="translate(785.469 -284.984)"/>
        <path id="Path_566" data-name="Path 566" class="cls-4" d="M538.627,867.56a2.3,2.3,0,0,0-1.567,1.967" transform="translate(786.552 -284.092)"/>
        <path id="Path_569" data-name="Path 569" class="cls-4" d="M586.23,869.47s1.7,1.6.8,2.543" transform="translate(763.593 -284.984)"/>
        <path id="Path_570" data-name="Path 570" class="cls-4" d="M587.63,867.56a2.3,2.3,0,0,1,1.567,1.967" transform="translate(762.939 -284.092)"/>
        <ellipse id="Ellipse_63" data-name="Ellipse 63" class="cls-5" cx="1.236" cy="2.049" rx="1.236" ry="2.049" transform="translate(1317.695 581.431) rotate(-29.887)"/>
        <ellipse id="Ellipse_64" data-name="Ellipse 64" class="cls-5" cx="2.042" cy="1.231" rx="2.042" ry="1.231" transform="translate(1355.213 581.913) rotate(-60)"/>
        <ellipse id="Ellipse_65" data-name="Ellipse 65" class="cls-6" cx="1.236" cy="2.049" rx="1.236" ry="2.049" transform="translate(1317.695 581.431) rotate(-29.887)"/>
        <ellipse id="Ellipse_66" data-name="Ellipse 66" class="cls-6" cx="2.042" cy="1.231" rx="2.042" ry="1.231" transform="translate(1355.213 581.913) rotate(-60)"/>
        <path id="Path_295" data-name="Path 295" class="cls-7" d="M762.531,691.725c0,29.253-150.484,81.086-336.115,81.086S90.3,720.978,90.3,691.725s150.484-24.849,336.115-24.849S762.531,662.472,762.531,691.725Z" transform="translate(1049.731 -76.661)"/>
        <path id="Path_296" data-name="Path 296" class="cls-8" d="M762.531,691.725c0,29.253-150.484,81.086-336.115,81.086S90.3,720.978,90.3,691.725s150.484-24.849,336.115-24.849S762.531,662.472,762.531,691.725Z" transform="translate(1049.731 -76.661)"/>
        <ellipse id="Ellipse_40" data-name="Ellipse 40" class="cls-7" cx="336.115" cy="52.968" rx="336.115" ry="52.968" transform="translate(1140.034 562.096)"/>
        <path id="Path_297" data-name="Path 297" class="cls-8" d="M589.172,599.8c0,31.871-44.424,22.013-98.816,22.013S392.2,631.673,392.2,599.8,436.618,561,491.01,561,589.172,567.932,589.172,599.8Z" transform="translate(945.25 -40.101)"/>
        <path id="Path_298" data-name="Path 298" class="cls-7" d="M589.172,587.8c0,31.87-44.424,22.013-98.816,22.013S392.2,619.673,392.2,587.8,436.618,549,491.01,549,589.172,555.932,589.172,587.8Z" transform="translate(945.25 -35.948)"/>
        <path id="Path_332" data-name="Path 332" class="cls-7" d="M81.7,555.659c0,41.861,26.262,75.735,58.716,75.735" transform="translate(1052.709 -38.252)"/>
        <path id="Path_333" data-name="Path 333" class="cls-5" d="M171.487,630.945c0-42.332,29.307-76.586,65.523-76.586" transform="translate(1021.634 -37.803)"/>
        <path id="Path_334" data-name="Path 334" class="cls-5" d="M114.229,561.463c0,39.764,16.747,71.94,37.442,71.94" transform="translate(1041.45 -40.261)"/>
        <path id="Path_335" data-name="Path 335" class="cls-7" d="M171.487,619.686c0-54.091,33.874-97.86,75.735-97.86" transform="translate(1021.634 -26.544)"/>
        <path id="Path_336" data-name="Path 336" class="cls-9" d="M152.6,669.912s8.327-.256,10.836-2.043,12.809-3.921,13.431-1.055,12.514,14.254,3.113,14.33-21.844-1.464-24.349-2.99S152.6,669.912,152.6,669.912Z" transform="translate(1028.172 -76.236)"/>
        <path id="Path_337" data-name="Path 337" class="cls-10" d="M180.145,682.521c-9.4.076-21.844-1.464-24.349-2.99-1.908-1.162-2.668-5.331-2.922-7.255l-.278.011s.527,6.716,3.032,8.241,14.947,3.066,24.349,2.99c2.714-.022,3.651-.987,3.6-2.417C183.2,681.965,182.165,682.5,180.145,682.521Z" transform="translate(1028.172 -78.611)"/>
      </g>
      <g id="undraw_deliveries_131a" transform="translate(1215 301.098)">
        <path id="Path_579" data-name="Path 579" class="cls-11" d="M781.286,382.242l5.084-3.137c.483-.306.96-.633,1.45-.939a48.559,48.559,0,0,1-40.277-45.6,48.055,48.055,0,0,1,4.192-22.119,48.641,48.641,0,0,1,31.177-26.9l-.252,20.009,10.991-21.778a.435.435,0,0,1,.136,0,48.552,48.552,0,0,1,50.764,46.238c.041.926,0,1.838,0,2.722a58.05,58.05,0,0,0,9.6-14.163c4.655-10.379,4.764-22.132,4.376-36.418-.735-28.312-1.953-56.835-3.546-85.276a48.525,48.525,0,0,1-43.115-45.932c-.068-1.49-.048-2.954,0-4.41a7.3,7.3,0,0,1,.054-1.089c.1-1.409.225-2.8.442-4.179a3.974,3.974,0,0,1,.122-.681q.3-1.749.715-3.457c.109-.422.211-.851.327-1.273a36.779,36.779,0,0,1,1.15-3.662c.143-.4.313-.789.463-1.184.347-.885.721-1.756,1.116-2.62.211-.456.415-.905.64-1.361.055-.116.1-.231.163-.347h0a48.518,48.518,0,0,1,57.005-24.623l-.327,26.039L884.625,104.6a48.253,48.253,0,0,1,23.14,52.316h.054c-.075.347-.184.681-.265,1.021-.15.64-.313,1.273-.49,1.906-.231.81-.49,1.606-.755,2.4-.2.592-.4,1.2-.626,1.783-.327.858-.681,1.695-1.075,2.532-.218.49-.415.987-.681,1.47q-.932,1.878-2.042,3.675c-.252.415-.538.81-.8,1.225-.517.8-1.041,1.6-1.606,2.375-.347.476-.721.932-1.089,1.4-.531.681-1.075,1.361-1.64,1.98-.4.456-.81.905-1.232,1.361-.592.626-1.2,1.232-1.838,1.831-.415.4-.837.8-1.273,1.184-.715.633-1.463,1.239-2.219,1.831-.381.3-.749.613-1.143.9q-1.722,1.279-3.559,2.4c-.231.136-.476.252-.681.388-1.021.606-2.042,1.171-3.137,1.7-.456.225-.932.422-1.4.633-.878.395-1.763.776-2.668,1.123-.524.2-1.062.381-1.6.565-.892.306-1.8.585-2.722.837-.544.15-1.082.3-1.633.429-.994.238-2.008.436-3.029.606a.346.346,0,0,0-.2.041q1.007,17.994,1.79,36.009a48.525,48.525,0,0,1,67.377-21.064L929,232.978l17.654-16.953a48.416,48.416,0,0,1,15.653,33.525,47.516,47.516,0,0,1-1.232,13.373A48.532,48.532,0,0,1,871.8,276.147c0,1.218.088,2.443.122,3.661.32,12.6.721,28.285-5.56,42.291-4.254,9.494-11.107,17.2-17.879,24.113-4.4,4.5-8.97,8.847-13.652,13.06A48.552,48.552,0,0,1,817.3,373.85q-11.536,8.888-23.888,16.647l-5,3.226c-4.621,2.865-9.358,5.805-14.006,8.848.817-.082,1.627-.17,2.457-.2a48.573,48.573,0,0,1,47.8,31.6l-30.34,24.7,33.348-7.738a48.573,48.573,0,0,1-69.609,43.727c.749.939,1.5,1.872,2.253,2.8,1.49,1.858,2.974,3.7,4.424,5.533,19.737,25,25.236,48.736,15.456,66.833L768.315,563.4c9.528-17.613-4.764-40.154-14.176-52.037-1.422-1.8-2.879-3.607-4.349-5.445-12.611-15.653-26.9-33.43-26.543-55.215C723.757,417.9,755.67,398.113,781.286,382.242Z" transform="translate(-316.235 -98.18)"/>
        <ellipse id="Ellipse_71" data-name="Ellipse 71" class="cls-7" cx="310.003" cy="14.292" rx="310.003" ry="14.292" transform="translate(0 450.272)"/>
        <path id="Path_580" data-name="Path 580" class="cls-12" d="M944.614,734.248c2.042-3.75-.272-8.344-2.913-11.692s-5.86-6.806-5.792-11.087c.1-6.125,6.595-9.739,11.794-12.985a57.716,57.716,0,0,0,10.583-8.514,15.509,15.509,0,0,0,3.26-4.356c1.068-2.4,1.041-5.118.973-7.745q-.34-13.108-1.293-26.189" transform="translate(-384.166 -275.012)"/>
        <path id="Path_581" data-name="Path 581" class="cls-13" d="M978.654,646.723a9.569,9.569,0,0,0-4.764-7.827l-2.137,4.233.061-5.118a9.55,9.55,0,1,0,6.806,8.711Z" transform="translate(-391.718 -270.518)"/>
        <path id="Path_582" data-name="Path 582" class="cls-13" d="M954.142,739.481a9.528,9.528,0,1,1,.456-7.69l-5.962,4.853,6.561-1.525A9.528,9.528,0,0,1,954.142,739.481Z" transform="translate(-384.241 -298.621)"/>
        <path id="Path_583" data-name="Path 583" class="cls-13" d="M950.972,709.745a9.528,9.528,0,0,1-9.977-9.1,9.391,9.391,0,0,1,.823-4.349A9.569,9.569,0,0,1,947.943,691l-.048,3.94,2.164-4.288h0a9.555,9.555,0,0,1,.892,19.09Z" transform="translate(-385.787 -287.458)"/>
        <path id="Path_584" data-name="Path 584" class="cls-13" d="M985.042,687.051a9.539,9.539,0,1,1,4.22-17.845l-1.688,4.628,3.471-3.335a9.528,9.528,0,0,1,3.09,6.595,9.315,9.315,0,0,1-.245,2.627A9.528,9.528,0,0,1,985.042,687.051Z" transform="translate(-396.67 -280.22)"/>
        <path id="Path_585" data-name="Path 585" class="cls-8" d="M977.418,651.688c-2.205.245-4.349.932-6.561,1.069s-4.642-.395-6.044-2.117a30.2,30.2,0,0,1-1.769-3.1,6.807,6.807,0,0,0-2.4-2.266,9.528,9.528,0,1,0,17.858,6.343C978.133,651.627,977.772,651.654,977.418,651.688Z" transform="translate(-391.768 -272.965)"/>
        <path id="Path_586" data-name="Path 586" class="cls-8" d="M985.031,689.612A9.528,9.528,0,0,1,975.946,676a7.076,7.076,0,0,1,1.919,1.926,30.73,30.73,0,0,0,1.892,3.158c1.484,1.749,4.029,2.321,6.336,2.212s4.526-.755,6.806-.966c.313,0,.64-.054.96-.061a9.528,9.528,0,0,1-8.827,7.343Z" transform="translate(-396.659 -282.781)"/>
        <path id="Path_587" data-name="Path 587" class="cls-8" d="M950.972,712.4a9.528,9.528,0,0,1-9.977-9.1,9.391,9.391,0,0,1,.823-4.349,7.841,7.841,0,0,1,2.042,1.94c.742,1.048,1.2,2.253,2.042,3.219,1.613,1.8,4.322,2.43,6.765,2.368s4.642-.633,7-.81A9.569,9.569,0,0,1,950.972,712.4Z" transform="translate(-385.787 -290.111)"/>
        <path id="Path_588" data-name="Path 588" class="cls-8" d="M954.021,742.327a9.547,9.547,0,1,1-17.416-7.827,9.91,9.91,0,0,1,2.1,1.872,37.652,37.652,0,0,0,2.559,3.4c1.953,1.912,5.1,2.722,7.908,2.777A40.944,40.944,0,0,0,954.021,742.327Z" transform="translate(-384.12 -301.467)"/>
        <path id="Path_589" data-name="Path 589" class="cls-14" d="M927.54,764.737s7.534-.231,9.807-1.851,11.57-3.553,12.162-.953,11.332,12.931,2.818,12.972-19.778-1.361-22.044-2.722S927.54,764.737,927.54,764.737Z" transform="translate(-381.493 -309.823)"/>
        <path id="Path_590" data-name="Path 590" class="cls-10" d="M952.476,775.9c-8.507.068-19.778-1.361-22.044-2.722-1.722-1.048-2.416-4.825-2.641-6.568h-.252s.476,6.078,2.722,7.486,13.53,2.777,22.044,2.722c2.457,0,3.308-.9,3.26-2.191C955.246,775.4,954.307,775.886,952.476,775.9Z" transform="translate(-381.493 -311.723)"/>
        <path id="Path_591" data-name="Path 591" class="cls-12" d="M299.1,647.677c-4.941-9.147.681-20.349,7.105-28.5s14.292-16.633,14.122-27.026c-.245-14.932-16.089-23.745-28.748-31.66a140.394,140.394,0,0,1-25.814-20.751c-3.11-3.178-6.125-6.568-7.936-10.624-2.613-5.839-2.545-12.475-2.375-18.872q.817-31.987,3.158-63.852" transform="translate(-166.792 -209.438)"/>
        <path id="Path_592" data-name="Path 592" class="cls-13" d="M224.748,434.271a23.282,23.282,0,0,1,11.624-19.056l5.213,10.311-.157-12.482a23.289,23.289,0,1,1-16.681,21.248Z" transform="translate(-156.996 -198.482)"/>
        <path id="Path_593" data-name="Path 593" class="cls-13" d="M284.573,660.335a23.276,23.276,0,0,0,43.958-9.528,22.976,22.976,0,0,0-1.518-9.446,23.289,23.289,0,0,0-43.557.252L298,653.441l-16-3.723A23.023,23.023,0,0,0,284.573,660.335Z" transform="translate(-175.292 -266.953)"/>
        <path id="Path_594" data-name="Path 594" class="cls-13" d="M292.264,587.972a23.289,23.289,0,0,0,7.384-45.68l.122,9.589-5.24-10.433h-.061a23.291,23.291,0,0,0-2.171,46.531Z" transform="translate(-171.489 -239.793)"/>
        <path id="Path_595" data-name="Path 595" class="cls-13" d="M209.18,532.7a23.289,23.289,0,1,0-10.29-43.557l4.083,11.277-8.432-8.146a23.18,23.18,0,0,0-7.554,16.075,22.712,22.712,0,0,0,.592,6.411,23.283,23.283,0,0,0,21.6,17.94Z" transform="translate(-144.934 -222.138)"/>
        <path id="Path_596" data-name="Path 596" class="cls-8" d="M228.111,446.453c5.377.592,10.6,2.26,15.994,2.593s11.318-.953,14.728-5.145c1.838-2.26,2.756-5.118,4.308-7.582a16.525,16.525,0,0,1,5.867-5.519,23.289,23.289,0,1,1-43.557,15.456C226.355,446.3,227.24,446.358,228.111,446.453Z" transform="translate(-157.229 -204.458)"/>
        <path id="Path_597" data-name="Path 597" class="cls-8" d="M209.484,538.962a23.3,23.3,0,0,0,22.153-33.212,17.226,17.226,0,0,0-4.682,4.682c-1.661,2.5-2.661,5.4-4.614,7.7-3.627,4.26-9.821,5.656-15.442,5.4s-11.046-1.858-16.64-2.368c-.776-.068-1.565-.122-2.348-.143a23.283,23.283,0,0,0,21.574,17.94Z" transform="translate(-145.238 -228.399)"/>
        <path id="Path_598" data-name="Path 598" class="cls-8" d="M292.733,594.433a23.282,23.282,0,0,0,22.337-32.783,18.83,18.83,0,0,0-4.921,4.764c-1.81,2.552-2.94,5.492-5.057,7.847-3.927,4.376-10.529,5.921-16.484,5.778-5.764-.122-11.318-1.538-17.048-1.98A23.3,23.3,0,0,0,292.733,594.433Z" transform="translate(-171.958 -246.255)"/>
        <path id="Path_599" data-name="Path 599" class="cls-8" d="M285.78,667.334a23.276,23.276,0,0,0,43.958-9.528,22.976,22.976,0,0,0-1.518-9.446,23.318,23.318,0,0,0-5.1,4.553c-2.212,2.722-3.675,5.758-6.234,8.276-4.764,4.669-12.448,6.6-19.288,6.806a99.87,99.87,0,0,1-11.815-.66Z" transform="translate(-176.5 -273.952)"/>
        <path id="Path_600" data-name="Path 600" class="cls-5" d="M351.045,614.12,261.209,632.5l-2.042-.2-78.947-7.963V524.284l96.642-16.334,70.1,8.167.02.442.007.218Z" transform="translate(-57.566 -162.282)"/>
        <path id="Path_601" data-name="Path 601" class="cls-8" d="M388.1,618.161l-89.836,18.376-2.042-.2V533.769L384.035,520.6Z" transform="translate(-94.62 -166.323)"/>
        <path id="Path_602" data-name="Path 602" class="cls-15" d="M346.989,516.777l-.027.02-87.794,12.931-78.947-5.445,96.642-16.334,70.1,8.167.02.442Z" transform="translate(-57.566 -162.282)"/>
        <path id="Path_603" data-name="Path 603" class="cls-7" d="M496.045,620.12,406.209,638.5l-2.042-.2-78.947-7.963V530.284l96.642-16.334,70.1,8.167.02.442.007.218Z" transform="translate(-103.883 -164.199)"/>
        <path id="Path_604" data-name="Path 604" class="cls-8" d="M533.1,624.161l-89.836,18.376-2.042-.2V539.769L529.035,526.6Z" transform="translate(-140.936 -168.24)"/>
        <path id="Path_605" data-name="Path 605" class="cls-15" d="M491.988,522.777l-.027.02-87.794,12.931-78.947-5.445,96.642-16.334,70.1,8.167.02.442Z" transform="translate(-103.883 -164.199)"/>
        <path id="Path_606" data-name="Path 606" class="cls-7" d="M405.045,476.12,315.209,494.5l-2.042-.2-78.947-7.963V386.284l96.642-16.334,70.1,8.167.02.442.007.218Z" transform="translate(-74.815 -118.202)"/>
        <path id="Path_607" data-name="Path 607" class="cls-8" d="M442.1,480.161l-89.836,18.376-2.042-.2V395.769L438.035,382.6Z" transform="translate(-111.868 -122.243)"/>
        <path id="Path_608" data-name="Path 608" class="cls-15" d="M400.989,378.777l-.027.02-87.794,12.931-78.947-5.445,96.642-16.334,70.1,8.167.02.442Z" transform="translate(-74.815 -118.202)"/>
        <path id="Path_609" data-name="Path 609" class="cls-7" d="M518.375,506.1l-46.885,9.6-1.068-.109-41.2-4.158V459.218l50.438-8.528,36.588,4.267.014.231v.109Z" transform="translate(-137.103 -143.992)"/>
        <path id="Path_610" data-name="Path 610" class="cls-8" d="M537.713,508.214l-46.885,9.6-1.068-.109V464.174L535.6,457.3Z" transform="translate(-156.441 -146.104)"/>
        <path id="Path_611" data-name="Path 611" class="cls-15" d="M516.259,455.3l-.014.014-45.823,6.751-41.2-2.845,50.438-8.528,36.588,4.267.014.231Z" transform="translate(-137.103 -143.992)"/>
        <path id="Path_612" data-name="Path 612" class="cls-7" d="M333.376,357.1l-46.885,9.589-1.068-.1-41.2-4.158V310.218l50.438-8.528,36.588,4.267.014.231v.109Z" transform="translate(-78.01 -96.398)"/>
        <path id="Path_613" data-name="Path 613" class="cls-8" d="M352.713,359.214,305.828,368.8l-1.068-.1V315.174L350.6,308.3Z" transform="translate(-97.347 -98.51)"/>
        <path id="Path_614" data-name="Path 614" class="cls-15" d="M331.259,306.3l-.014.014-45.823,6.751-41.2-2.845,50.438-8.528,36.588,4.267.014.231Z" transform="translate(-78.01 -96.398)"/>
        <path id="Path_615" data-name="Path 615" class="cls-5" d="M454.376,354.1l-46.885,9.589-1.068-.1-41.2-4.158V307.218l50.438-8.528,36.588,4.267.014.231v.109Z" transform="translate(-116.66 -95.44)"/>
        <path id="Path_616" data-name="Path 616" class="cls-8" d="M473.713,356.214,426.828,365.8l-1.068-.1V312.174L471.6,305.3Z" transform="translate(-135.998 -97.551)"/>
        <path id="Path_617" data-name="Path 617" class="cls-15" d="M452.259,303.3l-.014.014-45.823,6.751-41.2-2.845,50.438-8.528,36.588,4.267.014.231Z" transform="translate(-116.66 -95.44)"/>
        <path id="Path_618" data-name="Path 618" class="cls-7" d="M490.375,277.1l-46.885,9.589-1.068-.1-41.2-4.158V230.218l50.438-8.528,36.588,4.267.014.231v.109Z" transform="translate(-128.159 -70.844)"/>
        <path id="Path_619" data-name="Path 619" class="cls-8" d="M509.713,279.214,462.828,288.8l-1.068-.1V235.174L507.6,228.3Z" transform="translate(-147.497 -72.956)"/>
        <path id="Path_620" data-name="Path 620" class="cls-15" d="M488.259,226.3l-.014.014-45.823,6.751-41.2-2.845,50.438-8.528,36.588,4.267.014.231Z" transform="translate(-128.159 -70.844)"/>
        <path id="Path_621" data-name="Path 621" class="cls-16" d="M701.689,237.95c-.5,4.424-3.872,7.99-5.125,12.25-1.878,6.431,1.361,13.339,5.826,18.376a40.678,40.678,0,0,0,28.326,13.435,12.189,12.189,0,0,0,4.682-.51,10.169,10.169,0,0,0,3.559-2.436c3.348-3.369,5.152-8.031,5.867-12.734a68.1,68.1,0,0,0,.163-14.231,8.052,8.052,0,0,0-.531-2.872,7.3,7.3,0,0,0-1.844-2.266,42.877,42.877,0,0,0-7.929-5.764,8.9,8.9,0,0,1-3.321-2.539,8.309,8.309,0,0,1-1.028-3.042l-.878-4.465a8.752,8.752,0,0,0-1.286-3.621c-1.545-2.083-4.505-2.368-7.1-2.471l-9.528-.374c-2.961-.116-6.853-.966-9.746-.381-2.722.538-1.8,3.029-1.313,5.288A38.237,38.237,0,0,1,701.689,237.95Z" transform="translate(-307.54 -138.433)"/>
        <path id="Path_622" data-name="Path 622" class="cls-8" d="M701.689,237.95c-.5,4.424-3.872,7.99-5.125,12.25-1.878,6.431,1.361,13.339,5.826,18.376a40.678,40.678,0,0,0,28.326,13.435,12.189,12.189,0,0,0,4.682-.51,10.169,10.169,0,0,0,3.559-2.436c3.348-3.369,5.152-8.031,5.867-12.734a68.1,68.1,0,0,0,.163-14.231,8.052,8.052,0,0,0-.531-2.872,7.3,7.3,0,0,0-1.844-2.266,42.877,42.877,0,0,0-7.929-5.764,8.9,8.9,0,0,1-3.321-2.539,8.309,8.309,0,0,1-1.028-3.042l-.878-4.465a8.752,8.752,0,0,0-1.286-3.621c-1.545-2.083-4.505-2.368-7.1-2.471l-9.528-.374c-2.961-.116-6.853-.966-9.746-.381-2.722.538-1.8,3.029-1.313,5.288A38.237,38.237,0,0,1,701.689,237.95Z" transform="translate(-307.54 -138.433)"/>
        <path id="Path_623" data-name="Path 623" class="cls-17" d="M770.056,526.924l-4.043,44.319c-1.055,11.624-2.13,23.3-4.2,34.771-.681,3.954-1.552,7.888-2.545,11.788-2.763,10.828-6.772,21.411-8.065,32.511-.041.32-.075.681-.109.973a29.149,29.149,0,0,1-1.361,7.214c-.681,1.695-1.64,3.24-2.341,4.914-1.361,3.348-1.579,7.051-1.749,10.678a46.034,46.034,0,0,0-15.851-5.445c-2.722-.4-5.683-.681-7.486-2.722-2.042-2.219-1.8-5.615-1.463-8.6q1.606-13.884,3.2-27.754a72.336,72.336,0,0,1,2.042-11.788c.367-1.286.81-2.552,1.259-3.818.619-1.742,1.245-3.485,1.715-5.274a63.51,63.51,0,0,0,1.347-8.732c1.1-9.31,2.416-18.6,3.573-27.9l.061-.49c1.735-14.1,3.056-28.271,2.675-42.475-.054-2.1-.143-4.206-.279-6.316-.191-3.056-.47-4.676,2.042-6.588,2.8-2.11,6.479-3.587,9.678-4.968,1.722-.749,20.683-7.486,21.1-6a36.953,36.953,0,0,1,1.361,9.678,107.687,107.687,0,0,1-.558,12.026Z" transform="translate(-315.397 -228.162)"/>
        <path id="Path_624" data-name="Path 624" class="cls-8" d="M764.939,637.254c-.681,3.954-1.552,7.888-2.545,11.788-2.763,10.828-6.772,21.411-8.065,32.511-.041.32-.075.681-.109.973-8.453-12.073-15.572-25.059-23.82-37.262.619-1.742,1.245-3.485,1.715-5.275a63.51,63.51,0,0,0,1.416-8.786c1.1-9.31,2.416-18.6,3.573-27.9l.061-.49a28.9,28.9,0,0,0,2.042,5.724c5.54,11.257,18.7,16.946,25.141,27.72Q764.667,636.757,764.939,637.254Z" transform="translate(-318.522 -259.402)"/>
        <path id="Path_625" data-name="Path 625" class="cls-17" d="M680.352,482.276c.279,9.024,1.722,17.974,3.165,26.89l2.974,18.376c1.627,10.073,3.328,20.342,8.092,29.36,3.566,6.751,8.7,12.509,13.346,18.559,11.42,14.877,20,31.735,30.83,47.048,3.151,4.451,7.65,9.269,13.019,8.337,3.525-.606,6.084-3.546,8.848-5.805,3.267-2.668,7.2-4.621,9.773-7.97s3.076-8.9-.408-11.284A18.819,18.819,0,0,0,766,604.153c-5.4-2.042-8.9-7.323-11.114-12.659s-3.573-11.059-6.534-16.021c-6.438-10.774-19.607-16.463-25.147-27.727-3.1-6.3-3.4-13.612-3.634-20.6l-.606-17.906a13.04,13.04,0,0,1,.681-5.785c2.117-4.764,8.514-5.213,13.7-5.819a46.791,46.791,0,0,0,16.79-5.295c2.988-1.613,5.9-3.668,7.486-6.663,1.456-2.722,1.654-5.928,1.824-9.018l1.8-32.457c.156-2.79.293-5.683-.681-8.3-2.471-6.574-10.774-8.725-17.79-8.412-13.053.585-25.1,6.2-37.432,10a95.655,95.655,0,0,1-9.276,2.416c-2.722.551-6.125.327-8.739,1.211-4.682,1.579-4.567,11.828-5.227,16.075A134.946,134.946,0,0,0,680.352,482.276Z" transform="translate(-302.523 -203.393)"/>
        <path id="Path_626" data-name="Path 626" class="cls-18" d="M781.5,718.472a8.319,8.319,0,0,1,1.824,4.471,152.548,152.548,0,0,1,2.586,27.026,4.479,4.479,0,0,0,.483,2.45,3.124,3.124,0,0,0,1.273,1.021c3.328,1.586,7.187-.626,9.964-3.056,5.138-4.5,9.487-10.542,9.78-17.368a39.957,39.957,0,0,1,.184-5.268c.449-2.573,1.953-4.812,3.274-7.058a59.923,59.923,0,0,0,5.445-12.128c.5-1.593.844-3.594-.408-4.7a4.375,4.375,0,0,0-1.477-.769l-15.041-5.581c-1.307-.483-4.546,7.84-5.057,8.752-1.259,2.226-2.511,3.485-5.036,4s-5.642-.231-8.051,1.055C777.158,713.49,779.193,716.151,781.5,718.472Z" transform="translate(-334.014 -289.645)"/>
        <path id="Path_627" data-name="Path 627" class="cls-18" d="M740.616,734.653a4.582,4.582,0,0,0-1.143-1.45,5.125,5.125,0,0,0-2.307-.783c-2.858-.49-6.248-.81-8.228,1.32-1.851,1.994-1.531,5.24-3.076,7.486a23.256,23.256,0,0,0-1.579,2.042,7.662,7.662,0,0,0-.681,3.661c-.082,3.464-.163,6.942.082,10.4.2,2.9.681,5.941,2.5,8.215,2.913,3.648,8.167,4.172,12.822,4.4l3.777.2a7.486,7.486,0,0,0,3.09-.286,5.07,5.07,0,0,0,2.668-2.933c1.967-4.887-1.143-10.147-3.062-15.047C743.264,746.237,743.658,739.982,740.616,734.653Z" transform="translate(-316.324 -300.688)"/>
        <path id="Path_628" data-name="Path 628" class="cls-7" d="M696.683,195.224a3.083,3.083,0,0,1,.211-1.456c.551-.973,1.994-.681,3.083-.436,4.376,1.1,8.99.1,13.5.361s9.589,2.511,10.494,6.935a32.81,32.81,0,0,0,8.323-8.548c1.252-1.872,2.341-4.015,2.171-6.261-.245-3.24-2.961-5.662-5.445-7.718l-7.486-6.125a11.371,11.371,0,0,0-3.362-2.137c-1.729-.592-3.621-.306-5.445-.306-5.445,0-11.284-2.484-16.136,0a17.223,17.223,0,0,0-5.029,4.573l-6.69,7.922a4.227,4.227,0,0,0-1.075,1.817,8,8,0,0,0,.483,2.892c.313,1.77-.449,3.661.136,5.363.973,2.818,4.4,3.219,6.5,4.839.776.6,2,2.647,2.933,2.62C695.492,199.525,696.636,196.53,696.683,195.224Z" transform="translate(-303.623 -120.65)"/>
        <circle id="Ellipse_72" data-name="Ellipse 72" class="cls-16" cx="21.438" cy="21.438" r="21.438" transform="translate(382.974 55.061)"/>
        <path id="Path_629" data-name="Path 629" class="cls-7" d="M702.594,268.731a10.386,10.386,0,0,0-10.079-6.956,3.029,3.029,0,0,1-1.865-.238,2.579,2.579,0,0,1-.769-.953,37.931,37.931,0,0,1-3.124-7.391c-.34-1.137-.81-2.477-1.96-2.77a2.631,2.631,0,0,0-2.491,1.089,23.822,23.822,0,0,1-1.783,2.239c-2.722,2.409-7.486.211-10.338,2.423-.47.361-.858.824-1.361,1.157a6.194,6.194,0,0,1-1.572.681A150.681,150.681,0,0,0,651,264.361c1.906,11.461,3.852,23.14,8.317,33.859,2.123,5.1,4.526,10.107,6.227,15.367,3.77,11.658,3.934,24.133,3.981,36.39,0,8.385,0,16.946-2.722,24.882a24.079,24.079,0,0,0-1.531,5.445,5.663,5.663,0,0,0,1.919,5.091,6.472,6.472,0,0,0,2.96,1.041c4.7.681,9.44-.558,14.068-1.633,12.407-2.872,25.066-4.519,37.69-6.125l21.166-2.722a12.38,12.38,0,0,0,4.383-1.137c3.872-2.117,4.24-7.942,1.831-11.645-1.15-1.776-2.777-3.233-3.75-5.111s-1.048-4.519.619-5.819c3.4-2.654,2.382-7.575,2.545-11.876q.681-18.049-.184-36.071a70.6,70.6,0,0,1-.122-7.486,66.05,66.05,0,0,1,2.334-12.5L757.163,259c-1.681-2.654-4.9-4.342-7.942-5.1S743,252.907,740,251.975c-6.125-1.906-11.624-6.738-18.042-6.289a3.3,3.3,0,0,0-1.4.34c-1.443.823-1.218,2.906-1.307,4.567-.2,3.682-2.913,6.751-5.894,8.909s-6.4,3.723-9.14,6.18A4.084,4.084,0,0,0,702.594,268.731Z" transform="translate(-293.16 -145.319)"/>
        <path id="Path_630" data-name="Path 630" class="cls-16" d="M596.652,311.106a25.178,25.178,0,0,1-4.505,2.321,14.975,14.975,0,0,0-4.322,2.1,6.839,6.839,0,0,0-1.5,1.858,8.255,8.255,0,0,0,7.609,12.3A16.59,16.59,0,0,0,599.558,328l15.122-6.581c2.559-1.109,5.322-2.4,6.534-4.921a1.184,1.184,0,0,0,.15-.783,1.286,1.286,0,0,0-.626-.681,33.87,33.87,0,0,1-8.8-8.3c-.619-.844-1.361-2.831-2.26-3.342C606.48,301.611,599.218,309.445,596.652,311.106Z" transform="translate(-272.16 -163.676)"/>
        <path id="Path_631" data-name="Path 631" class="cls-16" d="M822.582,307l5.574,6.37c1.2,1.361,2.4,2.722,3.484,4.192a48.778,48.778,0,0,1,6.384,12.026c1.211,3.178,2.219,6.568,1.8,9.943a24.5,24.5,0,0,1-1.4,5.057,62.534,62.534,0,0,1-3.791,9.12,51.9,51.9,0,0,1-4.24,6.377,149.1,149.1,0,0,1-14.136,16.164c-1.906,1.885-2.722,4.941-3.532,7.486-1.531,4.7-5.172,8.371-8.691,11.842a23.95,23.95,0,0,1-3.736,3.212,12.115,12.115,0,0,1-6.806,1.933,7.486,7.486,0,0,1-3.056-.633c-2.409-1.143-3.634-3.927-3.886-6.581a14.088,14.088,0,0,1,1.171-7.051c3.2-7.085,11.413-10.154,17.219-15.327,3.4-3.029,6.01-6.84,8.582-10.6a36.785,36.785,0,0,0,4.335-7.6c1.293-3.464.789-7.561,1.926-11.073.476-1.49,1.361-2.831,1.844-4.308a5.1,5.1,0,0,0-.259-4.5,6.5,6.5,0,0,0-2.525-1.851c-3.709-1.878-7.861-4.3-8.568-8.405a9,9,0,0,1,1.661-6.418,26.543,26.543,0,0,1,4.676-4.9C818.226,310.015,820.955,308.4,822.582,307Z" transform="translate(-336.439 -164.913)"/>
        <path id="Path_632" data-name="Path 632" class="cls-16" d="M584.649,325.265c-.98-1.987-2.212-4.015-4.2-5a7.731,7.731,0,0,0-6.125,0,23.222,23.222,0,0,0-5.363,3.24l-4.8,3.546a11.823,11.823,0,0,0-2.852,2.634,10.965,10.965,0,0,0-1.484,4.083,29.657,29.657,0,0,0-.755,10.079c.762,5.445,4.029,10.154,7.622,14.292,2.246,2.573,5.023,5.172,8.439,5.288a3.872,3.872,0,0,0,3.73-1.878,4.651,4.651,0,0,0,.333-1.674c.367-6.043-1.8-11.944-4.315-17.45a10.794,10.794,0,0,1-1.361-4.689,1.266,1.266,0,0,1,.2-.789,1.32,1.32,0,0,1,.817-.4c3.451-.681,9.4,2,11.815-1.831C587.916,332.18,585.765,327.518,584.649,325.265Z" transform="translate(-263.737 -168.948)"/>
        <path id="Path_633" data-name="Path 633" class="cls-7" d="M695.03,185.314a3.171,3.171,0,0,1,.218-1.456c.551-.98,1.994-.681,3.083-.436,4.376,1.1,8.99.1,13.5.361s9.583,2.511,10.495,6.935a33.028,33.028,0,0,0,8.323-8.548c1.252-1.878,2.341-4.022,2.171-6.268-.245-3.24-2.967-5.662-5.445-7.711l-7.486-6.125a11.339,11.339,0,0,0-3.355-2.137c-1.735-.592-3.621-.306-5.445-.306-5.445,0-11.284-2.484-16.136,0a17.223,17.223,0,0,0-5.029,4.573l-6.7,7.922a4.24,4.24,0,0,0-1.069,1.817,8,8,0,0,0,.483,2.892c.313,1.77-.449,3.662.136,5.356.973,2.824,4.4,3.226,6.5,4.846.776.6,2,2.647,2.933,2.62C693.825,189.615,694.968,186.62,695.03,185.314Z" transform="translate(-303.099 -117.485)"/>
        <path id="Path_634" data-name="Path 634" class="cls-7" d="M628.8,280.866a8.889,8.889,0,0,0-2.246,2.089c-.783,1.191-.946,2.722-1.62,3.947-1.443,2.681-4.825,3.641-6.928,5.839a2.171,2.171,0,0,0-.681,1.143,2.525,2.525,0,0,0,.565,1.647l10.168,15.98c3.4.3,6.629-1.824,10.018-1.538,1.259.1,2.559.538,3.77.163a10.96,10.96,0,0,0,2.416-1.477c2.042-1.279,4.71-1.429,6.4-3.11s1.838-4.152,1.817-6.445a25.432,25.432,0,0,0-.606-5.921c-1.5-6.125-6.186-10.848-9.127-16.279-1.436-2.647-2.212-4.192-5.24-2.375S631.669,278.77,628.8,280.866Z" transform="translate(-282.404 -154.29)"/>
        <path id="Path_635" data-name="Path 635" class="cls-7" d="M807.408,269.806a23.866,23.866,0,0,1,5.118,4.478c1.545,1.994,2.423,4.444,3.913,6.486s3.4,3.512,5.036,5.336a40.674,40.674,0,0,1,5.812,9.467,141.989,141.989,0,0,1-13.149,14.837,4.213,4.213,0,0,1-2,1.307,3.206,3.206,0,0,1-2.818-1.15c-.735-.762-1.252-1.715-1.953-2.511a10.038,10.038,0,0,0-6.214-3,42.684,42.684,0,0,0-7.044-.1,2.722,2.722,0,0,1-1.5-.252,2.485,2.485,0,0,1-.817-.939c-2.722-4.682-1.872-10.563-.9-15.912l2.225-12.25a27.525,27.525,0,0,1,1.858-6.806c.844-1.8,2.722-4.866,5.05-4.322S805.441,268.39,807.408,269.806Z" transform="translate(-337.545 -151.308)"/>
        <path id="Path_636" data-name="Path 636" class="cls-5" d="M363.376,280.1l-46.885,9.589-1.068-.1-41.2-4.158V233.218l50.438-8.528,36.588,4.267.014.231v.109Z" transform="translate(-87.592 -71.803)"/>
        <path id="Path_637" data-name="Path 637" class="cls-8" d="M382.713,282.214,335.828,291.8l-1.068-.1V238.174L380.6,231.3Z" transform="translate(-106.93 -73.914)"/>
        <path id="Path_638" data-name="Path 638" class="cls-15" d="M361.259,229.3l-.014.014-45.823,6.751-41.2-2.845,50.438-8.528,36.588,4.267.014.231Z" transform="translate(-87.592 -71.803)"/>
        <path id="Path_639" data-name="Path 639" class="cls-7" d="M399.376,204.1l-46.885,9.6-1.068-.109-41.2-4.158V157.218l50.438-8.528,36.588,4.267.014.231v.109Z" transform="translate(-99.091 -47.526)"/>
        <path id="Path_640" data-name="Path 640" class="cls-8" d="M418.713,206.214l-46.885,9.6-1.068-.109V162.174L416.6,155.3Z" transform="translate(-118.429 -49.638)"/>
        <path id="Path_641" data-name="Path 641" class="cls-15" d="M397.259,153.3l-.014.014-45.823,6.751-41.2-2.845,50.438-8.528,36.588,4.267.014.231Z" transform="translate(-99.091 -47.526)"/>
      </g>
    </g>
  </g>
</svg>
