<svg xmlns="http://www.w3.org/2000/svg" xmlns:xlink="http://www.w3.org/1999/xlink" viewBox="0 0 924.847 844.428">
  <defs>
    <style>
      .cls-1 {
        fill: url(#linear-gradient);
      }

      .cls-2 {
        fill: #ffcece;
      }

      .cls-3 {
        fill: #ff6584;
      }

      .cls-12, .cls-4 {
        fill: none;
        stroke-miterlimit: 10;
      }

      .cls-4 {
        stroke: #3f2b3b;
      }

      .cls-5 {
        fill: #f66f56;
      }

      .cls-6 {
        fill: #fff;
        opacity: 0.5;
      }

      .cls-7 {
        fill: #3f3d56;
      }

      .cls-8 {
        opacity: 0.1;
      }

      .cls-9 {
        fill: #a8a8a8;
      }

      .cls-10 {
        opacity: 0.2;
      }

      .cls-11 {
        fill: #f2f2f2;
      }

      .cls-12 {
        stroke: #3f3d56;
        stroke-width: 4px;
      }

      .cls-13 {
        fill: #57b793;
      }

      .cls-14 {
        fill: #656380;
      }

      .cls-15 {
        opacity: 0.05;
      }

      .cls-16 {
        fill: #ffc0c6;
      }

      .cls-17 {
        fill: #605d82;
      }

      .cls-18 {
        fill: #535070;
      }
    </style>
    <linearGradient id="linear-gradient" x1="0.5" x2="0.5" y2="1" gradientUnits="objectBoundingBox">
      <stop offset="0" stop-color="#bdbbff"/>
      <stop offset="1" stop-color="#ffb4b4"/>
    </linearGradient>
  </defs>
  <g id="Symbol_21_1" data-name="Symbol 21 – 1" transform="translate(-1080.971 -84.658)">
    <path id="Union_1" data-name="Union 1" class="cls-1" d="M366.927,706.27a282.331,282.331,0,0,1-134.49-111.687,287.553,287.553,0,0,1-52.545-15.445C34.318,520.867-36.014,356.713,22.8,212.489,79.672,73.035,236.464,3.276,378.376,51.49A286.271,286.271,0,0,1,645.732,22.607C791.307,80.878,861.64,245.032,802.823,389.257l-65.812,161.38C692.3,660.284,585.786,726.845,473.328,726.853A285.705,285.705,0,0,1,366.927,706.27Z" transform="translate(2008.135 802.245) rotate(171)"/>
    <ellipse id="Ellipse_38" data-name="Ellipse 38" class="cls-2" cx="291.061" cy="252.485" rx="291.061" ry="252.485" transform="translate(1256.515 287.135)"/>
    <circle id="Ellipse_39" data-name="Ellipse 39" class="cls-3" cx="63.43" cy="63.43" r="63.43" transform="translate(1278.279 287.347)"/>
    <g id="Group_93" data-name="Group 93" transform="translate(64 33.217)">
      <g id="Group_92" data-name="Group 92" transform="translate(1183.405 583.776)">
        <path id="Path_557" data-name="Path 557" class="cls-4" d="M524.18,854.67s1.195,2.728,2.854.437" transform="translate(-365.177 -783.764)"/>
        <path id="Path_558" data-name="Path 558" class="cls-4" d="M518.28,857s.618,2.584,2.961.66" transform="translate(-362.02 -785.011)"/>
        <path id="Path_561" data-name="Path 561" class="cls-4" d="M600.354,854.67s-1.2,2.728-2.854.437" transform="translate(-404.416 -783.764)"/>
        <path id="Path_562" data-name="Path 562" class="cls-4" d="M606.126,857s-.623,2.584-2.966.66" transform="translate(-407.445 -785.011)"/>
        <path id="Path_565" data-name="Path 565" class="cls-4" d="M540.305,869.47s-1.478,1.395-.7,2.217" transform="translate(-373.312 -791.684)"/>
        <path id="Path_566" data-name="Path 566" class="cls-4" d="M538.427,867.56a2.007,2.007,0,0,0-1.367,1.715" transform="translate(-372.07 -790.662)"/>
        <path id="Path_569" data-name="Path 569" class="cls-4" d="M586.23,869.47s1.478,1.395.7,2.217" transform="translate(-398.385 -791.684)"/>
        <path id="Path_570" data-name="Path 570" class="cls-4" d="M587.63,867.56A2.007,2.007,0,0,1,589,869.275" transform="translate(-399.134 -790.662)"/>
        <ellipse id="Ellipse_63" data-name="Ellipse 63" class="cls-5" cx="1.077" cy="1.786" rx="1.077" ry="1.786" transform="translate(159.83 75.122) rotate(-29.887)"/>
        <ellipse id="Ellipse_64" data-name="Ellipse 64" class="cls-5" cx="1.78" cy="1.074" rx="1.78" ry="1.074" transform="translate(192.546 75.542) rotate(-60)"/>
        <ellipse id="Ellipse_65" data-name="Ellipse 65" class="cls-6" cx="1.077" cy="1.786" rx="1.077" ry="1.786" transform="translate(159.83 75.122) rotate(-29.887)"/>
        <ellipse id="Ellipse_66" data-name="Ellipse 66" class="cls-6" cx="1.78" cy="1.074" rx="1.78" ry="1.074" transform="translate(192.546 75.542) rotate(-60)"/>
        <path id="Path_295" data-name="Path 295" class="cls-7" d="M676.488,688.514c0,25.509-131.223,70.708-293.094,70.708S90.3,714.023,90.3,688.514s131.223-21.668,293.094-21.668S676.488,663.006,676.488,688.514Z" transform="translate(-85.394 -584.064)"/>
        <path id="Path_296" data-name="Path 296" class="cls-8" d="M676.488,688.514c0,25.509-131.223,70.708-293.094,70.708S90.3,714.023,90.3,688.514s131.223-21.668,293.094-21.668S676.488,663.006,676.488,688.514Z" transform="translate(-85.394 -584.064)"/>
        <ellipse id="Ellipse_40" data-name="Ellipse 40" class="cls-7" cx="293.094" cy="46.188" rx="293.094" ry="46.188" transform="translate(4.908 58.262)"/>
        <path id="Path_297" data-name="Path 297" class="cls-8" d="M563.96,594.836c0,27.791-38.737,19.2-86.168,19.2s-85.592,8.6-85.592-19.2S430.932,561,478.363,561,563.96,567.045,563.96,594.836Z" transform="translate(-215.144 -538.662)"/>
        <path id="Path_298" data-name="Path 298" class="cls-7" d="M563.96,582.836c0,27.791-38.737,19.2-86.168,19.2s-85.592,8.6-85.592-19.2S430.932,549,478.363,549,563.96,555.045,563.96,582.836Z" transform="translate(-215.144 -533.505)"/>
        <path id="Path_332" data-name="Path 332" class="cls-7" d="M81.7,555.659c0,36.5,22.9,66.041,51.2,66.041" transform="translate(-81.696 -536.367)"/>
        <path id="Path_333" data-name="Path 333" class="cls-5" d="M171.487,621.142c0-36.914,25.555-66.783,57.137-66.783" transform="translate(-120.286 -535.808)"/>
        <path id="Path_334" data-name="Path 334" class="cls-5" d="M114.229,561.463c0,34.674,14.6,62.732,32.65,62.732" transform="translate(-95.678 -538.861)"/>
        <path id="Path_335" data-name="Path 335" class="cls-7" d="M171.487,607.16c0-47.167,29.538-85.334,66.041-85.334" transform="translate(-120.286 -521.826)"/>
        <path id="Path_336" data-name="Path 336" class="cls-9" d="M152.6,669.336s7.261-.224,9.449-1.782,11.169-3.419,11.712-.92,10.912,12.429,2.714,12.5-19.048-1.277-21.232-2.607S152.6,669.336,152.6,669.336Z" transform="translate(-112.168 -583.536)"/>
        <path id="Path_337" data-name="Path 337" class="cls-10" d="M176.619,681.21c-8.2.066-19.048-1.277-21.232-2.607-1.663-1.013-2.326-4.649-2.548-6.326l-.242.009s.46,5.856,2.644,7.187,13.034,2.673,21.232,2.607c2.366-.019,3.184-.861,3.139-2.108C179.283,680.725,178.381,681.2,176.619,681.21Z" transform="translate(-112.168 -586.486)"/>
      </g>
      <g id="undraw_deliveries_131a" transform="translate(1210.956 301)">
        <path id="Path_579" data-name="Path 579" class="cls-11" d="M773.857,345.87l4.433-2.736c.421-.267.837-.552,1.264-.819a42.344,42.344,0,0,1-35.121-39.762,41.9,41.9,0,0,1,3.656-19.288,42.415,42.415,0,0,1,27.187-23.454l-.22,17.448,9.584-18.991a.38.38,0,0,1,.119,0,42.338,42.338,0,0,1,44.267,40.32c.036.807,0,1.6,0,2.374a50.62,50.62,0,0,0,8.368-12.35c4.059-9.05,4.154-19.3,3.816-31.756-.641-24.688-1.7-49.56-3.092-74.361a42.314,42.314,0,0,1-37.6-40.053c-.059-1.3-.042-2.576,0-3.846a6.362,6.362,0,0,1,.047-.95c.083-1.228.2-2.445.386-3.644a3.461,3.461,0,0,1,.107-.593q.261-1.525.623-3.015c.095-.368.184-.742.285-1.11a32.085,32.085,0,0,1,1-3.193c.125-.35.273-.688.4-1.033.3-.772.629-1.531.973-2.285.184-.4.362-.789.558-1.187.048-.1.089-.2.143-.3h0a42.308,42.308,0,0,1,49.709-21.472l-.285,22.706,9.5-18.753a42.077,42.077,0,0,1,20.178,45.62h.047c-.065.3-.16.593-.231.89-.131.558-.273,1.11-.427,1.662-.2.706-.427,1.4-.659,2.095-.178.516-.35,1.044-.546,1.555-.285.748-.594,1.478-.938,2.208-.19.427-.362.861-.593,1.282q-.813,1.638-1.78,3.2c-.22.362-.469.706-.7,1.068-.451.7-.908,1.395-1.4,2.071-.3.415-.629.813-.949,1.223-.463.593-.938,1.187-1.43,1.727-.35.4-.706.789-1.074,1.187-.516.546-1.05,1.074-1.6,1.6-.362.35-.73.7-1.11,1.033-.623.552-1.276,1.08-1.935,1.6-.332.261-.653.534-1,.783q-1.5,1.116-3.1,2.095c-.2.119-.415.22-.593.338-.89.528-1.78,1.021-2.736,1.484-.4.2-.813.368-1.223.552-.766.344-1.537.677-2.326.979-.457.172-.926.332-1.395.493-.777.267-1.567.51-2.374.73-.475.131-.944.261-1.424.374-.867.208-1.751.38-2.641.528a.3.3,0,0,0-.172.036q.878,15.691,1.561,31.4a42.314,42.314,0,0,1,58.753-18.368l-7.484,20.5,15.394-14.783a42.219,42.219,0,0,1,13.65,29.234,41.436,41.436,0,0,1-1.074,11.662,42.32,42.32,0,0,1-77.845,11.531c0,1.062.077,2.131.107,3.193.279,10.991.629,24.664-4.849,36.878-3.709,8.279-9.685,15-15.59,21.026-3.84,3.923-7.822,7.715-11.9,11.389a42.337,42.337,0,0,1-15.288,12.712Q795.2,346.3,784.432,353.069l-4.362,2.813c-4.03,2.5-8.16,5.062-12.214,7.715.712-.071,1.418-.148,2.142-.178a42.356,42.356,0,0,1,41.685,27.555l-26.457,21.537,29.08-6.748a42.356,42.356,0,0,1-60.7,38.13c.653.819,1.312,1.632,1.964,2.445,1.3,1.62,2.593,3.228,3.858,4.825,17.211,21.8,22.006,42.5,13.478,58.278l-10.362-5.6c8.309-15.359-4.154-35.014-12.362-45.376-1.24-1.567-2.51-3.145-3.792-4.748-11-13.65-23.46-29.151-23.145-48.148C723.691,376.962,751.519,359.71,773.857,345.87Z" transform="translate(-368.33 -98.082)"/>
        <ellipse id="Ellipse_71" data-name="Ellipse 71" class="cls-7" cx="270.324" cy="12.463" rx="270.324" ry="12.463" transform="translate(0 392.725)"/>
        <path id="Path_580" data-name="Path 580" class="cls-12" d="M943.5,723.679c1.78-3.27-.237-7.276-2.54-10.2s-5.11-5.935-5.05-9.668c.083-5.341,5.751-8.492,10.285-11.323a50.327,50.327,0,0,0,9.228-7.424,13.524,13.524,0,0,0,2.843-3.8,15.5,15.5,0,0,0,.849-6.754q-.3-11.43-1.128-22.836" transform="translate(-454.787 -323.139)"/>
        <path id="Path_581" data-name="Path 581" class="cls-13" d="M976.209,645.557a8.344,8.344,0,0,0-4.154-6.825l-1.863,3.691.053-4.463a8.327,8.327,0,1,0,5.935,7.6Z" transform="translate(-464.399 -317.419)"/>
        <path id="Path_582" data-name="Path 582" class="cls-13" d="M951.838,737.7a8.308,8.308,0,1,1,.4-6.706l-5.2,4.231,5.721-1.329A8.307,8.307,0,0,1,951.838,737.7Z" transform="translate(-454.882 -353.186)"/>
        <path id="Path_583" data-name="Path 583" class="cls-13" d="M949.693,707.3a8.308,8.308,0,0,1-8.7-7.935,8.19,8.19,0,0,1,.718-3.792,8.344,8.344,0,0,1,5.341-4.617l-.042,3.436,1.887-3.739h0a8.332,8.332,0,0,1,.777,16.647Z" transform="translate(-456.849 -338.979)"/>
        <path id="Path_584" data-name="Path 584" class="cls-13" d="M983.764,684.61a8.318,8.318,0,1,1,3.679-15.561l-1.472,4.036L989,670.177a8.308,8.308,0,0,1,2.694,5.751,8.124,8.124,0,0,1-.214,2.291A8.308,8.308,0,0,1,983.764,684.61Z" transform="translate(-470.701 -329.766)"/>
        <path id="Path_585" data-name="Path 585" class="cls-8" d="M975.152,650.866c-1.923.214-3.792.813-5.721.932a6.226,6.226,0,0,1-5.27-1.846,26.344,26.344,0,0,1-1.543-2.706,5.935,5.935,0,0,0-2.095-1.976A8.309,8.309,0,1,0,976.1,650.8C975.775,650.813,975.46,650.837,975.152,650.866Z" transform="translate(-464.463 -320.533)"/>
        <path id="Path_586" data-name="Path 586" class="cls-8" d="M983.75,687.869A8.308,8.308,0,0,1,975.827,676a6.17,6.17,0,0,1,1.674,1.679,26.8,26.8,0,0,0,1.65,2.754,6.792,6.792,0,0,0,5.525,1.929c2.012-.095,3.947-.659,5.935-.843.273,0,.558-.047.837-.053a8.308,8.308,0,0,1-7.7,6.4Z" transform="translate(-470.687 -333.026)"/>
        <path id="Path_587" data-name="Path 587" class="cls-8" d="M949.693,710.677a8.308,8.308,0,0,1-8.7-7.935,8.19,8.19,0,0,1,.718-3.792,6.837,6.837,0,0,1,1.78,1.691c.647.914,1.05,1.964,1.78,2.807,1.406,1.567,3.768,2.119,5.9,2.065s4.048-.552,6.1-.706A8.344,8.344,0,0,1,949.693,710.677Z" transform="translate(-456.849 -342.355)"/>
        <path id="Path_588" data-name="Path 588" class="cls-8" d="M951.684,741.325A8.325,8.325,0,1,1,936.5,734.5a8.644,8.644,0,0,1,1.828,1.632,32.837,32.837,0,0,0,2.231,2.967,10.365,10.365,0,0,0,6.9,2.421A35.692,35.692,0,0,0,951.684,741.325Z" transform="translate(-454.728 -356.808)"/>
        <path id="Path_589" data-name="Path 589" class="cls-14" d="M927.54,764.215s6.57-.2,8.552-1.614,10.089-3.1,10.605-.831,9.881,11.276,2.457,11.311-17.246-1.187-19.222-2.374S927.54,764.215,927.54,764.215Z" transform="translate(-451.385 -367.443)"/>
        <path id="Path_590" data-name="Path 590" class="cls-10" d="M949.285,774.711c-7.418.059-17.246-1.187-19.222-2.374-1.5-.914-2.107-4.208-2.3-5.727h-.22s.415,5.3,2.374,6.528,11.8,2.421,19.222,2.374c2.142,0,2.884-.783,2.843-1.911C951.7,774.272,950.881,774.7,949.285,774.711Z" transform="translate(-451.385 -369.862)"/>
        <path id="Path_591" data-name="Path 591" class="cls-12" d="M293.507,621.913c-4.309-7.976.593-17.745,6.2-24.854s12.463-14.5,12.314-23.566c-.214-13.021-14.03-20.706-25.068-27.608a122.422,122.422,0,0,1-22.51-18.095c-2.712-2.772-5.341-5.727-6.92-9.264-2.279-5.092-2.22-10.878-2.071-16.457q.712-27.893,2.754-55.679" transform="translate(-178.132 -239.681)"/>
        <path id="Path_592" data-name="Path 592" class="cls-13" d="M224.745,431.432a20.3,20.3,0,0,1,10.136-16.617l4.546,8.991-.136-10.884a20.308,20.308,0,1,1-14.546,18.528Z" transform="translate(-165.665 -225.738)"/>
        <path id="Path_593" data-name="Path 593" class="cls-13" d="M284.243,656a20.3,20.3,0,0,0,38.332-8.308,20.035,20.035,0,0,0-1.323-8.237,20.308,20.308,0,0,0-37.982.22l12.682,10.314L282,646.74A20.077,20.077,0,0,0,284.243,656Z" transform="translate(-188.951 -312.881)"/>
        <path id="Path_594" data-name="Path 594" class="cls-13" d="M289.426,582.014a20.308,20.308,0,0,0,6.439-39.833l.107,8.362-4.57-9.1h-.053a20.31,20.31,0,0,0-1.893,40.575Z" transform="translate(-184.11 -278.315)"/>
        <path id="Path_595" data-name="Path 595" class="cls-13" d="M206.336,526.743a20.308,20.308,0,1,0-8.973-37.982l3.561,9.834-7.353-7.1a20.213,20.213,0,0,0-6.587,14.018,19.8,19.8,0,0,0,.516,5.59,20.3,20.3,0,0,0,18.837,15.644Z" transform="translate(-150.313 -255.845)"/>
        <path id="Path_596" data-name="Path 596" class="cls-8" d="M227.77,444.45c4.688.516,9.246,1.97,13.946,2.261s9.869-.831,12.843-4.487c1.6-1.97,2.4-4.463,3.757-6.611a14.41,14.41,0,0,1,5.116-4.813,20.308,20.308,0,1,1-37.982,13.478C226.239,444.313,227.011,444.367,227.77,444.45Z" transform="translate(-165.961 -233.343)"/>
        <path id="Path_597" data-name="Path 597" class="cls-8" d="M206.723,534.711A20.32,20.32,0,0,0,226.04,505.75a15.022,15.022,0,0,0-4.083,4.083c-1.448,2.184-2.32,4.706-4.024,6.712-3.163,3.715-8.564,4.932-13.466,4.712s-9.632-1.62-14.51-2.065c-.677-.059-1.365-.107-2.047-.125a20.3,20.3,0,0,0,18.813,15.644Z" transform="translate(-150.7 -263.813)"/>
        <path id="Path_598" data-name="Path 598" class="cls-8" d="M290.023,590.237A20.3,20.3,0,0,0,309.5,561.65a16.42,16.42,0,0,0-4.291,4.154c-1.579,2.225-2.564,4.789-4.409,6.843-3.424,3.816-9.181,5.163-14.374,5.038-5.027-.107-9.869-1.341-14.866-1.727A20.32,20.32,0,0,0,290.023,590.237Z" transform="translate(-184.706 -286.538)"/>
        <path id="Path_599" data-name="Path 599" class="cls-8" d="M285.78,664.906a20.3,20.3,0,0,0,38.332-8.308,20.035,20.035,0,0,0-1.323-8.237,20.332,20.332,0,0,0-4.451,3.97c-1.929,2.374-3.2,5.021-5.436,7.216-4.154,4.071-10.854,5.757-16.819,5.935a87.069,87.069,0,0,1-10.3-.576Z" transform="translate(-190.487 -321.789)"/>
        <path id="Path_600" data-name="Path 600" class="cls-5" d="M329.18,600.531l-78.337,16.024-1.78-.178-68.842-6.944V522.193l84.272-14.243,61.127,7.122.018.386.006.19Z" transform="translate(-73.266 -206.441)"/>
        <path id="Path_601" data-name="Path 601" class="cls-8" d="M376.338,605.673,298,621.7l-1.78-.178V532.084L372.795,520.6Z" transform="translate(-120.424 -211.584)"/>
        <path id="Path_602" data-name="Path 602" class="cls-15" d="M325.643,515.647l-.024.018-76.557,11.276-68.842-4.748,84.272-14.243,61.127,7.122.018.386Z" transform="translate(-73.266 -206.441)"/>
        <path id="Path_603" data-name="Path 603" class="cls-7" d="M474.18,606.531l-78.337,16.024-1.78-.178-68.842-6.944v-87.24l84.272-14.243,61.127,7.122.018.386.006.19Z" transform="translate(-132.213 -208.88)"/>
        <path id="Path_604" data-name="Path 604" class="cls-8" d="M521.338,611.673,443,627.7l-1.78-.178V538.084L517.795,526.6Z" transform="translate(-179.371 -214.023)"/>
        <path id="Path_605" data-name="Path 605" class="cls-15" d="M470.643,521.647l-.024.018-76.557,11.276-68.842-4.748,84.272-14.243,61.127,7.122.018.386Z" transform="translate(-132.213 -208.88)"/>
        <path id="Path_606" data-name="Path 606" class="cls-7" d="M383.18,462.531l-78.337,16.024-1.78-.178-68.842-6.944V384.193l84.272-14.243,61.127,7.122.018.386.006.19Z" transform="translate(-95.219 -150.339)"/>
        <path id="Path_607" data-name="Path 607" class="cls-8" d="M430.338,467.673,352,483.7l-1.78-.178V394.084L426.795,382.6Z" transform="translate(-142.376 -155.482)"/>
        <path id="Path_608" data-name="Path 608" class="cls-15" d="M379.643,377.647l-.024.018-76.557,11.276-68.842-4.748,84.272-14.243,61.127,7.122.018.386Z" transform="translate(-95.219 -150.339)"/>
        <path id="Path_609" data-name="Path 609" class="cls-7" d="M506.964,499.01l-40.884,8.368-.932-.095-35.928-3.626V458.126L473.2,450.69l31.9,3.721.012.2v.095Z" transform="translate(-174.493 -183.163)"/>
        <path id="Path_610" data-name="Path 610" class="cls-8" d="M531.576,501.7l-40.884,8.368-.932-.095V463.294l39.97-5.994Z" transform="translate(-199.104 -185.85)"/>
        <path id="Path_611" data-name="Path 611" class="cls-15" d="M505.118,454.708l-.012.012-39.958,5.887-35.928-2.481L473.2,450.69l31.9,3.721.012.2Z" transform="translate(-174.493 -183.163)"/>
        <path id="Path_612" data-name="Path 612" class="cls-7" d="M321.964,350.01l-40.884,8.362-.932-.089-35.928-3.626V309.126L288.2,301.69l31.9,3.721.012.2v.095Z" transform="translate(-99.284 -122.589)"/>
        <path id="Path_613" data-name="Path 613" class="cls-8" d="M346.576,352.7l-40.884,8.362-.932-.089V314.294l39.97-5.994Z" transform="translate(-123.895 -125.276)"/>
        <path id="Path_614" data-name="Path 614" class="cls-15" d="M320.118,305.708l-.012.012-39.958,5.887-35.928-2.481L288.2,301.69l31.9,3.721.012.2Z" transform="translate(-99.284 -122.589)"/>
        <path id="Path_615" data-name="Path 615" class="cls-5" d="M442.964,347.01l-40.884,8.362-.932-.089-35.928-3.626V306.126L409.2,298.69l31.9,3.721.012.2v.095Z" transform="translate(-148.474 -121.369)"/>
        <path id="Path_616" data-name="Path 616" class="cls-8" d="M467.576,349.7l-40.884,8.362-.932-.089V311.294l39.97-5.994Z" transform="translate(-173.086 -124.057)"/>
        <path id="Path_617" data-name="Path 617" class="cls-15" d="M441.118,302.708l-.012.012-39.958,5.887-35.928-2.481L409.2,298.69l31.9,3.721.012.2Z" transform="translate(-148.474 -121.369)"/>
        <path id="Path_618" data-name="Path 618" class="cls-7" d="M478.964,270.01l-40.884,8.362-.932-.089-35.928-3.626V229.126L445.2,221.69l31.9,3.721.012.2v.095Z" transform="translate(-163.11 -90.066)"/>
        <path id="Path_619" data-name="Path 619" class="cls-8" d="M503.576,272.7l-40.884,8.362-.932-.089V234.294l39.97-5.994Z" transform="translate(-187.721 -92.754)"/>
        <path id="Path_620" data-name="Path 620" class="cls-15" d="M477.118,225.708l-.012.012-39.958,5.887-35.928-2.481L445.2,221.69l31.9,3.721.012.2Z" transform="translate(-163.11 -90.066)"/>
        <path id="Path_621" data-name="Path 621" class="cls-16" d="M700.964,236.177c-.433,3.858-3.377,6.967-4.469,10.682-1.638,5.608,1.187,11.632,5.08,16.024a35.471,35.471,0,0,0,24.7,11.715,10.628,10.628,0,0,0,4.083-.445,8.867,8.867,0,0,0,3.1-2.125,19.847,19.847,0,0,0,5.116-11.1,59.389,59.389,0,0,0,.142-12.409,7.021,7.021,0,0,0-.463-2.5,6.362,6.362,0,0,0-1.608-1.976,37.388,37.388,0,0,0-6.914-5.027,7.765,7.765,0,0,1-2.9-2.214,7.245,7.245,0,0,1-.9-2.653l-.766-3.893a7.632,7.632,0,0,0-1.122-3.157c-1.347-1.816-3.929-2.065-6.19-2.154l-8.309-.326c-2.582-.1-5.976-.843-8.5-.332-2.374.469-1.573,2.641-1.145,4.611A33.34,33.34,0,0,1,700.964,236.177Z" transform="translate(-357.264 -149.313)"/>
        <path id="Path_622" data-name="Path 622" class="cls-8" d="M700.964,236.177c-.433,3.858-3.377,6.967-4.469,10.682-1.638,5.608,1.187,11.632,5.08,16.024a35.471,35.471,0,0,0,24.7,11.715,10.628,10.628,0,0,0,4.083-.445,8.867,8.867,0,0,0,3.1-2.125,19.847,19.847,0,0,0,5.116-11.1,59.389,59.389,0,0,0,.142-12.409,7.021,7.021,0,0,0-.463-2.5,6.362,6.362,0,0,0-1.608-1.976,37.388,37.388,0,0,0-6.914-5.027,7.765,7.765,0,0,1-2.9-2.214,7.245,7.245,0,0,1-.9-2.653l-.766-3.893a7.632,7.632,0,0,0-1.122-3.157c-1.347-1.816-3.929-2.065-6.19-2.154l-8.309-.326c-2.582-.1-5.976-.843-8.5-.332-2.374.469-1.573,2.641-1.145,4.611A33.34,33.34,0,0,1,700.964,236.177Z" transform="translate(-357.264 -149.313)"/>
        <path id="Path_623" data-name="Path 623" class="cls-17" d="M763.728,524.119,760.2,562.765c-.92,10.136-1.858,20.314-3.662,30.32-.593,3.448-1.353,6.878-2.219,10.279-2.409,9.442-5.905,18.67-7.033,28.35-.036.279-.065.593-.095.849a25.419,25.419,0,0,1-1.187,6.291c-.593,1.478-1.43,2.825-2.042,4.285-1.187,2.92-1.377,6.148-1.525,9.311a40.142,40.142,0,0,0-13.822-4.748c-2.374-.35-4.955-.594-6.528-2.374-1.78-1.935-1.573-4.9-1.276-7.5q1.4-12.107,2.789-24.2a63.069,63.069,0,0,1,1.78-10.279c.32-1.122.706-2.226,1.1-3.329.54-1.519,1.086-3.039,1.5-4.6a55.379,55.379,0,0,0,1.175-7.614c.956-8.119,2.107-16.219,3.116-24.332l.053-.427c1.513-12.3,2.665-24.653,2.332-37.038-.047-1.834-.125-3.668-.243-5.507-.166-2.665-.409-4.077,1.78-5.745a41.523,41.523,0,0,1,8.439-4.332c1.5-.653,18.035-6.528,18.4-5.234a32.223,32.223,0,0,1,1.187,8.439,93.9,93.9,0,0,1-.487,10.487Z" transform="translate(-367.264 -263.511)"/>
        <path id="Path_624" data-name="Path 624" class="cls-8" d="M760.518,632.845c-.593,3.448-1.353,6.878-2.22,10.279-2.409,9.442-5.905,18.67-7.033,28.35-.036.279-.065.593-.095.849-7.371-10.528-13.578-21.851-20.771-32.492.54-1.519,1.086-3.039,1.5-4.6a55.392,55.392,0,0,0,1.234-7.662c.956-8.119,2.107-16.219,3.116-24.332l.053-.427a25.2,25.2,0,0,0,1.78,4.991c4.831,9.816,16.308,14.777,21.923,24.172Q760.281,632.412,760.518,632.845Z" transform="translate(-371.241 -303.271)"/>
        <path id="Path_625" data-name="Path 625" class="cls-17" d="M680.347,475.26a182.549,182.549,0,0,0,2.76,23.448l2.593,16.024c1.418,8.783,2.9,17.739,7.056,25.6,3.11,5.887,7.585,10.908,11.638,16.184,9.958,12.973,17.442,27.673,26.884,41.026,2.748,3.881,6.671,8.083,11.353,7.27,3.074-.528,5.306-3.092,7.715-5.062,2.849-2.326,6.279-4.03,8.522-6.949s2.682-7.763-.356-9.84a16.408,16.408,0,0,0-3.478-1.424c-4.706-1.78-7.757-6.386-9.691-11.038s-3.116-9.644-5.7-13.97c-5.614-9.395-17.1-14.356-21.929-24.178-2.706-5.5-2.967-11.869-3.169-17.964l-.528-15.614a11.371,11.371,0,0,1,.593-5.044c1.846-4.154,7.424-4.546,11.946-5.074a40.8,40.8,0,0,0,14.641-4.617c2.605-1.407,5.145-3.2,6.528-5.81,1.27-2.374,1.442-5.169,1.591-7.863l1.567-28.3a17.847,17.847,0,0,0-.593-7.234c-2.154-5.733-9.395-7.608-15.513-7.335-11.383.51-21.887,5.406-32.641,8.718a83.416,83.416,0,0,1-8.089,2.107c-2.374.481-5.341.285-7.62,1.056-4.083,1.377-3.982,10.314-4.558,14.018A117.673,117.673,0,0,0,680.347,475.26Z" transform="translate(-350.879 -231.988)"/>
        <path id="Path_626" data-name="Path 626" class="cls-18" d="M781.167,715.787a7.254,7.254,0,0,1,1.59,3.9,133.029,133.029,0,0,1,2.255,23.567,3.905,3.905,0,0,0,.421,2.136,2.725,2.725,0,0,0,1.11.89c2.9,1.383,6.267-.546,8.688-2.665,4.481-3.923,8.273-9.193,8.528-15.145a34.838,34.838,0,0,1,.16-4.593c.392-2.243,1.7-4.2,2.855-6.154a52.255,52.255,0,0,0,4.748-10.576c.439-1.389.736-3.134-.356-4.1a3.816,3.816,0,0,0-1.288-.671l-13.116-4.867c-1.139-.421-3.964,6.837-4.409,7.632-1.1,1.941-2.19,3.039-4.392,3.49s-4.92-.2-7.021.92C777.381,711.443,779.156,713.763,781.167,715.787Z" transform="translate(-390.958 -341.762)"/>
        <path id="Path_627" data-name="Path 627" class="cls-18" d="M738.428,734.321a4,4,0,0,0-1-1.264,4.469,4.469,0,0,0-2.012-.682c-2.492-.427-5.448-.706-7.175,1.151-1.614,1.739-1.335,4.57-2.683,6.528a20.272,20.272,0,0,0-1.377,1.78,6.681,6.681,0,0,0-.593,3.193c-.071,3.021-.143,6.053.071,9.068.172,2.528.594,5.181,2.178,7.163,2.54,3.181,7.122,3.638,11.181,3.84l3.294.172a6.528,6.528,0,0,0,2.694-.249,4.422,4.422,0,0,0,2.326-2.558c1.715-4.261-1-8.849-2.671-13.121C740.736,744.422,741.081,738.968,738.428,734.321Z" transform="translate(-368.444 -355.816)"/>
        <path id="Path_628" data-name="Path 628" class="cls-7" d="M695.029,191.794a2.689,2.689,0,0,1,.184-1.27c.481-.849,1.739-.593,2.688-.38,3.816.961,7.84.089,11.774.315s8.362,2.19,9.151,6.047a28.612,28.612,0,0,0,7.258-7.454,8.943,8.943,0,0,0,1.893-5.46c-.214-2.825-2.582-4.938-4.748-6.73l-6.528-5.341a9.916,9.916,0,0,0-2.932-1.863c-1.507-.516-3.157-.267-4.748-.267-4.748,0-9.84-2.166-14.071,0a15.018,15.018,0,0,0-4.386,3.988l-5.834,6.908a3.686,3.686,0,0,0-.938,1.585,6.975,6.975,0,0,0,.421,2.522c.273,1.543-.392,3.193.119,4.677.849,2.457,3.84,2.807,5.668,4.22.677.522,1.745,2.309,2.558,2.285C693.99,195.545,694.987,192.933,695.029,191.794Z" transform="translate(-352.279 -126.68)"/>
        <circle id="Ellipse_72" data-name="Ellipse 72" class="cls-16" cx="18.694" cy="18.694" r="18.694" transform="translate(333.955 48.099)"/>
        <path id="Path_629" data-name="Path 629" class="cls-7" d="M695.991,265.777a9.056,9.056,0,0,0-8.789-6.065,2.641,2.641,0,0,1-1.626-.208,2.249,2.249,0,0,1-.671-.831,33.076,33.076,0,0,1-2.724-6.445c-.3-.991-.706-2.16-1.709-2.415a2.294,2.294,0,0,0-2.172.95,20.771,20.771,0,0,1-1.555,1.953c-2.374,2.1-6.528.184-9.015,2.113-.41.315-.748.718-1.187,1.009a5.4,5.4,0,0,1-1.371.593A131.385,131.385,0,0,0,651,261.967c1.662,9.994,3.359,20.178,7.252,29.525,1.852,4.451,3.947,8.813,5.43,13.4,3.288,10.166,3.43,21.044,3.472,31.733,0,7.311,0,14.777-2.374,21.7a20.994,20.994,0,0,0-1.335,4.748,4.938,4.938,0,0,0,1.674,4.439,5.644,5.644,0,0,0,2.582.908c4.1.593,8.231-.487,12.267-1.424,10.819-2.5,21.857-3.941,32.866-5.341l18.457-2.374a10.8,10.8,0,0,0,3.822-.991c3.377-1.846,3.7-6.926,1.6-10.154-1-1.549-2.421-2.819-3.27-4.457s-.914-3.941.54-5.074c2.967-2.315,2.077-6.605,2.22-10.356q.594-15.739-.16-31.454a61.558,61.558,0,0,1-.107-6.528,57.594,57.594,0,0,1,2.036-10.9l5.608-22.077c-1.466-2.315-4.273-3.786-6.926-4.451s-5.424-.861-8.041-1.674c-5.341-1.662-10.136-5.875-15.733-5.484a2.878,2.878,0,0,0-1.223.3c-1.258.718-1.062,2.534-1.139,3.982-.178,3.211-2.54,5.887-5.139,7.768s-5.579,3.246-7.97,5.389A3.561,3.561,0,0,0,695.991,265.777Z" transform="translate(-338.962 -158.076)"/>
        <path id="Path_630" data-name="Path 630" class="cls-16" d="M595.194,310.084a21.959,21.959,0,0,1-3.929,2.024,13.058,13.058,0,0,0-3.768,1.828,5.963,5.963,0,0,0-1.312,1.62,7.2,7.2,0,0,0,6.635,10.724,14.466,14.466,0,0,0,4.908-1.466l13.187-5.739c2.231-.967,4.641-2.095,5.7-4.291a1.033,1.033,0,0,0,.13-.682,1.121,1.121,0,0,0-.546-.594,29.536,29.536,0,0,1-7.674-7.24c-.54-.736-1.187-2.469-1.97-2.914C603.763,301.805,597.431,308.636,595.194,310.084Z" transform="translate(-312.235 -181.44)"/>
        <path id="Path_631" data-name="Path 631" class="cls-16" d="M817.963,307l4.861,5.555c1.044,1.187,2.089,2.374,3.038,3.656a42.533,42.533,0,0,1,5.567,10.487c1.056,2.771,1.935,5.727,1.567,8.67a21.362,21.362,0,0,1-1.217,4.409,54.529,54.529,0,0,1-3.306,7.952,45.261,45.261,0,0,1-3.7,5.561,130.019,130.019,0,0,1-12.326,14.095c-1.662,1.644-2.374,4.309-3.08,6.528-1.335,4.1-4.51,7.3-7.579,10.326a20.885,20.885,0,0,1-3.258,2.8,10.564,10.564,0,0,1-5.935,1.685,6.527,6.527,0,0,1-2.665-.552c-2.1-1-3.169-3.424-3.389-5.739a12.284,12.284,0,0,1,1.021-6.148c2.789-6.178,9.952-8.855,15.015-13.365a49.006,49.006,0,0,0,7.484-9.246,32.077,32.077,0,0,0,3.78-6.629c1.128-3.021.688-6.593,1.68-9.656.415-1.3,1.187-2.469,1.608-3.757a4.449,4.449,0,0,0-.226-3.923,5.668,5.668,0,0,0-2.2-1.614c-3.234-1.638-6.854-3.751-7.472-7.329a7.846,7.846,0,0,1,1.448-5.6,23.146,23.146,0,0,1,4.077-4.273C814.164,309.629,816.544,308.223,817.963,307Z" transform="translate(-394.044 -183.014)"/>
        <path id="Path_632" data-name="Path 632" class="cls-16" d="M581.351,324.544c-.855-1.733-1.929-3.5-3.662-4.362a6.742,6.742,0,0,0-5.341,0,20.251,20.251,0,0,0-4.676,2.825l-4.19,3.092A10.311,10.311,0,0,0,561,328.4a9.561,9.561,0,0,0-1.294,3.561,25.86,25.86,0,0,0-.659,8.789c.665,4.748,3.513,8.855,6.647,12.463,1.958,2.243,4.38,4.51,7.359,4.611a3.376,3.376,0,0,0,3.252-1.638,4.055,4.055,0,0,0,.291-1.46c.32-5.27-1.567-10.415-3.763-15.216a9.412,9.412,0,0,1-1.187-4.089,1.1,1.1,0,0,1,.178-.688,1.151,1.151,0,0,1,.712-.35c3.009-.593,8.2,1.745,10.3-1.6C584.2,330.574,582.325,326.509,581.351,324.544Z" transform="translate(-301.515 -188.149)"/>
        <path id="Path_633" data-name="Path 633" class="cls-7" d="M693.377,181.884a2.766,2.766,0,0,1,.19-1.27c.481-.855,1.739-.593,2.688-.38,3.816.961,7.84.089,11.774.315s8.356,2.19,9.151,6.047a28.8,28.8,0,0,0,7.258-7.454,8.972,8.972,0,0,0,1.893-5.466c-.214-2.825-2.588-4.938-4.748-6.724l-6.528-5.341a9.888,9.888,0,0,0-2.926-1.863c-1.513-.516-3.157-.267-4.748-.267-4.748,0-9.84-2.166-14.071,0a15.019,15.019,0,0,0-4.386,3.988l-5.84,6.908a3.7,3.7,0,0,0-.932,1.585,6.974,6.974,0,0,0,.421,2.522c.273,1.543-.392,3.193.119,4.671.849,2.463,3.84,2.813,5.668,4.225.677.522,1.745,2.309,2.558,2.285C692.326,185.635,693.323,183.023,693.377,181.884Z" transform="translate(-351.612 -122.651)"/>
        <path id="Path_634" data-name="Path 634" class="cls-7" d="M627.336,279.954a7.752,7.752,0,0,0-1.958,1.822c-.682,1.039-.825,2.374-1.412,3.442-1.258,2.338-4.208,3.175-6.042,5.092a1.893,1.893,0,0,0-.593,1,2.2,2.2,0,0,0,.492,1.436l8.866,13.935c2.967.261,5.78-1.59,8.736-1.341a8.811,8.811,0,0,0,3.288.142,9.556,9.556,0,0,0,2.107-1.288c1.78-1.116,4.107-1.246,5.584-2.712s1.6-3.62,1.585-5.62a22.177,22.177,0,0,0-.528-5.163c-1.306-5.341-5.395-9.46-7.958-14.2-1.252-2.309-1.929-3.656-4.57-2.071S629.834,278.126,627.336,279.954Z" transform="translate(-325.273 -169.493)"/>
        <path id="Path_635" data-name="Path 635" class="cls-7" d="M805.174,269.115a20.812,20.812,0,0,1,4.463,3.9c1.347,1.739,2.113,3.875,3.412,5.656a61.777,61.777,0,0,0,4.392,4.653,35.467,35.467,0,0,1,5.068,8.255,123.81,123.81,0,0,1-11.466,12.938,3.674,3.674,0,0,1-1.745,1.139,2.8,2.8,0,0,1-2.457-1c-.641-.665-1.092-1.5-1.7-2.19a8.754,8.754,0,0,0-5.418-2.617,37.22,37.22,0,0,0-6.142-.089,2.374,2.374,0,0,1-1.312-.22,2.167,2.167,0,0,1-.712-.819c-2.374-4.083-1.632-9.211-.783-13.875l1.941-10.682a24,24,0,0,1,1.62-5.935c.736-1.573,2.374-4.243,4.4-3.768S803.459,267.88,805.174,269.115Z" transform="translate(-395.451 -165.698)"/>
        <path id="Path_636" data-name="Path 636" class="cls-5" d="M351.964,273.01l-40.884,8.362-.932-.089-35.928-3.626V232.126L318.2,224.69l31.9,3.721.012.2v.095Z" transform="translate(-111.48 -91.286)"/>
        <path id="Path_637" data-name="Path 637" class="cls-8" d="M376.576,275.7l-40.884,8.362-.932-.089V237.294l39.97-5.994Z" transform="translate(-136.091 -93.973)"/>
        <path id="Path_638" data-name="Path 638" class="cls-15" d="M350.118,228.708l-.012.012-39.958,5.887-35.928-2.481L318.2,224.69l31.9,3.721.012.2Z" transform="translate(-111.48 -91.286)"/>
        <path id="Path_639" data-name="Path 639" class="cls-7" d="M387.964,197.01l-40.884,8.368-.932-.095-35.928-3.626V156.126L354.2,148.69l31.9,3.721.012.2v.095Z" transform="translate(-126.115 -60.389)"/>
        <path id="Path_640" data-name="Path 640" class="cls-8" d="M412.576,199.7l-40.884,8.368-.932-.095V161.294l39.97-5.994Z" transform="translate(-150.727 -63.076)"/>
        <path id="Path_641" data-name="Path 641" class="cls-15" d="M386.118,152.708l-.012.012-39.958,5.887-35.928-2.481L354.2,148.69l31.9,3.721.012.2Z" transform="translate(-126.115 -60.389)"/>
      </g>
    </g>
  </g>
</svg>
