<svg xmlns="http://www.w3.org/2000/svg" xmlns:xlink="http://www.w3.org/1999/xlink" viewBox="0 0 960.089 909.594">
  <defs>
    <style>
      .cls-1 {
        fill: url(#linear-gradient);
      }

      .cls-2 {
        fill: #ffcece;
      }

      .cls-3 {
        fill: #ff6584;
      }

      .cls-4 {
        fill: #f66f56;
      }

      .cls-5 {
        fill: #3f3d56;
      }

      .cls-6 {
        opacity: 0.1;
      }

      .cls-7 {
        fill: #2f2e41;
      }

      .cls-8 {
        fill: #f2f2f2;
      }

      .cls-9 {
        fill: #ffb9b9;
      }

      .cls-10 {
        fill: #575a89;
      }

      .cls-11 {
        fill: #a0616a;
      }

      .cls-12 {
        fill: #d0cde1;
      }

      .cls-13 {
        fill: #a8a8a8;
      }

      .cls-14 {
        opacity: 0.2;
      }
    </style>
    <linearGradient id="linear-gradient" x1="0.5" x2="0.5" y2="1" gradientUnits="objectBoundingBox">
      <stop offset="0" stop-color="#bdbbff"/>
      <stop offset="1" stop-color="#ffb4b4"/>
    </linearGradient>
  </defs>
  <g id="Symbol_17_1" data-name="Symbol 17 – 1" transform="translate(-933.125 -84.703)">
    <path id="Union_1" data-name="Union 1" class="cls-1" d="M-322.782-983.878a265.772,265.772,0,0,1-126.311-105.878,268.157,268.157,0,0,1-49.349-14.642c-136.723-55.239-202.778-210.856-147.539-347.577,53.413-132.2,200.669-198.331,333.951-152.625a266.746,266.746,0,0,1,251.1-27.38C75.791-1576.741,141.845-1421.124,86.606-1284.4L24.8-1131.417c-42,103.944-142.029,167.043-247.648,167.051A266.151,266.151,0,0,1-322.782-983.878Z" transform="translate(2123.328 1672.893) rotate(-20)"/>
    <ellipse id="Ellipse_38" data-name="Ellipse 38" class="cls-2" cx="283.529" cy="257.029" rx="283.529" ry="257.029" transform="translate(1163.839 323)"/>
    <circle id="Ellipse_39" data-name="Ellipse 39" class="cls-3" cx="73.993" cy="73.993" r="73.993" transform="translate(1459.337 297.75)"/>
    <path id="Path_253" data-name="Path 253" class="cls-4" d="M367.441,143.361l2.023,42.166c8.384,11.182,17.428,23.978,26.355,37.924l1.274-64.328.7.449a125.556,125.556,0,0,0-31.059-16.6Z" transform="translate(855.696 179.93)"/>
    <path id="Path_254" data-name="Path 254" class="cls-4" d="M357.067,182.182l-1.959-40.845c-11.5-3.921-22.652-5.222-32.848-3.4-.53.095-1.052.2-1.572.314C323.279,141.028,338.377,157.443,357.067,182.182Z" transform="translate(866.618 181.316)"/>
    <path id="Path_255" data-name="Path 255" class="cls-4" d="M481.516,257.587l.679.648q-4.179-7.861-8.861-15.285L454.321,317.76l-.322-.284q2.062,4.923,3.922,9.779Z" transform="translate(834.999 156.217)"/>
    <path id="Path_256" data-name="Path 256" class="cls-4" d="M441.331,196.665l.7.56a197.385,197.385,0,0,0-34.043-31.81l-1.3,65.554q12.46,19.664,22.312,38.737Z" transform="translate(846.22 174.606)"/>
    <path id="Path_257" data-name="Path 257" class="cls-4" d="M271.3,233.212a164.8,164.8,0,0,0,6.512,32.573l113.379,11.694c-5.919-10.915-12.029-21.155-17.96-30.488L271.586,234.1Z" transform="translate(878.333 158.526)"/>
    <path id="Path_258" data-name="Path 258" class="cls-4" d="M284.043,288.425l-.305-.89,114.749,10.2q-2.079-4.067-4.205-8.027l-113.8-11.738-.3-.891Q281.906,282.69,284.043,288.425Z" transform="translate(876.225 148.121)"/>
    <path id="Path_259" data-name="Path 259" class="cls-4" d="M468.13,233.132l.69.608A235.7,235.7,0,0,0,450,208.138l-12.5,74.029q6.5,12.756,11.769,25.152Z" transform="translate(838.911 164.473)"/>
    <path id="Path_260" data-name="Path 260" class="cls-4" d="M474.471,382.083c4.56,19.734,6.288,38.394,5.148,55.772,6.417-13.672,30.82-70.314,21.7-123.1Z" transform="translate(830.143 139.186)"/>
    <path id="Path_261" data-name="Path 261" class="cls-4" d="M312.838,344.256a228.021,228.021,0,0,0,19.794,23.236l-.277-.989,102.073,21a283.477,283.477,0,0,0-9.924-32.493Z" transform="translate(868.48 132.188)"/>
    <path id="Path_262" data-name="Path 262" class="cls-4" d="M345.984,183.263c-20.229-26.761-36.19-43.675-36.419-43.917l.263-.564c-15.35,3.485-26.189,13.929-32.152,29.046Z" transform="translate(876.82 180.923)"/>
    <path id="Path_263" data-name="Path 263" class="cls-4" d="M460.379,334.839c.377,1.007.76,2.016,1.124,3.018a281.641,281.641,0,0,1,8.927,29.319l26.591-66.692.649.651a111.661,111.661,0,0,0-8.489-26.873q-2.353-5.036-4.926-9.921Z" transform="translate(833.486 151.143)"/>
    <path id="Path_264" data-name="Path 264" class="cls-4" d="M371.877,232c-8.835-13.781-17.777-26.424-26.065-37.474l-69.876-15.789-.237-.882c-4.362,11.488-5.957,25.6-4.636,41.362Z" transform="translate(878.496 171.656)"/>
    <path id="Path_265" data-name="Path 265" class="cls-4" d="M441.271,396.763,339.945,375.918c42.62,43.751,102.247,77.305,106.053,79.426C447.774,436.067,445.76,416.268,441.271,396.763Z" transform="translate(862.051 124.678)"/>
    <path id="Path_266" data-name="Path 266" class="cls-4" d="M417.344,341.087l.023-.067a382.593,382.593,0,0,0-16.657-37.664L285.679,293.132q2.93,7.757,6.622,15.681a137.078,137.078,0,0,0,12.739,21.46Z" transform="translate(874.922 144.314)"/>
    <path id="Path_267" data-name="Path 267" class="cls-4" d="M641.02,329.437,615.683,363.2c-.675,13.96-1.87,29.584-3.89,46.019L653.8,360.489l.255.795a125.552,125.552,0,0,0-13.332-32.6Z" transform="translate(797.572 135.881)"/>
    <path id="Path_268" data-name="Path 268" class="cls-4" d="M617.042,352.988l24.543-32.708c-6.354-10.353-14.116-18.469-23.129-23.572-.469-.265-.94-.514-1.411-.761C617.268,299.741,618.426,322.013,617.042,352.988Z" transform="translate(796.327 143.646)"/>
    <path id="Path_269" data-name="Path 269" class="cls-4" d="M649.24,494l.11.932q1.795-8.72,2.925-17.424L589.915,523l-.067-.424q-1.552,5.107-3.217,10.033Z" transform="translate(803.54 100.581)"/>
    <path id="Path_270" data-name="Path 270" class="cls-4" d="M657.587,417.877l.182.878a197.376,197.376,0,0,0-5.931-46.213L609.026,422.2q-2.945,23.092-7.523,44.066Z" transform="translate(800.013 125.479)"/>
    <path id="Path_271" data-name="Path 271" class="cls-4" d="M513.759,337.317A164.807,164.807,0,0,0,498,366.558l79.864,81.321c2.4-12.182,4.228-23.966,5.613-34.937l-70.063-74.755Z" transform="translate(824.563 133.834)"/>
    <path id="Path_272" data-name="Path 272" class="cls-4" d="M491.933,387.971l.332-.88,81.873,81.045q.993-4.459,1.881-8.864L495.861,377.65l.338-.877Q493.945,382.191,491.933,387.971Z" transform="translate(826.001 124.475)"/>
    <path id="Path_273" data-name="Path 273" class="cls-4" d="M653.457,465.277l.143.909a235.724,235.724,0,0,0,1.837-31.72L598.6,483.511q-3.132,13.968-6.978,26.879Z" transform="translate(802.358 110.792)"/>
    <path id="Path_274" data-name="Path 274" class="cls-4" d="M557.008,586.886c-9.075,18.108-19.645,33.581-31.607,46.238,13.663-6.438,68.585-34.5,95.228-80.973Z" transform="translate(818.063 82.878)"/>
    <path id="Path_275" data-name="Path 275" class="cls-4" d="M479.727,449.337a228.007,228.007,0,0,0,.425,30.521l.417-.938L545.792,560.2a283.462,283.462,0,0,0,13.081-31.356Z" transform="translate(828.972 107.264)"/>
    <path id="Path_276" data-name="Path 276" class="cls-4" d="M602.28,351.39c1.489-33.513-.016-56.72-.039-57.053l.562-.266c-14.046-7.107-29.054-5.976-43.289,1.864Z" transform="translate(809.972 145.213)"/>
    <path id="Path_277" data-name="Path 277" class="cls-4" d="M581.48,540.923c-.352,1.016-.7,2.037-1.059,3.041A281.679,281.679,0,0,1,568.6,572.239l63.018-34.405.085.916a111.656,111.656,0,0,0,10.6-26.112q1.4-5.38,2.534-10.783Z" transform="translate(807.818 94.808)"/>
    <path id="Path_278" data-name="Path 278" class="cls-4" d="M588.8,401.545c1.985-16.249,3.162-31.69,3.827-45.487L548.881,299.33l.38-.83c-10.687,6.065-20.916,15.917-29.952,28.9Z" transform="translate(819.508 143.041)"/>
    <path id="Path_279" data-name="Path 279" class="cls-4" d="M545.256,571.694l-64.745-80.682c4.92,60.88,29.444,124.754,31.023,128.815C525.2,606.114,536.273,589.58,545.256,571.694Z" transform="translate(828.711 97.379)"/>
    <path id="Path_280" data-name="Path 280" class="cls-4" d="M559.609,513.552l.06-.037a382.588,382.588,0,0,0,11.194-39.632l-82.074-81.244q-2.692,7.843-4.9,16.3a137.08,137.08,0,0,0-3.876,24.653Z" transform="translate(828.829 120.712)"/>
    <path id="Path_281" data-name="Path 281" class="cls-4" d="M318.689,388.719l14.957,39.476c11.43,8.043,23.987,17.417,36.787,27.921l-18.672-61.572.808.21a125.559,125.559,0,0,0-34.67-6.189Z" transform="translate(867.28 121.678)"/>
    <path id="Path_282" data-name="Path 282" class="cls-4" d="M320.931,426.779,306.443,388.54c-12.146-.175-23.156,2.036-32.292,6.917-.475.254-.938.519-1.4.785C276.076,398.084,295.509,409.029,320.931,426.779Z" transform="translate(877.988 121.687)"/>
    <path id="Path_283" data-name="Path 283" class="cls-4" d="M468.2,460.233l.845.406q-6.4-6.184-13.151-11.8l5.042,77.024-.394-.17q3.483,4.044,6.752,8.088Z" transform="translate(834.549 107.382)"/>
    <path id="Path_284" data-name="Path 284" class="cls-4" d="M405.821,416.45l.839.316a197.378,197.378,0,0,0-42.208-19.729l19.027,62.745q17.928,14.85,33.193,29.944Z" transform="translate(856.238 119.669)"/>
    <path id="Path_285" data-name="Path 285" class="cls-4" d="M255.027,498.166a164.808,164.808,0,0,0,16.261,28.965l111.441-23.923c-9-8.551-17.979-16.4-26.5-23.443l-100.647,19.16Z" transform="translate(882.192 100.047)"/>
    <path id="Path_286" data-name="Path 286" class="cls-4" d="M284.214,545.227l-.565-.752,112.282-25.768q-3.235-3.226-6.48-6.334L277.6,536.384l-.56-.755Q280.409,540.432,284.214,545.227Z" transform="translate(876.971 92.313)"/>
    <path id="Path_287" data-name="Path 287" class="cls-4" d="M445.891,441.771l.844.365A235.726,235.726,0,0,0,420.926,423.6l11,74.267q10.121,10.123,18.967,20.283Z" transform="translate(842.843 113.368)"/>
    <path id="Path_288" data-name="Path 288" class="cls-4" d="M500.737,580.088c10.437,17.358,17.848,34.57,22.135,51.45,1.877-14.986,7.577-76.4-17.415-123.781Z" transform="translate(823.913 93.408)"/>
    <path id="Path_289" data-name="Path 289" class="cls-4" d="M328.856,589.1a228.027,228.027,0,0,0,26.007,15.98l-.569-.855,103.565-11.58a283.454,283.454,0,0,0-19.482-27.834Z" transform="translate(864.681 79.875)"/>
    <path id="Path_290" data-name="Path 290" class="cls-4" d="M313.408,430.21c-27.51-19.2-47.917-30.35-48.211-30.509l.076-.617c-13.522,8.059-20.6,21.342-21.6,37.562Z" transform="translate(884.885 119.184)"/>
    <path id="Path_291" data-name="Path 291" class="cls-4" d="M473.037,539.8c.67.841,1.346,1.682,2,2.523a281.623,281.623,0,0,1,17.552,25.123l4.675-71.646.819.419a111.66,111.66,0,0,0-16.38-22.933q-3.794-4.063-7.751-7.913Z" transform="translate(830.483 103.46)"/>
    <path id="Path_292" data-name="Path 292" class="cls-4" d="M351.787,469.351c-12.662-10.376-25.074-19.635-36.372-27.583l-71.334,6.582-.5-.766c-.6,12.273,2.248,26.188,8.376,40.77Z" transform="translate(884.925 109.059)"/>
    <path id="Path_293" data-name="Path 293" class="cls-4" d="M467.23,603.318,364.423,614.813c54.056,28.435,121.135,41.915,125.41,42.755C485.563,638.687,477.528,620.479,467.23,603.318Z" transform="translate(856.245 70.742)"/>
    <path id="Path_294" data-name="Path 294" class="cls-4" d="M427.265,553.305v-.07a382.577,382.577,0,0,0-27.482-30.671L287.225,548.4q5.184,6.472,11.144,12.866a137.08,137.08,0,0,0,18.749,16.471Z" transform="translate(874.555 89.896)"/>
    <path id="Path_295" data-name="Path 295" class="cls-5" d="M874.473,695.9c0,34.125-175.543,94.589-392.086,94.589S90.3,730.027,90.3,695.9s175.543-28.987,392.086-28.987S874.473,661.778,874.473,695.9Z" transform="translate(921.263 55.723)"/>
    <path id="Path_296" data-name="Path 296" class="cls-6" d="M874.473,695.9c0,34.125-175.543,94.589-392.086,94.589S90.3,730.027,90.3,695.9s175.543-28.987,392.086-28.987S874.473,661.778,874.473,695.9Z" transform="translate(921.263 55.723)"/>
    <ellipse id="Ellipse_40" data-name="Ellipse 40" class="cls-5" cx="392.086" cy="61.788" rx="392.086" ry="61.788" transform="translate(1011.566 689.837)"/>
    <path id="Path_297" data-name="Path 297" class="cls-6" d="M621.972,606.264c0,37.178-51.821,25.678-115.271,25.678s-114.5,11.5-114.5-25.678S444.014,561,507.464,561,621.972,569.087,621.972,606.264Z" transform="translate(849.657 80.779)"/>
    <path id="Path_298" data-name="Path 298" class="cls-5" d="M621.972,594.264c0,37.178-51.821,25.678-115.271,25.678s-114.5,11.5-114.5-25.678S444.014,549,507.464,549,621.972,557.087,621.972,594.264Z" transform="translate(849.657 83.625)"/>
    <path id="Path_299" data-name="Path 299" class="cls-7" d="M425.1,471.28a16.682,16.682,0,0,1,4.567-2.29,116.447,116.447,0,0,1,32.177-7c9.568-.678,19.937.127,27.41,6.141a9.425,9.425,0,0,1,2.78,3.239c.94,2.029.655,4.387.351,6.6a7.46,7.46,0,0,1-.64,2.485c-1.006,1.915-3.481,2.586-5.632,2.356s-4.168-1.14-6.289-1.561a28.1,28.1,0,0,0-3.972-.4l-13.3-.72c-8.272-.448-16.654-.888-24.768.781a24.668,24.668,0,0,0-7.156,2.466c-1.853,1.041-3.1,2.534-4.821.612C422.784,480.605,421.112,474.4,425.1,471.28Z" transform="translate(842.41 104.312)"/>
    <path id="Path_300" data-name="Path 300" class="cls-8" d="M451.708,480.941s17.893-8.021,24.68,1.234-3.7,5.554-3.7,5.554l-11.723,3.7-12.957-2.468Z" transform="translate(836.42 100.533)"/>
    <path id="Path_301" data-name="Path 301" class="cls-9" d="M454.072,472.533s2.468,11.723.617,14.808,10.489,7.4,10.489,7.4L476.9,489.81s-3.085-19.127,0-22.829Z" transform="translate(834.982 103.079)"/>
    <path id="Path_302" data-name="Path 302" class="cls-6" d="M454.072,472.533s2.468,11.723.617,14.808,10.489,7.4,10.489,7.4L476.9,489.81s-3.085-19.127,0-22.829Z" transform="translate(834.982 103.079)"/>
    <path id="Path_303" data-name="Path 303" class="cls-10" d="M436.864,655.152a67.486,67.486,0,0,1,4.077,10.685.869.869,0,0,0,1.08.718L453,666.543c1.354,0,3.172-.437,3.157-1.791-.01-.952-.983-1.545-1.706-2.163-2.009-1.714-2.532-4.541-3.364-7.047a23.909,23.909,0,0,0-8.9-11.948,5.206,5.206,0,0,0-1.9-.94,5.3,5.3,0,0,0-2.085.113c-1.927.389-9.121,1.719-7.762,4.521.585,1.207,2.754,2.463,3.663,3.59A25.775,25.775,0,0,1,436.864,655.152Z" transform="translate(840.627 61.425)"/>
    <path id="Path_304" data-name="Path 304" class="cls-10" d="M486.439,640.422a24.923,24.923,0,0,1-1.29,2.372c-1.59,2.622-3.466,5.068-4.947,7.754a12.8,12.8,0,0,0-1.8,5.4,5.993,5.993,0,0,0,2.095,5.1c1.593,1.209,3.777,1.265,5.758.983a27.855,27.855,0,0,1,5.943-.7c-.672-3.805,2.537-7.154,3.339-10.934.225-1.062.259-2.162.561-3.2a15.7,15.7,0,0,1,1.242-2.747,35.517,35.517,0,0,0,3.352-9.885c.076-.417-9.756-.486-10.678-.286C487.131,634.893,487.553,638.036,486.439,640.422Z" transform="translate(829.217 63.426)"/>
    <path id="Path_305" data-name="Path 305" class="cls-7" d="M389.021,560.261c-2.807,4.392-2.16,10.213-.189,15.038s5.109,9.091,7.256,13.84c1.369,3.028,2.329,6.238,3.87,9.182,1.909,3.645,4.7,6.858,5.977,10.768.816,2.493,1,5.224,2.327,7.49a22.954,22.954,0,0,0,2.725,3.381,31.242,31.242,0,0,1,6.281,11.219c1.209-3.6,4.829-5.962,8.547-6.741s7.57-.25,11.332.281a47.645,47.645,0,0,1-5.467-10.2c-1.21-3.541-1.567-7.308-2.381-10.96-1.671-7.489-5.24-14.4-8.774-21.207l18.163-1.441a70.8,70.8,0,0,1,8.924-.331c4.688.221,9.281,1.37,13.944,1.9s9.6.392,13.752-1.789a65.9,65.9,0,0,0-11.824,38.918,15.068,15.068,0,0,1,22.809,5.383c7.118-9.727,6.272-23.268,11.912-33.92,1.16-2.19,2.581-4.231,3.833-6.37a93.877,93.877,0,0,0,6.056-13.383c1.578-4.035,3.167-8.525,1.654-12.585a13.14,13.14,0,0,0-2.7-4.146c-3.254-3.588-7.784-6.242-12.626-6.352-7.434-.17-13.575,5.341-20.1,8.914a46.245,46.245,0,0,1-25.378,5.263c-8.957-.634-17.512-3.566-26.046-6.148a123.919,123.919,0,0,0-13-3.353c-3.66-.686-7.145.074-10.751,1.01C395.228,554.939,391.281,556.725,389.021,560.261Z" transform="translate(850.859 83.808)"/>
    <path id="Path_306" data-name="Path 306" class="cls-9" d="M479.769,453.136a18.526,18.526,0,0,1-18.51,18.51,18.069,18.069,0,0,1-3.289-.3,18.51,18.51,0,1,1,21.8-18.214Z" transform="translate(837.667 110.754)"/>
    <path id="Path_307" data-name="Path 307" class="cls-8" d="M446.624,481.848a21.754,21.754,0,0,1,4.628,2.777c1.234,1.234,4.936,8.021,11.106,3.7s6.787-6.787,8.638-6.787,4.319,3.7,4.319,3.7l16.968,50.9a71.062,71.062,0,0,1-15.734,13.266c-9.872,6.17-21.6,9.255-27.148,6.787s-16.042-4.319-17.893-9.255-4.936-19.744-4.936-19.744l8.638-37.638Z" transform="translate(841.504 99.626)"/>
    <path id="Path_308" data-name="Path 308" class="cls-7" d="M441.274,532.126c1.345-2.906,1.541-6.195,1.655-9.394a56.944,56.944,0,0,0-.251-9.5c-.547-4.127-1.891-8.1-2.74-12.18a51.493,51.493,0,0,1-1.079-10.87,8.858,8.858,0,0,1,1.041-4.817c.633-.975,1.624-1.73,2.02-2.822.776-2.143-1.141-4.387-3.243-5.269a12.76,12.76,0,0,0-7.988-.321,38,38,0,0,0-7.513,3.073,17.2,17.2,0,0,0-4.909,3.173c-1.915,1.982-2.757,4.742-3.437,7.413a15.181,15.181,0,0,0-.614,6.534c.672,3.519,3.541,6.165,5.07,9.4,1.776,3.762,1.656,8.146.95,12.245s-1.96,8.108-2.346,12.249.207,8.594,2.8,11.845c1.057,1.325,3.926,4.465,5.862,4.109,1.521-.279,3.726-3.627,4.951-4.688C435.042,539.242,439.241,536.515,441.274,532.126Z" transform="translate(844.472 100.832)"/>
    <path id="Path_309" data-name="Path 309" class="cls-7" d="M489.014,477.3c.054,3.441-1.463,6.712-3.247,9.656s-3.879,5.727-5.194,8.908a20.416,20.416,0,0,0-.953,12.56,40.522,40.522,0,0,0,1.361,4.2l3.381,9.273a16.094,16.094,0,0,0,1.96,4.116,13.288,13.288,0,0,0,2.664,2.563,24.865,24.865,0,0,0,8.693,4.535,14.7,14.7,0,0,0,9.666-.552,139.869,139.869,0,0,1,6-37.071c.676-2.221,1.415-4.559.893-6.821-.584-2.534-2.619-4.436-4.554-6.174-5.917-5.313-12.424-10.895-20.344-11.611C484.762,470.472,488.975,474.815,489.014,477.3Z" transform="translate(829.058 102.159)"/>
    <path id="Path_310" data-name="Path 310" class="cls-9" d="M436.881,570.249c.469.919.761,1.919,1.225,2.84a15.866,15.866,0,0,0,2.518,3.385c4.125,4.574,9.168,9.132,15.322,9.407a4.2,4.2,0,0,0,1.806-.227,3.581,3.581,0,0,0,1.922-2.748c.436-2.389-.618-4.774-1.674-6.961-2.289-4.741-4.864-9.6-9.15-12.659a17.168,17.168,0,0,0-14.812-2.228c-2.232.688-5.934,1.888-2.978,3.925C433.3,566.528,435.582,567.7,436.881,570.249Z" transform="translate(840.7 80.95)"/>
    <path id="Path_311" data-name="Path 311" class="cls-9" d="M467.386,491.786a13.791,13.791,0,0,0-2.9-4.669,10.743,10.743,0,0,0-4.423-2.241,24.192,24.192,0,0,0-6.489-.93c-2.613-.016-5.643.685-6.753,3.051-.881,1.879-.2,4.1.689,5.979a5.863,5.863,0,0,0,1.829,2.471c1.127.761,2.584.737,3.92.992a18.082,18.082,0,0,1,5.794,2.626l4.577,2.766,7.861,4.752c-.207-.125-.133-5.516-.375-6.4C470.343,497.338,468.592,494.482,467.386,491.786Z" transform="translate(836.798 99.055)"/>
    <path id="Path_312" data-name="Path 312" class="cls-7" d="M439.989,670.538c-1.839,2.5-1.471,6.073-3.1,8.715-1.412,2.29-4.074,3.49-5.841,5.519a14.783,14.783,0,0,0-1.5,2.16c-1.639,2.745-2.971,6.263-1.357,9.023,1.3,2.22,4.028,3.088,6.53,3.679,3.164.747,6.451,1.346,9.651.775s6.328-2.531,7.469-5.575a21.552,21.552,0,0,1,.8-2.253c1.734-3.415,7.175-3.452,8.95-6.845,1.242-2.375.1-5.246-1.041-7.671l-3.486-7.407c-1.157-2.458-5.847-1.044-8.292-1.633C445.579,668.256,442.283,667.41,439.989,670.538Z" transform="translate(841.294 55.327)"/>
    <path id="Path_313" data-name="Path 313" class="cls-7" d="M477.27,662.487a9.915,9.915,0,0,0-3.154,4.321c-1.725,3.981-2.318,8.344-2.893,12.644a15.314,15.314,0,0,0-.1,5.186c.743,3.512,3.926,6.1,7.351,7.172s7.1.908,10.685.733a7.652,7.652,0,0,0,3.359-.682c1.8-.993,2.506-3.329,2.2-5.363a15.263,15.263,0,0,0-2.508-5.591,15.31,15.31,0,0,1-2.512-5.589c-.524-3.421.955-8.443-1.147-11.539S480.081,660.517,477.27,662.487Z" transform="translate(830.979 57.015)"/>
    <path id="Path_314" data-name="Path 314" class="cls-7" d="M477.438,440.5a4.7,4.7,0,0,0-2.038-2.66,10.782,10.782,0,0,0-.43-3.51c-1.121-3.314-3.777-3.124-6.282-4.589-1.087-.636-1.02-1.2-1.586-2.242a8.32,8.32,0,0,0-3.206-3.271,11.535,11.535,0,0,0-5.206-2.209c-4-.272-7.06,3.486-10.88,4.693-1.684.532-3.493.554-5.185,1.056s-3.381,1.7-3.633,3.45c-.117.807.089,1.634-.029,2.441-.235,1.6-1.641,2.726-2.583,4.044-2.082,2.916-1.844,7.035-.179,10.207a14.344,14.344,0,0,0,1.2,1.879,11.555,11.555,0,0,0,1.267,4.292c1.665,3.172,4.53,5.543,7.523,7.512a17.749,17.749,0,0,1-.444-3.2,2.21,2.21,0,0,1,.136-1.061c.333-.7,1.214-.882,1.885-1.264,1.391-.79,1.936-2.539,1.976-4.138s-.3-3.2-.131-4.792a2.618,2.618,0,0,1,.9-1.926,3.1,3.1,0,0,1,1.69-.4c2.85-.116,5.827-.169,8.34-1.516a12.358,12.358,0,0,1,2.6-1.313c2.136-.557,4.319.94,5.55,2.772s1.845,4.013,2.981,5.906,3.1,3.581,5.294,3.357a.879.879,0,0,0,.656-.292.984.984,0,0,0,.121-.559l.123-8.394a12.686,12.686,0,0,0-.423-4.267Z" transform="translate(839.532 113.748)"/>
    <path id="Path_315" data-name="Path 315" class="cls-7" d="M410.228,501.391c-1.766,2.606-3.8,5.111-4.773,8.1-.571,1.76-.748,3.62-1.161,5.424-1.376,6.007-5.351,11.342-5.75,17.491a8.316,8.316,0,0,0,.584,4.016c1.14,2.48,3.869,3.788,6.472,4.61s5.4,1.415,7.476,3.185a22.913,22.913,0,0,1,2.833,3.284,27.444,27.444,0,0,0,13.108,8.969c-.407-2.808-.6-6.192,1.646-7.927a8.129,8.129,0,0,1,4.368-1.239l7.229-.625a92.908,92.908,0,0,0-15.848-12.346c-2-1.235-4.175-2.538-5.088-4.7a11.359,11.359,0,0,1-.576-4.339,106.914,106.914,0,0,0-1.362-16.05c-.6-3.686-1.383-7.339-2.284-10.962-.253-1.017-1.748-5.579-3.589-4.512-.434.251-.839,3.146-1.092,3.746a22.719,22.719,0,0,1-2.193,3.871Z" transform="translate(848.162 96.762)"/>
    <path id="Path_316" data-name="Path 316" class="cls-7" d="M510.221,490.463l2.952,6.14a14.753,14.753,0,0,1,1.861,8.3l.175,18.418a26.819,26.819,0,0,1-.606,7.334,5.873,5.873,0,0,1-1.018,2.19,6.846,6.846,0,0,1-1.746,1.407c-5.587,3.491-12.833,5.475-18.736,2.55a25.922,25.922,0,0,1-3.841-2.508,30.533,30.533,0,0,1-6.5-5.858c-1.842-2.449-2.9-5.38-4.137-8.182a62.883,62.883,0,0,0-8.548-14.02,3.7,3.7,0,0,1-1.058-2.1c-.037-1.614,1.879-2.409,3.372-3.023,2.551-1.049,4.957-3.074,5.384-5.8,5.426,7.115,11.413,14.632,19.974,17.232a.883.883,0,0,0,1.359-.755c.486-2.034.658-4.127,1.013-6.187a35.245,35.245,0,0,1,3.718-10.723C504.853,493,508.137,486.129,510.221,490.463Z" transform="translate(831.436 97.844)"/>
    <path id="Path_317" data-name="Path 317" class="cls-6" d="M425.8,514.178A28.318,28.318,0,0,1,423.1,526.8a10.43,10.43,0,0,0-1.059,2.78c-.324,2.074.857,4.083,2.206,5.691a23.4,23.4,0,0,0,10.006,6.961" transform="translate(842.592 91.885)"/>
    <path id="Path_318" data-name="Path 318" class="cls-6" d="M510.151,509.362a6.033,6.033,0,0,0,.3,3.666,36.934,36.934,0,0,1,1.346,10.717.39.39,0,0,1-.456.468c-1.424.087-3.055.1-4.021-.953" transform="translate(822.353 93.027)"/>
    <ellipse id="Ellipse_41" data-name="Ellipse 41" class="cls-6" cx="96.115" cy="20.596" rx="96.115" ry="20.596" transform="translate(1478.408 735.605)"/>
    <path id="Path_319" data-name="Path 319" class="cls-11" d="M807.473,399l-6.865,6.865,6.865,6.865L814.339,399Z" transform="translate(815.107 173.362)"/>
    <path id="Path_320" data-name="Path 320" class="cls-12" d="M890.734,391.838c1.927.789,2.843,2.944,3.569,4.895l8.906,23.931,1.733,4.658c.85,2.284,1.7,4.57,2.42,6.9q.682,2.21,1.2,4.465a11.742,11.742,0,0,1,.411,3.958,11,11,0,0,1-1.574,4.124,36.915,36.915,0,0,1-12.827,13.156,11.973,11.973,0,0,0-6.962-9.1l4.605-2.533a8.328,8.328,0,0,0,2.581-1.89,5.668,5.668,0,0,0,.985-4.32,18.564,18.564,0,0,0-1.367-4.334,118.309,118.309,0,0,1-4.017-11.789,25.139,25.139,0,0,0-2.609-6.864c-1.2-1.877-2.944-3.378-4.036-5.321-1.665-2.961-1.623-6.607-.887-9.924.621-2.8,1.662-5.5,2.538-8.221C886.095,391.481,888.671,390.994,890.734,391.838Z" transform="translate(733.392 120.995)"/>
    <path id="Path_321" data-name="Path 321" class="cls-7" d="M829.646,307.542c-3.541,1.2-6.749,3.993-7.474,7.66-.336,1.7-.13,3.467-.413,5.176-.656,3.964-3.768,6.992-6.638,9.8s-5.834,6.08-6.044,10.093c-.229,4.394,2.957,8.511,2.406,12.876-.641,5.072-6,8.358-7.322,13.3-.884,3.3.2,6.848,1.982,9.759,3.4,5.547,9.2,9.313,15.387,11.332s12.769,2.444,19.273,2.512c7.92.083,16.519-.6,22.469-5.824a18,18,0,0,0,5.976-11.719c.565-6.055-1.962-12.311-.219-18.137,1.1-3.666,3.848-7.015,3.438-10.82-.4-3.72-3.651-6.357-5.88-9.363a38.052,38.052,0,0,1-4.582-9.387l-4.235-11.179c-.833-2.2-1.747-4.509-3.6-5.951-3.473-2.7-9.058-2.17-13.12-1.613C837.281,306.573,833.27,306.319,829.646,307.542Z" transform="translate(752.02 141.355)"/>
    <path id="Path_322" data-name="Path 322" class="cls-11" d="M841.654,355.676s.415,12.436-.829,13.679,4.974,9.534,4.974,9.534l11.192-.415,5.8-4.56-4.974-6.632s-2.073-10.778-.415-13.265S841.654,355.676,841.654,355.676Z" transform="translate(743.288 130.061)"/>
    <path id="Path_323" data-name="Path 323" class="cls-6" d="M841.654,355.676s.415,12.436-.829,13.679,4.974,9.534,4.974,9.534l11.192-.415,5.8-4.56-4.974-6.632s-2.073-10.778-.415-13.265S841.654,355.676,841.654,355.676Z" transform="translate(743.288 130.061)"/>
    <path id="Path_324" data-name="Path 324" class="cls-11" d="M726.3,409.693l7.047,15.752,5.389-6.633-10.778-14.094Z" transform="translate(832.731 172.006)"/>
    <path id="Path_325" data-name="Path 325" class="cls-11" d="M699.129,618.009l-2.9,16.167-4.974,7.047,2.9,1.658,4.974-.829,5.8-2.073,2.487-9.534,4.56-12.436Z" transform="translate(841.044 121.417)"/>
    <path id="Path_326" data-name="Path 326" class="cls-11" d="M770.619,604.967l-1.658,23.214,4.145,3.316,6.633-5.8v-17Z" transform="translate(822.613 124.51)"/>
    <circle id="Ellipse_42" data-name="Ellipse 42" class="cls-11" cx="14.923" cy="14.923" r="14.923" transform="translate(1576.859 460.659)"/>
    <path id="Path_327" data-name="Path 327" class="cls-12" d="M849.5,369.332a3.454,3.454,0,0,0-2.875-.055,23.35,23.35,0,0,0-2.631,1.371,12.19,12.19,0,0,1-7.085,1.288,2.436,2.436,0,0,1-.828-.213,3.982,3.982,0,0,1-.759-.612,4.392,4.392,0,0,0-6.081.524c-.438.546-.738,1.2-1.217,1.71-1.239,1.325-3.283,1.378-5.1,1.375a47.259,47.259,0,0,0-11.2,1.026,20.509,20.509,0,0,0-9.833,5.21,7.488,7.488,0,0,0-1.747,2.49c-.5,1.29-.434,2.739-.884,4.047-.5,1.457-1.61,2.652-2.059,4.126-.338,1.11-.291,2.346-.857,3.359,2.422,2.1,4.475,4.893,6.9,6.99,1.6,1.388,3.283,2.89,3.886,4.924a16.126,16.126,0,0,1,.359,3.818c.3,6.132,3.625,11.694,7.344,16.578a18.693,18.693,0,0,0,3.624,3.85,15.73,15.73,0,0,0,6.257,2.512,61.329,61.329,0,0,0,12.916.819c4.467-.044,9.013-.139,13.259-1.527a11.789,11.789,0,0,0,5.6-3.48c1.747-2.145,2.428-5.248,4.811-6.653a8.748,8.748,0,0,0,1.63-.973,4.228,4.228,0,0,0,1-1.863,28.859,28.859,0,0,0,1.364-8.045,23.4,23.4,0,0,1,.332-4.9,16.654,16.654,0,0,1,1.785-4.054l4.938-8.955a6.312,6.312,0,0,0,.334-2.629,6.484,6.484,0,0,0-1.062-3.362,28.685,28.685,0,0,0-14.268-12.49,5.878,5.878,0,0,1-1.348-.66,5.546,5.546,0,0,1-1.234-1.472C853.466,371.432,851.866,369.208,849.5,369.332Z" transform="translate(753.797 126.321)"/>
    <path id="Path_328" data-name="Path 328" class="cls-12" d="M784.635,425.373a35.534,35.534,0,0,0-2.133,7.354,17.867,17.867,0,0,0,1.615,10.195c2.661,5.477,7.9,9.192,11.6,14.031,3.435,4.5,5.481,9.884,8.456,14.7a3.742,3.742,0,0,1,.96-3.668,19.538,19.538,0,0,0,2.557-3.05,8.893,8.893,0,0,0,.788-2.886c.444-2.984.684-6.227-.838-8.832-1.145-1.961-3.124-3.264-4.69-4.908a14.632,14.632,0,0,1-3.7-12.665c.3-1.551.856-3.041,1.271-4.566a52.209,52.209,0,0,0,1.165-6.225l1.867-12.821c.5-3.41.917-7.184-1.015-10.038a4.2,4.2,0,0,0-1.515-1.433,5.443,5.443,0,0,0-1.612-.454c-2.031-.332-4.783-1.222-5.775.955-1.2,2.627-2.031,5.491-3.033,8.2Z" transform="translate(757.122 119.052)"/>
    <path id="Path_329" data-name="Path 329" class="cls-7" d="M854.17,442.57s-24.642,4.767-30.445,4.767H813.362s-3.731,6.632-3.731,13.265-24.457,99.485-24.457,99.485-23.213,76.272,2.487,76.687,41.867,1.658,42.281-7.047,2.9-121.041,2.9-121.041l3.869,57.763a143.4,143.4,0,0,1-3.295,42.645c-1.856,7.832-1.568,16.419,7.716,18.146,17.825,3.316,40.209.415,40.209-5.8s-11.607-144.254-11.607-144.254-5.8-20.312-9.12-21.97S854.17,442.57,854.17,442.57Z" transform="translate(758.73 108.869)"/>
    <path id="Path_330" data-name="Path 330" class="cls-7" d="M774.436,712.166l9.119-3.316,6.218-15.752,6.632-.829s-3.731,7.876-5.8,9.12S785.214,713,785.214,713s1.658,4.145-6.218,5.8-13.679,2.9-13.679,2.9-.829-1.658,2.9-5.8a98.871,98.871,0,0,0,8.087-11.124Z" transform="translate(761.177 49.644)"/>
    <path id="Path_331" data-name="Path 331" class="cls-7" d="M850.142,691.934l-1.658,12.436s4.56,6.632,5.8,6.632,7.876-5.8,7.876-5.8-.414-6.218,0-7.876,1.244-9.534,0-9.949-1.243,9.239-1.243,9.239L855.53,702.3l-5.2-3.115Z" transform="translate(741.432 50.808)"/>
    <ellipse id="Ellipse_43" data-name="Ellipse 43" class="cls-7" cx="16.166" cy="8.705" rx="16.166" ry="8.705" transform="translate(1576.858 458.171)"/>
    <path id="Path_332" data-name="Path 332" class="cls-5" d="M81.7,555.659c0,48.832,30.635,88.347,68.494,88.347" transform="translate(923.304 82.046)"/>
    <path id="Path_333" data-name="Path 333" class="cls-4" d="M171.487,643.7c0-49.381,34.187-89.339,76.435-89.339" transform="translate(902.007 82.354)"/>
    <path id="Path_334" data-name="Path 334" class="cls-4" d="M114.229,561.463c0,46.385,19.535,83.92,43.677,83.92" transform="translate(915.588 80.669)"/>
    <path id="Path_335" data-name="Path 335" class="cls-5" d="M171.487,635.982c0-63.1,39.514-114.156,88.347-114.156" transform="translate(902.007 90.071)"/>
    <path id="Path_336" data-name="Path 336" class="cls-13" d="M152.6,670.661s9.714-.3,12.641-2.384,14.942-4.574,15.668-1.23,14.6,16.627,3.631,16.716-25.481-1.708-28.4-3.488S152.6,670.661,152.6,670.661Z" transform="translate(906.487 56.014)"/>
    <path id="Path_337" data-name="Path 337" class="cls-14" d="M184.733,684.227c-10.967.089-25.481-1.708-28.4-3.488-2.225-1.355-3.112-6.219-3.408-8.463l-.324.013s.615,7.834,3.537,9.614,17.437,3.576,28.4,3.488c3.166-.026,4.259-1.152,4.2-2.82C188.3,683.579,187.089,684.208,184.733,684.227Z" transform="translate(906.487 54.386)"/>
  </g>
</svg>
