<svg xmlns="http://www.w3.org/2000/svg" viewBox="0 0 76.014 58.874"><defs><style>.a{fill:#f66f56;}.b{fill:#f2f2f2;}.c{fill:#2f2e41;}.d{fill:#3f3d56;}.e{opacity:0.1;}.f{fill:#fbbebe;}.g{fill:#a0616a;}.h{fill:#57b894;}</style></defs><g transform="translate(-256 -1339)"><rect class="a" width="6.493" height="4.249" transform="translate(303.369 1361.792)"/><rect class="a" width="6.493" height="4.249" transform="translate(293.252 1368.437)"/><path class="b" d="M225.661,93.183v-9.04h-4.907V78.271h-3.322v5.872h-4.907v9.04h-2.718V72.863H204.3V70.932h-7.323V69h-7.248v1.932h-6.87v1.932h-5.964V93.106h-3.171v-9.04H168.81V78.194h-3.322v5.872h-4.907v9.04H157.41v32.064h7.248V113.812h4.983v11.357H189.12V111.958h8.456v13.212h11.778v.077H216.6V113.889h4.983v11.357h7.248V93.183Zm-65.647,3.863h2.869v2.318h-2.869Zm.038,6.49h2.869v2.318h-2.869Zm2.907,8.808H160.09v-2.318h2.869Zm7.512-20.938h-6.644V90.015h6.644Zm0-2.009h-6.644V88.006h6.644Zm0-2.009h-6.644V86h6.644Zm.944,9.658h2.869v2.318h-2.869Zm.038,6.49h2.869v2.318h-2.869Zm2.907,8.808h-2.869v-2.318h2.869Zm11.74-3.863h-5.285v-2.4H186.1Zm0-6.876h-5.285v-2.4H186.1Zm0-6.876h-5.285v-2.4H186.1Zm0-6.876h-5.285v-2.4H186.1Zm0-6.876h-5.285v-2.4H186.1Zm9.89,27.505h-5.285v-2.4h5.285Zm0-6.876h-5.285v-2.4h5.285Zm0-6.876h-5.285v-2.4h5.285Zm0-6.876h-5.285v-2.4h5.285Zm0-6.876h-5.285v-2.4h5.285Zm9.89,27.505H200.6v-2.4h5.285Zm0-6.876H200.6v-2.4h5.285Zm0-6.876H200.6v-2.4h5.285Zm0-6.876H200.6v-2.4h5.285Zm0-6.876H200.6v-2.4h5.285Zm6.078,16.148h2.869v2.318h-2.869Zm.038,6.49h2.869v2.318H212Zm2.907,8.808h-2.869V110.1H214.9Zm7.512-20.938h-6.644V90.092h6.644Zm0-2.009h-6.644V88.084h6.644Zm0-2.009h-6.644V86.075h6.644Zm.944,9.658h2.869v2.318h-2.869Zm.038,6.49h2.869v2.318H223.4Zm2.907,8.808h-2.869V110.1H226.3Z" transform="translate(103.182 1270)"/><path class="a" d="M215.3,685.821c-.021.306-.054.648-.105,1.007l.923-1.048.005.018a2.793,2.793,0,0,0-.27-.721l.006.017Z" transform="translate(49.755 701.522)"/><path class="a" d="M216.642,679.084l.541-.7a1.437,1.437,0,0,0-.484-.528l-.03-.017C216.672,677.917,216.686,678.406,216.642,679.084Z" transform="translate(48.422 708.205)"/><path class="a" d="M209.272,718.35q-.036.111-.074.218l1.359-.816,0,.02q.043-.19.071-.38l-1.357.967Z" transform="translate(55.304 671.704)"/><path class="a" d="M212.678,696.682l1.224-1.033,0,.019a4.425,4.425,0,0,0-.1-1.016l-.941,1.068Q212.786,696.224,212.678,696.682Z" transform="translate(52.086 692.687)"/><path class="a" d="M192.667,688l-1.465-1.673.008-.019a3.638,3.638,0,0,0-.352.633l1.672,1.821C192.587,688.5,192.632,688.243,192.667,688Z" transform="translate(72.259 700.383)"/><path class="a" d="M190.649,694.767h0l.008-.019Z" transform="translate(72.452 692.598)"/><path class="a" d="M189.477,697.651l-.008.019.008-.019Z" transform="translate(73.543 689.92)"/><path class="a" d="M191.329,696.824,189.651,695q-.043.1-.082.205l1.715,1.816Q191.308,696.92,191.329,696.824Z" transform="translate(73.45 692.37)"/><path class="a" d="M211.7,708.784a5.286,5.286,0,0,0,.054-.694l-1.241,1.047q-.074.3-.162.586l1.346-.959Z" transform="translate(54.236 680.288)"/><path class="a" d="M186.4,711.014l1.358,1.813a6.292,6.292,0,0,0,.3-.681l-1.657-1.781a5.106,5.106,0,0,0-.005.669Z" transform="translate(76.393 678.188)"/><path class="a" d="M205.46,676.394l.012-.005a.939.939,0,0,0-.928.02l.889,1.236C205.481,676.911,205.46,676.4,205.46,676.394Z" transform="translate(59.606 709.644)"/><path class="a" d="M205.349,723.532a6.254,6.254,0,0,1-.267.614l1.366-.723v.02a2.477,2.477,0,0,0,.24-.567q.033-.117.059-.235l-1.376.825Z" transform="translate(59.109 666.861)"/><path class="a" d="M197.215,679.388l-.91-1.265.009-.018a2.055,2.055,0,0,0-.655.619l1.453,1.659C197.162,680.028,197.194,679.69,197.215,679.388Z" transform="translate(67.821 707.956)"/><path class="a" d="M188.293,700.837a8.533,8.533,0,0,0,.259-.863l-1.719-1.821q-.061.171-.113.355a3.072,3.072,0,0,0-.095.538l1.667,1.791Z" transform="translate(76.173 689.457)"/><path class="a" d="M223.428,755.779c-.207.222-.445.463-.709.707l1.364-.2-.007.017a2.8,2.8,0,0,0,.241-.732l-.006.017Z" transform="translate(42.803 636.479)"/><path class="a" d="M233.4,745.612l-.012-.033c-.05.066-.343.452-.8.945l.856-.19A1.482,1.482,0,0,0,233.4,745.612Z" transform="translate(33.684 645.694)"/><path class="a" d="M202.429,781.234q-.1.062-.193.12l1.555.259-.011.017q.151-.119.292-.247l-1.648-.141Z" transform="translate(61.74 612.795)"/><path class="a" d="M212.37,766.09l1.587,0-.009.017a4.336,4.336,0,0,0,.552-.851l-1.39.208Q212.738,765.808,212.37,766.09Z" transform="translate(52.371 627.535)"/><path class="a" d="M205.283,776.8l1.634.14-.01.017a5.115,5.115,0,0,0,.475-.5l-1.608,0Q205.526,776.637,205.283,776.8Z" transform="translate(58.923 617.209)"/><path class="a" d="M157.864,723.995l.036-.038a4.128,4.128,0,0,0,.97-.284l.044-1.205q.02-.046.038-.093l-.047,1.283a6.018,6.018,0,0,0,.652-.332l-.152-2.24.036-.019.152,2.238h0a8.191,8.191,0,0,0,.737-.5l-.165-2.2.035-.026.165,2.2.155-.12-.136-2.232.035-.03.136,2.234c.21-.167.4-.336.581-.5l-.086-2.244.018-.009c-.061.016-.123.036-.185.057a3.158,3.158,0,0,0,.316-.44l-1.379.73a4.766,4.766,0,0,1-.321.536l-.074.072,0,.027-.034.045,0-.036-.052.056a4.471,4.471,0,0,0,.458-.716l-1.348-1.8c.009.161.025.323.044.483a2.711,2.711,0,0,0-.452-.565l.011.014-.312.869c.072.3.144.633.2.991l.554-1.271.008.059-.552,1.267q.082.5.117.973l.663-1.066.011.046-.67,1.077q.022.313.023.608l.81-1.094.013.042-.819,1.106,0-.009q0,.117,0,.231l.914-1.053.014.041-.93,1.071c0,.024,0,.047,0,.071a6.317,6.317,0,0,1-.068.668l.088-.091-.049.1-.05.052c-.006.034-.012.067-.019.1l-.054.122c.017-.076.032-.152.045-.229l-1.826-1.285a11.585,11.585,0,0,0,1.431,2.509c.047-.089.089-.181.128-.274l.034,0-.014.034-.017,0,.015,0c-.027.065-.056.13-.086.192.04-.037.1-.095.173-.168a4.714,4.714,0,0,0,2.576,0l-1.517-.338a4.169,4.169,0,0,1-1.014.294Zm1.066-1.965.036-.038,0,.056-.036.038Z" transform="translate(104.341 670.837)"/><path class="a" d="M233.149,738.345l.013,0a.963.963,0,0,0-.727-.591l-.086,1.533C232.844,738.757,233.145,738.35,233.149,738.345Z" transform="translate(33.9 652.912)"/><path class="a" d="M193.584,783.2a5.989,5.989,0,0,1-.588.3l1.5.335-.012.016a2.374,2.374,0,0,0,.538-.28q.1-.069.192-.142l-1.574-.262Z" transform="translate(70.283 611.009)"/><path class="a" d="M221.548,739.638c.26-.241.5-.48.7-.7l.087-1.568.018-.008a1.991,1.991,0,0,0-.89.049Z" transform="translate(43.965 653.303)"/><path class="a" d="M172.959,713.937a1.408,1.408,0,0,0-.62-.349l-.034-.007c.028.078.189.539.352,1.2Z" transform="translate(89.411 675.221)"/><path class="a" d="M154.633,729.434l-1.9-1.127,0-.021a3.686,3.686,0,0,0-.143.713l2.14,1.2C154.707,729.932,154.672,729.673,154.633,729.434Z" transform="translate(107.635 661.651)"/><path class="a" d="M152.545,737.8h0c0-.007,0-.014,0-.021Z" transform="translate(107.679 652.89)"/><path class="a" d="M152.322,740.906v.021c0-.007,0-.014,0-.021Z" transform="translate(107.887 650.007)"/><path class="a" d="M154.5,739.255l-2.148-1.208q-.01.108-.016.221l2.179,1.185Q154.512,739.353,154.5,739.255Z" transform="translate(107.869 652.644)"/><path class="a" d="M155.531,755.1l-2.114-1.17a5.083,5.083,0,0,0,.2.638l0-.022,1.839,1.295A6.357,6.357,0,0,0,155.531,755.1Z" transform="translate(106.873 637.993)"/><path class="a" d="M161.372,713.368l.01-.009a.945.945,0,0,0-.877.312l1.219.894C161.549,713.852,161.375,713.375,161.372,713.368Z" transform="translate(100.32 675.44)"/><path class="a" d="M156.245,718.687,155,717.772l0-.02a2.1,2.1,0,0,0-.436.8l1.883,1.118C156.388,719.313,156.317,718.981,156.245,718.687Z" transform="translate(105.812 671.372)"/><path class="a" d="M154.465,743.536a8.586,8.586,0,0,0-.015-.9l-2.185-1.188q-.007.182,0,.373a3.073,3.073,0,0,0,.073.542l2.126,1.177Z" transform="translate(107.941 649.509)"/><path class="a" d="M1071.3,682.821c-.021.306-.054.648-.105,1.007l.923-1.048.005.018a2.794,2.794,0,0,0-.27-.721l.006.017Z" transform="translate(-741.614 704.291)"/><path class="a" d="M1072.64,676.085l.541-.7a1.436,1.436,0,0,0-.484-.528l-.03-.017C1072.67,674.918,1072.685,675.407,1072.64,676.085Z" transform="translate(-742.949 710.973)"/><path class="a" d="M1065.268,715.35q-.036.111-.074.218l1.359-.816,0,.02q.043-.19.071-.38l-1.357.967Z" transform="translate(-736.065 674.472)"/><path class="a" d="M1068.68,693.682l1.224-1.033,0,.019a4.425,4.425,0,0,0-.1-1.016l-.941,1.068Q1068.788,693.224,1068.68,693.682Z" transform="translate(-739.288 695.455)"/><path class="a" d="M1048.664,685l-1.465-1.673.008-.019a3.646,3.646,0,0,0-.351.633l1.672,1.821C1048.584,685.5,1048.629,685.243,1048.664,685Z" transform="translate(-719.111 703.151)"/><path class="a" d="M1046.65,691.767h0l.008-.019Z" transform="translate(-718.921 695.366)"/><path class="a" d="M1047.327,693.824,1045.649,692q-.042.1-.082.205l1.715,1.816Q1047.305,693.92,1047.327,693.824Z" transform="translate(-717.92 695.138)"/><path class="a" d="M1045.478,694.651l-.008.019Z" transform="translate(-717.83 692.688)"/><path class="a" d="M1067.706,705.784a5.286,5.286,0,0,0,.055-.694l-1.241,1.047q-.074.3-.162.586l1.346-.958Z" transform="translate(-737.141 683.056)"/><path class="a" d="M1042.4,708.014l1.358,1.813a6.287,6.287,0,0,0,.3-.681l-1.657-1.781a5.122,5.122,0,0,0-.005.669Z" transform="translate(-714.978 680.956)"/><path class="a" d="M1061.455,673.394l.012-.006a.939.939,0,0,0-.928.02l.889,1.236C1061.477,673.911,1061.456,673.4,1061.455,673.394Z" transform="translate(-731.762 712.413)"/><path class="a" d="M1061.344,720.532a6.219,6.219,0,0,1-.267.614l1.366-.723v.02a2.488,2.488,0,0,0,.24-.567q.032-.117.059-.235l-1.375.825C1061.36,720.488,1061.352,720.51,1061.344,720.532Z" transform="translate(-732.259 669.629)"/><path class="a" d="M1053.211,676.388l-.911-1.265.009-.018a2.057,2.057,0,0,0-.655.619l1.453,1.659C1053.157,677.028,1053.19,676.69,1053.211,676.388Z" transform="translate(-723.547 710.724)"/><path class="a" d="M1044.3,697.837a8.568,8.568,0,0,0,.259-.863l-1.719-1.821q-.061.171-.113.355a3.069,3.069,0,0,0-.095.538l1.667,1.791Z" transform="translate(-715.203 692.225)"/><path class="a" d="M1079.424,752.779c-.207.222-.445.463-.709.707l1.364-.2-.007.017a2.8,2.8,0,0,0,.241-.732l-.006.017Z" transform="translate(-748.566 639.247)"/><path class="a" d="M1089.392,742.612l-.012-.033c-.05.066-.343.452-.8.945l.856-.19A1.482,1.482,0,0,0,1089.392,742.612Z" transform="translate(-757.685 648.462)"/><path class="a" d="M1058.429,778.234q-.1.062-.193.12l1.555.259-.011.017q.152-.119.292-.247l-1.648-.141Z" transform="translate(-729.633 615.563)"/><path class="a" d="M1068.37,763.09l1.587,0-.009.017a4.335,4.335,0,0,0,.552-.851l-1.39.208Q1068.738,762.808,1068.37,763.09Z" transform="translate(-739.001 630.303)"/><path class="a" d="M1061.28,773.8l1.634.14-.01.017a5.111,5.111,0,0,0,.475-.5l-1.608,0Q1061.524,773.637,1061.28,773.8Z" transform="translate(-732.447 619.977)"/><path class="a" d="M1013.861,720.995l.036-.038a4.127,4.127,0,0,0,.97-.284l.044-1.205q.02-.046.038-.093l-.047,1.283a6.014,6.014,0,0,0,.652-.332l-.152-2.24.036-.019.152,2.238h0a8.189,8.189,0,0,0,.737-.5l-.165-2.2.035-.026.165,2.2.155-.12-.136-2.232.035-.03.136,2.234c.21-.167.4-.336.581-.5l-.086-2.244.018-.009c-.061.016-.123.036-.185.057a3.162,3.162,0,0,0,.316-.44l-1.379.73a4.768,4.768,0,0,1-.321.536l-.074.072,0,.027-.034.045,0-.036-.052.056a4.465,4.465,0,0,0,.458-.716l-1.348-1.8c.009.161.025.323.044.484a2.711,2.711,0,0,0-.452-.565l.011.014-.311.869c.072.3.144.633.2.991l.554-1.271c0,.02.005.04.008.059l-.552,1.267q.082.5.117.973l.663-1.066.011.046-.67,1.077q.022.313.023.608l.81-1.094.013.042-.819,1.106,0-.009q0,.117,0,.231l.914-1.053.014.041-.93,1.071c0,.024,0,.047,0,.071a6.32,6.32,0,0,1-.068.668l.088-.091-.049.1-.05.052c-.006.034-.012.067-.019.1l-.054.122c.017-.076.032-.152.045-.229l-1.826-1.285a11.59,11.59,0,0,0,1.431,2.509c.047-.089.089-.181.128-.274l.034,0-.014.034-.017,0,.015,0c-.027.065-.056.13-.086.192.04-.037.1-.095.173-.168a4.714,4.714,0,0,0,2.576,0l-1.517-.338A4.17,4.17,0,0,1,1013.861,720.995Zm1.066-1.965.036-.038,0,.056-.036.038Z" transform="translate(-687.029 673.605)"/><path class="a" d="M1089.147,735.345l.013,0a.963.963,0,0,0-.727-.591l-.085,1.533A12.25,12.25,0,0,0,1089.147,735.345Z" transform="translate(-757.471 655.68)"/><path class="a" d="M1049.579,780.2a5.961,5.961,0,0,1-.588.3l1.5.335-.012.016a2.366,2.366,0,0,0,.538-.28q.1-.069.192-.142l-1.574-.262Z" transform="translate(-721.085 613.777)"/><path class="a" d="M1077.549,736.638c.26-.241.5-.48.7-.7l.087-1.568.018-.008a1.991,1.991,0,0,0-.89.049Z" transform="translate(-747.408 656.071)"/><path class="a" d="M1028.958,710.937a1.407,1.407,0,0,0-.62-.349l-.034-.007c.028.078.189.539.352,1.2Z" transform="translate(-701.96 677.989)"/><path class="a" d="M1010.634,726.434l-1.9-1.127,0-.02a3.683,3.683,0,0,0-.143.713l2.14,1.2C1010.708,726.932,1010.673,726.673,1010.634,726.434Z" transform="translate(-683.738 664.419)"/><path class="a" d="M1008.323,737.906v.021c0-.007,0-.014,0-.021Z" transform="translate(-683.487 652.775)"/><path class="a" d="M1008.54,734.8h0c0-.007,0-.014,0-.021Z" transform="translate(-683.688 655.658)"/><path class="a" d="M1010.5,736.255l-2.148-1.208q-.01.108-.016.221l2.179,1.185Q1010.509,736.353,1010.5,736.255Z" transform="translate(-683.5 655.413)"/><path class="a" d="M1011.534,752.1l-2.114-1.17a5.089,5.089,0,0,0,.2.638l0-.022,1.839,1.295A6.373,6.373,0,0,0,1011.534,752.1Z" transform="translate(-684.502 640.761)"/><path class="a" d="M1017.376,710.368l.01-.009a.945.945,0,0,0-.877.312l1.219.894C1017.552,710.852,1017.379,710.375,1017.376,710.368Z" transform="translate(-691.056 678.208)"/><path class="a" d="M1012.246,715.688l-1.247-.915,0-.02a2.1,2.1,0,0,0-.436.8l1.883,1.118C1012.389,716.313,1012.318,715.981,1012.246,715.688Z" transform="translate(-685.561 674.139)"/><path class="a" d="M1010.464,740.536a8.6,8.6,0,0,0-.015-.9l-2.185-1.188q-.007.182,0,.373a3.071,3.071,0,0,0,.073.542l2.126,1.176Z" transform="translate(-683.43 652.278)"/><path class="c" d="M60.812,727h71.422v1.046a1.64,1.64,0,0,1-1.621,1.658H62.432a1.64,1.64,0,0,1-1.621-1.658Z" transform="translate(199.78 668.169)"/><rect class="d" width="71.422" height="1.468" transform="translate(260.591 1394.32)"/><path class="b" d="M887.9,112.929l.82.532-.5-.927a.8.8,0,0,1,.5-.181h.013a.931.931,0,0,0,.17-.013l.278.18-.119-.222a.993.993,0,0,0,.486-.378l.5.323-.314-.585a1.445,1.445,0,0,1,1.115-.577,1.524,1.524,0,0,1,1.276.806.949.949,0,0,0,.843.465H893c.571,0,1.034.663,1.034,1.48s-.463,1.48-1.034,1.48a.762.762,0,0,1-.36-.092,1.462,1.462,0,0,0-1.252-.025,1.278,1.278,0,0,1-1.064,0,1.463,1.463,0,0,0-1.241.025.761.761,0,0,1-.356.09c-.571,0-1.034-.663-1.034-1.48A1.914,1.914,0,0,1,887.9,112.929Z" transform="translate(-571.96 1231.168)"/><path class="b" d="M336.108,177.221l.522.339-.317-.589a.509.509,0,0,1,.316-.115h.008a.591.591,0,0,0,.108-.008l.177.115-.076-.141a.631.631,0,0,0,.309-.24l.316.205-.2-.372a.919.919,0,0,1,.709-.367.969.969,0,0,1,.812.512.6.6,0,0,0,.536.3h.018c.363,0,.658.422.658.942s-.295.942-.658.942a.485.485,0,0,1-.229-.059.93.93,0,0,0-.8-.016.813.813,0,0,1-.677,0,.93.93,0,0,0-.789.016.484.484,0,0,1-.227.057c-.363,0-.658-.422-.658-.942A1.218,1.218,0,0,1,336.108,177.221Z" transform="translate(-61.898 1171.224)"/><path class="b" d="M150.108,200.715l.522.339-.317-.589a.509.509,0,0,1,.316-.115h.008a.591.591,0,0,0,.108-.008l.177.115-.076-.141a.631.631,0,0,0,.309-.24l.316.205-.2-.372a.919.919,0,0,1,.709-.367.969.969,0,0,1,.812.512.6.6,0,0,0,.536.3h.018c.363,0,.658.422.658.942s-.295.942-.658.942a.485.485,0,0,1-.229-.059.93.93,0,0,0-.8-.016.813.813,0,0,1-.677,0,.93.93,0,0,0-.789.016.484.484,0,0,1-.227.057c-.363,0-.658-.422-.658-.942A1.218,1.218,0,0,1,150.108,200.715Z" transform="translate(110.06 1149.545)"/><path class="a" d="M400.2,665.864l-.091.093s.03,1.026.061,1.244a2.04,2.04,0,0,1,.061.87,1.086,1.086,0,0,0-.091.529c.03.031-.03.155-.03.155l.243-.155.395-.933-.182-.995Z" transform="translate(-121.192 719.251)"/><path class="e" d="M400.2,665.864l-.091.093s.03,1.026.061,1.244a2.04,2.04,0,0,1,.061.87,1.086,1.086,0,0,0-.091.529c.03.031-.03.155-.03.155l.243-.155.395-.933-.182-.995Z" transform="translate(-121.192 719.251)"/><path class="a" d="M408.572,782.833s0-.342-.061-.4-.152-.28-.273-.28a1.683,1.683,0,0,0-.547.156.579.579,0,0,1-.061.28c-.061.093-.395.466-.061.528a.834.834,0,0,0,.638-.156c.03-.031.152-.062.182-.031S408.572,782.833,408.572,782.833Z" transform="translate(-127.956 611.95)"/><path class="a" d="M433.906,783.387l.182.342s.061.311.152.342h.091s.091.342.3.311.456-.155.456-.218,0-.249-.091-.311a4.363,4.363,0,0,1-.365-.342l-.152-.156Z" transform="translate(-152.439 610.837)"/><path class="c" d="M399.412,634.188a.419.419,0,0,0-.219.314c-.017.222.2.431.129.642-.039.12-.161.2-.2.319a.448.448,0,0,0,.039.284,2.192,2.192,0,0,0,.174.345,1.758,1.758,0,0,1,.329.642.279.279,0,0,1-.059.242.561.561,0,0,1,.207-.1,2.622,2.622,0,0,0,.851-.485.543.543,0,0,0,.2-.268c.046-.191-.1-.382-.082-.578a1.48,1.48,0,0,1,.12-.356.937.937,0,0,0-.078-.716.84.84,0,0,0-.5-.442.963.963,0,0,0-.5.015A1.814,1.814,0,0,0,399.412,634.188Z" transform="translate(-120.276 748.648)"/><path class="a" d="M405.291,653.242a.786.786,0,0,1,.687-.424c.486,0,.395-.031.395-.031l-.152.622-.3.311Z" transform="translate(-125.984 731.318)"/><path class="f" d="M406.71,649.282s.273.466.091.653a.306.306,0,0,0-.061.4c.03.031.881.093.881.093l.03-.435.091-.373s-.486-.093-.425-.311S406.71,649.282,406.71,649.282Z" transform="translate(-127.278 734.62)"/><path class="e" d="M406.71,649.282s.273.466.091.653a.306.306,0,0,0-.061.4c.03.031.881.093.881.093l.03-.435.091-.373s-.486-.093-.425-.311S406.71,649.282,406.71,649.282Z" transform="translate(-127.278 734.62)"/><path class="f" d="M432.137,705.823a2.175,2.175,0,0,1-.122.311c-.03.031-.122-.218-.122-.218l.091-.218Z" transform="translate(-150.579 682.494)"/><path class="f" d="M313.06,620l.121.715h-1.823l.091-.715Z" transform="translate(-31.851 766.902)"/><ellipse class="f" cx="0.577" cy="0.591" rx="0.577" ry="0.591" transform="translate(279.189 1382.97)"/><path class="a" d="M401,652.527s-.334.031-.334-.031-.03-.249-.091-.218-.456.062-.425.155.091.28.03.28a.2.2,0,0,0-.128.091.206.206,0,0,0-.024.158c.03.155.365,1.088.365,1.088a.953.953,0,0,0,.122.4.284.284,0,0,1,0,.342c-.061.062.152.124.243.249s.79.031.82,0,.76-.031.82-.093-.03-.249-.03-.249a1.481,1.481,0,0,1,0-.373,8.227,8.227,0,0,0-.213-1.71c-.091-.093.273-.373.273-.373s-.061-.249-.456-.28c0,0-.122-.187-.243-.187a1.274,1.274,0,0,0-.385.145s-.07.415-.161.446A.5.5,0,0,0,401,652.527Z" transform="translate(-121.115 732.246)"/><path class="a" d="M425.73,656.609l.213.093a12.694,12.694,0,0,1,.547,2.3,9.369,9.369,0,0,1-.3,1.648c-.091,0-.273-.187-.273-.187v-.311c0-.062-.091-.249-.03-.249s.152-.062.091-.124a.2.2,0,0,1-.061-.249c.061-.093.091-.124.061-.218s-.091-.187-.03-.249-.152-.373-.152-.373l-.334-1.368.061-.56Z" transform="translate(-144.628 727.791)"/><path class="c" d="M400.887,691.972s-1.154-.093-1.306-.093a1.953,1.953,0,0,1-.493-.146,2.692,2.692,0,0,0-.571,2.354c.3,1.461.365,3.264.547,3.793a10.016,10.016,0,0,1,.3,1.15s.3-.56.881.062a1.663,1.663,0,0,0-.03-.653,8.358,8.358,0,0,1-.213-1.181s-.213-1.585-.213-1.772-.121-1.772-.091-1.8.182,1.212.213,1.43.121,1.9.213,2.083.516,1.679.759,1.772a1.964,1.964,0,0,0,1.033-.093c-.03-.062-.243-.4-.3-.5l-.243-.373-.577-2.021.273-2.456S401.221,691.941,400.887,691.972Z" transform="translate(-119.663 695.381)"/><path class="c" d="M404.472,637.685h-.74a.133.133,0,0,1-.13-.114l-.074-.477h1.154l-.1.5A.11.11,0,0,1,404.472,637.685Z" transform="translate(-124.354 745.798)"/><path class="c" d="M824.715,573.834h1.168v1.707h0a1.182,1.182,0,0,1-1.168-1.2v-.512Z" transform="translate(-506.449 809.502)"/><path class="g" d="M814.67,703.292l-.083.427h.584l.028-.427Z" transform="translate(-497.086 690.046)"/><path class="a" d="M898.306,776.032s-.111-.085-.167-.028-.25,1.167-.278,1.2-.862.455-.667.484a4.356,4.356,0,0,0,1.057,0,2.992,2.992,0,0,0,.417-.6v.484h.056a1.633,1.633,0,0,1,.195-.655c.139-.142-.111-.626-.111-.626s.056-.313.028-.313S898.306,776.032,898.306,776.032Z" transform="translate(-580.722 617.647)"/><path class="g" d="M837.5,699.425l-.083.427h.584l.028-.427Z" transform="translate(-518.196 693.614)"/><path class="c" d="M926.281,714.085s.278.854.334.939.25,1.679.25,1.679-.195.313.056.342.139-.057.306,0a.308.308,0,0,0,.278-.029s.083-.171.028-.228a13.663,13.663,0,0,1,.056-1.537l-.167-.512-.139-1.622s.167-.427.083-.541-.361.085-.361.085Z" transform="translate(-607.64 676.18)"/><path class="c" d="M910.118,703.788a6.779,6.779,0,0,1-.139.968c-.056.057-.667,1.65-.667,1.65s-.167.2-.111.939.195,1.48.195,1.48-.111.427.083.427.278-.114.362-.028.139,0,.167-.057a1.544,1.544,0,0,0,.139-.313c0-.057.111-1.508.111-1.508s.918-2.077,1-2.191a2.37,2.37,0,0,0,.528-1.167Z" transform="translate(-591.838 684.257)"/><ellipse class="g" cx="0.584" cy="0.598" rx="0.584" ry="0.598" transform="translate(318.391 1383.008)"/><path class="g" d="M929.228,648.885a6.442,6.442,0,0,1,.25.655c.028.142.556-.285.556-.285s-.278-.484-.195-.711Z" transform="translate(-610.365 735.233)"/><path class="d" d="M921.7,655.753s-.417-.313-.723.341-.389.626-.389.626-.361.114-.25.911-.362,1.85-.167,1.906,2,.37,2,.142a6.2,6.2,0,0,1-.028-1.65C922.287,657.488,921.953,655.61,921.7,655.753Z" transform="translate(-601.95 728.65)"/><path class="d" d="M926.456,658.487a1.874,1.874,0,0,0-.306.911c.028.4.028.655.028.655a23.272,23.272,0,0,0-.445,2.732c.111,0,.445.142.473.057s.723-1.821.723-1.821a7.893,7.893,0,0,0-.028-2.134C926.706,658.487,926.456,658.487,926.456,658.487Z" transform="translate(-607.12 726.058)"/><path class="g" d="M925.472,713s-.278.968.111,1,.167-.939.167-.939Z" transform="translate(-606.803 675.76)"/><path class="a" d="M924.21,770.486s-.1-.075-.146-.025-.219,1.022-.244,1.047-.755.4-.584.424a3.818,3.818,0,0,0,.925,0,2.623,2.623,0,0,0,.365-.523v.424h.049a1.43,1.43,0,0,1,.17-.573c.122-.125-.1-.548-.1-.548s.049-.274.024-.274S924.21,770.486,924.21,770.486Z" transform="translate(-604.801 622.758)"/><path class="c" d="M918,631.75a.162.162,0,0,1,.07-.051.143.143,0,0,1,.077.007.783.783,0,0,1,.428.318.244.244,0,0,0,.086.1.486.486,0,0,1,.07.027c.065.044.026.146-.011.216a1.11,1.11,0,0,0-.128.588.132.132,0,0,0,.145.147,2.783,2.783,0,0,0,.407.022.472.472,0,0,0,.367-.126.4.4,0,0,0,.018-.415c-.06-.133-.158-.244-.228-.372a2.205,2.205,0,0,1-.156-.423,1.792,1.792,0,0,0-.23-.525.686.686,0,0,0-.462-.3,1.011,1.011,0,0,0-.689.287,1.036,1.036,0,0,0-.489.685,1.906,1.906,0,0,0,.2.674,2.488,2.488,0,0,1,.017,1.086c.206-.126.439-.3.425-.547a1.178,1.178,0,0,0-.207-.444C917.5,632.3,917.735,632.026,918,631.75Z" transform="translate(-599.313 751.464)"/><path class="d" d="M1007.84,646.24a2.083,2.083,0,0,0,.265-1.038c0-.938-.567-1.7-1.267-1.7s-1.267.76-1.267,1.7a2.085,2.085,0,0,0,.265,1.038,2.167,2.167,0,0,0,0,2.075,2.167,2.167,0,0,0,0,2.075,2.167,2.167,0,0,0,0,2.075,2.086,2.086,0,0,0-.265,1.038c0,.938.568,1.7,1.267,1.7s1.267-.76,1.267-1.7a2.083,2.083,0,0,0-.265-1.038,2.167,2.167,0,0,0,0-2.075,2.166,2.166,0,0,0,0-2.075A2.167,2.167,0,0,0,1007.84,646.24Z" transform="translate(-680.943 739.883)"/><ellipse class="d" cx="1.267" cy="1.698" rx="1.267" ry="1.698" transform="translate(324.628 1381.312)"/><ellipse class="d" cx="1.267" cy="1.698" rx="1.267" ry="1.698" transform="translate(324.628 1379.237)"/><path class="b" d="M952.438,307.9a6.239,6.239,0,0,0,.472-.711l-3.33-.56,3.6.027a6.356,6.356,0,0,0,.116-4.922l-4.832,2.565,4.456-3.352a6.009,6.009,0,0,0-10.778.533,6.331,6.331,0,0,0,.751,6.419,6.242,6.242,0,0,0-.692,1.133l4.323,2.3-4.609-1.583a6.332,6.332,0,0,0,.979,5.834,6.317,6.317,0,0,0,.652,8.4,5.969,5.969,0,0,0,8.238,0,6.317,6.317,0,0,0,.652-8.4,6.328,6.328,0,0,0,0-7.682Z" transform="translate(-621.798 1058.836)"/><path class="b" d="M941.593,476.588a6.278,6.278,0,0,0,1.3,3.841,6.317,6.317,0,0,0,.652,8.4,5.969,5.969,0,0,0,8.238,0,6.317,6.317,0,0,0,.652-8.4C953.249,479.372,941.593,475.89,941.593,476.588Z" transform="translate(-621.796 893.988)"/><path class="h" d="M952.438,307.9a6.239,6.239,0,0,0,.472-.711l-3.33-.56,3.6.027a6.356,6.356,0,0,0,.116-4.922l-4.832,2.565,4.456-3.352a6.009,6.009,0,0,0-10.778.533,6.331,6.331,0,0,0,.751,6.419,6.242,6.242,0,0,0-.692,1.133l4.323,2.3-4.609-1.583a6.332,6.332,0,0,0,.979,5.834,6.317,6.317,0,0,0,.652,8.4,5.969,5.969,0,0,0,8.238,0,6.317,6.317,0,0,0,.652-8.4,6.328,6.328,0,0,0,0-7.682Z" transform="translate(-621.798 1058.836)"/><path class="e" d="M941.593,476.588a6.278,6.278,0,0,0,1.3,3.841,6.317,6.317,0,0,0,.652,8.4,5.969,5.969,0,0,0,8.238,0,6.317,6.317,0,0,0,.652-8.4C953.249,479.372,941.593,475.89,941.593,476.588Z" transform="translate(-621.796 893.988)"/><path class="d" d="M162.842,646.24a2.084,2.084,0,0,0,.265-1.038c0-.938-.567-1.7-1.267-1.7s-1.267.76-1.267,1.7a2.084,2.084,0,0,0,.265,1.038,2.167,2.167,0,0,0,0,2.075,2.167,2.167,0,0,0,0,2.075,2.167,2.167,0,0,0,0,2.075,2.084,2.084,0,0,0-.265,1.038c0,.938.567,1.7,1.267,1.7s1.267-.76,1.267-1.7a2.084,2.084,0,0,0-.265-1.038,2.167,2.167,0,0,0,0-2.075,2.167,2.167,0,0,0,0-2.075A2.167,2.167,0,0,0,162.842,646.24Z" transform="translate(100.258 739.883)"/><ellipse class="d" cx="1.267" cy="1.698" rx="1.267" ry="1.698" transform="translate(260.831 1381.312)"/><ellipse class="d" cx="1.267" cy="1.698" rx="1.267" ry="1.698" transform="translate(260.831 1379.237)"/><path class="b" d="M107.435,307.9a6.236,6.236,0,0,0,.472-.711l-3.33-.56,3.6.027a6.357,6.357,0,0,0,.116-4.922l-4.832,2.565,4.456-3.352a6.009,6.009,0,0,0-10.778.533,6.331,6.331,0,0,0,.751,6.419,6.24,6.24,0,0,0-.692,1.133l4.323,2.3-4.609-1.583a6.332,6.332,0,0,0,.979,5.834,6.317,6.317,0,0,0,.652,8.4,5.969,5.969,0,0,0,8.238,0,6.317,6.317,0,0,0,.652-8.4,6.328,6.328,0,0,0,0-7.682Z" transform="translate(159.407 1058.836)"/><path class="b" d="M96.593,476.588a6.278,6.278,0,0,0,1.3,3.841,6.317,6.317,0,0,0,.652,8.4,5.969,5.969,0,0,0,8.238,0,6.317,6.317,0,0,0,.652-8.4C108.249,479.372,96.593,475.89,96.593,476.588Z" transform="translate(159.407 893.988)"/><path class="h" d="M107.435,307.9a6.236,6.236,0,0,0,.472-.711l-3.33-.56,3.6.027a6.357,6.357,0,0,0,.116-4.922l-4.832,2.565,4.456-3.352a6.009,6.009,0,0,0-10.778.533,6.331,6.331,0,0,0,.751,6.419,6.24,6.24,0,0,0-.692,1.133l4.323,2.3-4.609-1.583a6.332,6.332,0,0,0,.979,5.834,6.317,6.317,0,0,0,.652,8.4,5.969,5.969,0,0,0,8.238,0,6.317,6.317,0,0,0,.652-8.4,6.328,6.328,0,0,0,0-7.682Z" transform="translate(159.407 1058.836)"/><path class="e" d="M96.593,476.588a6.278,6.278,0,0,0,1.3,3.841,6.317,6.317,0,0,0,.652,8.4,5.969,5.969,0,0,0,8.238,0,6.317,6.317,0,0,0,.652-8.4C108.249,479.372,96.593,475.89,96.593,476.588Z" transform="translate(159.407 893.988)"/><path class="h" d="M518.289,354.556l-3.012,3.082-1.427-1.46-.556.569,1.981,2.027,3.57-3.649Z" transform="translate(-218.54 1011.838)"/><path class="h" d="M645.289,263.556l-3.012,3.082-1.427-1.46-.556.569,1.981,2.027,3.57-3.649Z" transform="translate(-335.952 1095.807)"/></g></svg>